<?xml version="1.0" encoding="utf-8"?>
<!-- Generator: Adobe Illustrator 19.0.0, SVG Export Plug-In . SVG Version: 6.00 Build 0)  -->
<svg version="1.0" id="Capa_1" xmlns="http://www.w3.org/2000/svg" xmlns:xlink="http://www.w3.org/1999/xlink" x="0px" y="0px"
	 viewBox="0 0 500 500" style="enable-background:new 0 0 500 500;" xml:space="preserve">
<style type="text/css">
	.st0{fill:#30B14B;}
	.st1{fill:#65BB47;}
	.st2{fill:#83C347;}
</style>
<g id="XMLID_41_">
	<path id="XMLID_90_" class="st0" d="M326.7,77.5c2.5-9.8,12.6-15.7,22.4-13.2c9.8,2.5,15.7,12.5,13.2,22.4
		c-2.5,9.8-12.6,15.8-22.4,13.2C330.1,97.4,324.2,87.4,326.7,77.5z"/>
	<path id="XMLID_89_" class="st0" d="M353.6,16.4c1.1-4.1,5.2-6.5,9.3-5.5c4.1,1.1,6.5,5.2,5.5,9.3c-1.1,4.1-5.2,6.5-9.3,5.5
		C355,24.6,352.6,20.4,353.6,16.4z"/>
	<path id="XMLID_88_" class="st0" d="M288.8,10.9c-0.1-4.2,3.2-7.7,7.4-7.8c4.2-0.1,7.7,3.2,7.8,7.4c0.1,4.2-3.2,7.7-7.4,7.7
		C292.4,18.5,288.9,15.1,288.8,10.9z"/>
	<path id="XMLID_87_" class="st0" d="M224.9,23.2c-1.2-4,1.1-8.3,5.1-9.5c4-1.2,8.3,1.1,9.5,5.1c1.2,4-1.1,8.2-5.1,9.5
		C230.4,29.5,226.2,27.2,224.9,23.2z"/>
	<path id="XMLID_86_" class="st0" d="M166.7,52.2c-2.2-3.5-1.2-8.2,2.3-10.5c3.5-2.3,8.2-1.2,10.5,2.3c2.3,3.5,1.2,8.2-2.3,10.5
		C173.7,56.8,169,55.7,166.7,52.2z"/>
	<path id="XMLID_85_" class="st0" d="M118.5,95.9c-3.1-2.8-3.4-7.6-0.6-10.7c2.8-3.1,7.6-3.4,10.7-0.6c3.1,2.8,3.4,7.6,0.6,10.7
		C126.4,98.4,121.6,98.7,118.5,95.9z"/>
	<path id="XMLID_84_" class="st1" d="M83.9,150.9c-3.8-1.9-5.3-6.4-3.5-10.2c1.9-3.8,6.4-5.3,10.2-3.5c3.8,1.9,5.3,6.4,3.5,10.2
		C92.2,151.2,87.6,152.7,83.9,150.9z"/>
	<path id="XMLID_83_" class="st1" d="M65.3,213.3c-4.1-0.8-6.8-4.7-6.1-8.9c0.8-4.1,4.7-6.8,8.9-6.1c4.1,0.8,6.8,4.7,6.1,8.9
		C73.4,211.3,69.5,214,65.3,213.3z"/>
	<path id="XMLID_82_" class="st1" d="M64.3,278.3c-4.2,0.4-7.9-2.7-8.2-6.9c-0.4-4.2,2.7-7.9,6.9-8.2c4.2-0.4,7.9,2.7,8.2,6.9
		C71.6,274.2,68.5,277.9,64.3,278.3z"/>
	<path id="XMLID_81_" class="st1" d="M80.9,341.2c-3.9,1.5-8.3-0.5-9.8-4.4c-1.5-3.9,0.5-8.3,4.4-9.8c3.9-1.5,8.3,0.5,9.8,4.4
		C86.8,335.3,84.8,339.7,80.9,341.2z"/>
	<path id="XMLID_80_" class="st2" d="M113.8,397.3c-3.4,2.5-8.1,1.8-10.6-1.6c-2.5-3.4-1.8-8.1,1.6-10.6c3.4-2.5,8.1-1.8,10.6,1.6
		C117.9,390,117.2,394.8,113.8,397.3z"/>
	<path id="XMLID_79_" class="st2" d="M160.7,442.4c-2.6,3.3-7.4,3.9-10.7,1.3c-3.3-2.6-3.9-7.4-1.3-10.7c2.6-3.3,7.4-3.9,10.7-1.3
		C162.7,434.3,163.2,439.1,160.7,442.4z"/>
	<path id="XMLID_78_" class="st2" d="M217.9,473.2c-1.6,3.9-6,5.7-9.9,4.1c-3.9-1.6-5.7-6-4.1-9.9c1.6-3.9,6-5.7,9.9-4.2
		C217.7,464.9,219.5,469.3,217.9,473.2z"/>
	<path id="XMLID_77_" class="st2" d="M281.4,487.5c-0.5,4.2-4.3,7.2-8.4,6.7c-4.2-0.5-7.2-4.3-6.7-8.4c0.5-4.2,4.3-7.2,8.4-6.7
		C278.9,479.5,281.9,483.3,281.4,487.5z"/>
	<path id="XMLID_76_" class="st2" d="M346.4,484c0.6,4.1-2.2,8-6.3,8.7c-4.1,0.7-8-2.2-8.7-6.3c-0.7-4.1,2.2-8,6.3-8.7
		C341.8,477.1,345.7,479.9,346.4,484z"/>
	<path id="XMLID_75_" class="st2" d="M408,463.2c1.7,3.8,0.1,8.3-3.7,10.1c-3.8,1.8-8.3,0.1-10.1-3.7c-1.8-3.8-0.1-8.3,3.7-10.1
		C401.7,457.7,406.3,459.4,408,463.2z"/>
	<path id="XMLID_74_" class="st0" d="M414.6,39.1c2.1-3.6,6.8-4.9,10.4-2.8c3.6,2.1,4.9,6.7,2.8,10.4c-2.1,3.6-6.7,4.9-10.4,2.8
		C413.7,47.4,412.5,42.8,414.6,39.1z"/>
	<path id="XMLID_73_" class="st0" d="M315.6,35.8c0.7-5.8,5.9-10,11.7-9.3c5.8,0.7,10,5.9,9.3,11.7c-0.7,5.8-5.9,10-11.7,9.3
		C319.1,46.9,314.9,41.6,315.6,35.8z"/>
	<path id="XMLID_72_" class="st0" d="M257.4,39.9c-0.9-5.8,3-11.2,8.8-12.1c5.8-0.9,11.2,3,12.1,8.8c0.9,5.8-3,11.2-8.8,12.1
		C263.8,49.6,258.4,45.7,257.4,39.9z"/>
	<path id="XMLID_71_" class="st0" d="M202.5,59.5c-2.4-5.3-0.1-11.6,5.2-14c5.3-2.4,11.6-0.1,14,5.2c2.4,5.3,0.1,11.6-5.2,14
		C211.3,67.2,205,64.9,202.5,59.5z"/>
	<path id="XMLID_70_" class="st0" d="M155,93.3c-3.8-4.5-3.2-11.1,1.2-14.9c4.5-3.8,11.1-3.2,14.9,1.2c3.8,4.5,3.2,11.1-1.2,14.9
		C165.4,98.3,158.8,97.7,155,93.3z"/>
	<path id="XMLID_69_" class="st1" d="M118.3,138.6c-4.8-3.3-6.1-9.8-2.8-14.7c3.3-4.8,9.8-6.1,14.7-2.8c4.8,3.3,6.1,9.8,2.8,14.7
		C129.7,140.5,123.1,141.8,118.3,138.6z"/>
	<path id="XMLID_68_" class="st1" d="M95.2,192.1c-5.5-1.8-8.6-7.8-6.7-13.4c1.8-5.5,7.8-8.5,13.4-6.7c5.5,1.8,8.5,7.8,6.7,13.4
		C106.7,190.9,100.7,193.9,95.2,192.1z"/>
	<path id="XMLID_67_" class="st1" d="M87.3,249.8c-5.8-0.3-10.3-5.2-10.1-11.1c0.3-5.8,5.2-10.3,11.1-10.1
		c5.8,0.3,10.3,5.2,10.1,11.1C98.1,245.6,93.2,250.1,87.3,249.8z"/>
	<path id="XMLID_66_" class="st1" d="M95.4,307.6c-5.7,1.3-11.4-2.2-12.7-7.9c-1.3-5.7,2.3-11.4,7.9-12.7c5.7-1.3,11.4,2.3,12.7,7.9
		C104.6,300.6,101.1,306.3,95.4,307.6z"/>
	<path id="XMLID_65_" class="st1" d="M118.7,361c-5.1,2.8-11.6,0.9-14.4-4.2c-2.8-5.1-0.9-11.6,4.2-14.4c5.1-2.8,11.6-0.9,14.3,4.2
		C125.7,351.8,123.8,358.2,118.7,361z"/>
	<path id="XMLID_64_" class="st2" d="M155.6,406.2c-4.2,4.1-10.9,4-15-0.2c-4.1-4.2-4-10.9,0.2-15c4.2-4.1,10.9-4,15,0.2
		C159.8,395.4,159.7,402.1,155.6,406.2z"/>
	<path id="XMLID_63_" class="st2" d="M203.2,439.7c-2.9,5.1-9.4,6.8-14.5,3.8c-5-2.9-6.8-9.4-3.8-14.5c2.9-5.1,9.4-6.8,14.5-3.8
		C204.5,428.2,206.2,434.7,203.2,439.7z"/>
	<path id="XMLID_62_" class="st2" d="M258.2,459.2c-1.5,5.6-7.2,9.1-12.9,7.6c-5.6-1.5-9.1-7.2-7.6-12.9c1.5-5.7,7.2-9.1,12.9-7.6
		C256.3,447.7,259.7,453.5,258.2,459.2z"/>
	<path id="XMLID_61_" class="st2" d="M316.4,463c0.1,5.8-4.5,10.7-10.4,10.8c-5.8,0.1-10.7-4.5-10.8-10.4
		c-0.1-5.8,4.5-10.7,10.4-10.8C311.4,452.6,316.3,457.2,316.4,463z"/>
	<path id="XMLID_60_" class="st2" d="M373.4,451.1c1.7,5.6-1.5,11.5-7.1,13.2c-5.6,1.7-11.5-1.5-13.2-7.1
		c-1.7-5.6,1.5-11.5,7.1-13.2C365.8,442.3,371.8,445.5,373.4,451.1z"/>
	<path id="XMLID_59_" class="st2" d="M425.2,424.2c3.1,4.9,1.7,11.5-3.2,14.6c-4.9,3.1-11.5,1.7-14.6-3.2
		c-3.1-4.9-1.7-11.5,3.2-14.6C415.5,417.8,422,419.3,425.2,424.2z"/>
	<path id="XMLID_58_" class="st0" d="M424.7,74.4c3.6-4.6,10.2-5.4,14.8-1.8c4.6,3.6,5.4,10.2,1.8,14.9c-3.6,4.6-10.2,5.4-14.9,1.8
		C421.9,85.6,421.1,79,424.7,74.4z"/>
	<path id="XMLID_57_" class="st0" d="M372.9,47.6c2.2-5.4,8.4-8,13.8-5.8c5.4,2.2,8,8.4,5.8,13.8c-2.2,5.4-8.4,8-13.8,5.8
		C373.2,59.2,370.7,53,372.9,47.6z"/>
	<path id="XMLID_56_" class="st0" d="M279.4,77.1c-0.2-10.2,7.8-18.6,18-18.8c10.2-0.2,18.5,7.8,18.8,18c0.2,10.2-7.8,18.6-18,18.8
		C288,95.3,279.6,87.2,279.4,77.1z"/>
	<path id="XMLID_55_" class="st0" d="M233.7,89.4c-2.9-9.7,2.5-20,12.3-22.9c9.7-2.9,20,2.5,22.9,12.3c2.9,9.7-2.5,20-12.3,22.9
		C246.9,104.6,236.7,99.1,233.7,89.4z"/>
	<path id="XMLID_54_" class="st0" d="M193.1,113.6c-5.5-8.6-2.9-19.9,5.6-25.4c8.6-5.5,19.9-2.9,25.4,5.6c5.5,8.6,2.9,19.9-5.6,25.4
		C209.9,124.7,198.5,122.2,193.1,113.6z"/>
	<path id="XMLID_53_" class="st1" d="M160.4,147.9c-7.6-6.8-8.2-18.4-1.4-26c6.8-7.6,18.4-8.2,26-1.4c7.6,6.8,8.2,18.4,1.4,26
		C179.6,154,168,154.6,160.4,147.9z"/>
	<path id="XMLID_52_" class="st1" d="M138.3,189.7c-9.1-4.5-12.9-15.5-8.4-24.6c4.5-9.1,15.5-12.9,24.6-8.4
		c9.1,4.5,12.9,15.5,8.4,24.6C158.4,190.4,147.4,194.2,138.3,189.7z"/>
	<path id="XMLID_51_" class="st1" d="M128.2,235.9c-10-1.9-16.6-11.4-14.7-21.4c1.9-10,11.5-16.6,21.4-14.7
		c10,1.9,16.6,11.5,14.7,21.4C147.8,231.2,138.2,237.8,128.2,235.9z"/>
	<path id="XMLID_50_" class="st1" d="M131,283.2c-10.1,0.9-19-6.6-20-16.7c-0.9-10.1,6.6-19,16.7-19.9c10.1-0.9,19,6.6,20,16.7
		C148.5,273.3,141.1,282.3,131,283.2z"/>
	<path id="XMLID_49_" class="st1" d="M146.4,327.9c-9.5,3.6-20.1-1.2-23.7-10.7c-3.6-9.5,1.2-20.1,10.7-23.7
		c9.5-3.6,20.1,1.2,23.7,10.7C160.6,313.7,155.9,324.3,146.4,327.9z"/>
	<path id="XMLID_48_" class="st1" d="M173.3,366.8c-8.2,6-19.7,4.3-25.7-3.9c-6-8.2-4.3-19.7,3.9-25.7c8.2-6,19.7-4.3,25.7,3.9
		C183.2,349.3,181.5,360.8,173.3,366.8z"/>
	<path id="XMLID_47_" class="st2" d="M209.7,397c-6.2,8-17.8,9.4-25.8,3.2c-8-6.2-9.4-17.8-3.2-25.8c6.2-8,17.8-9.4,25.8-3.2
		C214.5,377.5,215.9,389,209.7,397z"/>
	<path id="XMLID_46_" class="st2" d="M252.9,416.3c-3.8,9.4-14.6,13.9-24,10c-9.4-3.9-13.9-14.6-10-24c3.8-9.4,14.6-13.9,24-10
		C252.3,396.2,256.8,406.9,252.9,416.3z"/>
	<path id="XMLID_45_" class="st2" d="M299.7,423.2c-1.2,10.1-10.3,17.3-20.4,16.1c-10.1-1.2-17.3-10.3-16.1-20.4
		c1.2-10.1,10.3-17.3,20.4-16.1C293.7,404,300.9,413.1,299.7,423.2z"/>
	<path id="XMLID_44_" class="st2" d="M346.7,417.2c1.6,10-5.2,19.4-15.3,21c-10,1.6-19.4-5.2-21-15.3c-1.6-10,5.2-19.4,15.3-21
		C335.7,400.4,345.1,407.2,346.7,417.2z"/>
	<path id="XMLID_43_" class="st2" d="M390.3,398.8c4.2,9.2,0.2,20.1-9,24.4c-9.2,4.2-20.1,0.2-24.4-9c-4.2-9.2-0.2-20.1,9-24.4
		C375.1,385.5,386,389.6,390.3,398.8z"/>
	<path id="XMLID_42_" class="st0" d="M372.2,90.7c5.1-8.8,16.3-11.8,25.1-6.7c8.8,5.1,11.8,16.3,6.7,25.1
		c-5.1,8.8-16.3,11.8-25.1,6.7C370.1,110.8,367.1,99.5,372.2,90.7z"/>
</g>
</svg>
