<?xml version="1.0" encoding="utf-8"?>
<!-- Generator: Adobe Illustrator 19.0.0, SVG Export Plug-In . SVG Version: 6.00 Build 0)  -->
<svg version="1.1" id="Capa_1" xmlns="http://www.w3.org/2000/svg" xmlns:xlink="http://www.w3.org/1999/xlink" x="0px" y="0px"
	 viewBox="-495 -93 512 512" style="enable-background:new -495 -93 512 512;" xml:space="preserve">
<style type="text/css">
	.st0{fill:#FFFFFF;}
</style>
<path class="st0" d="M-72.2,392.5c-18.5,0-33.5-15-33.5-33.5c0-6.9,2.1-13.4,5.7-18.7h-163.5c3.6,5.3,5.7,11.8,5.7,18.7
	c0,18.5-15,33.5-33.5,33.5s-33.5-15-33.5-33.5c0-7,2.1-13.5,5.8-18.9c-16.6-1.5-30.6-13.8-33.9-30.4l-55.3-275.4c0,0,0,0,0-0.1
	l-9.6-48.5c-2.9-13.9-15.3-24-29.5-24h-41.3c-4.1,0-7.4-3.3-7.4-7.4s3.3-7.4,7.4-7.4h41.3c21.2,0,39.7,15.1,44,35.9l8.4,42.6h73.4
	h0.1h83.7c0,0,0,0,0.1,0h86.2c0,0,0,0,0.1,0h83.7h0.1H8.6c2.2,0,4.3,1,5.7,2.7s2,4,1.6,6.1L5,90.9c0,0.1,0,0.2-0.1,0.3l-11.4,58.9
	c0,0.1,0,0.2-0.1,0.3l-22.3,115.9c-0.7,3.5-3.7,6-7.3,6h-43.7H-80h-229h-0.1h-36.2l6.9,34.3c2.2,10.8,11.7,18.6,22.7,18.6h243.4
	c18.5,0,33.5,15,33.5,33.5S-53.7,392.5-72.2,392.5z M-72.2,340.2c-10.3,0-18.7,8.4-18.7,18.7c0,10.3,8.4,18.7,18.7,18.7
	s18.7-8.4,18.7-18.7S-61.9,340.2-72.2,340.2z M-291.3,340.2c-10.3,0-18.7,8.4-18.7,18.7c0,10.3,8.4,18.7,18.7,18.7
	c10.3,0,18.7-8.4,18.7-18.7C-272.6,348.6-281,340.2-291.3,340.2z M-72.1,257.6h29.8l8.1-42h-35.7L-72.1,257.6z M-148.7,257.6H-87
	l2.2-42h-63.1L-148.7,257.6z M-225.3,257.6h61.8l0.9-42h-63.6L-225.3,257.6z M-301.9,257.6h61.7l-0.9-42h-63.1L-301.9,257.6z
	 M-347.5,257.6h30.7l-2.2-42h-37L-347.5,257.6z M-69,200.8h37.7l8.6-44.4h-43.9L-69,200.8z M-147.5,200.8h63.6l2.4-44.4h-65
	L-147.5,200.8z M-226.6,200.8h64.3l0.9-44.4h-66.1L-226.6,200.8z M-305,200.8h63.6l-0.9-44.4h-65L-305,200.8z M-359.1,200.8h39.3
	l-2.4-44.4h-46L-359.1,200.8z M-65.9,141.5h46l8.6-44.4h-52.2L-65.9,141.5z M-146.2,141.5h65.5l2.4-44.4h-66.9L-146.2,141.5z
	 M-227.8,141.5h66.8l0.9-44.4h-68.7L-227.8,141.5z M-308.1,141.5h65.5l-0.9-44.4h-66.9L-308.1,141.5z M-371.2,141.5h48.2l-2.4-44.4
	h-54.9L-371.2,141.5z M-62.7,82.3h54.3l8.1-42h-60.1L-62.7,82.3z M-144.9,82.3h67.3l2.2-42H-144L-144.9,82.3z M-229.1,82.3h69.3
	l0.9-42H-230L-229.1,82.3z M-311.3,82.3h67.3l-0.9-42h-68.7L-311.3,82.3z M-383.3,82.3h57.1l-2.2-42h-63.5L-383.3,82.3z"/>
</svg>
