<?xml version="1.0" encoding="utf-8"?>
<!-- Generator: Adobe Illustrator 15.0.0, SVG Export Plug-In . SVG Version: 6.00 Build 0)  -->
<!DOCTYPE svg PUBLIC "-//W3C//DTD SVG 1.0//EN" "http://www.w3.org/TR/2001/REC-SVG-20010904/DTD/svg10.dtd">
<svg version="1.0" id="Capa_1" xmlns="http://www.w3.org/2000/svg" xmlns:xlink="http://www.w3.org/1999/xlink" x="0px" y="0px"
	 width="640px" height="358px" viewBox="-10.5 214.5 640 358" enable-background="new -10.5 214.5 640 358" xml:space="preserve" style="fill: #999999;">
<title>logo goplek</title>
<path d="M88.097,345.627l-3.229-34.658c0,0-3.762-11.286-20.735-11.286c0,0-13.567-0.681-7.583,17.773c0,0-11.108-14.1-20.973-14.1
	c0,0-18.929-3.229-29,19.166c0,0-12.916,29.445-2.636,76.426c0,0,9.479,45.353,33.651,52.225c0,0,13.508,3.437,23.402-10.516
	c0,0,9.064-15.729,9.272-16.915l2.962,37.502c0,0,0,15.729-9.449,9.895c0,0-5.925-5.451-6.665-6.458c0,0-4.236-5.925-19.166-4.028
	c0,0-13.686,0.207-11.701,9.864c0,0,0.207,8.472,13.508,12.086c1.667,0.38,3.159,1.309,4.236,2.636c0,0,16.233,10.486,33.355,7.169
	c0,0,20.351,0.8,19.136-30.244C96.48,462.014,95.354,404.487,88.097,345.627z M46.626,420.897
	c-7.258,5.925-11.553-2.962-11.553-2.962c-19.906-48.107-1.6-79.98-1.6-79.98c7.821-8.887,16.145,5.924,16.145,5.924
	c23.165,45.559-2.903,77.018-2.903,77.018H46.626z"/>
<path d="M185.14,332.179c0,0-14.515-40.287-54.564-27.431c0,0-28.497,9.153-28.497,69.08c0,0-1.333,62.355,33.325,78.233
	c0,0,36.583,16.381,51.365-30.659C195.254,392.179,194.687,361.071,185.14,332.179z M162.272,406.916
	c-3.199,21.239-9.657,24.734-9.657,24.734c-11.553,2.696-16.144-16.263-16.144-16.263c-13.449-58.623,5.125-83.594,5.125-83.594
	c10.22-9.42,16.678,4.829,16.678,4.829C170.359,360.675,162.272,406.916,162.272,406.916z"/>
<path d="M263.906,303.445c0,0-18.01-7.524-33.592,17.477c0,0,1.066-9.153,2.133-9.953s2.399-11.286-11.315-11.286
	c0,0-16.915-1.6-20.144,8.354c-1.352,3.92-0.651,8.257,1.866,11.553c1.223,2.888,1.867,5.988,1.896,9.124l2.429,145.92
	c-0.339,2.264-0.794,4.508-1.363,6.725c-0.503,1.6-5.362,15.848,8.887,20.173c0,0,18.277,3.495,23.935-10.753
	c0,0,3.229-4.029-2.696-14.516c-1.654-3.814-2.385-7.965-2.133-12.115l-0.178-27.371c0,0,12.649,19.877,25.001,14.485
	c0,0,27.667-2.399,34.955-66.65C293.47,384.61,300.994,312.302,263.906,303.445z M256.086,420.364
	c-9.39,14.516-16.114-14.219-16.114-14.219c-6.973-23.985-5.016-49.685,5.51-72.338c7.257-9.42,13.981,2.399,13.981,2.399
	c5.54,8.354,3.792,30.363,3.792,30.363C265.772,399.125,256.086,420.364,256.086,420.364z"/>
<path d="M312.31,240.26l-4.858,189.584c-0.605,4.011-1.507,7.971-2.695,11.849c-1.066,2.133-3.199,14.812,12.382,18.011
	c0,0,16.411,2.962,22.306-10.486c0,0,1.6-3.762-1.6-14.248c0,0-1.333-11.286-0.533-13.686s6.991-155.637,6.991-155.637
	s2.695-13.952,4.532-16.648c0,0,5.392-16.944-10.19-18.81c0,0-23.105-2.163-26.334,10.22"/>
<path d="M438.62,337.303c0,0,1.629-35.754-30.363-34.955c0,0-40.05-6.724-53.498,69.879c0,0-10.22,58.889,18.276,78.795
	c0,0,11.02,12.353,43.546-3.258c0,0,31.459-18.811,16.647-36.791c0,0-9.924-10.783-17.182-0.563l-3.495,9.124
	c0,0-18.276,21.239-27.845,7.702c-1.925-4.791-3.402-9.749-4.414-14.812C380.293,412.426,434.857,393.497,438.62,337.303z
	 M381.093,387.306c0,0,2.133-57.526,29.03-55.364c0,0,9.687,0.533,3.259,19.877C413.382,351.818,402.332,378.952,381.093,387.306z"
	/>
<path d="M461.192,241.593l-18.515,193.554c0,0-6.19,16.381,2.963,20.735c0,0,18.543,7.228,28.2-11.02
	c-1.092-2.384-1.812-4.922-2.133-7.524c0.267-1.896,2.399-23.935,2.399-23.935l39.546,31.192l2.429,2.399
	c0,0,4.562,11.02,14.219,7.258c0,0,20.174-4.325,20.174-23.698c0,0,1.333-6.991-8.621-9.391l-4.562-1.6l-38.717-33.088
	l61.822-61.289c0,0,5.392-5.658-2.429-15.848c0,0-12.916-15.314-26.66-2.399c0,0-7.791,10.486-8.087,11.523
	c-0.297,1.037-42.982,40.879-42.982,40.879l10.249-92.067c0,0,2.163-9.657,3.525-10.753c1.362-1.096,7.258-15.314-3.792-20.973
	c0,0-25.801-8.324-29.029,6.191"/>
<polygon points="570.351,342.369 570.351,425.193 612,385.144 "/>
<path d="M152.704,528.516l-9.657,32.94h-5.095l-7.613-25.268l-7.761,25.268h-5.243l-9.212-32.94h5.213l7.08,26.306l7.938-25.891
	h4.088l8.117,25.683l6.932-26.067h5.213V528.516z"/>
<path d="M196.516,561.456h-20.914v-32.94h20.439v4.711h-15.345v8.709h12.086v4.71h-12.086v10.131h15.819v4.71V561.456z"/>
<path d="M232.507,561.456h-11.849v-32.94h7.939c1.803-0.025,3.604,0.084,5.391,0.326c1.375,0.145,2.705,0.568,3.91,1.244
	c1.031,0.575,1.859,1.454,2.37,2.518c0.587,1.302,0.861,2.722,0.8,4.147c0.039,1.344-0.141,2.685-0.533,3.97
	c-0.468,1.224-1.22,2.32-2.192,3.199c1.707,0.53,3.214,1.562,4.325,2.962c0.923,1.437,1.378,3.123,1.304,4.829
	C244.03,558.208,240.208,561.456,232.507,561.456z M230.344,532.871h-4.591v9.183h5.688c0.582,0.046,1.166,0.046,1.748,0
	c0.544-0.092,1.06-0.304,1.511-0.622c0.488-0.378,0.866-0.879,1.096-1.451c0.321-0.8,0.473-1.657,0.444-2.519
	c0.189-1.366-0.378-2.728-1.481-3.555c-1.345-0.724-2.857-1.081-4.384-1.036H230.344z M232.477,546.319h-6.724v10.693h5.095
	c2.077,0.12,4.154-0.234,6.073-1.036c1.414-0.878,2.188-2.496,1.985-4.147c-0.03-3.644-2.311-5.48-6.428-5.48V546.319z"/>
<path d="M307.066,562.108c-3.734,0.188-7.455-0.576-10.812-2.222l0.592-5.925c2.958,2.245,6.597,3.405,10.309,3.288
	c1.802,0.075,3.595-0.302,5.214-1.096c1.286-0.664,2.063-2.021,1.984-3.466c0.009-0.672-0.154-1.335-0.474-1.926
	c-0.333-0.575-0.764-1.086-1.274-1.511c-0.546-0.444-1.143-0.822-1.777-1.126c-0.691-0.332-1.403-0.619-2.133-0.858l-5.213-1.748
	l-2.311-0.948c-0.637-0.266-1.251-0.583-1.836-0.947c-0.646-0.403-1.242-0.881-1.777-1.423c-0.546-0.564-0.996-1.215-1.333-1.925
	c-0.352-0.771-0.524-1.611-0.503-2.459c-0.006-1.227,0.184-2.446,0.562-3.614c0.407-1.222,1.086-2.336,1.985-3.258
	c1.046-1.037,2.297-1.844,3.673-2.37c1.858-0.57,3.809-0.781,5.747-0.622c0.991,0.002,1.98,0.071,2.962,0.207
	c1.037,0,2.015,0.326,2.963,0.533c0.873,0.193,1.734,0.44,2.577,0.741c0.638,0.227,1.253,0.515,1.836,0.858l-0.503,5.214
	c-2.892-1.699-6.135-2.713-9.479-2.962c-0.866,0.003-1.729,0.093-2.577,0.267c-0.771,0.157-1.519,0.416-2.222,0.771
	c-0.618,0.319-1.147,0.787-1.541,1.362c-0.404,0.581-0.612,1.276-0.592,1.984c-0.052,0.827,0.213,1.643,0.741,2.281
	c0.634,0.63,1.39,1.124,2.222,1.451c1.189,0.503,2.405,0.938,3.643,1.304c1.452,0.444,3.141,1.037,5.065,1.837
	c0.869,0.351,1.72,0.746,2.548,1.185c0.849,0.433,1.619,1.003,2.281,1.688c0.702,0.73,1.265,1.584,1.658,2.518
	c0.467,1.167,0.688,2.417,0.652,3.674c-0.014,1.063-0.173,2.119-0.475,3.14c-0.354,1.133-0.997,2.153-1.866,2.962
	c-1.124,1.032-2.458,1.811-3.91,2.281C311.532,561.897,309.301,562.188,307.066,562.108z"/>
<path d="M365.097,533.227h-9.509v28.229h-5.095v-28.229h-9.45v-4.711h24.054V533.227z"/>
<path d="M388.113,547.445v-18.899h5.006v16.767c0.003,1.566,0.122,3.131,0.355,4.68c0.199,1.352,0.641,2.656,1.304,3.852
	c0.628,1.09,1.539,1.99,2.637,2.606c2.812,1.334,6.074,1.334,8.887,0c1.1-0.626,2.01-1.537,2.637-2.637
	c0.668-1.192,1.109-2.498,1.303-3.851c0.242-1.538,0.361-3.094,0.355-4.65v-16.767h4.977v18.899
	c0.238,3.896-0.987,7.741-3.437,10.782c-5.816,5.181-14.593,5.181-20.409,0C389.218,555.211,387.929,551.364,388.113,547.445z"/>
<path d="M453.55,561.456h-12.234v-32.94h12.234c2.241-0.021,4.469,0.359,6.576,1.126c1.936,0.714,3.701,1.823,5.184,3.259
	c1.476,1.468,2.617,3.235,3.348,5.184c1.603,4.462,1.603,9.343,0,13.805c-1.449,3.927-4.545,7.022-8.473,8.472
	C458.057,561.121,455.81,561.492,453.55,561.456z M453.55,533.227h-7.258v23.52h7.258c3.017,0.193,5.966-0.956,8.057-3.14
	c3.735-5.14,3.735-12.101,0-17.24C459.516,534.183,456.566,533.033,453.55,533.227z"/>
<path d="M499.346,561.456h-5.036v-32.94h5.065v32.94H499.346z"/>
<path d="M551.541,557.398c-3.045,3.156-7.289,4.869-11.672,4.71c-2.23,0.023-4.444-0.39-6.517-1.215
	c-1.946-0.787-3.703-1.979-5.154-3.495c-1.473-1.562-2.611-3.405-3.348-5.421c-1.633-4.538-1.633-9.504,0-14.042
	c0.736-2.016,1.875-3.859,3.348-5.421c1.451-1.517,3.208-2.708,5.154-3.495c2.072-0.826,4.286-1.238,6.517-1.215
	c2.244-0.028,4.471,0.395,6.547,1.244c1.934,0.795,3.68,1.985,5.125,3.496c1.482,1.558,2.632,3.402,3.377,5.421
	c0.812,2.229,1.213,4.588,1.185,6.961C556.332,549.53,554.686,554.029,551.541,557.398z M547.838,536.011
	c-1.942-2.376-4.905-3.676-7.969-3.495c-1.578-0.026-3.145,0.286-4.592,0.918c-1.309,0.587-2.465,1.469-3.377,2.577
	c-0.961,1.157-1.677,2.497-2.103,3.939c-0.484,1.614-0.725,3.292-0.711,4.977c-0.016,1.705,0.224,3.402,0.711,5.036
	c0.426,1.434,1.142,2.765,2.103,3.91c0.921,1.092,2.074,1.963,3.377,2.548c1.445,0.64,3.013,0.953,4.592,0.918
	c1.592,0.026,3.169-0.298,4.621-0.948c1.306-0.593,2.46-1.475,3.377-2.577c0.946-1.151,1.651-2.481,2.074-3.91
	c0.489-1.612,0.729-3.291,0.711-4.977c0.13-3.2-0.865-6.345-2.814-8.887V536.011z"/>
</svg>
