<?xml version="1.0" encoding="utf-8"?>
<!-- Generator: Adobe Illustrator 15.0.0, SVG Export Plug-In . SVG Version: 6.00 Build 0)  -->
<!DOCTYPE svg PUBLIC "-//W3C//DTD SVG 1.0//EN" "http://www.w3.org/TR/2001/REC-SVG-20010904/DTD/svg10.dtd">
<svg version="1.0" xmlns="http://www.w3.org/2000/svg" xmlns:xlink="http://www.w3.org/1999/xlink" x="0px" y="0px" width="233px"
	 height="223px" viewBox="0 0 233 223" enable-background="new 0 0 233 223" xml:space="preserve">
<g id="Layer_1" display="none">
	<path display="inline" fill="#F1F2F2" d="M217.485,45.5c-2.537-8.719-23.136-6-38-6c-33.117,0-74.775,0-105,0
		c-5.024-9.976-7.577-22.423-18-27c-9.666,0-19.334,0-29,0c-17.65,10.04,0.482,27.785,21,21c11.26,26.073,23.252,51.415,35,77
		c-9.386,12.853-24.941,14.57-19,36c6.487,23.399,53.493,16,88,16c23.998,0,59.663,4.325,60-9c0.398-15.781-42.548-10-62-10
		c-8.846,0-65.281,3.639-67-5c-2.068-10.396,19.674-9.875,30-11c28.219-3.075,46.42-5.04,74-8c11.92-1.279,25.93-0.729,31-10
		C217.833,88.485,219.799,64.853,217.485,45.5z M82.485,55.5c10.666,0,21.334,0,32,0c1.758,6.91,4.055,13.278,6,20
		c-9.666,0-19.334,0-29,0C88.343,68.977,85.186,62.466,82.485,55.5z M107.485,111.5c-3.482-8.852-8.66-16.007-11-26
		c8.666,0,17.334,0,26,0c3.225,7.442,6.012,15.322,8,24C122.598,109.946,115.854,111.536,107.485,111.5z M125.485,55.5
		c9.666,0,19.334,0,29,0c2.186,6.148,3.408,13.258,5,20c-9.666,0-19.334,0-29,0C129.571,68.08,125.733,63.585,125.485,55.5z
		 M141.485,108.5c-3.082-6.917-5.561-14.439-7-23c9,0,18,0,27,0c0.874,7.459,4.407,12.259,5,20
		C158.743,107.09,149.07,106.752,141.485,108.5z M202.485,101.5c-8.311,1.356-18.008,1.326-26,3c-0.756-6.91-3.576-11.758-4-19
		c10,0,20,0,30,0C202.485,90.833,202.485,96.167,202.485,101.5z M202.485,75.5c-11,0-22,0-33,0c-0.908-7.091-3.092-12.909-4-20
		c12.334,0,24.666,0,37,0C202.485,62.167,202.485,68.833,202.485,75.5z"/>
	<circle display="inline" fill="#F1F2F2" cx="62.807" cy="194.55" r="18.62"/>
	<circle display="inline" fill="#F1F2F2" cx="185.662" cy="194.55" r="18.62"/>
</g>
<g id="Layer_2">
	<g>
		<g>
			<g>
				<defs>
					<path id="SVGID_1_" d="M204.519,26.365c-18.286-10.101-39.033-14.867-55.695-17.11c-18.194-2.444-31.506-1.886-31.44-1.981
						c0.038,0.051-3.513-0.075-9.468,0.128c-6.074,0.212-14.653,0.764-24.483,2.206c-7.753,1.139-16.28,2.828-24.974,5.328
						c-9.469,2.728-19.128,6.425-28.192,11.43c0,7.026,0,14.052,0,21.079c0,2.039,0,5.998,0,8.033c0,5.769,0,9.623,0,15.395
						c0,19.582,0,39.167,0,58.75c0.005,20.905,7.204,39.278,22.959,52.373c3.571,3.02,9.052,6.467,15.345,9.968
						c5.337,2.965,11.262,5.967,17.083,8.791c6.867,3.322,13.596,6.376,19.077,8.797c7.521,3.323,12.695,5.448,12.654,5.407
						c-0.063,0.055,11.446-4.679,25.055-11.032c14.487-6.768,31.34-15.354,39.113-21.93c15.762-13.096,22.969-31.469,22.969-52.379
						c0-19.575,0-39.161,0-58.743c0-5.772,0-10.262,0-16.034c0-2.038,0-5.355,0-7.394C204.519,40.417,204.519,33.39,204.519,26.365"
						/>
				</defs>
				<clipPath id="SVGID_2_">
					<use xlink:href="#SVGID_1_"  overflow="visible"/>
				</clipPath>
				
					<linearGradient id="SVGID_3_" gradientUnits="userSpaceOnUse" x1="-144.271" y1="920.3438" x2="36.2666" y2="920.3438" gradientTransform="matrix(1 0 0 -1 171.75 1030.4453)">
					<stop  offset="0" style="stop-color:#FFD66B"/>
					<stop  offset="0.2821" style="stop-color:#FDE2D2"/>
					<stop  offset="0.4908" style="stop-color:#E9AA70"/>
					<stop  offset="1" style="stop-color:#DC931D"/>
				</linearGradient>
				<rect x="27.479" y="5.459" clip-path="url(#SVGID_2_)" fill="url(#SVGID_3_)" width="180.538" height="209.285"/>
			</g>
		</g>
		<g>
			<g>
				<defs>
					<path id="SVGID_4_" d="M197.685,27.712c-25.489-2.681-53.579-3.384-81.539,2.189c-8.115,1.631-16.219,3.785-24.217,6.586
						c-8.545,2.996-16.962,6.722-25.132,11.321c-10.446,5.884-20.479,13.197-29.84,22.215c-0.002,1.93-0.007,3.859-0.013,5.786
						c-0.013,9.256-0.022,18.521-0.026,27.786c-0.007,8.695,0,17.395,0.007,26.095c0.014,19.396,6.984,35.715,20.62,47.043
						c8.385,4.339,16.772,8.682,25.162,13.025c6.405,3.321,12.814,6.636,19.222,9.957c5.152,2.665,10.304,5.332,15.457,8.005
						c10.27-4.282,47.691-20.719,59.848-30.988c13.639-11.328,20.601-27.648,20.615-47.044c0.02-18.694,0.01-37.401-0.021-56.077
						c-0.027-12.688-0.061-25.365-0.111-38.001C197.703,32.978,197.697,30.344,197.685,27.712"/>
				</defs>
				<clipPath id="SVGID_5_">
					<use xlink:href="#SVGID_4_"  overflow="visible"/>
				</clipPath>
				
					<linearGradient id="SVGID_6_" gradientUnits="userSpaceOnUse" x1="-138.9014" y1="933.4824" x2="-61.4833" y2="915.8525" gradientTransform="matrix(1 0 0 -1 171.75 1030.4453)">
					<stop  offset="0" style="stop-color:#DBC9B8"/>
					<stop  offset="0.3114" style="stop-color:#775024"/>
					<stop  offset="1" style="stop-color:#4E2700"/>
				</linearGradient>
				<rect x="35.912" y="23.475" clip-path="url(#SVGID_5_)" fill="url(#SVGID_6_)" width="164.821" height="185.903"/>
			</g>
		</g>
		<path fill="#3F1800" d="M117.386,207.72l-59.841-30.987C69.696,187.002,107.118,203.439,117.386,207.72"/>
		<path fill="#3F1800" d="M205.636,129.614c0,10.806-1.91,20.751-5.658,29.57c-3.938,9.207-9.889,17.175-17.712,23.666
			c-7.873,6.667-24.968,15.328-37.92,21.417c-7.412,3.487-14.176,6.475-18.558,8.368c-2.618,1.134-7.201,3.044-8.405,3.539v0.618
			c1.208-0.507,6.002-2.512,8.635-3.648c4.377-1.892,11.155-4.884,18.563-8.368c18.889-8.887,31.696-16.112,38.055-21.494
			c7.874-6.549,13.889-14.594,17.844-23.883c3.793-8.887,5.719-18.896,5.719-29.785V25.373l-0.561,0.326v103.916"/>
		<path fill="#3F1800" d="M29.721,25.383C61.582,7.77,100.984,6.067,116.434,6.152h0.949h0.966
			c15.446-0.083,54.847,1.618,86.707,19.231l0.581,0.315l0.562-0.326l-0.878-0.479C173.347,7.216,133.843,5.511,118.337,5.595
			h-0.956h-0.948c-15.496-0.083-55.011,1.621-86.982,19.294l-0.875,0.479l0.564,0.331L29.721,25.383"/>
		<path fill="#3F1800" d="M34.297,159.399c3.967,9.288,9.974,17.334,17.858,23.891c6.349,5.375,19.145,12.6,38.04,21.487
			c7.406,3.484,14.189,6.476,18.566,8.368c2.622,1.135,7.429,3.141,8.621,3.647v-0.616c-1.192-0.496-5.775-2.405-8.399-3.54
			c-4.377-1.892-11.152-4.88-18.559-8.368c-12.952-6.089-30.039-14.751-37.905-21.408c-7.824-6.501-13.777-14.469-17.708-23.676
			c-3.752-8.819-5.657-18.766-5.657-29.57L29.141,25.698l-0.564-0.331l0.016,104.247C28.597,140.502,30.517,150.512,34.297,159.399"
			/>
		<path fill="#3F1800" d="M190.247,77.468l0.415,0.336l0.564-0.275l-0.63-0.506c-2.723-2.16-8.638-5.752-17.767-5.577l0.02,0.557
			C181.795,71.833,187.59,75.35,190.247,77.468"/>
		<path fill="#3F1800" d="M188.765,92.562c-2.739-2.902-7.534-6.046-12.785-6.135l-0.002,0.562
			c5.073,0.091,9.721,3.132,12.375,5.961l2.913,3.091l-0.559-1.414L188.765,92.562"/>
		<path fill="#3F1800" d="M168.125,92.717l0.555,0.011c0.131-5.299,5.147-5.777,7.298-5.739l0.003-0.562
			C174.178,86.396,168.271,86.752,168.125,92.717"/>
		<polyline fill="#3F1800" points="190.706,94.627 191.265,96.041 191.227,77.531 190.662,77.805 190.706,94.627 		"/>
		<path fill="#3F1800" d="M141.575,82.102c5.05,6.579,7.706,16.171,7.71,27.756h0.561c0-11.708-2.705-21.423-7.828-28.092
			c-5.323-6.939-13.225-10.604-22.848-10.618v0.563C128.615,71.72,136.362,75.314,141.575,82.102"/>
		<path fill="#3F1800" d="M151.1,93.132c0-7.761,3.751-12.676,6.905-15.45c3.998-3.505,9.413-5.575,14.844-5.678l-0.02-0.558
			c-5.548,0.108-11.097,2.225-15.19,5.813c-3.243,2.85-7.104,7.908-7.104,15.872c0,0.044,0,0.101,0,0.143h0.564
			C151.1,93.228,151.1,93.177,151.1,93.132"/>
		<path fill="#3F1800" d="M166.47,116.84l0.283-0.477c-13.046-7.734-15.611-14.328-15.654-23.088h-0.564
			C150.572,102.244,153.192,108.973,166.47,116.84"/>
		<path fill="#3F1800" d="M176.452,102.332l1.218,0.733l0.284-0.476l-1.212-0.733c-5.361-3.191-8.148-5.039-8.062-9.128
			l-0.555-0.011C168.021,97.322,171.371,99.306,176.452,102.332"/>
		<path fill="#3F1800" d="M169.828,149.562l0.005,0.559c7.395-0.073,13.56-2.622,17.834-7.37c3.602-4.014,5.704-9.41,5.897-15.176
			l-0.568-0.018C192.639,138.382,185.335,149.393,169.828,149.562"/>
		<path fill="#3F1800" d="M166.753,116.363l-0.283,0.477c6.754,4.025,8.631,6.186,8.713,10.126l0.562-0.014
			C175.651,122.822,173.639,120.45,166.753,116.363"/>
		<path fill="#3F1800" d="M173.867,132.293c1.227-1.253,1.884-3.026,1.884-5.107c0-0.08-0.006-0.155-0.006-0.233l-0.562,0.014
			c0.005,0.073,0.005,0.143,0.005,0.219c0,1.935-0.599,3.563-1.719,4.716c-1.323,1.355-3.322,2.061-5.788,2.061v0.561
			C170.301,134.523,172.445,133.749,173.867,132.293"/>
		<path fill="#3F1800" d="M190.331,114.72c2.018,3.577,2.811,7.419,2.666,12.835l0.568,0.017c0.256-9.469-2.269-16.946-15.61-24.985
			l-0.283,0.476C183.963,106.855,187.988,110.567,190.331,114.72"/>
		<path fill="#3F1800" d="M141.921,138.354c-5.043,7.308-12.347,11.169-21.121,11.184v0.551c8.97,0,16.431-3.946,21.578-11.416
			c4.882-7.087,7.467-17.055,7.467-28.815h-0.561C149.285,121.513,146.738,131.365,141.921,138.354"/>
		<path fill="#3F1800" d="M153.64,128.518c4.008,3.599,9.646,6.005,14.042,6.005v-0.561c-4.268,0-9.753-2.348-13.655-5.853
			l-2.802-2.518l0.56,1.257L153.64,128.518"/>
		<path fill="#3F1800" d="M152.292,144.713l-0.551-0.325l-0.568,0.314l0.837,0.489c5.448,3.235,11.78,4.991,17.824,4.93
			l-0.005-0.559C163.89,149.618,157.651,147.9,152.292,144.713"/>
		<polyline fill="#3F1800" points="151.784,126.85 151.225,125.593 151.172,144.703 151.741,144.388 151.784,126.85 		"/>
		<path fill="#3F1800" d="M115.422,87.684l-0.568-0.402c0,1.421,0,45.145,0,46.679l0.568-0.427
			C115.422,131.262,115.422,89.816,115.422,87.684"/>
		<path fill="#3F1800" d="M115.422,133.534l-0.568,0.427c0.969,0.288,2.382,0.62,3.965,0.62v-0.559
			C117.5,134.021,116.312,133.784,115.422,133.534"/>
		<path fill="#3F1800" d="M127.894,128.899c2.1-4.004,3.159-10.259,3.159-18.619h-0.555c-0.007,8.263-1.035,14.442-3.097,18.359
			c-1.935,3.661-4.656,5.382-8.581,5.382v0.559C122.92,134.58,125.888,132.72,127.894,128.899"/>
		<path fill="#3F1800" d="M114.865,148.974l0.562,0.686c1.614,0.284,3.407,0.443,5.375,0.43v-0.551
			C118.606,149.538,116.61,149.344,114.865,148.974"/>
		<path fill="#3F1800" d="M114.886,180.046l0.007,1.137l0.561,0.554l-0.004-1.691c0,0-0.023-26.691-0.023-30.387l-0.562-0.686
			C114.869,151.599,114.886,180.046,114.886,180.046"/>
		<path fill="#3F1800" d="M97.109,180.019c-0.171-33.21-0.219-67.401-0.143-101.595l0.005-0.61l-0.554-0.303l-0.006,0.908
			c-0.08,34.201-0.033,68.39,0.137,101.601l0.01,1.669l0.549-0.554L97.109,180.019"/>
		<rect x="96.56" y="181.135" fill="#3F1800" width="18.894" height="0.602"/>
		<path fill="#3F1800" d="M91.745,74.476c-0.084,22.359-0.076,45.198-0.014,67.887l0.004,0.595l0.562,0.295l-0.003-0.89
			c-0.067-22.69-0.063-45.527,0.014-67.887l0.003-1.697l-0.561,0.573L91.745,74.476"/>
		<path fill="#3F1800" d="M91.237,143.298c-6.201,4.207-14.486,6.375-23.974,6.286l-0.005,0.56
			c9.596,0.091,18.001-2.109,24.293-6.377l0.746-0.514l-0.562-0.295L91.237,143.298"/>
		<path fill="#3F1800" d="M73.948,132.796l-0.569-0.329c-1.432,0.73-3.389,1.132-5.61,1.118l-0.004,0.557
			C70.237,134.164,72.392,133.675,73.948,132.796"/>
		<path fill="#3F1800" d="M73.341,111.167c0,7.11,0.017,14.217,0.038,21.3l0.569,0.329c-0.025-7.187-0.039-14.405-0.039-21.629
			c0-12.238,0.033-24.487,0.085-36.602L74,73.462l-0.553-0.555l-0.015,1.659C73.379,86.681,73.341,98.929,73.341,111.167"/>
		<path fill="#3F1800" d="M49.376,142.833c-3.946-4.35-5.9-10.854-5.914-19.302H42.9c0.025,8.589,2.02,15.214,6.061,19.687
			c4.108,4.512,10.262,6.848,18.298,6.925l0.005-0.56C59.392,149.496,53.375,147.234,49.376,142.833"/>
		<path fill="#3F1800" d="M62.083,130.884c1.134,2.171,2.997,3.234,5.684,3.259l0.003-0.559c-1.579-0.014-6.381-0.059-6.404-9.302
			l-0.562,0.003C60.811,127.049,61.241,129.271,62.083,130.884"/>
		<rect x="42.895" y="73.242" fill="#3F1800" width="0.568" height="50.289"/>
		<path fill="#3F1800" d="M60.882,74.723c-0.074,16.523-0.104,33.202-0.08,49.564l0.563-0.004
			c-0.03-16.357-0.006-33.037,0.074-49.56l0.016-1.708l-0.568,0.572L60.882,74.723"/>
		<polyline fill="#3F1800" points="90.624,73.356 91.749,73.352 92.311,72.778 90.613,72.79 73.447,72.906 74,73.461 90.624,73.356 
					"/>
		<rect x="42.895" y="73.017" fill="#3F1800" width="18.559" height="0.783"/>
		<path fill="#3F1800" d="M119.281,87.092c4.02,0,6.607,1.509,8.371,4.925c1.911,3.689,2.84,9.658,2.847,18.263h0.555
			c0-8.695-0.943-14.761-2.903-18.523c-1.849-3.569-4.671-5.222-8.87-5.232V87.092"/>
		<path fill="#3F1800" d="M119.281,87.092v-0.568c-1.693,0-3.322,0.355-4.426,0.756l0.568,0.402
			C116.437,87.358,117.847,87.092,119.281,87.092"/>
		<path fill="#3F1800" d="M96.419,77.511l0.554,0.303l0.511-0.333c5.956-3.883,13.051-5.769,21.688-5.769v-0.563
			c-8.749,0-15.954,1.918-21.99,5.866L96.419,77.511"/>
		<path fill="#3F1800" d="M116.371,31.005c-31.079,6.228-57.418,19.519-78.292,39.51l0.562,0.246
			c20.77-19.825,46.949-33.019,77.838-39.204c23.226-4.634,49.256-5.386,79.523-2.313l0.564-0.511
			C166.027,25.594,139.782,26.337,116.371,31.005"/>
		<path fill="#3F1800" d="M196.173,111.146c0,6.2-0.008,12.385-0.011,18.542c-0.017,19.071-6.935,34.885-20.014,45.749
			c-11.265,9.514-45.609,24.94-58.762,30.456v0.605c13.01-5.442,47.748-21.017,59.124-30.627
			c13.21-10.973,20.197-26.945,20.219-46.181c0.005-6.159,0.012-12.344,0.012-18.543c0-27.266-0.062-54.904-0.173-82.412
			l-0.564,0.512C196.117,56.58,196.173,84.048,196.173,111.146"/>
		<path fill="#3F1800" d="M58.623,175.435c-13.075-10.862-19.995-26.683-20.009-45.745c-0.01-6.068-0.01-12.219-0.01-18.456
			c0-13.197,0.013-26.745,0.038-40.472l-0.562-0.246c-0.023,13.812-0.036,27.441-0.036,40.718c0,6.237,0.003,12.396,0.008,18.456
			c0.014,19.236,7.008,35.203,20.208,46.181c11.322,9.555,46.102,25.169,59.127,30.627v-0.605
			C104.219,200.356,69.827,184.896,58.623,175.435"/>
		<path fill="#3F1800" d="M118.339,5.028l-0.956,0.008l-0.946-0.008c-15.541-0.084-55.153,1.629-87.243,19.377l-1.178,0.632
			l0.561,0.331l0.875-0.479C61.424,7.216,100.938,5.511,116.434,5.595h0.949h0.954c15.506-0.083,55.011,1.621,86.986,19.299
			l0.876,0.479l0.564-0.336l-1.171-0.632C173.503,6.658,133.879,4.944,118.339,5.028"/>
		<path fill="#3F1800" d="M206.2,129.614c0,10.888-1.926,20.898-5.719,29.785c-3.955,9.288-9.971,17.334-17.844,23.884
			c-6.359,5.382-19.166,12.605-38.055,21.494c-7.408,3.484-14.187,6.476-18.563,8.368c-2.633,1.135-7.428,3.141-8.635,3.647v0.602
			c1.208-0.506,6.225-2.595,8.859-3.729c4.382-1.905,11.164-4.891,18.588-8.378c18.917-8.905,31.76-16.164,38.16-21.574
			c7.955-6.608,14.026-14.716,18.017-24.096c3.811-8.948,5.749-19.039,5.757-30.003V25.037l-0.564,0.336V129.614"/>
		<path fill="#3F1800" d="M108.762,213.144c-4.377-1.892-11.161-4.883-18.567-8.368c-18.895-8.888-31.69-16.112-38.04-21.487
			c-7.884-6.557-13.892-14.603-17.858-23.891c-3.782-8.887-5.7-18.896-5.705-29.785L28.577,25.367l-0.561-0.331l0.014,104.577
			c0.009,10.964,1.938,21.054,5.752,30.003c3.994,9.378,10.058,17.487,18.01,24.094c6.4,5.41,19.238,12.669,38.16,21.575
			c7.412,3.488,14.2,6.472,18.581,8.377c2.625,1.136,7.658,3.225,8.849,3.73v-0.602C116.191,216.285,111.384,214.28,108.762,213.144
			"/>
		<g>
			<g>
				<defs>
					<path id="SVGID_7_" d="M173.469,131.902c1.12-1.153,1.719-2.782,1.719-4.716c0-0.078,0-0.146-0.005-0.219l-0.564,0.011
						c0.004,0.073,0.004,0.144,0.004,0.211c0,1.814-0.526,3.26-1.559,4.327c-1.212,1.237-3.075,1.881-5.383,1.881v0.567
						C170.147,133.963,172.146,133.257,173.469,131.902"/>
				</defs>
				<clipPath id="SVGID_8_">
					<use xlink:href="#SVGID_7_"  overflow="visible"/>
				</clipPath>
				<path clip-path="url(#SVGID_8_)" fill="#492300" d="M173.469,131.902c1.12-1.153,1.719-2.782,1.719-4.716
					c0-0.078,0-0.146-0.005-0.219l-0.564,0.011c0.004,0.073,0.004,0.144,0.004,0.211c0,1.814-0.526,3.26-1.559,4.327
					c-1.212,1.237-3.075,1.881-5.383,1.881v0.567C170.147,133.963,172.146,133.257,173.469,131.902"/>
			</g>
			<g>
				<defs>
					<path id="SVGID_9_" d="M173.469,131.902c1.12-1.153,1.719-2.782,1.719-4.716c0-0.078,0-0.146-0.005-0.219l-0.564,0.011
						c0.004,0.073,0.004,0.144,0.004,0.211c0,1.814-0.526,3.26-1.559,4.327c-1.212,1.237-3.075,1.881-5.383,1.881v0.567
						C170.147,133.963,172.146,133.257,173.469,131.902"/>
				</defs>
				<clipPath id="SVGID_10_">
					<use xlink:href="#SVGID_9_"  overflow="visible"/>
				</clipPath>
				
					<linearGradient id="SVGID_11_" gradientUnits="userSpaceOnUse" x1="-599.9995" y1="331.8818" x2="-596.4531" y2="331.8818" gradientTransform="matrix(2.1164 0 0 4.7729 1437.5215 -1453.575)">
					<stop  offset="0" style="stop-color:#492300"/>
					<stop  offset="1" style="stop-color:#492300"/>
				</linearGradient>
				<rect x="167.682" y="126.966" clip-path="url(#SVGID_10_)" fill="url(#SVGID_11_)" width="7.505" height="6.997"/>
			</g>
		</g>
		<polyline fill="#3F1800" points="151.225,125.593 150.671,124.343 150.614,145.016 151.172,144.703 151.225,125.593 		"/>
		<g>
			<g>
				<defs>
					<path id="SVGID_12_" d="M193.564,127.573l0.55,0.023c0.273-9.676-2.293-17.302-15.869-25.492l-0.291,0.484
						C191.295,110.626,193.82,118.104,193.564,127.573"/>
				</defs>
				<clipPath id="SVGID_13_">
					<use xlink:href="#SVGID_12_"  overflow="visible"/>
				</clipPath>
				<path clip-path="url(#SVGID_13_)" fill="#70491C" d="M193.564,127.573l0.55,0.023c0.273-9.676-2.293-17.302-15.869-25.492
					l-0.291,0.484C191.295,110.626,193.82,118.104,193.564,127.573"/>
			</g>
			<g>
				<defs>
					<path id="SVGID_14_" d="M193.564,127.573l0.55,0.023c0.273-9.676-2.293-17.302-15.869-25.492l-0.291,0.484
						C191.295,110.626,193.82,118.104,193.564,127.573"/>
				</defs>
				<clipPath id="SVGID_15_">
					<use xlink:href="#SVGID_14_"  overflow="visible"/>
				</clipPath>
				
					<linearGradient id="SVGID_16_" gradientUnits="userSpaceOnUse" x1="-589.0093" y1="328.6719" x2="-585.4611" y2="328.6719" gradientTransform="matrix(4.5568 0 0 9.988 2861.9697 -3167.9185)">
					<stop  offset="0" style="stop-color:#70491C"/>
					<stop  offset="1" style="stop-color:#9C7955"/>
				</linearGradient>
				<rect x="177.955" y="102.104" clip-path="url(#SVGID_15_)" fill="url(#SVGID_16_)" width="16.435" height="25.492"/>
			</g>
		</g>
		<g>
			<g>
				<defs>
					<path id="SVGID_17_" d="M152.009,145.191l-0.838-0.489l-0.557,0.312l1.107,0.669c5.538,3.281,11.968,5.065,18.111,4.993v-0.557
						C163.789,150.182,157.457,148.426,152.009,145.191 M193.564,127.573l0.55,0.023c-0.194,5.902-2.334,11.419-6.032,15.528
						c-4.385,4.866-10.689,7.477-18.25,7.553v-0.557c7.395-0.074,13.559-2.623,17.833-7.371
						C191.267,138.736,193.371,133.339,193.564,127.573z"/>
				</defs>
				<clipPath id="SVGID_18_">
					<use xlink:href="#SVGID_17_"  overflow="visible"/>
				</clipPath>
				<path clip-path="url(#SVGID_18_)" fill="#492300" d="M152.009,145.191l-0.838-0.489l-0.557,0.312l1.107,0.669
					c5.538,3.281,11.968,5.065,18.111,4.993v-0.557C163.789,150.182,157.457,148.426,152.009,145.191 M193.564,127.573l0.55,0.023
					c-0.194,5.902-2.334,11.419-6.032,15.528c-4.385,4.866-10.689,7.477-18.25,7.553v-0.557c7.395-0.074,13.559-2.623,17.833-7.371
					C191.267,138.736,193.371,133.339,193.564,127.573z"/>
			</g>
			<g>
				<defs>
					<path id="SVGID_19_" d="M152.009,145.191l-0.838-0.489l-0.557,0.312l1.107,0.669c5.538,3.281,11.968,5.065,18.111,4.993v-0.557
						C163.789,150.182,157.457,148.426,152.009,145.191 M193.564,127.573l0.55,0.023c-0.194,5.902-2.334,11.419-6.032,15.528
						c-4.385,4.866-10.689,7.477-18.25,7.553v-0.557c7.395-0.074,13.559-2.623,17.833-7.371
						C191.267,138.736,193.371,133.339,193.564,127.573z"/>
				</defs>
				<clipPath id="SVGID_20_">
					<use xlink:href="#SVGID_19_"  overflow="visible"/>
				</clipPath>
				
					<linearGradient id="SVGID_21_" gradientUnits="userSpaceOnUse" x1="-586.5195" y1="330.5986" x2="-582.9731" y2="330.5986" gradientTransform="matrix(12.2657 0 0 9.3352 7344.6924 -2947.0352)">
					<stop  offset="0" style="stop-color:#492300"/>
					<stop  offset="1" style="stop-color:#9C7955"/>
				</linearGradient>
				<rect x="150.614" y="127.573" clip-path="url(#SVGID_20_)" fill="url(#SVGID_21_)" width="43.5" height="23.177"/>
			</g>
		</g>
		<g>
			<g>
				<defs>
					<path id="SVGID_22_" d="M154.026,128.11c3.902,3.504,9.388,5.853,13.655,5.853v-0.567c-4.079,0-9.539-2.339-13.282-5.703
						l-3.729-3.351l0.554,1.25L154.026,128.11"/>
				</defs>
				<clipPath id="SVGID_23_">
					<use xlink:href="#SVGID_22_"  overflow="visible"/>
				</clipPath>
				<path clip-path="url(#SVGID_23_)" fill="#663F0F" d="M154.026,128.11c3.902,3.504,9.388,5.853,13.655,5.853v-0.567
					c-4.079,0-9.539-2.339-13.282-5.703l-3.729-3.351l0.554,1.25L154.026,128.11"/>
			</g>
			<g>
				<defs>
					<path id="SVGID_24_" d="M154.026,128.11c3.902,3.504,9.388,5.853,13.655,5.853v-0.567c-4.079,0-9.539-2.339-13.282-5.703
						l-3.729-3.351l0.554,1.25L154.026,128.11"/>
				</defs>
				<clipPath id="SVGID_25_">
					<use xlink:href="#SVGID_24_"  overflow="visible"/>
				</clipPath>
				
					<linearGradient id="SVGID_26_" gradientUnits="userSpaceOnUse" x1="-592.7666" y1="331.1724" x2="-589.2197" y2="331.1724" gradientTransform="matrix(4.7961 0 0 5.5125 2993.6394 -1696.4329)">
					<stop  offset="0" style="stop-color:#663F0F"/>
					<stop  offset="1" style="stop-color:#492300"/>
				</linearGradient>
				<rect x="150.671" y="124.343" clip-path="url(#SVGID_25_)" fill="url(#SVGID_26_)" width="17.011" height="9.62"/>
			</g>
		</g>
		<g>
			<g>
				<defs>
					<path id="SVGID_27_" d="M176.742,101.856l1.212,0.733l0.291-0.483l-1.218-0.733c-5.321-3.163-7.863-4.856-7.783-8.63
						l-0.564-0.014C168.594,96.816,171.381,98.665,176.742,101.856"/>
				</defs>
				<clipPath id="SVGID_28_">
					<use xlink:href="#SVGID_27_"  overflow="visible"/>
				</clipPath>
				<path clip-path="url(#SVGID_28_)" fill="#70491C" d="M176.742,101.856l1.212,0.733l0.291-0.483l-1.218-0.733
					c-5.321-3.163-7.863-4.856-7.783-8.63l-0.564-0.014C168.594,96.816,171.381,98.665,176.742,101.856"/>
			</g>
			<g>
				<defs>
					<path id="SVGID_29_" d="M176.742,101.856l1.212,0.733l0.291-0.483l-1.218-0.733c-5.321-3.163-7.863-4.856-7.783-8.63
						l-0.564-0.014C168.594,96.816,171.381,98.665,176.742,101.856"/>
				</defs>
				<clipPath id="SVGID_30_">
					<use xlink:href="#SVGID_29_"  overflow="visible"/>
				</clipPath>
				
					<linearGradient id="SVGID_31_" gradientUnits="userSpaceOnUse" x1="-571.5801" y1="328.7012" x2="-568.033" y2="328.7012" gradientTransform="matrix(-2.6961 0 0 -5.5802 -1362.791 1931.8809)">
					<stop  offset="0" style="stop-color:#70491C"/>
					<stop  offset="1" style="stop-color:#9C7955"/>
				</linearGradient>
				<rect x="168.594" y="92.728" clip-path="url(#SVGID_30_)" fill="url(#SVGID_31_)" width="9.652" height="9.86"/>
			</g>
		</g>
		<g>
			<g>
				<defs>
					<path id="SVGID_32_" d="M61.439,74.723c-0.08,16.523-0.104,33.202-0.074,49.56h0.562c-0.028-16.357-0.004-33.037,0.07-49.555
						l0.014-2.279l-0.556,0.567L61.439,74.723"/>
				</defs>
				<clipPath id="SVGID_33_">
					<use xlink:href="#SVGID_32_"  overflow="visible"/>
				</clipPath>
				<path clip-path="url(#SVGID_33_)" fill="#9C7955" d="M61.439,74.723c-0.08,16.523-0.104,33.202-0.074,49.56h0.562
					c-0.028-16.357-0.004-33.037,0.07-49.555l0.014-2.279l-0.556,0.567L61.439,74.723"/>
			</g>
			<g>
				<defs>
					<path id="SVGID_34_" d="M61.439,74.723c-0.08,16.523-0.104,33.202-0.074,49.56h0.562c-0.028-16.357-0.004-33.037,0.07-49.555
						l0.014-2.279l-0.556,0.567L61.439,74.723"/>
				</defs>
				<clipPath id="SVGID_35_">
					<use xlink:href="#SVGID_34_"  overflow="visible"/>
				</clipPath>
				
					<linearGradient id="SVGID_36_" gradientUnits="userSpaceOnUse" x1="-583.498" y1="290.0522" x2="-579.9517" y2="290.0522" gradientTransform="matrix(0 -14.6153 2.9907 0 -805.7875 -8403.7168)">
					<stop  offset="0" style="stop-color:#9C7955"/>
					<stop  offset="1" style="stop-color:#AF906F"/>
				</linearGradient>
				<rect x="61.335" y="72.45" clip-path="url(#SVGID_35_)" fill="url(#SVGID_36_)" width="0.676" height="51.833"/>
			</g>
		</g>
		<path fill="#8A643E" d="M115.979,88.099l-0.558-0.415c0,2.132,0,43.578,0,45.85l0.558-0.439
			C115.979,130.112,115.979,90.927,115.979,88.099"/>
		<rect x="42.337" y="72.45" fill="#785228" width="19.674" height="0.793"/>
		<path fill="#70491C" d="M73.341,111.167c0-12.238,0.038-24.487,0.091-36.602l0.015-1.659l-0.562-0.558l-0.005,2.217
			c-0.063,12.112-0.091,24.364-0.091,36.602c0,6.996,0.011,13.984,0.028,20.95l0.562,0.35
			C73.358,125.384,73.341,118.277,73.341,111.167"/>
		<g>
			<g>
				<defs>
					<path id="SVGID_37_" d="M67.769,133.586l0.003-0.564c-1.592-0.007-5.827-0.042-5.846-8.738h-0.561
						C61.388,133.527,66.189,133.573,67.769,133.586 M67.769,133.586l0.003-0.564c1.986,0.014,3.727-0.308,5.044-0.904l0.562,0.35
						C71.947,133.198,69.991,133.599,67.769,133.586z"/>
				</defs>
				<clipPath id="SVGID_38_">
					<use xlink:href="#SVGID_37_"  overflow="visible"/>
				</clipPath>
				<path clip-path="url(#SVGID_38_)" fill="#532D00" d="M67.769,133.586l0.003-0.564c-1.592-0.007-5.827-0.042-5.846-8.738h-0.561
					C61.388,133.527,66.189,133.573,67.769,133.586 M67.769,133.586l0.003-0.564c1.986,0.014,3.727-0.308,5.044-0.904l0.562,0.35
					C71.947,133.198,69.991,133.599,67.769,133.586z"/>
			</g>
			<g>
				<defs>
					<path id="SVGID_39_" d="M67.769,133.586l0.003-0.564c-1.592-0.007-5.827-0.042-5.846-8.738h-0.561
						C61.388,133.527,66.189,133.573,67.769,133.586 M67.769,133.586l0.003-0.564c1.986,0.014,3.727-0.308,5.044-0.904l0.562,0.35
						C71.947,133.198,69.991,133.599,67.769,133.586z"/>
				</defs>
				<clipPath id="SVGID_40_">
					<use xlink:href="#SVGID_39_"  overflow="visible"/>
				</clipPath>
				
					<linearGradient id="SVGID_41_" gradientUnits="userSpaceOnUse" x1="-551.582" y1="324.5879" x2="-548.0361" y2="324.5879" gradientTransform="matrix(-3.3879 0 0 -5.4271 -1795.3252 1890.514)">
					<stop  offset="0" style="stop-color:#532D00"/>
					<stop  offset="1" style="stop-color:#9C7955"/>
				</linearGradient>
				<rect x="61.365" y="124.283" clip-path="url(#SVGID_40_)" fill="url(#SVGID_41_)" width="12.014" height="9.316"/>
			</g>
		</g>
		<polyline fill="#663F0F" points="72.885,72.349 73.447,72.906 90.613,72.79 92.311,72.778 92.87,72.218 90.613,72.231 
			72.885,72.349 		"/>
		<g>
			<g>
				<defs>
					<path id="SVGID_42_" d="M91.551,143.766c-6.292,4.269-14.697,6.468-24.293,6.377l-0.005,0.562
						c9.715,0.086,18.233-2.148,24.615-6.484l0.987-0.671l-0.559-0.299L91.551,143.766 M48.96,143.218
						c-4.041-4.473-6.038-11.098-6.063-19.687h-0.562c0.019,8.742,2.076,15.485,6.213,20.057c4.213,4.63,10.505,7.034,18.704,7.118
						l0.005-0.562C59.223,150.065,53.068,147.73,48.96,143.218z M42.337,72.696l0.558,0.547l0.003,50.288h-0.562L42.337,72.696z"/>
				</defs>
				<clipPath id="SVGID_43_">
					<use xlink:href="#SVGID_42_"  overflow="visible"/>
				</clipPath>
				<path clip-path="url(#SVGID_43_)" fill="#815B33" d="M91.551,143.766c-6.292,4.269-14.697,6.468-24.293,6.377l-0.005,0.562
					c9.715,0.086,18.233-2.148,24.615-6.484l0.987-0.671l-0.559-0.299L91.551,143.766 M48.96,143.218
					c-4.041-4.473-6.038-11.098-6.063-19.687h-0.562c0.019,8.742,2.076,15.485,6.213,20.057c4.213,4.63,10.505,7.034,18.704,7.118
					l0.005-0.562C59.223,150.065,53.068,147.73,48.96,143.218z M42.337,72.696l0.558,0.547l0.003,50.288h-0.562L42.337,72.696z"/>
			</g>
			<g>
				<defs>
					<path id="SVGID_44_" d="M91.551,143.766c-6.292,4.269-14.697,6.468-24.293,6.377l-0.005,0.562
						c9.715,0.086,18.233-2.148,24.615-6.484l0.987-0.671l-0.559-0.299L91.551,143.766 M48.96,143.218
						c-4.041-4.473-6.038-11.098-6.063-19.687h-0.562c0.019,8.742,2.076,15.485,6.213,20.057c4.213,4.63,10.505,7.034,18.704,7.118
						l0.005-0.562C59.223,150.065,53.068,147.73,48.96,143.218z M42.337,72.696l0.558,0.547l0.003,50.288h-0.562L42.337,72.696z"/>
				</defs>
				<clipPath id="SVGID_45_">
					<use xlink:href="#SVGID_44_"  overflow="visible"/>
				</clipPath>
				
					<linearGradient id="SVGID_46_" gradientUnits="userSpaceOnUse" x1="-591.417" y1="328.1167" x2="-587.8706" y2="328.1167" gradientTransform="matrix(14.2448 0 0 24.8207 8466.9561 -8032.3218)">
					<stop  offset="0" style="stop-color:#815B33"/>
					<stop  offset="1" style="stop-color:#9C7955"/>
				</linearGradient>
				<rect x="42.335" y="72.696" clip-path="url(#SVGID_45_)" fill="url(#SVGID_46_)" width="50.519" height="78.097"/>
			</g>
		</g>
		<path fill="#8A643E" d="M92.308,74.476c-0.077,22.359-0.082,45.198-0.014,67.887l0.003,0.89l0.559,0.298l-0.003-1.188
			c-0.063-22.693-0.063-45.527,0.013-67.877l0.005-2.268l-0.559,0.561L92.308,74.476"/>
		<g>
			<g>
				<defs>
					<path id="SVGID_47_" d="M166.47,116.84l-0.292,0.485c6.55,3.893,8.368,5.957,8.441,9.652l0.564-0.011
						C175.1,123.025,173.224,120.865,166.47,116.84 M166.47,116.84l-0.292,0.485c-6.427-3.814-10.58-7.474-13.084-11.518
						c-2.161-3.525-3.093-7.276-3.116-12.527l0.557-0.005C150.572,102.244,153.192,108.973,166.47,116.84z"/>
				</defs>
				<clipPath id="SVGID_48_">
					<use xlink:href="#SVGID_47_"  overflow="visible"/>
				</clipPath>
				<path clip-path="url(#SVGID_48_)" fill="#492300" d="M166.47,116.84l-0.292,0.485c6.55,3.893,8.368,5.957,8.441,9.652
					l0.564-0.011C175.1,123.025,173.224,120.865,166.47,116.84 M166.47,116.84l-0.292,0.485c-6.427-3.814-10.58-7.474-13.084-11.518
					c-2.161-3.525-3.093-7.276-3.116-12.527l0.557-0.005C150.572,102.244,153.192,108.973,166.47,116.84z"/>
			</g>
			<g>
				<defs>
					<path id="SVGID_49_" d="M166.47,116.84l-0.292,0.485c6.55,3.893,8.368,5.957,8.441,9.652l0.564-0.011
						C175.1,123.025,173.224,120.865,166.47,116.84 M166.47,116.84l-0.292,0.485c-6.427-3.814-10.58-7.474-13.084-11.518
						c-2.161-3.525-3.093-7.276-3.116-12.527l0.557-0.005C150.572,102.244,153.192,108.973,166.47,116.84z"/>
				</defs>
				<clipPath id="SVGID_50_">
					<use xlink:href="#SVGID_49_"  overflow="visible"/>
				</clipPath>
				
					<linearGradient id="SVGID_51_" gradientUnits="userSpaceOnUse" x1="-589.4971" y1="328.248" x2="-585.9502" y2="328.248" gradientTransform="matrix(7.1067 0 0 12.3026 4339.356 -3928.1819)">
					<stop  offset="0" style="stop-color:#492300"/>
					<stop  offset="0.5" style="stop-color:#9C7955"/>
					<stop  offset="1" style="stop-color:#492300"/>
				</linearGradient>
				<rect x="149.977" y="93.275" clip-path="url(#SVGID_50_)" fill="url(#SVGID_51_)" width="25.207" height="33.702"/>
			</g>
		</g>
		<path fill="#532D00" d="M96.55,180.019c-0.169-33.21-0.216-67.401-0.136-101.601l0.005-0.908l-0.563-0.306l-0.003,1.214
			c-0.076,34.199-0.038,68.393,0.137,101.608l0.014,2.222l0.558-0.561L96.55,180.019"/>
		<g>
			<g>
				<defs>
					<path id="SVGID_52_" d="M126.897,128.374c-1.822,3.466-4.386,5.08-8.083,5.08l0.007,0.568c3.924,0,6.646-1.72,8.582-5.382
						c2.061-3.917,3.089-10.096,3.096-18.359h-0.56C129.937,118.454,128.912,124.543,126.897,128.374 M118.813,133.454l0.007,0.568
						c-1.32,0-2.508-0.239-3.398-0.488l0.558-0.439C116.773,133.298,117.753,133.454,118.813,133.454z"/>
				</defs>
				<clipPath id="SVGID_53_">
					<use xlink:href="#SVGID_52_"  overflow="visible"/>
				</clipPath>
				<path clip-path="url(#SVGID_53_)" fill="#492300" d="M126.897,128.374c-1.822,3.466-4.386,5.08-8.083,5.08l0.007,0.568
					c3.924,0,6.646-1.72,8.582-5.382c2.061-3.917,3.089-10.096,3.096-18.359h-0.56C129.937,118.454,128.912,124.543,126.897,128.374
					 M118.813,133.454l0.007,0.568c-1.32,0-2.508-0.239-3.398-0.488l0.558-0.439C116.773,133.298,117.753,133.454,118.813,133.454z"
					/>
			</g>
			<g>
				<defs>
					<path id="SVGID_54_" d="M126.897,128.374c-1.822,3.466-4.386,5.08-8.083,5.08l0.007,0.568c3.924,0,6.646-1.72,8.582-5.382
						c2.061-3.917,3.089-10.096,3.096-18.359h-0.56C129.937,118.454,128.912,124.543,126.897,128.374 M118.813,133.454l0.007,0.568
						c-1.32,0-2.508-0.239-3.398-0.488l0.558-0.439C116.773,133.298,117.753,133.454,118.813,133.454z"/>
				</defs>
				<clipPath id="SVGID_55_">
					<use xlink:href="#SVGID_54_"  overflow="visible"/>
				</clipPath>
				
					<linearGradient id="SVGID_56_" gradientUnits="userSpaceOnUse" x1="-567.5068" y1="326.5146" x2="-563.9609" y2="326.5146" gradientTransform="matrix(-4.2513 0 0 -9.4948 -2282.1418 3222.3411)">
					<stop  offset="0" style="stop-color:#492300"/>
					<stop  offset="1" style="stop-color:#70491C"/>
				</linearGradient>
				<rect x="115.422" y="110.28" clip-path="url(#SVGID_55_)" fill="url(#SVGID_56_)" width="15.076" height="23.741"/>
			</g>
		</g>
		<g>
			<g>
				<defs>
					<path id="SVGID_57_" d="M119.281,87.092L119.281,87.092v0.559c3.78,0,6.216,1.427,7.871,4.627
						c1.872,3.598,2.783,9.493,2.788,18.002h0.56c-0.007-8.605-0.936-14.574-2.847-18.262
						C125.888,88.602,123.301,87.092,119.281,87.092 M115.979,88.099l-0.558-0.415c1.015-0.326,2.425-0.592,3.858-0.592v0.559
						C118.08,87.651,116.895,87.845,115.979,88.099z"/>
				</defs>
				<clipPath id="SVGID_58_">
					<use xlink:href="#SVGID_57_"  overflow="visible"/>
				</clipPath>
				<path clip-path="url(#SVGID_58_)" fill="#492300" d="M119.281,87.092L119.281,87.092v0.559c3.78,0,6.216,1.427,7.871,4.627
					c1.872,3.598,2.783,9.493,2.788,18.002h0.56c-0.007-8.605-0.936-14.574-2.847-18.262
					C125.888,88.602,123.301,87.092,119.281,87.092 M115.979,88.099l-0.558-0.415c1.015-0.326,2.425-0.592,3.858-0.592v0.559
					C118.08,87.651,116.895,87.845,115.979,88.099z"/>
			</g>
			<g>
				<defs>
					<path id="SVGID_59_" d="M119.281,87.092L119.281,87.092v0.559c3.78,0,6.216,1.427,7.871,4.627
						c1.872,3.598,2.783,9.493,2.788,18.002h0.56c-0.007-8.605-0.936-14.574-2.847-18.262
						C125.888,88.602,123.301,87.092,119.281,87.092 M115.979,88.099l-0.558-0.415c1.015-0.326,2.425-0.592,3.858-0.592v0.559
						C118.08,87.651,116.895,87.845,115.979,88.099z"/>
				</defs>
				<clipPath id="SVGID_60_">
					<use xlink:href="#SVGID_59_"  overflow="visible"/>
				</clipPath>
				
					<linearGradient id="SVGID_61_" gradientUnits="userSpaceOnUse" x1="-567.5059" y1="328.2949" x2="-563.96" y2="328.2949" gradientTransform="matrix(-4.2513 0 0 -9.3376 -2282.1418 3164.1687)">
					<stop  offset="0" style="stop-color:#492300"/>
					<stop  offset="1" style="stop-color:#9C7955"/>
				</linearGradient>
				<rect x="115.422" y="87.092" clip-path="url(#SVGID_60_)" fill="url(#SVGID_61_)" width="15.076" height="23.188"/>
			</g>
		</g>
		<rect x="96.002" y="181.688" fill="#8A643E" width="20.016" height="0.614"/>
		<g>
			<g>
				<defs>
					<path id="SVGID_62_" d="M97.18,77.014c6.037-3.947,13.241-5.866,21.99-5.866V70.59c-8.864,0-16.158,1.938-22.301,5.951
						l-1.014,0.663l0.563,0.306L97.18,77.014 M119.17,70.591v0.558c9.624,0.014,17.525,3.678,22.848,10.618
						c5.123,6.668,7.828,16.384,7.828,28.091h0.567c-0.013-11.836-2.753-21.668-7.945-28.438
						C137.038,74.344,128.982,70.599,119.17,70.591z M115.426,149.66l0.557,0.665c1.479,0.218,3.078,0.329,4.818,0.329v-0.563
						C118.833,150.103,117.04,149.944,115.426,149.66z M149.846,109.858h0.567c0,11.88-2.614,21.954-7.57,29.141
						c-5.257,7.617-12.883,11.651-22.042,11.653v-0.563c8.97,0,16.431-3.946,21.578-11.416
						C147.261,131.586,149.846,121.619,149.846,109.858z"/>
				</defs>
				<clipPath id="SVGID_63_">
					<use xlink:href="#SVGID_62_"  overflow="visible"/>
				</clipPath>
				<path clip-path="url(#SVGID_63_)" fill="#3E1700" d="M97.18,77.014c6.037-3.947,13.241-5.866,21.99-5.866V70.59
					c-8.864,0-16.158,1.938-22.301,5.951l-1.014,0.663l0.563,0.306L97.18,77.014 M119.17,70.591v0.558
					c9.624,0.014,17.525,3.678,22.848,10.618c5.123,6.668,7.828,16.384,7.828,28.091h0.567c-0.013-11.836-2.753-21.668-7.945-28.438
					C137.038,74.344,128.982,70.599,119.17,70.591z M115.426,149.66l0.557,0.665c1.479,0.218,3.078,0.329,4.818,0.329v-0.563
					C118.833,150.103,117.04,149.944,115.426,149.66z M149.846,109.858h0.567c0,11.88-2.614,21.954-7.57,29.141
					c-5.257,7.617-12.883,11.651-22.042,11.653v-0.563c8.97,0,16.431-3.946,21.578-11.416
					C147.261,131.586,149.846,121.619,149.846,109.858z"/>
			</g>
			<g>
				<defs>
					<path id="SVGID_64_" d="M97.18,77.014c6.037-3.947,13.241-5.866,21.99-5.866V70.59c-8.864,0-16.158,1.938-22.301,5.951
						l-1.014,0.663l0.563,0.306L97.18,77.014 M119.17,70.591v0.558c9.624,0.014,17.525,3.678,22.848,10.618
						c5.123,6.668,7.828,16.384,7.828,28.091h0.567c-0.013-11.836-2.753-21.668-7.945-28.438
						C137.038,74.344,128.982,70.599,119.17,70.591z M115.426,149.66l0.557,0.665c1.479,0.218,3.078,0.329,4.818,0.329v-0.563
						C118.833,150.103,117.04,149.944,115.426,149.66z M149.846,109.858h0.567c0,11.88-2.614,21.954-7.57,29.141
						c-5.257,7.617-12.883,11.651-22.042,11.653v-0.563c8.97,0,16.431-3.946,21.578-11.416
						C147.261,131.586,149.846,121.619,149.846,109.858z"/>
				</defs>
				<clipPath id="SVGID_65_">
					<use xlink:href="#SVGID_64_"  overflow="visible"/>
				</clipPath>
				
					<linearGradient id="SVGID_66_" gradientUnits="userSpaceOnUse" x1="-588.2583" y1="328.0791" x2="-584.7119" y2="328.0791" gradientTransform="matrix(15.3826 0 0 25.3747 9144.8057 -8214.2705)">
					<stop  offset="0" style="stop-color:#3E1700"/>
					<stop  offset="1" style="stop-color:#9C7955"/>
				</linearGradient>
				<rect x="95.855" y="70.591" clip-path="url(#SVGID_65_)" fill="url(#SVGID_66_)" width="54.558" height="80.062"/>
			</g>
		</g>
		<polyline fill="#8A643E" points="191.265,96.041 191.836,97.454 191.788,77.257 191.227,77.531 191.265,96.041 		"/>
		<g>
			<g>
				<defs>
					<path id="SVGID_67_" d="M188.352,92.95c-2.653-2.829-7.3-5.871-12.375-5.961l-0.016,0.563
						c4.905,0.085,9.405,3.043,11.988,5.786l3.886,4.117l-0.571-1.413L188.352,92.95 M175.978,86.989l-0.016,0.563
						c-1.907-0.044-3.605,0.382-4.773,1.191c-1.27,0.864-1.9,2.178-1.946,3.998l-0.563-0.014
						C168.811,87.429,173.826,86.95,175.978,86.989z"/>
				</defs>
				<clipPath id="SVGID_68_">
					<use xlink:href="#SVGID_67_"  overflow="visible"/>
				</clipPath>
				<path clip-path="url(#SVGID_68_)" fill="#3E1700" d="M188.352,92.95c-2.653-2.829-7.3-5.871-12.375-5.961l-0.016,0.563
					c4.905,0.085,9.405,3.043,11.988,5.786l3.886,4.117l-0.571-1.413L188.352,92.95 M175.978,86.989l-0.016,0.563
					c-1.907-0.044-3.605,0.382-4.773,1.191c-1.27,0.864-1.9,2.178-1.946,3.998l-0.563-0.014
					C168.811,87.429,173.826,86.95,175.978,86.989z"/>
			</g>
			<g>
				<defs>
					<path id="SVGID_69_" d="M188.352,92.95c-2.653-2.829-7.3-5.871-12.375-5.961l-0.016,0.563
						c4.905,0.085,9.405,3.043,11.988,5.786l3.886,4.117l-0.571-1.413L188.352,92.95 M175.978,86.989l-0.016,0.563
						c-1.907-0.044-3.605,0.382-4.773,1.191c-1.27,0.864-1.9,2.178-1.946,3.998l-0.563-0.014
						C168.811,87.429,173.826,86.95,175.978,86.989z"/>
				</defs>
				<clipPath id="SVGID_70_">
					<use xlink:href="#SVGID_69_"  overflow="visible"/>
				</clipPath>
				
					<linearGradient id="SVGID_71_" gradientUnits="userSpaceOnUse" x1="-579.4863" y1="329.3521" x2="-575.9395" y2="329.3521" gradientTransform="matrix(-6.529 0 0 -5.7613 -3591.6306 1989.6942)">
					<stop  offset="0" style="stop-color:#3E1700"/>
					<stop  offset="1" style="stop-color:#9C7955"/>
				</linearGradient>
				<rect x="168.68" y="86.95" clip-path="url(#SVGID_70_)" fill="url(#SVGID_71_)" width="23.156" height="10.503"/>
			</g>
		</g>
		<g>
			<g>
				<defs>
					<path id="SVGID_72_" d="M149.977,93.144c0,0.042,0,0.094,0,0.137l0.559-0.005c0-0.041,0-0.098,0-0.143
						c0-7.964,3.861-13.022,7.104-15.872c4.094-3.589,9.643-5.705,15.19-5.813l-0.003-0.563c-5.691,0.115-11.36,2.283-15.565,5.961
						C152.561,80.966,149.977,86.752,149.977,93.144 M172.829,71.447l-0.003-0.563c9.3-0.175,15.347,3.493,18.125,5.705l0.839,0.668
						l-0.562,0.274l-0.63-0.506C187.875,74.864,181.958,71.272,172.829,71.447z"/>
				</defs>
				<clipPath id="SVGID_73_">
					<use xlink:href="#SVGID_72_"  overflow="visible"/>
				</clipPath>
				<path clip-path="url(#SVGID_73_)" fill="#492300" d="M149.977,93.144c0,0.042,0,0.094,0,0.137l0.559-0.005
					c0-0.041,0-0.098,0-0.143c0-7.964,3.861-13.022,7.104-15.872c4.094-3.589,9.643-5.705,15.19-5.813l-0.003-0.563
					c-5.691,0.115-11.36,2.283-15.565,5.961C152.561,80.966,149.977,86.752,149.977,93.144 M172.829,71.447l-0.003-0.563
					c9.3-0.175,15.347,3.493,18.125,5.705l0.839,0.668l-0.562,0.274l-0.63-0.506C187.875,74.864,181.958,71.272,172.829,71.447z"/>
			</g>
			<g>
				<defs>
					<path id="SVGID_74_" d="M149.977,93.144c0,0.042,0,0.094,0,0.137l0.559-0.005c0-0.041,0-0.098,0-0.143
						c0-7.964,3.861-13.022,7.104-15.872c4.094-3.589,9.643-5.705,15.19-5.813l-0.003-0.563c-5.691,0.115-11.36,2.283-15.565,5.961
						C152.561,80.966,149.977,86.752,149.977,93.144 M172.829,71.447l-0.003-0.563c9.3-0.175,15.347,3.493,18.125,5.705l0.839,0.668
						l-0.562,0.274l-0.63-0.506C187.875,74.864,181.958,71.272,172.829,71.447z"/>
				</defs>
				<clipPath id="SVGID_75_">
					<use xlink:href="#SVGID_74_"  overflow="visible"/>
				</clipPath>
				
					<linearGradient id="SVGID_76_" gradientUnits="userSpaceOnUse" x1="-586.7212" y1="326.1719" x2="-583.1743" y2="326.1719" gradientTransform="matrix(11.7886 0 0 9.1643 7066.5938 -2907.1367)">
					<stop  offset="0" style="stop-color:#492300"/>
					<stop  offset="1" style="stop-color:#70491C"/>
				</linearGradient>
				<rect x="149.977" y="70.709" clip-path="url(#SVGID_75_)" fill="url(#SVGID_76_)" width="41.811" height="22.571"/>
			</g>
		</g>
		<path fill="#785228" d="M115.45,180.046l0.004,1.691l0.565,0.564l-0.011-2.255c0,0-0.021-25.077-0.024-29.721l-0.557-0.665
			C115.426,153.355,115.45,180.046,115.45,180.046"/>
		<g>
			<g>
				<defs>
					<path id="SVGID_77_" d="M116.589,32.109c23.036-4.594,48.858-5.359,78.855-2.36l0.558-0.504
						c-30.267-3.074-56.298-2.321-79.523,2.313C85.59,37.743,59.412,50.936,38.641,70.761l0.569,0.246
						C59.87,51.348,85.896,38.259,116.589,32.109"/>
				</defs>
				<clipPath id="SVGID_78_">
					<use xlink:href="#SVGID_77_"  overflow="visible"/>
				</clipPath>
				<path clip-path="url(#SVGID_78_)" fill="#8C6741" d="M116.589,32.109c23.036-4.594,48.858-5.359,78.855-2.36l0.558-0.504
					c-30.267-3.074-56.298-2.321-79.523,2.313C85.59,37.743,59.412,50.936,38.641,70.761l0.569,0.246
					C59.87,51.348,85.896,38.259,116.589,32.109"/>
			</g>
			<g>
				<defs>
					<path id="SVGID_79_" d="M116.589,32.109c23.036-4.594,48.858-5.359,78.855-2.36l0.558-0.504
						c-30.267-3.074-56.298-2.321-79.523,2.313C85.59,37.743,59.412,50.936,38.641,70.761l0.569,0.246
						C59.87,51.348,85.896,38.259,116.589,32.109"/>
				</defs>
				<clipPath id="SVGID_80_">
					<use xlink:href="#SVGID_79_"  overflow="visible"/>
				</clipPath>
				
					<linearGradient id="SVGID_81_" gradientUnits="userSpaceOnUse" x1="-585.4224" y1="325.3159" x2="-581.876" y2="325.3159" gradientTransform="matrix(44.3701 0 0 15.4421 26013.8906 -4974.9731)">
					<stop  offset="0" style="stop-color:#8C6741"/>
					<stop  offset="1" style="stop-color:#9C7955"/>
				</linearGradient>
				<rect x="38.641" y="26.171" clip-path="url(#SVGID_80_)" fill="url(#SVGID_81_)" width="157.361" height="44.836"/>
			</g>
		</g>
		<path fill="#3F1800" d="M195.611,111.146c0,6.2-0.007,12.385-0.01,18.542c-0.018,18.894-6.861,34.558-19.817,45.324
			c-11.144,9.413-45.104,24.689-58.399,30.262v0.619c13.154-5.514,47.498-20.94,58.762-30.456
			c13.081-10.864,19.998-26.678,20.014-45.749c0.003-6.157,0.011-12.344,0.011-18.542c0-27.097-0.056-54.566-0.17-81.901
			l-0.557,0.504C195.556,56.925,195.611,84.215,195.611,111.146"/>
		<g>
			<g>
				<defs>
					<path id="SVGID_82_" d="M38.614,129.689c0.014,19.062,6.933,34.883,20.009,45.745c11.204,9.462,45.596,24.922,58.764,30.458
						v-0.619c-13.304-5.593-47.31-20.907-58.406-30.278c-12.941-10.749-19.792-26.425-19.808-45.308
						c0-6.067-0.005-12.218-0.005-18.456c0-13.117,0.009-26.583,0.043-40.225l-0.569-0.246c-0.024,13.727-0.038,27.274-0.038,40.471
						C38.604,117.47,38.604,123.622,38.614,129.689"/>
				</defs>
				<clipPath id="SVGID_83_">
					<use xlink:href="#SVGID_82_"  overflow="visible"/>
				</clipPath>
				<path clip-path="url(#SVGID_83_)" fill="#492300" d="M38.614,129.689c0.014,19.062,6.933,34.883,20.009,45.745
					c11.204,9.462,45.596,24.922,58.764,30.458v-0.619c-13.304-5.593-47.31-20.907-58.406-30.278
					c-12.941-10.749-19.792-26.425-19.808-45.308c0-6.067-0.005-12.218-0.005-18.456c0-13.117,0.009-26.583,0.043-40.225
					l-0.569-0.246c-0.024,13.727-0.038,27.274-0.038,40.471C38.604,117.47,38.604,123.622,38.614,129.689"/>
			</g>
			<g>
				<defs>
					<path id="SVGID_84_" d="M38.614,129.689c0.014,19.062,6.933,34.883,20.009,45.745c11.204,9.462,45.596,24.922,58.764,30.458
						v-0.619c-13.304-5.593-47.31-20.907-58.406-30.278c-12.941-10.749-19.792-26.425-19.808-45.308
						c0-6.067-0.005-12.218-0.005-18.456c0-13.117,0.009-26.583,0.043-40.225l-0.569-0.246c-0.024,13.727-0.038,27.274-0.038,40.471
						C38.604,117.47,38.604,123.622,38.614,129.689"/>
				</defs>
				<clipPath id="SVGID_85_">
					<use xlink:href="#SVGID_84_"  overflow="visible"/>
				</clipPath>
				
					<linearGradient id="SVGID_86_" gradientUnits="userSpaceOnUse" x1="-579.207" y1="327.2856" x2="-575.6602" y2="327.2856" gradientTransform="matrix(-22.2141 0 0 -40.9025 -12749.1572 13525.1221)">
					<stop  offset="0" style="stop-color:#492300"/>
					<stop  offset="1" style="stop-color:#70491C"/>
				</linearGradient>
				<rect x="38.604" y="70.761" clip-path="url(#SVGID_85_)" fill="url(#SVGID_86_)" width="78.782" height="135.131"/>
			</g>
		</g>
		<path fill="#905800" d="M144.346,204.268c12.951-6.089,30.048-14.751,37.92-21.418c7.823-6.491,13.774-14.459,17.712-23.665
			c3.748-8.819,5.658-18.765,5.658-29.571V25.698l-1.118,0.667c0,34.427,0,68.829,0,103.249c0,20.908-7.204,39.285-22.966,52.38
			c-15.069,12.753-64.292,33.083-64.17,32.961v1.221c1.205-0.496,5.787-2.405,8.405-3.541
			C130.17,210.743,136.934,207.755,144.346,204.268"/>
		<g>
			<g>
				<defs>
					<path id="SVGID_87_" d="M53.229,181.992c-15.75-13.094-22.954-31.471-22.954-52.378c0-34.42-0.01-68.822-0.01-103.253
						l-1.124-0.663l0.014,103.916c0,10.806,1.904,20.751,5.657,29.57c3.93,9.205,9.884,17.175,17.708,23.676
						c7.868,6.657,24.954,15.318,37.905,21.408c7.407,3.487,14.182,6.476,18.559,8.368c2.624,1.135,7.207,3.043,8.399,3.538v-1.218
						C117.521,215.077,68.298,194.747,53.229,181.992"/>
				</defs>
				<clipPath id="SVGID_88_">
					<use xlink:href="#SVGID_87_"  overflow="visible"/>
				</clipPath>
				<path clip-path="url(#SVGID_88_)" fill="#FFD568" d="M53.229,181.992c-15.75-13.094-22.954-31.471-22.954-52.378
					c0-34.42-0.01-68.822-0.01-103.253l-1.124-0.663l0.014,103.916c0,10.806,1.904,20.751,5.657,29.57
					c3.93,9.205,9.884,17.175,17.708,23.676c7.868,6.657,24.954,15.318,37.905,21.408c7.407,3.487,14.182,6.476,18.559,8.368
					c2.624,1.135,7.207,3.043,8.399,3.538v-1.218C117.521,215.077,68.298,194.747,53.229,181.992"/>
			</g>
			<g>
				<defs>
					<path id="SVGID_89_" d="M53.229,181.992c-15.75-13.094-22.954-31.471-22.954-52.378c0-34.42-0.01-68.822-0.01-103.253
						l-1.124-0.663l0.014,103.916c0,10.806,1.904,20.751,5.657,29.57c3.93,9.205,9.884,17.175,17.708,23.676
						c7.868,6.657,24.954,15.318,37.905,21.408c7.407,3.487,14.182,6.476,18.559,8.368c2.624,1.135,7.207,3.043,8.399,3.538v-1.218
						C117.521,215.077,68.298,194.747,53.229,181.992"/>
				</defs>
				<clipPath id="SVGID_90_">
					<use xlink:href="#SVGID_89_"  overflow="visible"/>
				</clipPath>
				
					<linearGradient id="SVGID_91_" gradientUnits="userSpaceOnUse" x1="-587.9873" y1="328.1045" x2="-584.4423" y2="328.1045" gradientTransform="matrix(24.8811 0 0 56.5076 14658.9238 -18419.5039)">
					<stop  offset="0" style="stop-color:#FFD568"/>
					<stop  offset="0.8353" style="stop-color:#A36D12"/>
					<stop  offset="1" style="stop-color:#905800"/>
				</linearGradient>
				<rect x="29.141" y="25.698" clip-path="url(#SVGID_90_)" fill="url(#SVGID_91_)" width="88.38" height="190.475"/>
			</g>
		</g>
		<path fill="#FFD568" d="M117.383,7.267c-0.122,0.18,48.893-2.036,87.136,19.098l1.118-0.667l-0.581-0.315
			c-31.86-17.613-71.26-19.315-86.707-19.23h-0.966h-0.949c-15.449-0.084-54.852,1.618-86.712,19.23l-0.581,0.315l1.124,0.663
			C68.507,5.227,117.521,7.447,117.383,7.267"/>
		<g>
			<g>
				<defs>
					<path id="SVGID_92_" d="M167.003,92.69l1.122,0.027c0.146-5.965,6.054-6.32,7.855-6.291l0.028-1.116
						C171.668,85.223,167.135,87.141,167.003,92.69"/>
				</defs>
				<clipPath id="SVGID_93_">
					<use xlink:href="#SVGID_92_"  overflow="visible"/>
				</clipPath>
				<path clip-path="url(#SVGID_93_)" fill="#905800" d="M167.003,92.69l1.122,0.027c0.146-5.965,6.054-6.32,7.855-6.291
					l0.028-1.116C171.668,85.223,167.135,87.141,167.003,92.69"/>
			</g>
			<g>
				<defs>
					<path id="SVGID_94_" d="M167.003,92.69l1.122,0.027c0.146-5.965,6.054-6.32,7.855-6.291l0.028-1.116
						C171.668,85.223,167.135,87.141,167.003,92.69"/>
				</defs>
				<clipPath id="SVGID_95_">
					<use xlink:href="#SVGID_94_"  overflow="visible"/>
				</clipPath>
				
					<linearGradient id="SVGID_96_" gradientUnits="userSpaceOnUse" x1="-597.2705" y1="325.7021" x2="-593.7241" y2="325.7021" gradientTransform="matrix(2.5396 0 0 4.9137 1683.8134 -1511.4316)">
					<stop  offset="0" style="stop-color:#905800"/>
					<stop  offset="1" style="stop-color:#905800"/>
				</linearGradient>
				<rect x="167.003" y="85.223" clip-path="url(#SVGID_95_)" fill="url(#SVGID_96_)" width="9.005" height="7.494"/>
			</g>
		</g>
		<g>
			<g>
				<defs>
					<path id="SVGID_97_" d="M172.86,73.129l-0.011-1.125c-5.432,0.104-10.847,2.173-14.844,5.678
						c-3.154,2.774-6.905,7.688-6.905,15.45c0,0.044,0,0.096,0,0.143l1.128-0.01C152.145,80.627,162.812,73.318,172.86,73.129"/>
				</defs>
				<clipPath id="SVGID_98_">
					<use xlink:href="#SVGID_97_"  overflow="visible"/>
				</clipPath>
				<path clip-path="url(#SVGID_98_)" fill="#EFCB95" d="M172.86,73.129l-0.011-1.125c-5.432,0.104-10.847,2.173-14.844,5.678
					c-3.154,2.774-6.905,7.688-6.905,15.45c0,0.044,0,0.096,0,0.143l1.128-0.01C152.145,80.627,162.812,73.318,172.86,73.129"/>
			</g>
			<g>
				<defs>
					<path id="SVGID_99_" d="M172.86,73.129l-0.011-1.125c-5.432,0.104-10.847,2.173-14.844,5.678
						c-3.154,2.774-6.905,7.688-6.905,15.45c0,0.044,0,0.096,0,0.143l1.128-0.01C152.145,80.627,162.812,73.318,172.86,73.129"/>
				</defs>
				<clipPath id="SVGID_100_">
					<use xlink:href="#SVGID_99_"  overflow="visible"/>
				</clipPath>
				
					<linearGradient id="SVGID_101_" gradientUnits="userSpaceOnUse" x1="-590.4785" y1="326.1484" x2="-586.9321" y2="326.1484" gradientTransform="matrix(6.1359 0 0 8.7975 3774.2146 -2786.6541)">
					<stop  offset="0" style="stop-color:#EFCB95"/>
					<stop  offset="1" style="stop-color:#E2AB53"/>
				</linearGradient>
				<rect x="151.1" y="72.004" clip-path="url(#SVGID_100_)" fill="url(#SVGID_101_)" width="21.76" height="21.271"/>
			</g>
		</g>
		<g>
			<g>
				<defs>
					<path id="SVGID_102_" d="M176.008,85.311l-0.028,1.116c5.251,0.089,10.045,3.232,12.785,6.135l1.941,2.065l-1.128-2.831
						C186.44,88.464,181.349,85.395,176.008,85.311"/>
				</defs>
				<clipPath id="SVGID_103_">
					<use xlink:href="#SVGID_102_"  overflow="visible"/>
				</clipPath>
				<path clip-path="url(#SVGID_103_)" fill="#905800" d="M176.008,85.311l-0.028,1.116c5.251,0.089,10.045,3.232,12.785,6.135
					l1.941,2.065l-1.128-2.831C186.44,88.464,181.349,85.395,176.008,85.311"/>
			</g>
			<g>
				<defs>
					<path id="SVGID_104_" d="M176.008,85.311l-0.028,1.116c5.251,0.089,10.045,3.232,12.785,6.135l1.941,2.065l-1.128-2.831
						C186.44,88.464,181.349,85.395,176.008,85.311"/>
				</defs>
				<clipPath id="SVGID_105_">
					<use xlink:href="#SVGID_104_"  overflow="visible"/>
				</clipPath>
				
					<linearGradient id="SVGID_106_" gradientUnits="userSpaceOnUse" x1="-589.9863" y1="326.0391" x2="-586.4399" y2="326.0391" gradientTransform="matrix(4.1528 0 0 5.4267 2626.0735 -1679.3447)">
					<stop  offset="0" style="stop-color:#905800"/>
					<stop  offset="0.5778" style="stop-color:#BF8934"/>
					<stop  offset="1" style="stop-color:#E4AF5D"/>
				</linearGradient>
				<rect x="175.98" y="85.311" clip-path="url(#SVGID_105_)" fill="url(#SVGID_106_)" width="14.726" height="9.316"/>
			</g>
		</g>
		<g>
			<g>
				<defs>
					<path id="SVGID_107_" d="M189.547,78.348l1.115-0.543l-0.415-0.336c-2.657-2.118-8.451-5.635-17.397-5.463l0.011,1.125
						C181.279,72.969,186.894,76.235,189.547,78.348"/>
				</defs>
				<clipPath id="SVGID_108_">
					<use xlink:href="#SVGID_107_"  overflow="visible"/>
				</clipPath>
				<path clip-path="url(#SVGID_108_)" fill="#E2AB53" d="M189.547,78.348l1.115-0.543l-0.415-0.336
					c-2.657-2.118-8.451-5.635-17.397-5.463l0.011,1.125C181.279,72.969,186.894,76.235,189.547,78.348"/>
			</g>
			<g>
				<defs>
					<path id="SVGID_109_" d="M189.547,78.348l1.115-0.543l-0.415-0.336c-2.657-2.118-8.451-5.635-17.397-5.463l0.011,1.125
						C181.279,72.969,186.894,76.235,189.547,78.348"/>
				</defs>
				<clipPath id="SVGID_110_">
					<use xlink:href="#SVGID_109_"  overflow="visible"/>
				</clipPath>
				
					<linearGradient id="SVGID_111_" gradientUnits="userSpaceOnUse" x1="-589.1309" y1="323.416" x2="-585.5845" y2="323.416" gradientTransform="matrix(5.0224 0 0 4.6368 3131.7039 -1424.526)">
					<stop  offset="0" style="stop-color:#E2AB53"/>
					<stop  offset="1" style="stop-color:#C27913"/>
				</linearGradient>
				<rect x="172.849" y="71.833" clip-path="url(#SVGID_110_)" fill="url(#SVGID_111_)" width="17.812" height="6.515"/>
			</g>
		</g>
		<path fill="#905800" d="M189.578,91.796l1.128,2.831l-0.044-16.822l-1.115,0.543C189.556,82.821,189.564,87.309,189.578,91.796"/>
		<g>
			<g>
				<defs>
					<path id="SVGID_112_" d="M177.092,104.031l0.579-0.967l-1.218-0.733c-5.083-3.024-8.431-5.009-8.328-9.615l-1.122-0.027
						C166.871,98.363,171.419,100.617,177.092,104.031"/>
				</defs>
				<clipPath id="SVGID_113_">
					<use xlink:href="#SVGID_112_"  overflow="visible"/>
				</clipPath>
				<path clip-path="url(#SVGID_113_)" fill="#DDAC72" d="M177.092,104.031l0.579-0.967l-1.218-0.733
					c-5.083-3.024-8.431-5.009-8.328-9.615l-1.122-0.027C166.871,98.363,171.419,100.617,177.092,104.031"/>
			</g>
			<g>
				<defs>
					<path id="SVGID_114_" d="M177.092,104.031l0.579-0.967l-1.218-0.733c-5.083-3.024-8.431-5.009-8.328-9.615l-1.122-0.027
						C166.871,98.363,171.419,100.617,177.092,104.031"/>
				</defs>
				<clipPath id="SVGID_115_">
					<use xlink:href="#SVGID_114_"  overflow="visible"/>
				</clipPath>
				
					<linearGradient id="SVGID_116_" gradientUnits="userSpaceOnUse" x1="-582.5171" y1="322.1162" x2="-578.9707" y2="322.1162" gradientTransform="matrix(0 -3.1975 5.8447 0 -1710.3989 -1758.5822)">
					<stop  offset="0" style="stop-color:#DDAC72"/>
					<stop  offset="1" style="stop-color:#905800"/>
				</linearGradient>
				<rect x="166.871" y="92.69" clip-path="url(#SVGID_115_)" fill="url(#SVGID_116_)" width="10.799" height="11.341"/>
			</g>
		</g>
		<g>
			<g>
				<defs>
					<path id="SVGID_117_" d="M175.745,126.952l1.122-0.02c-0.108-4.889-2.795-7.532-9.545-11.532l-0.569,0.963
						C173.639,120.45,175.651,122.822,175.745,126.952"/>
				</defs>
				<clipPath id="SVGID_118_">
					<use xlink:href="#SVGID_117_"  overflow="visible"/>
				</clipPath>
				<path clip-path="url(#SVGID_118_)" fill="#EABD79" d="M175.745,126.952l1.122-0.02c-0.108-4.889-2.795-7.532-9.545-11.532
					l-0.569,0.963C173.639,120.45,175.651,122.822,175.745,126.952"/>
			</g>
			<g>
				<defs>
					<path id="SVGID_119_" d="M175.745,126.952l1.122-0.02c-0.108-4.889-2.795-7.532-9.545-11.532l-0.569,0.963
						C173.639,120.45,175.651,122.822,175.745,126.952"/>
				</defs>
				<clipPath id="SVGID_120_">
					<use xlink:href="#SVGID_119_"  overflow="visible"/>
				</clipPath>
				
					<linearGradient id="SVGID_121_" gradientUnits="userSpaceOnUse" x1="-571.8271" y1="325.8477" x2="-568.2812" y2="325.8477" gradientTransform="matrix(-2.8519 0 0 -6.058 -1453.9464 2095.1619)">
					<stop  offset="0" style="stop-color:#EABD79"/>
					<stop  offset="1" style="stop-color:#C27913"/>
				</linearGradient>
				<rect x="166.753" y="115.4" clip-path="url(#SVGID_120_)" fill="url(#SVGID_121_)" width="10.114" height="11.552"/>
			</g>
		</g>
		<g>
			<g>
				<defs>
					<path id="SVGID_122_" d="M152.86,143.751l-1.119,0.636l0.551,0.326c5.359,3.186,11.598,4.904,17.536,4.848l-0.009-1.125
						C163.733,148.503,157.714,146.626,152.86,143.751"/>
				</defs>
				<clipPath id="SVGID_123_">
					<use xlink:href="#SVGID_122_"  overflow="visible"/>
				</clipPath>
				<path clip-path="url(#SVGID_123_)" fill="#C27913" d="M152.86,143.751l-1.119,0.636l0.551,0.326
					c5.359,3.186,11.598,4.904,17.536,4.848l-0.009-1.125C163.733,148.503,157.714,146.626,152.86,143.751"/>
			</g>
			<g>
				<defs>
					<path id="SVGID_124_" d="M152.86,143.751l-1.119,0.636l0.551,0.326c5.359,3.186,11.598,4.904,17.536,4.848l-0.009-1.125
						C163.733,148.503,157.714,146.626,152.86,143.751"/>
				</defs>
				<clipPath id="SVGID_125_">
					<use xlink:href="#SVGID_124_"  overflow="visible"/>
				</clipPath>
				
					<linearGradient id="SVGID_126_" gradientUnits="userSpaceOnUse" x1="-592.0049" y1="334.7773" x2="-588.459" y2="334.7773" gradientTransform="matrix(5.1003 0 0 4.4543 3171.1421 -1344.5125)">
					<stop  offset="0" style="stop-color:#C27913"/>
					<stop  offset="0.8538" style="stop-color:#985D03"/>
					<stop  offset="1" style="stop-color:#905800"/>
				</linearGradient>
				<rect x="151.741" y="143.751" clip-path="url(#SVGID_125_)" fill="url(#SVGID_126_)" width="18.087" height="5.866"/>
			</g>
		</g>
		<path fill="#EDC68C" d="M152.9,129.357l-1.116-2.508l-0.046,17.539l1.119-0.638C152.887,138.961,152.893,134.168,152.9,129.357"/>
		<g>
			<g>
				<defs>
					<path id="SVGID_127_" d="M152.228,93.265l-1.128,0.01c0.042,8.76,2.607,15.354,15.654,23.088l0.569-0.963
						C154.597,107.852,152.256,101.605,152.228,93.265"/>
				</defs>
				<clipPath id="SVGID_128_">
					<use xlink:href="#SVGID_127_"  overflow="visible"/>
				</clipPath>
				<path clip-path="url(#SVGID_128_)" fill="#EFCB95" d="M152.228,93.265l-1.128,0.01c0.042,8.76,2.607,15.354,15.654,23.088
					l0.569-0.963C154.597,107.852,152.256,101.605,152.228,93.265"/>
			</g>
			<g>
				<defs>
					<path id="SVGID_129_" d="M152.228,93.265l-1.128,0.01c0.042,8.76,2.607,15.354,15.654,23.088l0.569-0.963
						C154.597,107.852,152.256,101.605,152.228,93.265"/>
				</defs>
				<clipPath id="SVGID_130_">
					<use xlink:href="#SVGID_129_"  overflow="visible"/>
				</clipPath>
				
					<linearGradient id="SVGID_131_" gradientUnits="userSpaceOnUse" x1="-593.1958" y1="327.9575" x2="-589.6499" y2="327.9575" gradientTransform="matrix(4.5753 0 0 9.312 2865.1467 -2949.1331)">
					<stop  offset="0" style="stop-color:#EFCB95"/>
					<stop  offset="1" style="stop-color:#C27913"/>
				</linearGradient>
				<rect x="151.1" y="93.265" clip-path="url(#SVGID_130_)" fill="url(#SVGID_131_)" width="16.223" height="23.098"/>
			</g>
		</g>
		<g>
			<g>
				<defs>
					<path id="SVGID_132_" d="M167.682,135.646v-1.123c-4.395,0-10.034-2.407-14.04-6.005l-1.857-1.669l1.116,2.508
						C156.869,132.931,162.773,135.646,167.682,135.646"/>
				</defs>
				<clipPath id="SVGID_133_">
					<use xlink:href="#SVGID_132_"  overflow="visible"/>
				</clipPath>
				<path clip-path="url(#SVGID_133_)" fill="#EABD79" d="M167.682,135.646v-1.123c-4.395,0-10.034-2.407-14.04-6.005l-1.857-1.669
					l1.116,2.508C156.869,132.931,162.773,135.646,167.682,135.646"/>
			</g>
			<g>
				<defs>
					<path id="SVGID_134_" d="M167.682,135.646v-1.123c-4.395,0-10.034-2.407-14.04-6.005l-1.857-1.669l1.116,2.508
						C156.869,132.931,162.773,135.646,167.682,135.646"/>
				</defs>
				<clipPath id="SVGID_135_">
					<use xlink:href="#SVGID_134_"  overflow="visible"/>
				</clipPath>
				
					<linearGradient id="SVGID_136_" gradientUnits="userSpaceOnUse" x1="-574.2383" y1="324.1797" x2="-570.6909" y2="324.1797" gradientTransform="matrix(-4.4816 0 0 -5.2801 -2405.8413 1842.9481)">
					<stop  offset="0" style="stop-color:#EABD79"/>
					<stop  offset="1" style="stop-color:#C27913"/>
				</linearGradient>
				<rect x="151.784" y="126.85" clip-path="url(#SVGID_135_)" fill="url(#SVGID_136_)" width="15.897" height="8.796"/>
			</g>
		</g>
		<g>
			<g>
				<defs>
					<path id="SVGID_137_" d="M169.819,148.437l0.009,1.125c15.508-0.169,22.812-11.18,23.168-22.006l-1.115-0.047
						C191.552,137.398,184.979,148.28,169.819,148.437"/>
				</defs>
				<clipPath id="SVGID_138_">
					<use xlink:href="#SVGID_137_"  overflow="visible"/>
				</clipPath>
				<path clip-path="url(#SVGID_138_)" fill="#905800" d="M169.819,148.437l0.009,1.125c15.508-0.169,22.812-11.18,23.168-22.006
					l-1.115-0.047C191.552,137.398,184.979,148.28,169.819,148.437"/>
			</g>
			<g>
				<defs>
					<path id="SVGID_139_" d="M169.819,148.437l0.009,1.125c15.508-0.169,22.812-11.18,23.168-22.006l-1.115-0.047
						C191.552,137.398,184.979,148.28,169.819,148.437"/>
				</defs>
				<clipPath id="SVGID_140_">
					<use xlink:href="#SVGID_139_"  overflow="visible"/>
				</clipPath>
				
					<linearGradient id="SVGID_141_" gradientUnits="userSpaceOnUse" x1="-587.9268" y1="330.6406" x2="-584.3804" y2="330.6406" gradientTransform="matrix(6.5352 0 0 9.018 4012.042 -2843.1807)">
					<stop  offset="0" style="stop-color:#905800"/>
					<stop  offset="1" style="stop-color:#9A6419"/>
				</linearGradient>
				<rect x="169.819" y="127.507" clip-path="url(#SVGID_140_)" fill="url(#SVGID_141_)" width="23.177" height="22.055"/>
			</g>
		</g>
		<g>
			<g>
				<defs>
					<path id="SVGID_142_" d="M176.867,126.932l-1.122,0.02c0,0.078,0.006,0.152,0.006,0.233c0,2.081-0.657,3.854-1.884,5.107
						c-1.422,1.454-3.566,2.23-6.186,2.23v1.123C173.299,135.646,176.985,132.329,176.867,126.932"/>
				</defs>
				<clipPath id="SVGID_143_">
					<use xlink:href="#SVGID_142_"  overflow="visible"/>
				</clipPath>
				<path clip-path="url(#SVGID_143_)" fill="#EABD79" d="M176.867,126.932l-1.122,0.02c0,0.078,0.006,0.152,0.006,0.233
					c0,2.081-0.657,3.854-1.884,5.107c-1.422,1.454-3.566,2.23-6.186,2.23v1.123C173.299,135.646,176.985,132.329,176.867,126.932"
					/>
			</g>
			<g>
				<defs>
					<path id="SVGID_144_" d="M176.867,126.932l-1.122,0.02c0,0.078,0.006,0.152,0.006,0.233c0,2.081-0.657,3.854-1.884,5.107
						c-1.422,1.454-3.566,2.23-6.186,2.23v1.123C173.299,135.646,176.985,132.329,176.867,126.932"/>
				</defs>
				<clipPath id="SVGID_145_">
					<use xlink:href="#SVGID_144_"  overflow="visible"/>
				</clipPath>
				
					<linearGradient id="SVGID_146_" gradientUnits="userSpaceOnUse" x1="-596.7954" y1="331.6221" x2="-593.2498" y2="331.6221" gradientTransform="matrix(2.5908 0 0 5.2575 1713.8746 -1612.212)">
					<stop  offset="0" style="stop-color:#EABD79"/>
					<stop  offset="1" style="stop-color:#EABD79"/>
				</linearGradient>
				<rect x="167.682" y="126.932" clip-path="url(#SVGID_145_)" fill="url(#SVGID_146_)" width="9.303" height="8.714"/>
			</g>
		</g>
		<g>
			<g>
				<defs>
					<path id="SVGID_147_" d="M191.881,127.507l1.115,0.048c0.146-5.416-0.647-9.258-2.667-12.835
						c-2.341-4.153-6.366-7.865-12.66-11.657l-0.578,0.967C189.821,111.708,192.124,118.494,191.881,127.507"/>
				</defs>
				<clipPath id="SVGID_148_">
					<use xlink:href="#SVGID_147_"  overflow="visible"/>
				</clipPath>
				<path clip-path="url(#SVGID_148_)" fill="#DDAC72" d="M191.881,127.507l1.115,0.048c0.146-5.416-0.647-9.258-2.667-12.835
					c-2.341-4.153-6.366-7.865-12.66-11.657l-0.578,0.967C189.821,111.708,192.124,118.494,191.881,127.507"/>
			</g>
			<g>
				<defs>
					<path id="SVGID_149_" d="M191.881,127.507l1.115,0.048c0.146-5.416-0.647-9.258-2.667-12.835
						c-2.341-4.153-6.366-7.865-12.66-11.657l-0.578,0.967C189.821,111.708,192.124,118.494,191.881,127.507"/>
				</defs>
				<clipPath id="SVGID_150_">
					<use xlink:href="#SVGID_149_"  overflow="visible"/>
				</clipPath>
				
					<linearGradient id="SVGID_151_" gradientUnits="userSpaceOnUse" x1="-582.5938" y1="331.2344" x2="-579.0469" y2="331.2344" gradientTransform="matrix(0 6.9053 -7.3254 0 2611.5359 4126.0498)">
					<stop  offset="0" style="stop-color:#DDAC72"/>
					<stop  offset="1" style="stop-color:#9A6419"/>
				</linearGradient>
				<rect x="177.092" y="103.063" clip-path="url(#SVGID_150_)" fill="url(#SVGID_151_)" width="16.05" height="24.492"/>
			</g>
		</g>
		<g>
			<g>
				<defs>
					<path id="SVGID_152_" d="M119.281,86.526c4.198,0.009,7.02,1.663,8.87,5.231c1.96,3.762,2.902,9.828,2.902,18.523l1.13-0.006
						c0-17.603-3.803-24.864-12.901-24.864V86.526"/>
				</defs>
				<clipPath id="SVGID_153_">
					<use xlink:href="#SVGID_152_"  overflow="visible"/>
				</clipPath>
				<path clip-path="url(#SVGID_153_)" fill="#EABD79" d="M119.281,86.526c4.198,0.009,7.02,1.663,8.87,5.231
					c1.96,3.762,2.902,9.828,2.902,18.523l1.13-0.006c0-17.603-3.803-24.864-12.901-24.864V86.526"/>
			</g>
			<g>
				<defs>
					<path id="SVGID_154_" d="M119.281,86.526c4.198,0.009,7.02,1.663,8.87,5.231c1.96,3.762,2.902,9.828,2.902,18.523l1.13-0.006
						c0-17.603-3.803-24.864-12.901-24.864V86.526"/>
				</defs>
				<clipPath id="SVGID_155_">
					<use xlink:href="#SVGID_154_"  overflow="visible"/>
				</clipPath>
				
					<linearGradient id="SVGID_156_" gradientUnits="userSpaceOnUse" x1="-583.1489" y1="317.457" x2="-579.6025" y2="317.457" gradientTransform="matrix(0 -7.0123 6.4374 0 -1917.8688 -3978.9297)">
					<stop  offset="0" style="stop-color:#EABD79"/>
					<stop  offset="1" style="stop-color:#905800"/>
				</linearGradient>
				<rect x="119.281" y="85.41" clip-path="url(#SVGID_155_)" fill="url(#SVGID_156_)" width="12.901" height="24.871"/>
			</g>
		</g>
		<g>
			<g>
				<defs>
					<path id="SVGID_157_" d="M119.281,86.526V85.41c-2.109,0-4.285,0.506-5.552,1.125l1.126,0.747
						C115.959,86.88,117.587,86.526,119.281,86.526"/>
				</defs>
				<clipPath id="SVGID_158_">
					<use xlink:href="#SVGID_157_"  overflow="visible"/>
				</clipPath>
				<path clip-path="url(#SVGID_158_)" fill="#905800" d="M119.281,86.526V85.41c-2.109,0-4.285,0.506-5.552,1.125l1.126,0.747
					C115.959,86.88,117.587,86.526,119.281,86.526"/>
			</g>
			<g>
				<defs>
					<path id="SVGID_159_" d="M119.281,86.526V85.41c-2.109,0-4.285,0.506-5.552,1.125l1.126,0.747
						C115.959,86.88,117.587,86.526,119.281,86.526"/>
				</defs>
				<clipPath id="SVGID_160_">
					<use xlink:href="#SVGID_159_"  overflow="visible"/>
				</clipPath>
				
					<linearGradient id="SVGID_161_" gradientUnits="userSpaceOnUse" x1="-630.9092" y1="324.0938" x2="-627.3613" y2="324.0938" gradientTransform="matrix(1.5651 0 0 3.3281 1101.1654 -992.27)">
					<stop  offset="0" style="stop-color:#905800"/>
					<stop  offset="1" style="stop-color:#905800"/>
				</linearGradient>
				<rect x="113.729" y="85.41" clip-path="url(#SVGID_160_)" fill="url(#SVGID_161_)" width="5.552" height="1.872"/>
			</g>
		</g>
		<g>
			<g>
				<defs>
					<path id="SVGID_162_" d="M120.801,148.406v1.132c8.773-0.014,16.078-3.876,21.121-11.184
						c4.816-6.989,7.361-16.842,7.361-28.497h-1.118C148.166,132.761,138.161,148.391,120.801,148.406"/>
				</defs>
				<clipPath id="SVGID_163_">
					<use xlink:href="#SVGID_162_"  overflow="visible"/>
				</clipPath>
				<path clip-path="url(#SVGID_163_)" fill="#905800" d="M120.801,148.406v1.132c8.773-0.014,16.078-3.876,21.121-11.184
					c4.816-6.989,7.361-16.842,7.361-28.497h-1.118C148.166,132.761,138.161,148.391,120.801,148.406"/>
			</g>
			<g>
				<defs>
					<path id="SVGID_164_" d="M120.801,148.406v1.132c8.773-0.014,16.078-3.876,21.121-11.184
						c4.816-6.989,7.361-16.842,7.361-28.497h-1.118C148.166,132.761,138.161,148.391,120.801,148.406"/>
				</defs>
				<clipPath id="SVGID_165_">
					<use xlink:href="#SVGID_164_"  overflow="visible"/>
				</clipPath>
				
					<linearGradient id="SVGID_166_" gradientUnits="userSpaceOnUse" x1="-591.3008" y1="329.2129" x2="-587.7544" y2="329.2129" gradientTransform="matrix(8.0316 0 0 13.9884 4869.8906 -4475.4668)">
					<stop  offset="0" style="stop-color:#905800"/>
					<stop  offset="1" style="stop-color:#905800"/>
				</linearGradient>
				<rect x="120.801" y="109.858" clip-path="url(#SVGID_165_)" fill="url(#SVGID_166_)" width="28.482" height="39.68"/>
			</g>
		</g>
		<g>
			<g>
				<defs>
					<path id="SVGID_167_" d="M97.109,180.019v1.116l1.121-1.123c-0.172-33.171-0.213-67.702-0.143-101.588l-1.116-0.61l-0.005,0.61
						C96.891,112.618,96.938,146.809,97.109,180.019"/>
				</defs>
				<clipPath id="SVGID_168_">
					<use xlink:href="#SVGID_167_"  overflow="visible"/>
				</clipPath>
				<path clip-path="url(#SVGID_168_)" fill="#E0B27C" d="M97.109,180.019v1.116l1.121-1.123
					c-0.172-33.171-0.213-67.702-0.143-101.588l-1.116-0.61l-0.005,0.61C96.891,112.618,96.938,146.809,97.109,180.019"/>
			</g>
			<g>
				<defs>
					<path id="SVGID_169_" d="M97.109,180.019v1.116l1.121-1.123c-0.172-33.171-0.213-67.702-0.143-101.588l-1.116-0.61l-0.005,0.61
						C96.891,112.618,96.938,146.809,97.109,180.019"/>
				</defs>
				<clipPath id="SVGID_170_">
					<use xlink:href="#SVGID_169_"  overflow="visible"/>
				</clipPath>
				
					<linearGradient id="SVGID_171_" gradientUnits="userSpaceOnUse" x1="-583.1445" y1="355.3984" x2="-579.5981" y2="355.3984" gradientTransform="matrix(0 29.1327 -3.1774 0 1226.8022 17066.3906)">
					<stop  offset="0" style="stop-color:#E0B27C"/>
					<stop  offset="1" style="stop-color:#C27913"/>
				</linearGradient>
				<rect x="96.891" y="77.814" clip-path="url(#SVGID_170_)" fill="url(#SVGID_171_)" width="1.339" height="103.321"/>
			</g>
		</g>
		<g>
			<g>
				<defs>
					<path id="SVGID_172_" d="M114.854,87.281l-1.126-0.746c0,16.029,0,32.179,0.006,48.225l1.12-0.8
						C114.854,132.425,114.854,88.703,114.854,87.281"/>
				</defs>
				<clipPath id="SVGID_173_">
					<use xlink:href="#SVGID_172_"  overflow="visible"/>
				</clipPath>
				<path clip-path="url(#SVGID_173_)" fill="#905800" d="M114.854,87.281l-1.126-0.746c0,16.029,0,32.179,0.006,48.225l1.12-0.8
					C114.854,132.425,114.854,88.703,114.854,87.281"/>
			</g>
			<g>
				<defs>
					<path id="SVGID_174_" d="M114.854,87.281l-1.126-0.746c0,16.029,0,32.179,0.006,48.225l1.12-0.8
						C114.854,132.425,114.854,88.703,114.854,87.281"/>
				</defs>
				<clipPath id="SVGID_175_">
					<use xlink:href="#SVGID_174_"  overflow="visible"/>
				</clipPath>
				
					<linearGradient id="SVGID_176_" gradientUnits="userSpaceOnUse" x1="-821.3628" y1="328.1816" x2="-817.812" y2="328.1816" gradientTransform="matrix(0.3172 0 0 16.3974 374.2588 -5270.6885)">
					<stop  offset="0" style="stop-color:#905800"/>
					<stop  offset="1" style="stop-color:#905800"/>
				</linearGradient>
				<rect x="113.729" y="86.535" clip-path="url(#SVGID_175_)" fill="url(#SVGID_176_)" width="1.126" height="48.224"/>
			</g>
		</g>
		<g>
			<g>
				<defs>
					<path id="SVGID_177_" d="M148.166,109.858h1.119c-0.005-11.585-2.661-21.178-7.71-27.756
						c-5.212-6.788-12.96-10.381-22.405-10.39l-0.004,1.129C137.868,72.852,148.149,87.017,148.166,109.858"/>
				</defs>
				<clipPath id="SVGID_178_">
					<use xlink:href="#SVGID_177_"  overflow="visible"/>
				</clipPath>
				<path clip-path="url(#SVGID_178_)" fill="#EDC68C" d="M148.166,109.858h1.119c-0.005-11.585-2.661-21.178-7.71-27.756
					c-5.212-6.788-12.96-10.381-22.405-10.39l-0.004,1.129C137.868,72.852,148.149,87.017,148.166,109.858"/>
			</g>
			<g>
				<defs>
					<path id="SVGID_179_" d="M148.166,109.858h1.119c-0.005-11.585-2.661-21.178-7.71-27.756
						c-5.212-6.788-12.96-10.381-22.405-10.39l-0.004,1.129C137.868,72.852,148.149,87.017,148.166,109.858"/>
				</defs>
				<clipPath id="SVGID_180_">
					<use xlink:href="#SVGID_179_"  overflow="visible"/>
				</clipPath>
				
					<linearGradient id="SVGID_181_" gradientUnits="userSpaceOnUse" x1="-590.9639" y1="327.1934" x2="-587.4175" y2="327.1934" gradientTransform="matrix(8.4923 0 0 13.5561 5137.8125 -4344.6807)">
					<stop  offset="0" style="stop-color:#EDC68C"/>
					<stop  offset="1" style="stop-color:#905800"/>
				</linearGradient>
				<rect x="119.167" y="71.712" clip-path="url(#SVGID_180_)" fill="url(#SVGID_181_)" width="30.118" height="38.146"/>
			</g>
		</g>
		<g>
			<g>
				<defs>
					<path id="SVGID_182_" d="M119.167,72.841l0.002-1.129c-8.636,0-15.73,1.886-21.687,5.769l-0.511,0.333l1.116,0.61
						C103.751,74.736,110.642,72.841,119.167,72.841"/>
				</defs>
				<clipPath id="SVGID_183_">
					<use xlink:href="#SVGID_182_"  overflow="visible"/>
				</clipPath>
				<path clip-path="url(#SVGID_183_)" fill="#FFECC0" d="M119.167,72.841l0.002-1.129c-8.636,0-15.73,1.886-21.687,5.769
					l-0.511,0.333l1.116,0.61C103.751,74.736,110.642,72.841,119.167,72.841"/>
			</g>
			<g>
				<defs>
					<path id="SVGID_184_" d="M119.167,72.841l0.002-1.129c-8.636,0-15.73,1.886-21.687,5.769l-0.511,0.333l1.116,0.61
						C103.751,74.736,110.642,72.841,119.167,72.841"/>
				</defs>
				<clipPath id="SVGID_185_">
					<use xlink:href="#SVGID_184_"  overflow="visible"/>
				</clipPath>
				
					<linearGradient id="SVGID_186_" gradientUnits="userSpaceOnUse" x1="-596.5283" y1="323.4658" x2="-592.9814" y2="323.4658" gradientTransform="matrix(6.259 0 0 4.6925 3830.6421 -1442.795)">
					<stop  offset="0" style="stop-color:#FFECC0"/>
					<stop  offset="0.1264" style="stop-color:#FDE7B9"/>
					<stop  offset="1" style="stop-color:#EDC68C"/>
				</linearGradient>
				<rect x="96.972" y="71.712" clip-path="url(#SVGID_185_)" fill="url(#SVGID_186_)" width="22.198" height="6.712"/>
			</g>
		</g>
		<g>
			<g>
				<defs>
					<path id="SVGID_187_" d="M113.739,147.537l1.125,1.437c1.746,0.37,3.74,0.563,5.937,0.563v-1.132
						C117.587,148.418,115.304,147.998,113.739,147.537"/>
				</defs>
				<clipPath id="SVGID_188_">
					<use xlink:href="#SVGID_187_"  overflow="visible"/>
				</clipPath>
				<path clip-path="url(#SVGID_188_)" fill="#905800" d="M113.739,147.537l1.125,1.437c1.746,0.37,3.74,0.563,5.937,0.563v-1.132
					C117.587,148.418,115.304,147.998,113.739,147.537"/>
			</g>
			<g>
				<defs>
					<path id="SVGID_189_" d="M113.739,147.537l1.125,1.437c1.746,0.37,3.74,0.563,5.937,0.563v-1.132
						C117.587,148.418,115.304,147.998,113.739,147.537"/>
				</defs>
				<clipPath id="SVGID_190_">
					<use xlink:href="#SVGID_189_"  overflow="visible"/>
				</clipPath>
				
					<linearGradient id="SVGID_191_" gradientUnits="userSpaceOnUse" x1="-547.0112" y1="318.3833" x2="-543.4658" y2="318.3833" gradientTransform="matrix(-1.992 0 0 -3.3647 -968.8458 1219.8015)">
					<stop  offset="0" style="stop-color:#905800"/>
					<stop  offset="1" style="stop-color:#C27913"/>
				</linearGradient>
				<rect x="113.739" y="147.537" clip-path="url(#SVGID_190_)" fill="url(#SVGID_191_)" width="7.062" height="2"/>
			</g>
		</g>
		<g>
			<g>
				<defs>
					<path id="SVGID_192_" d="M113.762,180.046l1.131,1.137l-0.007-1.137c0,0-0.017-28.447-0.021-31.072l-1.125-1.437
						C113.753,158.471,113.758,169.344,113.762,180.046"/>
				</defs>
				<clipPath id="SVGID_193_">
					<use xlink:href="#SVGID_192_"  overflow="visible"/>
				</clipPath>
				<path clip-path="url(#SVGID_193_)" fill="#905800" d="M113.762,180.046l1.131,1.137l-0.007-1.137c0,0-0.017-28.447-0.021-31.072
					l-1.125-1.437C113.753,158.471,113.758,169.344,113.762,180.046"/>
			</g>
			<g>
				<defs>
					<path id="SVGID_194_" d="M113.762,180.046l1.131,1.137l-0.007-1.137c0,0-0.017-28.447-0.021-31.072l-1.125-1.437
						C113.753,158.471,113.758,169.344,113.762,180.046"/>
				</defs>
				<clipPath id="SVGID_195_">
					<use xlink:href="#SVGID_194_"  overflow="visible"/>
				</clipPath>
				
					<linearGradient id="SVGID_196_" gradientUnits="userSpaceOnUse" x1="-815.647" y1="331.4209" x2="-812.0981" y2="331.4209" gradientTransform="matrix(0.325 0 0 12.287 378.8363 -3907.8064)">
					<stop  offset="0" style="stop-color:#905800"/>
					<stop  offset="1" style="stop-color:#905800"/>
				</linearGradient>
				<rect x="113.739" y="147.537" clip-path="url(#SVGID_195_)" fill="url(#SVGID_196_)" width="1.153" height="33.646"/>
			</g>
		</g>
		<path fill="#905800" d="M98.23,180.012l-1.12,1.123l17.783,0.048l-1.13-1.137C108.582,180.046,103.406,180.038,98.23,180.012"/>
		<g>
			<g>
				<defs>
					<path id="SVGID_197_" d="M131.052,110.28l1.13-0.007c0,17.168-4.324,25.429-13.362,25.431v-1.125
						c4.101,0,7.068-1.86,9.074-5.68C129.993,124.896,131.052,118.641,131.052,110.28"/>
				</defs>
				<clipPath id="SVGID_198_">
					<use xlink:href="#SVGID_197_"  overflow="visible"/>
				</clipPath>
				<path clip-path="url(#SVGID_198_)" fill="#FFE4A2" d="M131.052,110.28l1.13-0.007c0,17.168-4.324,25.429-13.362,25.431v-1.125
					c4.101,0,7.068-1.86,9.074-5.68C129.993,124.896,131.052,118.641,131.052,110.28"/>
			</g>
			<g>
				<defs>
					<path id="SVGID_199_" d="M131.052,110.28l1.13-0.007c0,17.168-4.324,25.429-13.362,25.431v-1.125
						c4.101,0,7.068-1.86,9.074-5.68C129.993,124.896,131.052,118.641,131.052,110.28"/>
				</defs>
				<clipPath id="SVGID_200_">
					<use xlink:href="#SVGID_199_"  overflow="visible"/>
				</clipPath>
				
					<linearGradient id="SVGID_201_" gradientUnits="userSpaceOnUse" x1="-602.8813" y1="329.2598" x2="-599.334" y2="329.2598" gradientTransform="matrix(3.5289 0 0 9.9706 2246.6082 -3159.9314)">
					<stop  offset="0" style="stop-color:#FFE4A2"/>
					<stop  offset="0.1" style="stop-color:#FFE4A2"/>
					<stop  offset="0.6" style="stop-color:#F7E4CA"/>
					<stop  offset="1" style="stop-color:#EABD79"/>
				</linearGradient>
				<rect x="118.82" y="110.273" clip-path="url(#SVGID_200_)" fill="url(#SVGID_201_)" width="13.362" height="25.431"/>
			</g>
		</g>
		<path fill="#FFE4A2" d="M118.82,134.58c-1.583,0-2.996-0.332-3.965-0.62l-1.12,0.799c1.12,0.419,2.984,0.945,5.086,0.945
			L118.82,134.58"/>
		<g>
			<g>
				<defs>
					<path id="SVGID_202_" d="M75.123,74.582L74,73.462l-0.006,1.104c-0.052,12.115-0.085,24.364-0.085,36.602
						c0,7.224,0.014,14.442,0.039,21.629l1.114,0.634C75.011,113.826,75.03,94.098,75.123,74.582"/>
				</defs>
				<clipPath id="SVGID_203_">
					<use xlink:href="#SVGID_202_"  overflow="visible"/>
				</clipPath>
				<path clip-path="url(#SVGID_203_)" fill="#DB9A28" d="M75.123,74.582L74,73.462l-0.006,1.104
					c-0.052,12.115-0.085,24.364-0.085,36.602c0,7.224,0.014,14.442,0.039,21.629l1.114,0.634
					C75.011,113.826,75.03,94.098,75.123,74.582"/>
			</g>
			<g>
				<defs>
					<path id="SVGID_204_" d="M75.123,74.582L74,73.462l-0.006,1.104c-0.052,12.115-0.085,24.364-0.085,36.602
						c0,7.224,0.014,14.442,0.039,21.629l1.114,0.634C75.011,113.826,75.03,94.098,75.123,74.582"/>
				</defs>
				<clipPath id="SVGID_205_">
					<use xlink:href="#SVGID_204_"  overflow="visible"/>
				</clipPath>
				
					<linearGradient id="SVGID_206_" gradientUnits="userSpaceOnUse" x1="-583.7944" y1="360.9609" x2="-580.248" y2="360.9609" gradientTransform="matrix(0 16.9098 -3.1425 0 1208.8391 9945.293)">
					<stop  offset="0" style="stop-color:#DB9A28"/>
					<stop  offset="1" style="stop-color:#C27913"/>
				</linearGradient>
				<rect x="73.909" y="73.461" clip-path="url(#SVGID_205_)" fill="url(#SVGID_206_)" width="1.213" height="59.969"/>
			</g>
		</g>
		<g>
			<g>
				<defs>
					<path id="SVGID_207_" d="M90.61,142.362l1.124,0.595l-0.004-0.595c-0.062-22.69-0.07-45.527,0.014-67.887l0.005-1.124
						l-1.125,1.124C90.537,96.991,90.537,119.804,90.61,142.362"/>
				</defs>
				<clipPath id="SVGID_208_">
					<use xlink:href="#SVGID_207_"  overflow="visible"/>
				</clipPath>
				<path clip-path="url(#SVGID_208_)" fill="#C27913" d="M90.61,142.362l1.124,0.595l-0.004-0.595
					c-0.062-22.69-0.07-45.527,0.014-67.887l0.005-1.124l-1.125,1.124C90.537,96.991,90.537,119.804,90.61,142.362"/>
			</g>
			<g>
				<defs>
					<path id="SVGID_209_" d="M90.61,142.362l1.124,0.595l-0.004-0.595c-0.062-22.69-0.07-45.527,0.014-67.887l0.005-1.124
						l-1.125,1.124C90.537,96.991,90.537,119.804,90.61,142.362"/>
				</defs>
				<clipPath id="SVGID_210_">
					<use xlink:href="#SVGID_209_"  overflow="visible"/>
				</clipPath>
				
					<linearGradient id="SVGID_211_" gradientUnits="userSpaceOnUse" x1="-583.6191" y1="357.1782" x2="-580.0728" y2="357.1782" gradientTransform="matrix(0 19.627 -3.1415 0 1213.2164 11528.0557)">
					<stop  offset="0" style="stop-color:#C27913"/>
					<stop  offset="0.8538" style="stop-color:#985D03"/>
					<stop  offset="1" style="stop-color:#905800"/>
				</linearGradient>
				<rect x="90.537" y="73.352" clip-path="url(#SVGID_210_)" fill="url(#SVGID_211_)" width="1.212" height="69.605"/>
			</g>
		</g>
		<path fill="#F7E4CA" d="M90.624,74.476l1.125-1.124l-1.125,0.005L74,73.461l1.123,1.12C80.266,74.538,85.439,74.503,90.624,74.476
			"/>
		<g>
			<g>
				<defs>
					<path id="SVGID_212_" d="M67.278,148.457l-0.014,1.126c9.487,0.089,17.772-2.079,23.974-6.286l0.497-0.339l-1.124-0.595
						C84.658,146.403,76.694,148.544,67.278,148.457"/>
				</defs>
				<clipPath id="SVGID_213_">
					<use xlink:href="#SVGID_212_"  overflow="visible"/>
				</clipPath>
				<path clip-path="url(#SVGID_213_)" fill="#905800" d="M67.278,148.457l-0.014,1.126c9.487,0.089,17.772-2.079,23.974-6.286
					l0.497-0.339l-1.124-0.595C84.658,146.403,76.694,148.544,67.278,148.457"/>
			</g>
			<g>
				<defs>
					<path id="SVGID_214_" d="M67.278,148.457l-0.014,1.126c9.487,0.089,17.772-2.079,23.974-6.286l0.497-0.339l-1.124-0.595
						C84.658,146.403,76.694,148.544,67.278,148.457"/>
				</defs>
				<clipPath id="SVGID_215_">
					<use xlink:href="#SVGID_214_"  overflow="visible"/>
				</clipPath>
				
					<linearGradient id="SVGID_216_" gradientUnits="userSpaceOnUse" x1="-598.3174" y1="334.0986" x2="-594.771" y2="334.0986" gradientTransform="matrix(6.9002 0 0 4.861 4195.7666 -1478.0365)">
					<stop  offset="0" style="stop-color:#905800"/>
					<stop  offset="1" style="stop-color:#905800"/>
				</linearGradient>
				<rect x="67.263" y="142.362" clip-path="url(#SVGID_215_)" fill="url(#SVGID_216_)" width="24.471" height="7.311"/>
			</g>
		</g>
		<g>
			<g>
				<defs>
					<path id="SVGID_217_" d="M67.761,135.259c3.132,0.027,5.63-0.673,7.303-1.83l-1.115-0.634c-1.555,0.88-3.711,1.369-6.183,1.348
						L67.761,135.259 M67.761,135.259l0.004-1.116c-2.685-0.025-4.548-1.087-5.683-3.259c-0.842-1.613-1.271-3.835-1.28-6.597h-1.12
						C59.69,128.677,60.731,135.21,67.761,135.259z M59.758,74.723l1.129-1.136l-0.005,1.136
						c-0.074,16.523-0.104,33.202-0.08,49.564h-1.12C59.652,107.749,59.682,91.192,59.758,74.723z"/>
				</defs>
				<clipPath id="SVGID_218_">
					<use xlink:href="#SVGID_217_"  overflow="visible"/>
				</clipPath>
				
					<linearGradient id="SVGID_219_" gradientUnits="userSpaceOnUse" x1="-112.0796" y1="926.0215" x2="-96.6865" y2="926.0215" gradientTransform="matrix(1 0 0 -1 171.75 1030.4453)">
					<stop  offset="0" style="stop-color:#CE8E3E"/>
					<stop  offset="1" style="stop-color:#FFE7B0"/>
				</linearGradient>
				<path clip-path="url(#SVGID_218_)" fill="url(#SVGID_219_)" d="M67.761,135.259c3.132,0.027,5.63-0.673,7.303-1.83l-1.115-0.634
					c-1.555,0.88-3.711,1.369-6.183,1.348L67.761,135.259 M67.761,135.259l0.004-1.116c-2.685-0.025-4.548-1.087-5.683-3.259
					c-0.842-1.613-1.271-3.835-1.28-6.597h-1.12C59.69,128.677,60.731,135.21,67.761,135.259z M59.758,74.723l1.129-1.136
					l-0.005,1.136c-0.074,16.523-0.104,33.202-0.08,49.564h-1.12C59.652,107.749,59.682,91.192,59.758,74.723z"/>
			</g>
		</g>
		<g>
			<g>
				<defs>
					<path id="SVGID_220_" d="M44.586,123.531h-1.127c0.016,8.448,1.971,14.953,5.917,19.303c3.999,4.402,10.016,6.663,17.887,6.751
						l0.014-1.126C52.071,148.302,44.614,139.892,44.586,123.531"/>
				</defs>
				<clipPath id="SVGID_221_">
					<use xlink:href="#SVGID_220_"  overflow="visible"/>
				</clipPath>
				<path clip-path="url(#SVGID_221_)" fill="#DB9A28" d="M44.586,123.531h-1.127c0.016,8.448,1.971,14.953,5.917,19.303
					c3.999,4.402,10.016,6.663,17.887,6.751l0.014-1.126C52.071,148.302,44.614,139.892,44.586,123.531"/>
			</g>
			<g>
				<defs>
					<path id="SVGID_222_" d="M44.586,123.531h-1.127c0.016,8.448,1.971,14.953,5.917,19.303c3.999,4.402,10.016,6.663,17.887,6.751
						l0.014-1.126C52.071,148.302,44.614,139.892,44.586,123.531"/>
				</defs>
				<clipPath id="SVGID_223_">
					<use xlink:href="#SVGID_222_"  overflow="visible"/>
				</clipPath>
				
					<linearGradient id="SVGID_224_" gradientUnits="userSpaceOnUse" x1="-601.2974" y1="330.1953" x2="-597.751" y2="330.1953" gradientTransform="matrix(6.7156 0 0 10.1452 4081.5352 -3213.3408)">
					<stop  offset="0" style="stop-color:#DB9A28"/>
					<stop  offset="0.9376" style="stop-color:#955C03"/>
					<stop  offset="1" style="stop-color:#905800"/>
				</linearGradient>
				<rect x="43.459" y="123.531" clip-path="url(#SVGID_223_)" fill="url(#SVGID_224_)" width="23.818" height="26.053"/>
			</g>
		</g>
		<path fill="#FAEFE1" d="M59.758,74.723l1.129-1.136L43.462,73.8l1.126,1.107C49.598,74.836,54.657,74.77,59.758,74.723"/>
		<g>
			<g>
				<defs>
					<polyline id="SVGID_225_" points="43.459,123.531 44.586,123.531 44.588,74.907 43.462,73.8 43.459,123.531 					"/>
				</defs>
				<clipPath id="SVGID_226_">
					<use xlink:href="#SVGID_225_"  overflow="visible"/>
				</clipPath>
				<rect x="43.459" y="73.8" clip-path="url(#SVGID_226_)" fill="#DB9A28" width="1.129" height="49.731"/>
			</g>
			<g>
				<defs>
					<polyline id="SVGID_227_" points="43.459,123.531 44.586,123.531 44.588,74.907 43.462,73.8 43.459,123.531 					"/>
				</defs>
				<clipPath id="SVGID_228_">
					<use xlink:href="#SVGID_227_"  overflow="visible"/>
				</clipPath>
				
					<linearGradient id="SVGID_229_" gradientUnits="userSpaceOnUse" x1="-583.501" y1="287.5396" x2="-579.9541" y2="287.5396" gradientTransform="matrix(0 -14.0223 3.1179 0 -852.4964 -8058.4941)">
					<stop  offset="0" style="stop-color:#DB9A28"/>
					<stop  offset="0.9376" style="stop-color:#955C03"/>
					<stop  offset="1" style="stop-color:#905800"/>
				</linearGradient>
				<rect x="43.459" y="73.8" clip-path="url(#SVGID_228_)" fill="url(#SVGID_229_)" width="1.129" height="49.731"/>
			</g>
		</g>
		<path fill="#C27913" d="M116.371,31.005c23.411-4.668,49.655-5.411,80.195-2.271l1.123-1.022
			c-25.494-2.681-53.584-3.389-81.541,2.189c-27.902,5.586-55.674,17.457-79.194,40.122l1.124,0.492
			C58.953,50.525,85.292,37.233,116.371,31.005"/>
		<path fill="#FFD568" d="M196.566,28.734c0.111,27.506,0.173,55.145,0.173,82.412c0,6.2-0.007,12.385-0.011,18.542
			c-0.023,19.237-7.01,35.21-20.219,46.181c-11.378,9.612-46.115,25.187-59.124,30.627v1.227
			c10.27-4.278,47.691-20.722,59.853-30.991c13.634-11.325,20.6-27.648,20.617-47.044c0.027-34.04-0.021-68.146-0.166-101.977
			L196.566,28.734"/>
		<g>
			<g>
				<defs>
					<path id="SVGID_230_" d="M58.258,175.871c-13.201-10.979-20.193-26.945-20.208-46.181c-0.005-6.061-0.008-12.219-0.008-18.456
						c0-13.277,0.012-26.906,0.036-40.718l-1.124-0.492c-0.033,19.863-0.052,39.779-0.03,59.667
						c0.014,19.396,6.977,35.718,20.62,47.043c12.162,10.269,49.594,26.713,59.841,30.99v-1.225
						C104.36,201.04,69.581,185.426,58.258,175.871"/>
				</defs>
				<clipPath id="SVGID_231_">
					<use xlink:href="#SVGID_230_"  overflow="visible"/>
				</clipPath>
				<path clip-path="url(#SVGID_231_)" fill="#C27913" d="M58.258,175.871c-13.201-10.979-20.193-26.945-20.208-46.181
					c-0.005-6.061-0.008-12.219-0.008-18.456c0-13.277,0.012-26.906,0.036-40.718l-1.124-0.492
					c-0.033,19.863-0.052,39.779-0.03,59.667c0.014,19.396,6.977,35.718,20.62,47.043c12.162,10.269,49.594,26.713,59.841,30.99
					v-1.225C104.36,201.04,69.581,185.426,58.258,175.871"/>
			</g>
			<g>
				<defs>
					<path id="SVGID_232_" d="M58.258,175.871c-13.201-10.979-20.193-26.945-20.208-46.181c-0.005-6.061-0.008-12.219-0.008-18.456
						c0-13.277,0.012-26.906,0.036-40.718l-1.124-0.492c-0.033,19.863-0.052,39.779-0.03,59.667
						c0.014,19.396,6.977,35.718,20.62,47.043c12.162,10.269,49.594,26.713,59.841,30.99v-1.225
						C104.36,201.04,69.581,185.426,58.258,175.871"/>
				</defs>
				<clipPath id="SVGID_233_">
					<use xlink:href="#SVGID_232_"  overflow="visible"/>
				</clipPath>
				
					<linearGradient id="SVGID_234_" gradientUnits="userSpaceOnUse" x1="-584.4199" y1="323.8857" x2="-580.873" y2="323.8857" gradientTransform="matrix(0 -38.8261 25.494 0 -8180.0181 -22483.0039)">
					<stop  offset="0" style="stop-color:#C27913"/>
					<stop  offset="0.3" style="stop-color:#DB9A28"/>
					<stop  offset="1" style="stop-color:#C27913"/>
				</linearGradient>
				<rect x="36.903" y="70.023" clip-path="url(#SVGID_233_)" fill="url(#SVGID_234_)" width="80.483" height="137.7"/>
			</g>
		</g>
		<g>
			<g>
				<defs>
					<path id="SVGID_235_" d="M176.863,126.932c-0.104-4.889-2.788-7.532-9.541-11.541c-12.719-7.543-15.066-13.792-15.101-22.126
						c-0.077-12.644,10.591-19.947,20.644-20.136c8.409-0.161,14.03,3.109,16.68,5.218c0.013,4.476,0.023,8.961,0.026,13.443
						c-3.133-3.332-8.224-6.384-13.569-6.479c-4.336-0.082-8.866,1.83-9.004,7.378c-0.125,5.666,4.424,7.928,10.093,11.341
						c12.725,7.677,15.034,14.457,14.789,23.477c-0.326,9.884-6.898,20.759-22.062,20.925c-6.075,0.062-12.108-1.814-16.957-4.682
						c0.02-4.789,0.035-9.586,0.041-14.401c3.97,3.568,9.875,6.29,14.776,6.29C173.299,135.636,176.985,132.335,176.863,126.932
						 M113.729,86.53c1.268-0.614,3.44-1.12,5.552-1.12c9.105,0,12.887,7.267,12.901,24.864
						c-0.008,17.156-4.332,25.427-13.366,25.427c-2.109,0-3.959-0.526-5.088-0.948C113.725,118.713,113.727,102.569,113.729,86.53z
						 M113.759,180.051c-0.007-10.717-0.019-21.574-0.021-32.512c1.554,0.458,3.849,0.873,7.059,0.87
						c17.358-0.017,27.364-15.648,27.364-38.551c-0.011-22.841-10.297-37.006-28.996-37.018c-8.523,0-15.421,1.895-21.077,5.583
						c-0.078,33.886-0.031,68.417,0.136,101.581C103.399,180.034,108.581,180.046,113.759,180.051z M67.761,135.259
						c3.132,0.02,5.631-0.686,7.304-1.843c-0.055-19.597-0.039-39.313,0.057-58.835c5.145-0.043,10.317-0.079,15.503-0.101
						c-0.076,22.51-0.081,45.32-0.014,67.877c-5.951,4.039-13.911,6.186-23.328,6.099c-15.207-0.154-22.667-8.572-22.696-24.932
						c0-16.209,0.002-32.442,0.002-48.617c5.01-0.071,10.076-0.126,15.172-0.184c-0.079,16.458-0.105,33.03-0.079,49.56
						C59.696,128.675,60.734,135.21,67.761,135.259z"/>
				</defs>
				<clipPath id="SVGID_236_">
					<use xlink:href="#SVGID_235_"  overflow="visible"/>
				</clipPath>
				<path clip-path="url(#SVGID_236_)" fill="#DA9017" d="M176.863,126.932c-0.104-4.889-2.788-7.532-9.541-11.541
					c-12.719-7.543-15.066-13.792-15.101-22.126c-0.077-12.644,10.591-19.947,20.644-20.136c8.409-0.161,14.03,3.109,16.68,5.218
					c0.013,4.476,0.023,8.961,0.026,13.443c-3.133-3.332-8.224-6.384-13.569-6.479c-4.336-0.082-8.866,1.83-9.004,7.378
					c-0.125,5.666,4.424,7.928,10.093,11.341c12.725,7.677,15.034,14.457,14.789,23.477c-0.326,9.884-6.898,20.759-22.062,20.925
					c-6.075,0.062-12.108-1.814-16.957-4.682c0.02-4.789,0.035-9.586,0.041-14.401c3.97,3.568,9.875,6.29,14.776,6.29
					C173.299,135.636,176.985,132.335,176.863,126.932 M113.729,86.53c1.268-0.614,3.44-1.12,5.552-1.12
					c9.105,0,12.887,7.267,12.901,24.864c-0.008,17.156-4.332,25.427-13.366,25.427c-2.109,0-3.959-0.526-5.088-0.948
					C113.725,118.713,113.727,102.569,113.729,86.53z M113.759,180.051c-0.007-10.717-0.019-21.574-0.021-32.512
					c1.554,0.458,3.849,0.873,7.059,0.87c17.358-0.017,27.364-15.648,27.364-38.551c-0.011-22.841-10.297-37.006-28.996-37.018
					c-8.523,0-15.421,1.895-21.077,5.583c-0.078,33.886-0.031,68.417,0.136,101.581
					C103.399,180.034,108.581,180.046,113.759,180.051z M67.761,135.259c3.132,0.02,5.631-0.686,7.304-1.843
					c-0.055-19.597-0.039-39.313,0.057-58.835c5.145-0.043,10.317-0.079,15.503-0.101c-0.076,22.51-0.081,45.32-0.014,67.877
					c-5.951,4.039-13.911,6.186-23.328,6.099c-15.207-0.154-22.667-8.572-22.696-24.932c0-16.209,0.002-32.442,0.002-48.617
					c5.01-0.071,10.076-0.126,15.172-0.184c-0.079,16.458-0.105,33.03-0.079,49.56C59.696,128.675,60.734,135.21,67.761,135.259z"/>
			</g>
			<g>
				<defs>
					<path id="SVGID_237_" d="M176.863,126.932c-0.104-4.889-2.788-7.532-9.541-11.541c-12.719-7.543-15.066-13.792-15.101-22.126
						c-0.077-12.644,10.591-19.947,20.644-20.136c8.409-0.161,14.03,3.109,16.68,5.218c0.013,4.476,0.023,8.961,0.026,13.443
						c-3.133-3.332-8.224-6.384-13.569-6.479c-4.336-0.082-8.866,1.83-9.004,7.378c-0.125,5.666,4.424,7.928,10.093,11.341
						c12.725,7.677,15.034,14.457,14.789,23.477c-0.326,9.884-6.898,20.759-22.062,20.925c-6.075,0.062-12.108-1.814-16.957-4.682
						c0.02-4.789,0.035-9.586,0.041-14.401c3.97,3.568,9.875,6.29,14.776,6.29C173.299,135.636,176.985,132.335,176.863,126.932
						 M113.729,86.53c1.268-0.614,3.44-1.12,5.552-1.12c9.105,0,12.887,7.267,12.901,24.864
						c-0.008,17.156-4.332,25.427-13.366,25.427c-2.109,0-3.959-0.526-5.088-0.948C113.725,118.713,113.727,102.569,113.729,86.53z
						 M113.759,180.051c-0.007-10.717-0.019-21.574-0.021-32.512c1.554,0.458,3.849,0.873,7.059,0.87
						c17.358-0.017,27.364-15.648,27.364-38.551c-0.011-22.841-10.297-37.006-28.996-37.018c-8.523,0-15.421,1.895-21.077,5.583
						c-0.078,33.886-0.031,68.417,0.136,101.581C103.399,180.034,108.581,180.046,113.759,180.051z M67.761,135.259
						c3.132,0.02,5.631-0.686,7.304-1.843c-0.055-19.597-0.039-39.313,0.057-58.835c5.145-0.043,10.317-0.079,15.503-0.101
						c-0.076,22.51-0.081,45.32-0.014,67.877c-5.951,4.039-13.911,6.186-23.328,6.099c-15.207-0.154-22.667-8.572-22.696-24.932
						c0-16.209,0.002-32.442,0.002-48.617c5.01-0.071,10.076-0.126,15.172-0.184c-0.079,16.458-0.105,33.03-0.079,49.56
						C59.696,128.675,60.734,135.21,67.761,135.259z"/>
				</defs>
				<clipPath id="SVGID_238_">
					<use xlink:href="#SVGID_237_"  overflow="visible"/>
				</clipPath>
				
					<radialGradient id="SVGID_239_" cx="-101.2109" cy="939.2559" r="101.442" gradientTransform="matrix(1 0 0 -1 171.75 1030.4453)" gradientUnits="userSpaceOnUse">
					<stop  offset="0" style="stop-color:#FFE7B0"/>
					<stop  offset="0.5275" style="stop-color:#FEBF52"/>
					<stop  offset="0.5568" style="stop-color:#F9B94C"/>
					<stop  offset="1" style="stop-color:#DA9017"/>
				</radialGradient>
				<rect x="44.217" y="72.793" clip-path="url(#SVGID_238_)" fill="url(#SVGID_239_)" width="148.211" height="107.836"/>
			</g>
		</g>
		<path fill="#905800" d="M175.053,217.393v-7.061l-2.307,7.061h-1.364l-2.271-7.061v7.061h-1.757v-10.007h2.332l2.396,7.53
			l2.417-7.53h2.366v10.007H175.053 M163.433,208.89v8.503h-1.909v-8.503h-2.536v-1.503h6.976v1.503H163.433z"/>
	</g>
</g>
</svg>
