<?xml version="1.0" encoding="utf-8"?>
<!-- Generator: Adobe Illustrator 15.0.0, SVG Export Plug-In . SVG Version: 6.00 Build 0)  -->
<!DOCTYPE svg PUBLIC "-//W3C//DTD SVG 1.0//EN" "http://www.w3.org/TR/2001/REC-SVG-20010904/DTD/svg10.dtd">
<svg version="1.0" id="Layer_1" xmlns="http://www.w3.org/2000/svg" xmlns:xlink="http://www.w3.org/1999/xlink" x="0px" y="0px"
	 width="799px" height="250px" viewBox="0 0 799 250" enable-background="new 0 0 799 250" xml:space="preserve">
<g>
	<path fill="#35368F" d="M157.674,137.099h8.744c-3.899,17.725-18.552,29.896-38.285,29.896c-23.16,0-41.712-18.197-41.712-41.83
		s18.552-41.83,41.712-41.83c19.733,0,34.386,12.171,38.285,29.896h-8.744c-3.427-13.234-14.416-21.86-29.541-21.86
		c-18.67,0-33.204,14.534-33.204,33.795s14.534,33.795,33.204,33.795C143.258,158.959,154.247,150.333,157.674,137.099z"/>
	<path fill="#35368F" d="M269.814,125.164c0,23.16-18.67,41.83-41.83,41.83s-41.83-18.67-41.83-41.83s18.67-41.83,41.83-41.83
		S269.814,102.004,269.814,125.164z M261.307,125.164c0-18.67-14.652-34.031-33.44-34.031c-18.67,0-33.322,15.361-33.322,34.031
		s14.652,34.031,33.322,34.031C246.654,159.195,261.307,143.834,261.307,125.164z"/>
	<path fill="#35368F" d="M361.157,165.34h-7.208l-52.465-65.227v65.227h-8.39V84.988h6.972l52.701,65.936V84.988h8.39V165.34z"/>
	<path fill="#35368F" d="M417.287,92.669v72.671h-8.391V92.669h-29.895v-7.681h68.18v7.681H417.287z"/>
	<path fill="#35368F" d="M473.417,136.153v29.187h-8.39V84.988h29.896c18.079,0,30.604,9.808,30.604,25.642
		c0,13.116-8.744,22.215-22.215,24.814l25.76,29.896h-10.517l-25.169-29.187H473.417z M494.687,128.473
		c13.116,0,22.451-6.735,22.451-17.843c0-11.226-9.335-17.961-22.451-17.961h-21.27v35.804H494.687z"/>
	<path fill="#35368F" d="M626.206,125.164c0,23.16-18.67,41.83-41.83,41.83s-41.83-18.67-41.83-41.83s18.67-41.83,41.83-41.83
		S626.206,102.004,626.206,125.164z M617.698,125.164c0-18.67-14.652-34.031-33.44-34.031c-18.67,0-33.322,15.361-33.322,34.031
		s14.652,34.031,33.322,34.031C603.046,159.195,617.698,143.834,617.698,125.164z"/>
	<path fill="#35368F" d="M702.66,165.34h-53.174V84.988h8.39v72.789h44.784V165.34z"/>
	<path fill="#35368F" d="M779.941,106.73h-8.271c-1.891-9.808-8.98-16.188-22.451-16.188c-12.171,0-20.206,5.908-20.206,15.243
		c0,7.326,5.79,11.816,16.425,13.707l12.171,2.363c14.298,2.718,22.333,9.453,22.333,20.915c0,14.652-11.935,24.342-29.896,24.342
		c-19.261,0-31.55-10.044-33.44-27.414h8.271c2.009,12.525,10.753,19.852,25.523,19.852c12.88,0,21.033-6.263,21.033-15.834
		c0-6.735-4.727-11.816-15.125-13.707l-13.943-2.718c-14.771-2.718-22.215-10.162-22.215-21.033
		c0-13.825,11.462-23.042,28.478-23.042C764.935,83.216,777.933,90.896,779.941,106.73z"/>
</g>
<g>
	<g>
		<path fill="#35368F" d="M551.831,201.805c0,11.58-9.335,20.915-20.915,20.915s-20.915-9.335-20.915-20.915
			s9.335-20.915,20.915-20.915S551.831,190.225,551.831,201.805z M547.577,201.805c0-9.335-7.326-17.016-16.72-17.016
			c-9.336,0-16.662,7.681-16.662,17.016s7.326,17.016,16.662,17.016C540.251,218.82,547.577,211.14,547.577,201.805z"/>
		<path fill="#35368F" d="M602.288,221.893h-3.604l-26.232-32.613v32.613h-4.194v-40.176h3.485l26.352,32.968v-32.968h4.194V221.893
			z"/>
		<path fill="#35368F" d="M647.132,221.893h-26.587v-40.176h4.195v36.395h22.392V221.893z"/>
		<path fill="#35368F" d="M665.803,221.893h-4.195v-40.176h4.195V221.893z"/>
		<path fill="#35368F" d="M718.031,221.893h-3.604l-26.232-32.613v32.613H684v-40.176h3.486l26.35,32.968v-32.968h4.195V221.893z"/>
		<path fill="#35368F" d="M740.484,199.973h21.328v3.9h-21.328v14.18h23.691v3.84h-27.887v-40.176h27.887v3.84h-23.691V199.973z"/>
	</g>
</g>
<g>
	<path fill="#2FB24B" d="M137.699,47.256c1.169-4.527,5.784-7.253,10.315-6.082c4.529,1.164,7.252,5.781,6.087,10.309
		c-1.167,4.53-5.785,7.256-10.315,6.087C139.257,56.404,136.531,51.786,137.699,47.256z"/>
	<path fill="#2FB24B" d="M150.09,19.084c0.484-1.868,2.391-2.997,4.264-2.514c1.871,0.485,2.996,2.391,2.516,4.264
		c-0.485,1.868-2.392,2.992-4.264,2.512C150.735,22.865,149.612,20.957,150.09,19.084z"/>
	<path fill="#2FB24B" d="M120.23,16.575c-0.04-1.93,1.494-3.532,3.428-3.572c1.932-0.04,3.531,1.493,3.571,3.428
		c0.04,1.929-1.495,3.529-3.426,3.569C121.873,20.042,120.271,18.509,120.23,16.575z"/>
	<circle fill="#2FB24B" cx="94.153" cy="21.201" r="3.499"/>
	<path fill="#2FB24B" d="M63.984,35.586c-1.034-1.63-0.556-3.793,1.075-4.832c1.627-1.039,3.79-0.558,4.83,1.072
		c1.038,1.628,0.559,3.793-1.071,4.832C67.188,37.697,65.024,37.216,63.984,35.586z"/>
	<path fill="#2FB24B" d="M41.772,55.694c-1.438-1.291-1.558-3.498-0.272-4.94c1.291-1.437,3.502-1.562,4.94-0.273
		c1.442,1.291,1.563,3.503,0.275,4.942C45.424,56.863,43.215,56.986,41.772,55.694z"/>
	<circle fill="#66BB48" cx="27.351" cy="77.914" r="3.499"/>
	<path fill="#66BB48" d="M17.276,109.776c-1.903-0.352-3.153-2.182-2.799-4.078c0.356-1.901,2.178-3.154,4.081-2.803
		c1.9,0.355,3.151,2.182,2.799,4.083C21.004,108.876,19.177,110.132,17.276,109.776z"/>
	<path fill="#66BB48" d="M16.812,139.736c-1.928,0.172-3.625-1.247-3.797-3.176c-0.173-1.922,1.247-3.621,3.173-3.795
		c1.922-0.17,3.625,1.251,3.796,3.175C20.157,137.863,18.735,139.566,16.812,139.736z"/>
	<circle fill="#66BB48" cx="23.204" cy="165.441" r="3.498"/>
	<circle fill="#84C347" cx="37.536" cy="191.737" r="3.498"/>
	<path fill="#84C347" d="M61.194,215.344c-1.191,1.524-3.388,1.797-4.911,0.61c-1.524-1.188-1.799-3.388-0.612-4.909
		c1.188-1.526,3.388-1.798,4.913-0.61C62.108,211.62,62.381,213.817,61.194,215.344z"/>
	<circle fill="#84C347" cx="84.342" cy="228.217" r="3.498"/>
	<circle fill="#84C347" cx="113.344" cy="235.689" r="3.5"/>
	<path fill="#84C347" d="M146.744,234.513c0.299,1.911-0.999,3.701-2.908,4.005c-1.91,0.301-3.699-0.999-4.005-2.907
		c-0.302-1.908,0.999-3.701,2.908-4.002C144.646,231.305,146.438,232.605,146.744,234.513z"/>
	<path fill="#84C347" d="M175.131,224.92c0.805,1.753,0.035,3.831-1.72,4.64c-1.757,0.808-3.833,0.037-4.64-1.72
		c-0.807-1.755-0.04-3.831,1.717-4.64C172.246,222.392,174.324,223.162,175.131,224.92z"/>
	<circle fill="#2FB24B" cx="181.192" cy="31.312" r="3.499"/>
	<path fill="#2FB24B" d="M132.562,28.038c0.31-2.673,2.728-4.591,5.405-4.278c2.671,0.307,4.586,2.728,4.275,5.402
		c-0.31,2.671-2.729,4.588-5.4,4.278C134.165,33.128,132.249,30.707,132.562,28.038z"/>
	<path fill="#2FB24B" d="M105.772,29.925c-0.421-2.662,1.39-5.157,4.049-5.581c2.658-0.422,5.153,1.394,5.578,4.049
		c0.421,2.657-1.391,5.157-4.048,5.579C108.691,34.394,106.191,32.58,105.772,29.925z"/>
	<circle fill="#2FB24B" cx="84.91" cy="36.935" r="4.873"/>
	<circle fill="#2FB24B" cx="62.289" cy="51.345" r="4.873"/>
	<circle fill="#66BB48" cx="44.39" cy="71.326" r="4.874"/>
	<path fill="#66BB48" d="M31.011,100.021c-2.556-0.849-3.939-3.611-3.091-6.165c0.85-2.551,3.609-3.936,6.163-3.086
		c2.554,0.848,3.938,3.606,3.091,6.16C36.324,99.486,33.564,100.866,31.011,100.021z"/>
	<path fill="#66BB48" d="M27.402,126.634c-2.691-0.129-4.764-2.413-4.636-5.101c0.125-2.69,2.412-4.766,5.1-4.636
		c2.689,0.127,4.767,2.412,4.637,5.1C32.372,124.685,30.091,126.758,27.402,126.634z"/>
	<circle fill="#66BB48" cx="30.018" cy="148.482" r="4.874"/>
	<path fill="#66BB48" d="M41.853,177.845c-2.367,1.291-5.326,0.417-6.613-1.945c-1.288-2.367-0.415-5.326,1.95-6.612
		c2.363-1.287,5.323-0.417,6.61,1.95C45.089,173.6,44.215,176.559,41.853,177.845z"/>
	<path fill="#84C347" d="M58.836,198.651c-1.931,1.877-5.013,1.835-6.892-0.095c-1.875-1.929-1.833-5.012,0.092-6.894
		c1.933-1.877,5.018-1.832,6.896,0.098C60.806,193.688,60.766,196.776,58.836,198.651z"/>
	<path fill="#84C347" d="M80.805,214.102c-1.35,2.329-4.333,3.122-6.664,1.768c-2.325-1.35-3.12-4.332-1.767-6.66
		c1.351-2.33,4.333-3.117,6.659-1.769C81.364,208.79,82.154,211.772,80.805,214.102z"/>
	<path fill="#84C347" d="M106.127,223.055c-0.674,2.603-3.332,4.175-5.941,3.498c-2.603-0.672-4.171-3.328-3.496-5.936
		c0.67-2.606,3.329-4.173,5.937-3.502C105.232,217.786,106.798,220.448,106.127,223.055z"/>
	<path fill="#84C347" d="M132.925,224.843c0.052,2.693-2.083,4.919-4.775,4.973c-2.692,0.057-4.919-2.082-4.969-4.774
		c-0.058-2.688,2.08-4.916,4.77-4.971C130.641,220.016,132.867,222.149,132.925,224.843z"/>
	<circle fill="#84C347" cx="154.544" cy="220.747" r="4.874"/>
	<circle fill="#84C347" cx="178.924" cy="209.561" r="4.873"/>
	<circle fill="#2FB24B" cx="186.653" cy="48.799" r="4.874"/>
	<path fill="#2FB24B" d="M158.95,33.475c1.023-2.49,3.868-3.682,6.361-2.657c2.485,1.022,3.677,3.868,2.653,6.358
		c-1.021,2.49-3.869,3.677-6.359,2.658C159.117,38.811,157.925,35.965,158.95,33.475z"/>
	<circle fill="#2FB24B" cx="124.366" cy="46.868" r="8.468"/>
	<circle fill="#2FB24B" cx="102.958" cy="50.271" r="8.467"/>
	<path fill="#2FB24B" d="M76.12,63.872c-2.516-3.946-1.356-9.179,2.59-11.689c3.943-2.516,9.181-1.357,11.689,2.589
		c2.516,3.946,1.356,9.178-2.59,11.689C83.865,68.977,78.629,67.815,76.12,63.872z"/>
	<circle fill="#66BB48" cx="66.735" cy="73.351" r="8.468"/>
	<path fill="#66BB48" d="M50.871,98.918c-4.198-2.063-5.926-7.14-3.861-11.336c2.063-4.198,7.138-5.925,11.333-3.864
		c4.199,2.066,5.925,7.141,3.861,11.339C60.143,99.25,55.066,100.982,50.871,98.918z"/>
	<path fill="#66BB48" d="M46.229,120.216c-4.6-0.853-7.63-5.274-6.777-9.873c0.854-4.599,5.276-7.632,9.873-6.775
		c4.599,0.853,7.633,5.277,6.778,9.871C55.247,118.04,50.825,121.074,46.229,120.216z"/>
	<circle fill="#66BB48" cx="46.75" cy="133.546" r="8.469"/>
	<path fill="#66BB48" d="M54.607,162.592c-4.371,1.658-9.264-0.544-10.92-4.916c-1.659-4.375,0.542-9.266,4.916-10.919
		c4.375-1.661,9.262,0.542,10.92,4.916C61.181,156.045,58.981,160.931,54.607,162.592z"/>
	<path fill="#66BB48" d="M67.006,180.521c-3.765,2.774-9.063,1.975-11.842-1.786c-2.775-3.765-1.973-9.069,1.789-11.845
		c3.762-2.774,9.064-1.974,11.838,1.791C71.57,172.443,70.771,177.747,67.006,180.521z"/>
	<path fill="#84C347" d="M83.783,194.44c-2.875,3.69-8.194,4.35-11.886,1.476c-3.687-2.873-4.346-8.197-1.471-11.885
		c2.873-3.688,8.193-4.351,11.886-1.475C85.998,185.431,86.655,190.752,83.783,194.44z"/>
	<path fill="#84C347" d="M103.694,203.32c-1.773,4.328-6.72,6.398-11.047,4.625c-4.33-1.774-6.398-6.72-4.623-11.047
		c1.771-4.328,6.716-6.398,11.042-4.625C103.394,194.046,105.466,198.99,103.694,203.32z"/>
	<path fill="#84C347" d="M125.261,206.495c-0.541,4.646-4.742,7.976-9.39,7.436c-4.644-0.536-7.973-4.742-7.435-9.39
		c0.54-4.644,4.744-7.976,9.388-7.433C122.472,197.648,125.799,201.854,125.261,206.495z"/>
	<path fill="#84C347" d="M146.885,203.737c0.736,4.617-2.415,8.957-7.037,9.692c-4.615,0.732-8.956-2.418-9.688-7.037
		c-0.735-4.62,2.413-8.957,7.034-9.689C141.811,195.971,146.149,199.118,146.885,203.737z"/>
	<path fill="#84C347" d="M166.961,195.245c1.956,4.25,0.091,9.278-4.158,11.231c-4.25,1.954-9.278,0.09-11.231-4.159
		c-1.95-4.25-0.091-9.277,4.161-11.233C159.983,189.132,165.011,190.995,166.961,195.245z"/>
	<path fill="#2FB24B" d="M158.635,53.341c2.343-4.044,7.524-5.425,11.571-3.079c4.047,2.347,5.424,7.527,3.079,11.574
		c-2.348,4.045-7.528,5.425-11.575,3.079C157.666,62.569,156.287,57.388,158.635,53.341z"/>
</g>
</svg>
