<svg id="Capa_1" data-name="Capa 1" xmlns="http://www.w3.org/2000/svg" viewBox="0 0 612.85 111.45"><defs><style>.cls-1,.cls-2{fill:#fff;}.cls-2{fill-rule:evenodd;}</style></defs><title>logo centinela</title><path class="cls-1" d="M201.81,96.23a8.29,8.29,0,0,0-.38-2.81,3,3,0,0,0-1.27-1.56,5.63,5.63,0,0,0-2.33-.68Q196.39,91,194.26,91h-6.63q-1.89,0-3.18.11a7.48,7.48,0,0,0-2.13.45,2.87,2.87,0,0,0-1.3,1,4.27,4.27,0,0,0-.66,1.68,15,15,0,0,0-.24,2.58q0,1.53,0,3.65t0,3.65a15.53,15.53,0,0,0,.24,2.58,4.33,4.33,0,0,0,.66,1.68,2.82,2.82,0,0,0,1.29,1,7.48,7.48,0,0,0,2.13.45q1.29,0.11,3.18.11h6.63q1.65,0,2.85-.09a10.51,10.51,0,0,0,2-.32,3.8,3.8,0,0,0,1.36-.65,2.81,2.81,0,0,0,.8-1,5,5,0,0,0,.39-1.51,18,18,0,0,0,.1-2.06h2.83a16.83,16.83,0,0,1-.18,2.56,6.83,6.83,0,0,1-.63,2,5,5,0,0,1-1.2,1.54,6.08,6.08,0,0,1-1.9,1.07,12.63,12.63,0,0,1-2.75.62,30.4,30.4,0,0,1-3.72.2h-6.63a25.54,25.54,0,0,1-4.38-.32,9.47,9.47,0,0,1-2.93-1,4.9,4.9,0,0,1-1.78-1.62,7,7,0,0,1-.92-2.29,15.87,15.87,0,0,1-.33-3q0-1.65,0-3.66t0-3.66a15.88,15.88,0,0,1,.33-3,6.93,6.93,0,0,1,.92-2.29A4.9,4.9,0,0,1,180.32,90a9.44,9.44,0,0,1,2.93-1,25.43,25.43,0,0,1,4.38-.32h6.63a30.4,30.4,0,0,1,3.72.2,13.22,13.22,0,0,1,2.75.61,6.25,6.25,0,0,1,1.9,1,4.85,4.85,0,0,1,1.2,1.46,6.15,6.15,0,0,1,.63,1.9,14.43,14.43,0,0,1,.18,2.36h-2.83Z" transform="translate(-2.16 -0.85)"/><path class="cls-1" d="M233.59,111.83V89.15h22.68v2.36H236.43v7.56h18.9v2.36h-18.9v8h19.85v2.36H233.59Z" transform="translate(-2.16 -0.85)"/><path class="cls-1" d="M287.11,111.83h-2.83V89.15h5L310,109V89.15h2.83v22.68H309.1l-22-20.32v20.32Z" transform="translate(-2.16 -0.85)"/><path class="cls-1" d="M367.34,89.15v2.36H356v20.32h-2.83V91.51H341.82V89.15h25.52Z" transform="translate(-2.16 -0.85)"/><path class="cls-1" d="M396.29,89.15h2.83v22.68h-2.83V89.15Z" transform="translate(-2.16 -0.85)"/><path class="cls-1" d="M431.85,111.83H429V89.15h5L454.78,109V89.15h2.83v22.68h-3.78l-22-20.32v20.32Z" transform="translate(-2.16 -0.85)"/><path class="cls-1" d="M487.51,111.83V89.15h22.68v2.36H490.34v7.56h18.9v2.36h-18.9v8h19.85v2.36H487.51Z" transform="translate(-2.16 -0.85)"/><path class="cls-1" d="M538.19,111.83V89.15H541v20.32h18v2.36H538.19Z" transform="translate(-2.16 -0.85)"/><path class="cls-1" d="M609.08,106.63H591.34l-3,5.2H585.1L598,89.15h4.07L615,111.83h-3Zm-1.34-2.36L600.23,91l-7.54,13.25h15.06Z" transform="translate(-2.16 -0.85)"/><path class="cls-1" d="M214.35,63.89V74.14H174.82V18.92h39.05V29.17H185.79V40.93H208v9.62H185.79V63.89h28.56Z" transform="translate(-2.16 -0.85)"/><path class="cls-1" d="M264.52,63.89V74.14H226.26V18.92h11v45h27.3Z" transform="translate(-2.16 -0.85)"/><path class="cls-1" d="M312.16,63.89V74.14H272.64V18.92h39.05V29.17H283.6V40.93h22.17v9.62H283.6V63.89h28.56Zm-25-47.41-3.24-5.84,18.22-9.78,3.79,7.49Z" transform="translate(-2.16 -0.85)"/><path class="cls-1" d="M360.52,35.33c-2.92-4.1-8.44-6.7-13.89-6.7-10.33,0-17.2,7.42-17.2,17.91,0,10.81,7.33,17.75,17.2,17.75,6.31,0,12.15-3.31,14.91-8.13l11,2.92A28.74,28.74,0,0,1,318,46.53a28.72,28.72,0,0,1,53.73-14.12Z" transform="translate(-2.16 -0.85)"/><path class="cls-1" d="M421.26,18.92V29.17H403.9v45h-11v-45h-17.2V18.92h45.52Z" transform="translate(-2.16 -0.85)"/><path class="cls-1" d="M459.83,74.14l-11-18.86h-9V74.14h-11V18.92h19.33c13.57,0,21.7,7.34,21.7,18.46,0,7.57-3.71,13.1-10.41,15.86l12.62,20.91H459.83Zm-20-28.64h9.78c6.07,0,8.92-3.95,8.92-8.13,0-4.34-2.92-8.21-8.92-8.21h-9.78V45.51Z" transform="translate(-2.16 -0.85)"/><path class="cls-1" d="M481.44,74.14V18.92h11V74.14h-11Z" transform="translate(-2.16 -0.85)"/><path class="cls-1" d="M543.92,35.33c-2.92-4.1-8.44-6.7-13.88-6.7-10.34,0-17.2,7.42-17.2,17.91,0,10.81,7.34,17.75,17.2,17.75,6.31,0,12.15-3.31,14.91-8.13l11,2.92A28.74,28.74,0,0,1,501.4,46.53a28.72,28.72,0,0,1,53.73-14.12Z" transform="translate(-2.16 -0.85)"/><path class="cls-1" d="M595.51,63.57H571.61l-4.1,10.57H555.67l22.72-55.22h10.33l22.72,55.22H599.61Zm-3.79-9.7-5.44-14c-1.18-3.08-2.6-7.65-2.68-7.65h-0.08c-0.08,0-1.5,4.58-2.68,7.65l-5.44,14h16.33Z" transform="translate(-2.16 -0.85)"/><path class="cls-2" d="M142.44,78.62h-0.25a15.55,15.55,0,0,1-15.4-13.46L126.67,64c0-.32,0-0.63,0-0.94s0-.63,0-0.94l0.11-1.16a15.56,15.56,0,0,1,15.4-13.46h0.26v0a15.55,15.55,0,1,0-15.81-15.54,15.56,15.56,0,0,1-31.12,0A15.56,15.56,0,1,0,79.7,47.47v0h0.26a15.55,15.55,0,0,1,15.4,13.46l0.11,1.16c0,0.31,0,.62,0,0.94h0V62.59h0c0,0.14,0,.29,0,0.43h0c0,0.06,0,.11,0,0.16,0,0.48,0,.95.07,1.41,0,0.28.08,0.54,0.12,0.79s0.06,0.5.11,0.74S96,66.75,96,67s0.09,0.4.15,0.59v0c0.1,0.31.22,0.62,0.33,0.91s0.11,0.32.17,0.47c0.15,0.35.32,0.68,0.48,1,0.05,0.11.1,0.23,0.16,0.33,0.19,0.37.41,0.71,0.63,1.06l0.13,0.21c0.25,0.37.52,0.73,0.8,1.08L99,72.85c0.3,0.38.63,0.74,1,1.09h0a15.5,15.5,0,0,0,10.8,4.64h0.29a15.56,15.56,0,0,1,15.56,15.56A15.56,15.56,0,1,0,142.44,78.62ZM126.63,63.49h0c0-.13,0-0.26,0-0.4s0,0,0,0h0s0,0,0,0,0-.27,0-0.41h0V63h0v0.44Z" transform="translate(-2.16 -0.85)"/><path class="cls-2" d="M80.2,78.62H80a15.55,15.55,0,0,1-15.4-13.46L64.44,64c0-.32,0-0.63,0-0.94h0v0.44h0c0-.13,0-0.27,0-0.41v0h0c0-.08,0-0.16,0-0.24,0-.45,0-0.9-0.06-1.34,0-.28-0.08-0.55-0.13-0.82s-0.06-.48-0.11-0.71-0.16-.62-0.24-0.92-0.09-.37-0.14-0.56-0.23-.65-0.35-1c-0.06-.15-0.1-0.3-0.17-0.45s-0.26-.56-0.4-0.85L62.71,56c-0.06-.11-0.1-0.23-0.16-0.34-0.2-.37-0.41-0.72-0.64-1.06l-0.12-.2C61.53,54,61.26,53.68,61,53.33l-0.07-.09A15.51,15.51,0,0,0,49.12,47.5v0H48.83A15.56,15.56,0,0,1,33.27,31.93,15.56,15.56,0,1,0,17.46,47.47v0h0.26a15.55,15.55,0,0,1,15.4,13.46l0.11,1.16c0,0.31,0,.62,0,0.94s0,0.63,0,.94l-0.11,1.16A15.55,15.55,0,0,1,17.71,78.6H17.46A15.55,15.55,0,1,0,33.27,94.16a15.56,15.56,0,0,1,31.12,0A15.56,15.56,0,1,0,80.2,78.62ZM33.27,63.49V63h0V62.59h0c0,0.14,0,.28,0,0.42s0,0,0,0h0s0,0,0,0,0,0.28,0,.41h0Z" transform="translate(-2.16 -0.85)"/></svg>