<?xml version="1.0" standalone="no"?>
<!DOCTYPE svg PUBLIC "-//W3C//DTD SVG 1.1//EN" "http://www.w3.org/Graphics/SVG/1.1/DTD/svg11.dtd" >
<svg>
<metadata>
Created by FontForge 20090622 at Thu Mar  2 16:43:22 2017
 By deploy user
Copyright (c) 2012 by Yellow Desing Studio. All rights reserved.
</metadata>
<defs>
<font id="VerbSemibold-Italic" horiz-adv-x="630" >
  <font-face 
    font-family="Verb Semibold"
    font-weight="600"
    font-style="italic"
    font-stretch="normal"
    units-per-em="1000"
    panose-1="2 0 7 0 3 0 0 9 0 4"
    ascent="800"
    descent="-200"
    x-height="525"
    cap-height="700"
    bbox="-172 -288 1375 953"
    underline-thickness="50"
    underline-position="-50"
    unicode-range="U+0020-U+FB06"
  />
<missing-glyph horiz-adv-x="265" 
 />
    <glyph glyph-name="f_f" unicode="ff" horiz-adv-x="742" 
d="M421 433l16 92h70l8 42q14 85 49 123.5t105 38.5q85 0 176 -47l-55 -81q-60 21 -98 21q-43 0 -53 -53l-8 -44h133l-16 -92h-133l-70 -396q-20 -110 -38 -145q-29 -56 -111 -86q-38 -14 -96 -27l-27 95q48 14 72 24.5t40 30t21 38t13 62.5l72 404h-70zM51 433l16 92h70
l8 42q14 85 49 123.5t105 38.5q85 0 176 -47l-47 -81q-66 21 -106 21q-43 0 -53 -53l-8 -44h123l-16 -92h-123l-70 -396q-20 -110 -38 -145q-29 -56 -111 -86q-38 -14 -96 -27l-27 95q48 14 72 24.5t40 30t21 38t13 62.5l72 404h-70z" />
    <glyph glyph-name="f_i" unicode="fi" horiz-adv-x="632" 
d="M51 433l16 92h70l8 42q14 84 49 123t103 39q59 0 144 -38l-44 -84q-48 15 -75 15q-43 0 -53 -53l-8 -44h133l-16 -92h-133l-70 -396q-20 -110 -38 -145q-29 -56 -111 -86q-38 -14 -96 -27l-27 95q48 14 72 24.5t40 30t21 38t13 62.5l72 404h-70zM511 0h-124l93 525h124z
M492 610l20 116h131l-19 -116h-132z" />
    <glyph glyph-name="f_l" unicode="fl" horiz-adv-x="638" 
d="M51 433l16 92h70l8 42q14 84 49 123t103 39q59 0 144 -38l-44 -84q-48 15 -75 15q-43 0 -53 -53l-8 -44h133l-16 -92h-133l-70 -396q-20 -110 -38 -145q-29 -56 -111 -86q-38 -14 -96 -27l-27 95q48 14 72 24.5t40 30t21 38t13 62.5l72 404h-70zM514 0h-124l129 729h124z
" />
    <glyph glyph-name="f_f_i" unicode="ffi" horiz-adv-x="1002" 
d="M51 433l16 92h70l8 42q14 85 49 123.5t105 38.5q85 0 176 -47l-47 -81q-66 21 -106 21q-43 0 -53 -53l-8 -44h123l-16 -92h-123l-70 -396q-20 -110 -38 -145q-29 -56 -111 -86q-38 -14 -96 -27l-27 95q48 14 72 24.5t40 30t21 38t13 62.5l72 404h-70zM421 433l16 92h70
l8 42q14 84 49 123t103 39q59 0 144 -38l-44 -84q-47 15 -75 15q-43 0 -53 -53l-8 -44h133l-16 -92h-133l-70 -396q-20 -110 -38 -145q-29 -56 -111 -86q-38 -14 -96 -27l-27 95q48 14 72 24.5t40 30t21 38t13 62.5l72 404h-70zM881 0h-124l93 525h124zM862 610l20 116h131
l-19 -116h-132z" />
    <glyph glyph-name="f_f_l" unicode="ffl" horiz-adv-x="1008" 
d="M51 433l16 92h70l8 42q14 85 49 123.5t105 38.5q85 0 176 -47l-47 -81q-66 21 -106 21q-43 0 -53 -53l-8 -44h123l-16 -92h-123l-70 -396q-20 -110 -38 -145q-29 -56 -111 -86q-38 -14 -96 -27l-27 95q48 14 72 24.5t40 30t21 38t13 62.5l72 404h-70zM421 433l16 92h70
l8 42q14 84 49 123t103 39q59 0 144 -38l-44 -84q-47 15 -75 15q-43 0 -53 -53l-8 -44h133l-16 -92h-133l-70 -396q-20 -110 -38 -145q-29 -56 -111 -86q-38 -14 -96 -27l-27 95q48 14 72 24.5t40 30t21 38t13 62.5l72 404h-70zM884 0h-124l129 729h124z" />
    <glyph glyph-name="f_f_b" unicode="ffb" horiz-adv-x="1357" 
d="M757 0l129 729h124l-47 -264q95 71 182 71q72 0 120.5 -46.5t48.5 -145.5q0 -157 -68 -256t-178 -99q-39 0 -75.5 13.5t-55.5 26.5t-45 35l-11 -64h-124zM51 433l16 92h70l8 42q14 85 49 123.5t105 38.5q85 0 176 -47l-47 -81q-66 21 -106 21q-43 0 -53 -53l-8 -44h123
l-16 -92h-123l-70 -396q-20 -110 -38 -145q-29 -56 -111 -86q-38 -14 -96 -27l-27 95q48 14 72 24.5t40 30t21 38t13 62.5l72 404h-70zM421 433l16 92h70l8 42q14 84 49 123t103 39q59 0 144 -38l-44 -84q-47 15 -75 15q-43 0 -53 -53l-8 -44h133l-16 -92h-133l-70 -396
q-20 -110 -38 -145q-29 -56 -111 -86q-38 -14 -96 -27l-27 95q48 14 72 24.5t40 30t21 38t13 62.5l72 404h-70zM1099 436q-65 0 -154 -75l-36 -202q63 -70 132 -70q66 0 106 72t40 169q0 50 -22.5 78t-65.5 28z" />
    <glyph glyph-name="f_f_h" unicode="ffh" horiz-adv-x="1356" 
d="M1010 729l-48 -268q111 75 206 75q82 0 116 -48t19 -130l-63 -358h-124l61 345q18 93 -57 93q-40 0 -90 -23t-85 -50l-64 -365h-124l129 729h124zM51 433l16 92h70l8 42q14 85 49 123.5t105 38.5q85 0 176 -47l-47 -81q-66 21 -106 21q-43 0 -53 -53l-8 -44h123l-16 -92
h-123l-70 -396q-20 -110 -38 -145q-29 -56 -111 -86q-38 -14 -96 -27l-27 95q48 14 72 24.5t40 30t21 38t13 62.5l72 404h-70zM421 433l16 92h70l8 42q14 84 49 123t103 39q59 0 144 -38l-44 -84q-47 15 -75 15q-43 0 -53 -53l-8 -44h133l-16 -92h-133l-70 -396
q-20 -110 -38 -145q-29 -56 -111 -86q-38 -14 -96 -27l-27 95q48 14 72 24.5t40 30t21 38t13 62.5l72 404h-70z" />
    <glyph glyph-name="f_b" unicode="fb" horiz-adv-x="987" 
d="M387 0l129 729h124l-47 -264q95 71 182 71q72 0 120.5 -46.5t48.5 -145.5q0 -157 -68 -256t-178 -99q-39 0 -75.5 13.5t-55.5 26.5t-45 35l-11 -64h-124zM51 433l16 92h70l8 42q14 84 49 123t103 39q59 0 144 -38l-44 -84q-48 15 -75 15q-43 0 -53 -53l-8 -44h133
l-16 -92h-133l-70 -396q-20 -110 -38 -145q-29 -56 -111 -86q-38 -14 -96 -27l-27 95q48 14 72 24.5t40 30t21 38t13 62.5l72 404h-70zM729 436q-65 0 -154 -75l-36 -202q63 -70 132 -70q66 0 106 72t40 169q0 50 -22.5 78t-65.5 28z" />
    <glyph glyph-name="f_f_j" unicode="ffj" horiz-adv-x="1002" 
d="M51 433l16 92h70l8 42q14 85 49 123.5t105 38.5q85 0 176 -47l-47 -81q-66 21 -106 21q-43 0 -53 -53l-8 -44h123l-16 -92h-123l-70 -396q-20 -110 -38 -145q-29 -56 -111 -86q-38 -14 -96 -27l-27 95q48 14 72 24.5t40 30t21 38t13 62.5l72 404h-70zM421 433l16 92h70
l8 42q14 84 49 123t103 39q59 0 144 -38l-44 -84q-47 15 -75 15q-43 0 -53 -53l-8 -44h133l-16 -92h-133l-70 -396q-20 -110 -38 -145q-29 -56 -111 -86q-38 -14 -96 -27l-27 95q48 14 72 24.5t40 30t21 38t13 62.5l72 404h-70zM974 525l-94 -523q-7 -40 -11 -57.5
t-14 -44.5t-24 -40t-39 -29.5t-61 -28t-88 -23.5l-27 95q62 19 89 34t35.5 31t14.5 54l95 532h124zM862 610l20 116h131l-19 -116h-132z" />
    <glyph glyph-name="f_f_k" unicode="ffk" horiz-adv-x="1291" 
d="M1300 525l-218 -214l155 -311h-125l-114 229l-93 -92l-24 -137h-124l129 729h124l-76 -427l215 223h151zM51 433l16 92h70l8 42q14 85 49 123.5t105 38.5q85 0 176 -47l-47 -81q-66 21 -106 21q-43 0 -53 -53l-8 -44h123l-16 -92h-123l-70 -396q-20 -110 -38 -145
q-29 -56 -111 -86q-38 -14 -96 -27l-27 95q48 14 72 24.5t40 30t21 38t13 62.5l72 404h-70zM421 433l16 92h70l8 42q14 84 49 123t103 39q59 0 144 -38l-44 -84q-47 15 -75 15q-43 0 -53 -53l-8 -44h133l-16 -92h-133l-70 -396q-20 -110 -38 -145q-29 -56 -111 -86
q-38 -14 -96 -27l-27 95q48 14 72 24.5t40 30t21 38t13 62.5l72 404h-70z" />
    <glyph glyph-name="f_f_t" unicode="fft" horiz-adv-x="1139" 
d="M51 433l16 92h70l8 42q14 85 49 123.5t105 38.5q85 0 176 -47l-47 -81q-66 21 -106 21q-43 0 -53 -53l-8 -44h123l-16 -92h-123l-70 -396q-20 -110 -38 -145q-29 -56 -111 -86q-38 -14 -96 -27l-27 95q48 14 72 24.5t40 30t21 38t13 62.5l72 404h-70zM421 433l16 92h70
l8 42q14 85 49 123.5t105 38.5q85 0 176 -47l-55 -81q-60 21 -98 21q-43 0 -53 -53l-8 -44h123l-16 -92h-123l-70 -396q-20 -110 -38 -145q-29 -56 -111 -86q-38 -14 -96 -27l-27 95q48 14 72 24.5t40 30t21 38t13 62.5l72 404h-70zM788 433l16 92h71l24 132l126 20
l-27 -152h142l-15 -92h-144l-50 -285q-10 -51 34 -51q32 0 92 24l31 -97q-102 -35 -162 -35q-67 0 -99 43.5t-17 129.5l48 271h-70z" />
    <glyph glyph-name="f_h" unicode="fh" horiz-adv-x="986" 
d="M640 729l-48 -268q111 75 206 75q82 0 116 -48t19 -130l-63 -358h-124l61 345q18 93 -57 93q-40 0 -90 -23t-85 -50l-64 -365h-124l129 729h124zM51 433l16 92h70l8 42q14 84 49 123t103 39q59 0 144 -38l-44 -84q-48 15 -75 15q-43 0 -53 -53l-8 -44h133l-16 -92h-133
l-70 -396q-20 -110 -38 -145q-29 -56 -111 -86q-38 -14 -96 -27l-27 95q48 14 72 24.5t40 30t21 38t13 62.5l72 404h-70z" />
    <glyph glyph-name="f_j" unicode="fj" horiz-adv-x="632" 
d="M51 433l16 92h70l8 42q14 84 49 123t103 39q59 0 144 -38l-44 -84q-48 15 -75 15q-43 0 -53 -53l-8 -44h133l-16 -92h-133l-70 -396q-20 -110 -38 -145q-29 -56 -111 -86q-38 -14 -96 -27l-27 95q48 14 72 24.5t40 30t21 38t13 62.5l72 404h-70zM604 525l-94 -523
q-6 -35 -9.5 -50.5t-11 -40t-17 -36t-26 -28t-40 -26.5t-56.5 -21t-77 -21l-27 95q62 19 89 34t35.5 31t14.5 54l95 532h124zM492 610l20 116h131l-19 -116h-132z" />
    <glyph glyph-name="f_k" unicode="fk" horiz-adv-x="921" 
d="M930 525l-218 -214l155 -311h-125l-114 229l-93 -92l-24 -137h-124l129 729h124l-76 -427l215 223h151zM51 433l16 92h70l8 42q14 84 49 123t103 39q59 0 144 -38l-44 -84q-48 15 -75 15q-43 0 -53 -53l-8 -44h133l-16 -92h-133l-70 -396q-20 -110 -38 -145
q-29 -56 -111 -86q-38 -14 -96 -27l-27 95q48 14 72 24.5t40 30t21 38t13 62.5l72 404h-70z" />
    <glyph glyph-name="f_t" unicode="ft" horiz-adv-x="769" 
d="M51 433l16 92h70l8 42q14 85 49 123.5t105 38.5q85 0 176 -47l-55 -81q-60 21 -98 21q-43 0 -53 -53l-8 -44h123l-16 -92h-123l-70 -396q-20 -110 -38 -145q-29 -56 -111 -86q-38 -14 -96 -27l-27 95q48 14 72 24.5t40 30t21 38t13 62.5l72 404h-70zM418 433l16 92h71
l24 132l126 20l-27 -152h142l-15 -92h-144l-50 -285q-10 -51 34 -51q32 0 92 24l31 -97q-102 -35 -162 -35q-67 0 -99 43.5t-17 129.5l48 271h-70z" />
    <glyph glyph-name=".notdef" horiz-adv-x="265" 
 />
    <glyph glyph-name=".null" horiz-adv-x="0" 
 />
    <glyph glyph-name="nonmarkingreturn" horiz-adv-x="333" 
 />
    <glyph glyph-name="space" unicode=" " horiz-adv-x="274" 
 />
    <glyph glyph-name="exclam" unicode="!" horiz-adv-x="276" 
d="M20 0l24 140h131l-23 -140h-132zM284 700l-122 -480h-75l47 480h150z" />
    <glyph glyph-name="quotedbl" unicode="&#x22;" horiz-adv-x="424" 
d="M442 700l-69 -269h-78l25 269h122zM240 700l-68 -269h-79l26 269h121z" />
    <glyph glyph-name="numbersign" unicode="#" horiz-adv-x="738" 
d="M342 0l54 165h-159l-54 -165h-99l54 165h-119l16 94h134l59 181h-119l16 95h134l55 165h99l-55 -165h160l55 165h98l-55 -165h121l-16 -95h-136l-60 -181h122l-16 -94h-137l-54 -165h-98zM327 440l-59 -181h159l60 181h-160z" />
    <glyph glyph-name="dollar" unicode="$" horiz-adv-x="638" 
d="M296 -100h-91l17 98q-117 21 -219 91l69 88q86 -53 169 -73l35 201l-24 10q-76 31 -118.5 73t-42.5 114q0 91 70.5 149.5t186.5 59.5l16 90h91l-18 -99q93 -19 194 -75l-68 -87q-68 38 -145 55l-33 -187l22 -9q80 -33 125.5 -76t45.5 -119q0 -95 -75 -154.5t-192 -60.5z
M441 190q0 28 -20.5 46.5t-59.5 35.5l-31 -175q49 5 80 30t31 63zM229 513q0 -27 17 -42.5t54 -30.5l29 161q-44 -6 -72 -28.5t-28 -59.5z" />
    <glyph glyph-name="percent" unicode="%" horiz-adv-x="1000" 
d="M280 711q83 0 131.5 -42.5t48.5 -114.5q0 -93 -55.5 -155.5t-149.5 -62.5q-84 0 -132.5 42t-48.5 114q0 93 56.5 156t149.5 63zM259 412q47 0 76 41.5t29 92.5q0 89 -86 89q-49 0 -78 -42t-29 -93q0 -88 88 -88zM764 364q83 0 131.5 -42.5t48.5 -114.5
q0 -93 -55.5 -155.5t-149.5 -62.5q-84 0 -132.5 42t-48.5 114q0 93 56.5 156t149.5 63zM743 65q47 0 76 41.5t29 92.5q0 89 -86 89q-49 0 -78 -42t-29 -93q0 -88 88 -88zM802 700l-485 -700h-100l484 700h101z" />
    <glyph glyph-name="ampersand" unicode="&#x26;" horiz-adv-x="709" 
d="M666 0h-134l-57 68q-104 -79 -226 -79q-96 0 -154.5 46.5t-58.5 125.5q0 72 47.5 122t132.5 98q-63 82 -63 153q0 81 59 129t146 48q80 0 130.5 -40t50.5 -106q0 -62 -45.5 -109t-126.5 -97l111 -134q48 63 78 144h125q-39 -127 -131 -231zM255 83q78 0 154 66l-130 156
q-58 -36 -89 -69t-31 -72q0 -33 23.5 -57t72.5 -24zM266 530q0 -46 41 -99q57 33 87 62t30 65q0 26 -17 44t-51 18q-42 0 -66 -26.5t-24 -63.5z" />
    <glyph glyph-name="quotesingle" unicode="'" horiz-adv-x="223" 
d="M240 700l-68 -269h-79l26 269h121z" />
    <glyph glyph-name="parenleft" unicode="(" horiz-adv-x="321" 
d="M26 76l98 544q10 57 19 84.5t33.5 56t67.5 45t118 33.5l23 -77q-76 -24 -98 -45t-31 -73l-106 -593q-10 -58 1.5 -79t72.5 -44l-34 -71q-90 22 -129.5 50t-43 69t8.5 100z" />
    <glyph glyph-name="parenright" unicode=")" horiz-adv-x="322" 
d="M311 620l-97 -544q-7 -39 -12 -59.5t-15.5 -45.5t-25 -38t-40 -28.5t-60.5 -26t-86 -21.5l-23 77q77 24 98.5 45t30.5 72l107 593q10 59 -1 79.5t-73 44.5l34 71q89 -22 128.5 -50.5t43 -69t-8.5 -99.5z" />
    <glyph glyph-name="asterisk" unicode="*" horiz-adv-x="481" 
d="M190 330l61 149l-136 -86l-36 99l159 21l-142 76l69 81l98 -128l-7 159l103 -18l-60 -147l135 86l36 -100l-155 -22l138 -75l-68 -80l-96 123l5 -155z" />
    <glyph glyph-name="plus" unicode="+" 
d="M312 566h97l-32 -186h204l-15 -94h-206l-32 -186h-97l32 186h-204l16 94h205z" />
    <glyph glyph-name="comma" unicode="," horiz-adv-x="258" 
d="M11 0l25 150h130l-17 -164l-133 -138l-28 43l82 109h-59z" />
    <glyph glyph-name="hyphen" unicode="-" horiz-adv-x="432" 
d="M356 234h-304l18 101h304z" />
    <glyph glyph-name="period" unicode="." horiz-adv-x="255" 
d="M11 0l25 150h131l-25 -150h-131z" />
    <glyph glyph-name="slash" unicode="/" horiz-adv-x="476" 
d="M537 790l-479 -880h-100l479 880h100z" />
    <glyph glyph-name="zero" unicode="0" horiz-adv-x="680" 
d="M377 711q72 0 125.5 -24.5t83 -67t43 -91t13.5 -103.5q0 -49 -9 -103t-32 -115t-58 -108.5t-93 -79t-130 -31.5t-125 24.5t-82.5 67t-43 91t-13.5 103.5q0 49 9 103t32 115t57.5 108.5t92.5 79t130 31.5zM320 90q52 0 92.5 40t60.5 98.5t29.5 112.5t9.5 96
q0 172 -135 172q-42 0 -77 -27t-55.5 -67t-35 -89.5t-20 -90.5t-5.5 -73q2 -172 136 -172z" />
    <glyph glyph-name="one" unicode="1" horiz-adv-x="393" 
d="M257 0h-129l103 570l-130 -63l-40 91l199 102h120z" />
    <glyph glyph-name="two" unicode="2" horiz-adv-x="599" 
d="M511 107l-17 -107h-506l11 64q5 29 13 54.5t23.5 48.5l26.5 39.5t36 37.5t36 31t44 30l42.5 26t47.5 28q119 69 151 98q41 37 40 76q-1 32 -27 51t-74 19q-89 0 -193 -64l-48 91q127 81 256 81q102 0 159 -48.5t57 -126.5q0 -107 -129 -198q-38 -26 -152 -89
q-77 -42 -107.5 -70.5t-39.5 -71.5h350z" />
    <glyph glyph-name="three" unicode="3" horiz-adv-x="607" 
d="M-13 82l65 82q111 -67 201 -67q72 0 114.5 32.5t42.5 82.5q0 57 -52.5 83t-131.5 26h-30l18 109h35q71 0 129.5 29t58.5 79q0 30 -24 47.5t-68 17.5q-85 0 -186 -58l-42 89q124 77 251 77q97 0 149.5 -43.5t52.5 -109.5q0 -56 -40 -103t-116 -75q55 -16 91 -62t36 -109
q0 -87 -70 -153.5t-206 -66.5q-144 0 -278 93z" />
    <glyph glyph-name="four" unicode="4" horiz-adv-x="655" 
d="M336 0l25 141h-362l16 92l403 467h170l-79 -451h105l-18 -108h-106l-25 -141h-129zM158 249h222l58 330z" />
    <glyph glyph-name="five" unicode="5" horiz-adv-x="598" 
d="M77 350l98 350h418l-18 -108h-310l-39 -154q50 15 98 15q103 0 160 -59.5t57 -149.5q0 -106 -78 -180.5t-211 -74.5q-134 0 -256 93l71 82q83 -65 173 -65q67 0 118 38t51 102q0 49 -31.5 79t-89.5 30q-60 0 -141 -43z" />
    <glyph glyph-name="six" unicode="6" horiz-adv-x="634" 
d="M504 605q-99 0 -181.5 -57t-120.5 -157q70 59 169 59q98 0 155 -58t57 -144q0 -107 -74 -183t-201 -76q-124 0 -192.5 75.5t-68.5 182.5q0 194 130 329t323 135q33 0 62.5 -4.5t42.5 -8.5l13 -5l-47 -95q-28 7 -67 7zM334 352q-51 0 -94 -26.5t-63 -56.5q-1 -10 -1 -30
q0 -60 33.5 -102.5t94.5 -42.5q70 0 110 44.5t40 104.5q0 46 -30.5 77.5t-89.5 31.5z" />
    <glyph glyph-name="seven" unicode="7" horiz-adv-x="520" 
d="M553 601l-33 -35.5t-76.5 -91.5t-100.5 -137t-88.5 -161.5t-58.5 -175.5h-137q17 95 68 201t114 191.5t100 130.5t60 69h-325l17 108h476z" />
    <glyph glyph-name="eight" unicode="8" horiz-adv-x="644" 
d="M22 171q0 136 197 214q-89 56 -89 142q0 82 69 133t182 51q104 0 164 -44t60 -116q0 -110 -152 -177q129 -66 129 -175q0 -94 -84.5 -152t-218.5 -58q-120 0 -188.5 48t-68.5 134zM451 205q0 71 -118 125q-37 -12 -64.5 -24t-56 -30t-43.5 -41.5t-15 -52.5q0 -44 34 -69
t92 -25q70 0 120.5 33t50.5 84zM254 515q0 -56 84 -92q139 43 139 111q0 33 -26 57t-71 24q-52 0 -89 -30t-37 -70z" />
    <glyph glyph-name="nine" unicode="9" horiz-adv-x="634" 
d="M147 94q99 0 181 57t120 157q-70 -58 -168 -58t-155 58t-57 144q0 106 74 182.5t201 76.5q124 0 192.5 -75.5t68.5 -182.5q0 -194 -130 -329t-323 -135q-33 0 -62.5 4.5t-42.5 8.5l-13 4l47 95q28 -7 67 -7zM317 347q50 0 93 26t64 56q0 5 0.5 15t0.5 16
q0 60 -33.5 102.5t-94.5 42.5q-70 0 -110 -44.5t-40 -103.5q0 -46 30.5 -78t89.5 -32z" />
    <glyph glyph-name="colon" unicode=":" horiz-adv-x="266" 
d="M71 323l26 150h131l-25 -150h-132zM14 0l25 150h131l-25 -150h-131z" />
    <glyph glyph-name="semicolon" unicode=";" horiz-adv-x="276" 
d="M76 323l24 150h132l-25 -150h-131zM18 0l25 150h130l-17 -164l-133 -138l-28 43l82 109h-59z" />
    <glyph glyph-name="less" unicode="&#x3c;" 
d="M47 290l15 87l541 206l-18 -112l-400 -144l347 -143l-17 -100z" />
    <glyph glyph-name="equal" unicode="=" 
d="M75 380l15 95h506l-15 -95h-506zM42 194l16 94h506l-15 -94h-507z" />
    <glyph glyph-name="greater" unicode="&#x3e;" 
d="M594 377l-14 -87l-542 -206l18 112l400 143l-347 144l17 100z" />
    <glyph glyph-name="question" unicode="?" horiz-adv-x="528" 
d="M96 0l23 140h132l-24 -140h-131zM529 546q0 -91 -73.5 -145.5t-188.5 -77.5l-26 -103h-81l21 173q106 20 162.5 52t56.5 84q0 36 -25.5 55t-70.5 19q-67 0 -171 -56l-44 93q121 71 237 71q90 0 146.5 -43.5t56.5 -121.5z" />
    <glyph glyph-name="at" unicode="@" horiz-adv-x="957" 
d="M395 -130q52 0 100.5 11t70.5 22l22 11l27 -41q-10 -6 -28.5 -14.5t-77 -23t-117.5 -14.5q-163 0 -259.5 103.5t-96.5 265.5q0 99 36 188.5t101.5 158t164.5 109t216 40.5q100 0 175 -31.5t117 -85t59 -121t8 -144.5q-6 -44 -15.5 -85t-29.5 -87.5t-45.5 -80t-66.5 -56
t-90 -22.5q-37 0 -62.5 11.5t-36 31t-14.5 38t-3 38.5q-85 -69 -172 -69q-57 0 -94.5 37t-37.5 94q0 81 52 124.5t128 43.5q42 0 160 -25q1 9 8 48q8 48 -7 68t-64 20q-66 0 -171 -41l-24 70q116 44 210 44q88 0 125 -40t22 -124l-32 -177q-14 -55 -7.5 -93t48.5 -38
q53 0 104 76.5t63 193.5q4 50 0.5 97.5t-26 90.5t-57.5 75t-93 51t-133 19q-106 0 -194.5 -37t-146.5 -99t-90 -143t-32 -170q0 -142 81.5 -230t224.5 -88zM561 162q1 6 7 35.5t9 49.5q-84 18 -122 18q-58 0 -85 -29t-27 -71q0 -35 19.5 -52t52.5 -17q66 0 146 66z" />
    <glyph glyph-name="A" unicode="A" horiz-adv-x="695" 
d="M494 0l-23 149h-285l-75 -149h-149l386 700h142l140 -700h-136zM404 581l-166 -329h217z" />
    <glyph glyph-name="B" unicode="B" horiz-adv-x="684" 
d="M624 214q0 -102 -69.5 -158t-194.5 -56h-331l123 700h262q109 0 170 -42.5t61 -115.5q0 -71 -49.5 -116.5t-103.5 -53.5q20 -3 40.5 -13t42 -28t35.5 -48.5t14 -68.5zM498 227q0 45 -35.5 69t-99.5 24h-149l-40 -220h160q78 0 121 34.5t43 92.5zM514 523q0 76 -118 76
h-133l-34 -185h139q57 0 101.5 28t44.5 81z" />
    <glyph glyph-name="C" unicode="C" horiz-adv-x="652" 
d="M677 602l-71 -90q-62 43 -106 63t-89 20q-98 0 -161.5 -91t-63.5 -223q0 -88 32.5 -132.5t90.5 -44.5q82 0 223 81l57 -101q-177 -95 -307 -95q-104 0 -166 70.5t-62 212.5q0 201 98.5 320t245.5 119q54 0 110 -19t85.5 -36.5t83.5 -53.5z" />
    <glyph glyph-name="D" unicode="D" horiz-adv-x="715" 
d="M679 427q0 -58 -12.5 -115t-42.5 -114t-74 -100.5t-113 -70.5t-153 -27h-255l123 700h206q161 0 241 -72t80 -201zM549 425q0 88 -52.5 126.5t-156.5 38.5h-78l-87 -481h90q135 0 209.5 90t74.5 226z" />
    <glyph glyph-name="E" unicode="E" horiz-adv-x="607" 
d="M507 0h-478l122 700h473l-18 -110h-344l-35 -186h283l-18 -108h-283l-34 -187h350z" />
    <glyph glyph-name="F" unicode="F" horiz-adv-x="581" 
d="M606 590h-344l-35 -187h273l-17 -107h-274l-52 -296h-128l122 700h473z" />
    <glyph glyph-name="G" unicode="G" horiz-adv-x="708" 
d="M474 0l13 75q-110 -86 -209 -86q-100 0 -162 70.5t-62 206.5q0 210 99.5 327.5t245.5 117.5q56 0 114.5 -19.5t94 -40t83.5 -54.5l-72 -89q-4 2 -19.5 12.5t-21.5 14l-20.5 12.5t-23 13l-22.5 11t-24.5 10l-24 7t-26 5.5t-25.5 1.5q-98 0 -161.5 -91t-63.5 -224
q0 -181 126 -181q84 0 195 90l18 103h-172l17 102h294l-69 -394h-122z" />
    <glyph glyph-name="H" unicode="H" horiz-adv-x="720" 
d="M456 0l55 313h-299l-55 -313h-128l123 700h128l-49 -279h299l49 279h129l-123 -700h-129z" />
    <glyph glyph-name="I" unicode="I" horiz-adv-x="292" 
d="M157 0h-128l123 700h128z" />
    <glyph glyph-name="J" unicode="J" horiz-adv-x="292" 
d="M281 700l-114 -643q-5 -31 -8 -44.5t-9 -36.5t-13 -33t-19.5 -26.5t-28 -25l-39 -20.5t-53.5 -20.5t-69 -17.5l-29 102q85 24 107.5 44.5t31.5 71.5l115 649h128z" />
    <glyph glyph-name="K" unicode="K" horiz-adv-x="675" 
d="M29 0l123 700h128l-60 -340l338 340h165l-339 -334l235 -366h-142l-180 281l-110 -108l-30 -173h-128z" />
    <glyph glyph-name="L" unicode="L" horiz-adv-x="559" 
d="M491 0h-462l123 700h128l-105 -593h333z" />
    <glyph glyph-name="M" unicode="M" horiz-adv-x="847" 
d="M583 0l84 478l-238 -361h-73l-111 384l-88 -501h-128l123 700h132l127 -439l292 439h132l-123 -700h-129z" />
    <glyph glyph-name="N" unicode="N" horiz-adv-x="736" 
d="M470 0l-222 519l-91 -519h-128l123 700h131l221 -518l91 518h129l-123 -700h-131z" />
    <glyph glyph-name="O" unicode="O" horiz-adv-x="760" 
d="M410 711q156 0 234.5 -81t79.5 -222q0 -50 -10.5 -103t-37 -111t-66 -103t-103 -74t-141.5 -29q-155 0 -233.5 81t-79.5 222q0 50 10.5 103t37 111t66 103t102.5 74t141 29zM362 98q48 0 87.5 21t65 53.5t43.5 74.5t25.5 81.5t7.5 76.5q0 196 -176 196q-48 0 -87.5 -21
t-65 -53.5t-43.5 -74.5t-25.5 -81.5t-7.5 -76.5q0 -196 176 -196z" />
    <glyph glyph-name="P" unicode="P" horiz-adv-x="659" 
d="M664 504q0 -105 -75.5 -176.5t-211.5 -71.5h-174l-46 -256h-128l123 700h252q126 0 193 -48.5t67 -147.5zM531 501q0 91 -127 91h-142l-41 -230h137q79 0 126 36t47 103z" />
    <glyph glyph-name="Q" unicode="Q" horiz-adv-x="759" 
d="M410 711q156 0 234.5 -81t79.5 -222q0 -53 -13 -110.5t-40 -116.5t-77 -106.5t-116 -69.5l95 -90l-92 -80l-134 153q-146 5 -219.5 85.5t-74.5 217.5q0 50 10.5 103t37 111t66 103t102.5 74t141 29zM362 98q48 0 87.5 21t65 53.5t43.5 74.5t25.5 81.5t7.5 76.5
q0 196 -176 196q-48 0 -87.5 -21t-65 -53.5t-43.5 -74.5t-25.5 -81.5t-7.5 -76.5q0 -196 176 -196z" />
    <glyph glyph-name="R" unicode="R" horiz-adv-x="694" 
d="M465 0l-122 280h-136l-50 -280h-128l123 700h282q254 0 254 -186q0 -87 -59 -152t-163 -79l132 -283h-133zM555 511q0 87 -131 87h-161l-39 -216h163q78 0 123 33.5t45 95.5z" />
    <glyph glyph-name="S" unicode="S" 
d="M403 399q80 -33 125.5 -76t45.5 -119q0 -95 -75 -155t-193 -60q-159 0 -307 100l69 88q135 -81 234 -81q58 0 96.5 26t38.5 68q0 20 -9.5 35t-30.5 27t-40 20t-53.5 21t-55.5 22q-76 31 -118.5 73t-42.5 114q0 92 71 150.5t187 58.5q133 0 282 -84l-68 -87
q-45 26 -104 44.5t-105 18.5q-52 0 -88.5 -23.5t-36.5 -66.5q0 -18 7.5 -31t26 -23.5t36 -17.5l51 -19.5t57.5 -22.5z" />
    <glyph glyph-name="T" unicode="T" horiz-adv-x="582" 
d="M615 590h-209l-105 -590h-128l105 590h-209l18 110h546z" />
    <glyph glyph-name="U" unicode="U" horiz-adv-x="709" 
d="M704 700l-78 -442q-10 -60 -30 -105.5t-55.5 -84t-92.5 -59t-135 -20.5q-85 0 -140 23t-78.5 63t-30 95t7.5 118l72 412h130l-78 -436q-7 -47 -4 -83.5t33.5 -59t88.5 -22.5q86 0 128.5 44t55.5 121l78 436h128z" />
    <glyph glyph-name="V" unicode="V" horiz-adv-x="692" 
d="M222 700l88 -559l280 559h157l-385 -700h-142l-140 700h142z" />
    <glyph glyph-name="W" unicode="W" horiz-adv-x="952" 
d="M555 0l-40 518l-226 -518h-130l-69 700h142l28 -524l227 524h112l38 -524l211 524h152l-316 -700h-129z" />
    <glyph glyph-name="X" unicode="X" horiz-adv-x="641" 
d="M92 700h140l104 -272l197 272h158l-285 -349l174 -351h-144l-113 267l-203 -267h-163l296 350z" />
    <glyph glyph-name="Y" unicode="Y" horiz-adv-x="647" 
d="M204 0l49 279l-177 421h136l116 -318l228 318h151l-327 -424l-47 -276h-129z" />
    <glyph glyph-name="Z" unicode="Z" horiz-adv-x="626" 
d="M-19 0l16 100l463 490h-352l18 110h524l-16 -99l-465 -492h381l-18 -109h-551z" />
    <glyph glyph-name="bracketleft" unicode="[" horiz-adv-x="352" 
d="M250 -144h-254l173 983h254l-13 -77h-125l-147 -829h125z" />
    <glyph glyph-name="backslash" unicode="\" horiz-adv-x="463" 
d="M283 -90l-177 880h90l177 -880h-90z" />
    <glyph glyph-name="bracketright" unicode="]" horiz-adv-x="353" 
d="M200 -144h-254l13 77h125l147 829h-125l13 77h254z" />
    <glyph glyph-name="asciicircum" unicode="^" 
d="M446 333l-72 252l-159 -252h-143l251 367h127l124 -367h-128z" />
    <glyph glyph-name="underscore" unicode="_" horiz-adv-x="705" 
d="M559 -165h-577l15 89h577z" />
    <glyph glyph-name="grave" unicode="`" horiz-adv-x="234" 
d="M357 594h-95l-147 135h140z" />
    <glyph glyph-name="a" unicode="a" horiz-adv-x="618" 
d="M496 0h-123l12 70q-97 -81 -195 -81q-66 0 -112 46.5t-46 145.5q0 156 69.5 255.5t180.5 99.5q83 0 172 -77l12 66h123zM237 89q44 0 83 22.5t84 62.5l33 190q-60 71 -127 71q-69 0 -110 -71.5t-41 -169.5q0 -49 20 -77t58 -28z" />
    <glyph glyph-name="b" unicode="b" horiz-adv-x="615" 
d="M15 0l129 729h123l-47 -265q94 72 183 72q71 0 119.5 -46.5t48.5 -145.5q0 -157 -68 -256t-177 -99q-89 0 -177 76l-11 -65h-123zM357 436q-64 0 -155 -75l-36 -201q65 -71 132 -71t107 72t40 169q0 50 -22.5 78t-65.5 28z" />
    <glyph glyph-name="c" unicode="c" horiz-adv-x="521" 
d="M521 460l-59 -85q-3 2 -19.5 11.5t-27.5 15t-28 13t-33.5 11.5t-31.5 4q-67 0 -115 -63t-48 -148q0 -58 25 -91t74 -33q15 0 32 3.5t36.5 11t31 12.5t32.5 15t24 11l43 -95q-145 -64 -224 -64q-90 0 -146 57t-56 162q0 154 80 241t186 87q18 0 37 -2.5t33.5 -5.5
t32.5 -9.5l28.5 -10.5t27.5 -12.5t23.5 -12l22.5 -12.5t19 -11z" />
    <glyph glyph-name="d" unicode="d" horiz-adv-x="618" 
d="M496 0h-123l12 70q-94 -81 -195 -81q-66 0 -112 46.5t-46 145.5q0 156 69.5 255.5t180.5 99.5q83 0 172 -77l48 270h123zM237 89q44 0 83 22.5t84 62.5l33 190q-60 71 -127 71q-69 0 -110 -71.5t-41 -169.5q0 -49 20 -77t58 -28z" />
    <glyph glyph-name="e" unicode="e" horiz-adv-x="565" 
d="M534 389q0 -93 -83 -132.5t-239 -39.5h-56v-8q0 -127 105 -127q63 0 195 65l40 -87q-146 -71 -256 -71q-98 0 -153.5 56t-55.5 171q0 140 82.5 230t221.5 90q91 0 145 -40.5t54 -106.5zM331 446q-60 0 -103 -45t-62 -113h52q96 0 146 25t50 70q0 29 -23 46t-60 17z" />
    <glyph glyph-name="f" unicode="f" horiz-adv-x="372" 
d="M51 433l16 92h70l8 42q14 85 49 123.5t105 38.5q85 0 176 -47l-55 -81q-60 21 -98 21q-43 0 -53 -53l-8 -44h133l-16 -92h-133l-70 -396q-20 -110 -38 -145q-29 -56 -111 -86q-38 -14 -96 -27l-27 95q48 14 72 24.5t40 30t21 38t13 62.5l72 404h-70z" />
    <glyph glyph-name="g" unicode="g" horiz-adv-x="616" 
d="M465 525h123l-95 -537q-20 -115 -79.5 -158.5t-167.5 -43.5q-121 0 -260 40l41 100q124 -39 209 -39q115 0 133 96l15 85q-99 -79 -193 -79q-67 0 -113 46.5t-46 145.5q0 156 70 255.5t181 99.5q85 0 170 -76zM238 89q43 0 81 21.5t83 61.5l35 194q-63 69 -127 69
q-68 0 -109.5 -72t-41.5 -169q0 -50 20.5 -77.5t58.5 -27.5z" />
    <glyph glyph-name="h" unicode="h" horiz-adv-x="613" 
d="M267 729l-48 -269q113 76 207 76q82 0 115.5 -48t18.5 -130l-63 -358h-124l62 345q16 93 -57 93q-41 0 -91.5 -23.5t-84.5 -50.5l-64 -364h-123l129 729h123z" />
    <glyph glyph-name="i" unicode="i" horiz-adv-x="259" 
d="M138 0h-123l93 525h123zM119 610l20 116h131l-19 -116h-132z" />
    <glyph glyph-name="j" unicode="j" horiz-adv-x="259" 
d="M119 610l20 116h131l-19 -116h-132zM231 525l-94 -523q-6 -35 -9.5 -50.5t-11 -40t-17 -36t-26 -28t-40 -26.5t-56.5 -21t-77 -21l-27 95q62 19 89 34t35.5 31t14.5 54l95 532h124z" />
    <glyph glyph-name="k" unicode="k" horiz-adv-x="549" 
d="M557 525l-218 -214l156 -311h-126l-114 228l-93 -91l-24 -137h-123l129 729h123l-76 -427l216 223h150z" />
    <glyph glyph-name="l" unicode="l" horiz-adv-x="265" 
d="M141 0h-123l129 729h123z" />
    <glyph glyph-name="m" unicode="m" horiz-adv-x="921" 
d="M231 525l-13 -70q100 81 186 81q115 0 132 -95q38 35 92.5 65t108.5 30q83 0 114 -47t18 -128l-64 -361h-124l62 345q18 93 -53 93q-69 0 -157 -81l-62 -357h-123l62 345q16 93 -54 93q-67 0 -155 -79l-63 -359h-123l93 525h123z" />
    <glyph glyph-name="n" unicode="n" horiz-adv-x="613" 
d="M231 525l-12 -65q113 76 207 76q82 0 115.5 -48t18.5 -130l-63 -358h-124l62 345q16 93 -57 93q-41 0 -91.5 -23.5t-84.5 -50.5l-64 -364h-123l93 525h123z" />
    <glyph glyph-name="o" unicode="o" horiz-adv-x="615" 
d="M314 536q121 0 188.5 -62t67.5 -173q0 -133 -75.5 -222.5t-206.5 -89.5q-120 0 -188 62t-68 172q0 133 76 223t206 90zM286 85q73 0 116.5 65t43.5 152q0 137 -129 137q-73 0 -116.5 -65t-43.5 -152q0 -137 129 -137z" />
    <glyph glyph-name="p" unicode="p" horiz-adv-x="615" 
d="M-21 -204l129 729h123l-11 -61q94 72 183 72q71 0 119.5 -46.5t48.5 -145.5q0 -157 -68 -256t-177 -99q-89 0 -177 76l-47 -269h-123zM357 436q-64 0 -155 -75l-36 -201q65 -71 132 -71t107 72t40 169q0 50 -22.5 78t-65.5 28z" />
    <glyph glyph-name="q" unicode="q" horiz-adv-x="618" 
d="M460 -204h-123l48 274q-97 -81 -195 -81q-66 0 -112 46.5t-46 145.5q0 156 69.5 255.5t180.5 99.5q83 0 172 -77l12 66h123zM237 89q44 0 83 22.5t84 62.5l33 190q-60 71 -127 71q-69 0 -110 -71.5t-41 -169.5q0 -49 20 -77t58 -28z" />
    <glyph glyph-name="r" unicode="r" horiz-adv-x="406" 
d="M231 525l-20 -111q8 14 22 30.5t40.5 39.5t67.5 36.5t87 10.5l-20 -117q-48 0 -88.5 -18t-65 -44t-41.5 -52.5t-24 -44.5l-7 -18l-44 -237h-123l93 525h123z" />
    <glyph glyph-name="s" unicode="s" horiz-adv-x="525" 
d="M304 311q37 -11 62 -22t50 -29t38 -44.5t13 -60.5q0 -76 -61 -121t-159 -45q-133 0 -254 77l59 82q109 -63 196 -63q40 0 66 16t26 43q0 9 -3 17t-10.5 14.5t-14.5 11t-21 9.5l-22.5 8t-27.5 8.5l-29 8.5q-33 10 -56 20.5t-48 27.5t-38 43t-13 60q0 73 58 118.5t152 45.5
q119 0 232 -63l-58 -80q-94 48 -169 48q-39 0 -64 -15.5t-25 -41.5q0 -9 3 -16.5t10.5 -14t14.5 -11t20 -9l22 -7.5t25.5 -7.5t25.5 -7.5z" />
    <glyph glyph-name="t" unicode="t" horiz-adv-x="399" 
d="M48 433l15 92h71l24 132l127 20l-28 -152h143l-16 -92h-143l-51 -285q-8 -51 35 -51q31 0 91 24l31 -97q-99 -35 -161 -35q-68 0 -99.5 43.5t-16.5 129.5l48 271h-70z" />
    <glyph glyph-name="u" unicode="u" horiz-adv-x="613" 
d="M368 0l11 62q-112 -73 -206 -73q-82 0 -115 48t-19 130l63 358h124l-62 -345q-16 -94 58 -94q40 0 91 23.5t83 50.5l65 365h123l-93 -525h-123z" />
    <glyph glyph-name="v" unicode="v" horiz-adv-x="567" 
d="M289 0h-122l-113 525h128l64 -399l204 399h139z" />
    <glyph glyph-name="w" unicode="w" horiz-adv-x="823" 
d="M468 0l-43 373l-179 -373h-118l-69 525h128l28 -394l181 394h106l38 -391l165 391h135l-254 -525h-118z" />
    <glyph glyph-name="x" unicode="x" horiz-adv-x="586" 
d="M392 0l-105 197l-172 -197h-160l257 263l-153 262h132l99 -194l165 194h153l-246 -261l165 -264h-135z" />
    <glyph glyph-name="y" unicode="y" horiz-adv-x="569" 
d="M-9 -124q55 19 79 29t50 31t48 55l-114 534h128l67 -383l203 383h138l-296 -525q-52 -91 -80 -121q-62 -69 -195 -100z" />
    <glyph glyph-name="z" unicode="z" horiz-adv-x="535" 
d="M-18 0l15 88l348 334h-278l18 103h449l-14 -89l-349 -334h288l-18 -102h-459z" />
    <glyph glyph-name="braceleft" unicode="{" horiz-adv-x="391" 
d="M19 306l14 84q62 -1 88 33.5t28 82.5l4 98q5 120 71.5 177.5t199.5 57.5h37l-12 -75h-19q-76 0 -108.5 -39t-36.5 -104l-4 -92q-4 -88 -42.5 -129.5t-115.5 -53.5q141 -32 93 -188l-21 -69q-8 -25 -12 -45.5t-2 -42.5t12 -36.5t32.5 -24t56.5 -9.5h18l-12 -74h-18
q-124 0 -182 63.5t-22 179.5l27 90q37 116 -74 116z" />
    <glyph glyph-name="bar" unicode="|" horiz-adv-x="243" 
d="M93 -123h-93l166 941h93z" />
    <glyph glyph-name="braceright" unicode="}" horiz-adv-x="391" 
d="M390 390l-15 -84q-63 0 -89 -34t-28 -82l-4 -98q-5 -120 -71 -177.5t-199 -57.5h-38l13 74h18q136 0 146 144l4 92q4 87 42 128.5t113 53.5q-138 32 -90 188l21 69q10 32 12.5 57t-3 49.5t-30 38t-66.5 13.5h-19l12 75h18q124 0 182 -63.5t22 -179.5l-27 -90
q-19 -60 0 -88t76 -28z" />
    <glyph glyph-name="asciitilde" unicode="~" 
d="M91 189l-76 33q41 70 85.5 104.5t99.5 34.5q52 0 123.5 -37.5t107.5 -37.5q49 0 99 70l75 -33q-41 -70 -85.5 -104.5t-99.5 -34.5q-52 0 -123.5 37.5t-107.5 37.5q-48 0 -98 -70z" />
    <glyph glyph-name="uni00A0" unicode="&#xa0;" horiz-adv-x="274" 
 />
    <glyph glyph-name="exclamdown" unicode="&#xa1;" horiz-adv-x="277" 
d="M119 560l24 140h131l-23 -140h-132zM208 479l-48 -479h-150l123 479h75z" />
    <glyph glyph-name="cent" unicode="&#xa2;" horiz-adv-x="564" 
d="M310 0h-92l13 78q-79 9 -126.5 65t-47.5 153q0 154 80 241t186 87h4l14 76h92l-16 -91q51 -16 142 -70l-59 -83q-63 40 -101 53l-55 -316q34 11 108 45l43 -93q-105 -48 -170 -61zM185 307q0 -98 66 -119l57 323q-53 -18 -88 -75.5t-35 -128.5z" />
    <glyph glyph-name="sterling" unicode="&#xa3;" horiz-adv-x="571" 
d="M58 252l13 78h95q-2 10 -26 75.5t-24 109.5q0 89 59.5 142.5t162.5 53.5q52 0 104.5 -17.5t78.5 -33t65 -41.5l-66 -77q-98 61 -163 61q-53 0 -83.5 -28.5t-30.5 -70.5q0 -33 23 -87.5t27 -86.5h162l-14 -78h-153q-24 -87 -105 -145h296l-17 -107h-460l15 88
q5 2 13.5 6.5t31.5 20.5t41.5 33.5t37 45.5t25.5 58h-108z" />
    <glyph glyph-name="yen" unicode="&#xa5;" horiz-adv-x="691" 
d="M95 289l12 76h133l-141 335h136l117 -318l227 318h151l-258 -335h132l-13 -76h-178l-10 -13l-8 -48h185l-14 -76h-184l-26 -152h-129l26 152h-182l13 76h183l9 51l-4 10h-177z" />
    <glyph glyph-name="brokenbar" unicode="&#xa6;" horiz-adv-x="245" 
d="M187 405h-93l73 413h93zM94 -123h-93l73 413h93z" />
    <glyph glyph-name="section" unicode="&#xa7;" horiz-adv-x="567" 
d="M215 152q-77 24 -120.5 58.5t-43.5 95.5q0 99 115 136q-52 40 -52 105q0 73 57.5 118.5t151.5 45.5q121 0 233 -63l-58 -80q-94 48 -169 48q-40 0 -64.5 -15.5t-24.5 -41.5q0 -9 3 -16.5t10.5 -13.5l13.5 -10.5t19.5 -9.5t21.5 -7.5t26.5 -7.5t26.5 -8q76 -23 119 -57.5
t43 -95.5q0 -100 -115 -137q53 -39 53 -106q0 -72 -57.5 -117t-151.5 -45q-122 0 -233 63l58 80q96 -48 171 -48q39 0 63.5 15.5t24.5 40.5q0 9 -3 16.5t-10 13.5t-14 10.5t-20 9.5t-21.5 7.5l-26 7.5t-26.5 8zM402 314q0 10 -3 18t-11.5 15t-15 11.5t-22 10.5t-23.5 8.5
l-28.5 8.5t-28.5 9q-47 -4 -72.5 -24t-25.5 -46q0 -29 29 -44.5t87 -32.5q13 -3 19 -5q0 -1 1 -1q45 6 69.5 26t24.5 46z" />
    <glyph glyph-name="dieresis" unicode="&#xa8;" horiz-adv-x="247" 
d="M84 604l19 111h108l-18 -111h-109zM265 604l19 111h108l-21 -111h-106z" />
    <glyph glyph-name="copyright" unicode="&#xa9;" horiz-adv-x="813" 
d="M59 313q0 167 102.5 282.5t279.5 115.5q152 0 241 -89.5t89 -234.5q0 -108 -43 -197t-132 -145t-208 -56q-151 0 -240 90t-89 234zM98 314q0 -127 78.5 -207t215.5 -80q156 0 248 103.5t92 255.5q0 127 -78.5 207t-215.5 80q-156 0 -248 -103.5t-92 -255.5zM592 500
l-32 -33q-67 56 -129 56q-66 0 -110 -62t-40 -155q2 -61 26 -95t68 -34q71 0 149 54l26 -37q-93 -62 -173 -62q-62 0 -103 44.5t-44 125.5q-5 122 54.5 193.5t147.5 71.5q78 0 160 -67z" />
    <glyph glyph-name="ordfeminine" unicode="&#xaa;" horiz-adv-x="435" 
d="M386 385h-88l6 37q-59 -44 -119 -44q-43 0 -72.5 29t-29.5 91q0 92 43.5 150.5t112.5 58.5q53 0 108 -45l7 38h87zM219 448q43 0 98 45l18 105q-37 39 -74 39q-40 0 -64 -39t-24 -93q0 -57 46 -57z" />
    <glyph glyph-name="guillemotleft" unicode="&#xab;" horiz-adv-x="683" 
d="M352 400l-224 -137l174 -134l-18 -109l-264 216l13 76l340 215zM314 236l13 76l339 215l-21 -127l-223 -137l173 -134l-18 -109z" />
    <glyph glyph-name="logicalnot" unicode="&#xac;" 
d="M563 90h-102l34 196h-477l16 94h580z" />
    <glyph glyph-name="registered" unicode="&#xae;" horiz-adv-x="491" 
d="M82 480q0 92 56.5 156t155.5 64q84 0 133 -49.5t49 -130.5q0 -92 -56.5 -156t-154.5 -64q-84 0 -133.5 49.5t-49.5 130.5zM116 481q0 -65 40.5 -106.5t110.5 -41.5q81 0 129 53.5t48 132.5q0 65 -41 106.5t-112 41.5q-81 0 -128 -53.5t-47 -132.5zM374 551q0 -24 -17 -41
t-45 -22l33 -86h-34l-31 85h-43l-15 -85h-33l35 201h89q28 0 44.5 -15t16.5 -37zM341 551q0 22 -29 22h-60l-10 -55h52q22 0 34.5 9.5t12.5 23.5z" />
    <glyph glyph-name="macron" unicode="&#xaf;" horiz-adv-x="305" 
d="M113 619l13 75h300l-13 -75h-300z" />
    <glyph glyph-name="degree" unicode="&#xb0;" horiz-adv-x="427" 
d="M78 527q0 72 51 123t122 51q72 0 123 -51t51 -123q0 -71 -51 -122t-123 -51q-71 0 -122 51t-51 122zM152 527q0 -41 29 -70t70 -29t70 29t29 70t-29 70t-70 29t-70 -29t-29 -70z" />
    <glyph glyph-name="plusminus" unicode="&#xb1;" 
d="M306 538h98l-26 -146h204l-15 -95h-206l-26 -147h-97l26 147h-203l15 95h204zM8 0l14 82h506l-13 -82h-507z" />
    <glyph glyph-name="twosuperior" unicode="&#xb2;" horiz-adv-x="404" 
d="M388 460l-12 -75h-328l7 41q6 34 20.5 60.5t43.5 49.5t46 33.5t58 33.5q8 5 22.5 13l21.5 12l18.5 10.5t17 10.5l13 9.5t11.5 10t7.5 9.5t5 10.5t1.5 10.5q-2 38 -59 38q-50 0 -122 -39l-34 63q86 51 167 51q66 0 103 -31t37 -79q0 -24 -12 -46.5t-24.5 -36.5t-43 -33.5
t-44 -26.5l-50.5 -26q-49 -25 -66.5 -39t-22.5 -34h218z" />
    <glyph glyph-name="threesuperior" unicode="&#xb3;" horiz-adv-x="398" 
d="M42 438l45 57q71 -42 130 -42q41 0 65.5 16.5t24.5 43.5q0 58 -114 58h-19l11 75h23q45 0 80 15t35 40q0 16 -14.5 26t-38.5 10q-53 0 -119 -36l-31 62q78 49 165 49q63 0 97 -27t34 -68q0 -69 -94 -105q34 -10 55.5 -37.5t21.5 -63.5q0 -53 -43.5 -93t-129.5 -40
q-90 0 -184 60z" />
    <glyph glyph-name="acute" unicode="&#xb4;" horiz-adv-x="235" 
d="M193 594h-108l143 135h156z" />
    <glyph glyph-name="mu" unicode="&#xb5;" horiz-adv-x="615" 
d="M109 -204h-124l129 729h124l-65 -366q-5 -73 61 -73q40 0 91 23.5t83 50.5l65 365h123l-93 -525h-123l11 62q-112 -73 -206 -73q-17 0 -41 4z" />
    <glyph glyph-name="paragraph" unicode="&#xb6;" horiz-adv-x="685" 
d="M358 700h113l-156 -885h-106l76 422q-103 0 -164.5 49t-61.5 144q0 128 85 199t214 71zM408 -186l156 886h106l-156 -886h-106z" />
    <glyph glyph-name="periodcentered" unicode="&#xb7;" horiz-adv-x="260" 
d="M49 210l25 150h131l-25 -150h-131z" />
    <glyph glyph-name="cedilla" unicode="&#xb8;" horiz-adv-x="178" 
d="M-35 -159l36 64q23 -12 49 -12q56 0 56 49q0 12 -4 27t-8 24l-4 9h56q26 -36 26 -80q0 -49 -33.5 -75t-86.5 -26q-51 0 -87 20z" />
    <glyph glyph-name="onesuperior" unicode="&#xb9;" horiz-adv-x="252" 
d="M210 385h-91l61 330l-80 -37l-30 63l129 64h85z" />
    <glyph glyph-name="ordmasculine" unicode="&#xba;" horiz-adv-x="425" 
d="M265 707q76 0 119 -36.5t43 -101.5q0 -81 -49.5 -136t-135.5 -55q-75 0 -118 36.5t-43 100.5q0 82 49 137t135 55zM244 445q45 0 70 37t25 82q0 75 -75 75q-45 0 -70.5 -36.5t-25.5 -82.5q0 -75 76 -75z" />
    <glyph glyph-name="guillemotright" unicode="&#xbb;" horiz-adv-x="682" 
d="M300 20l21 127l223 136l-173 135l18 109l263 -215l-12 -76zM359 312l-13 -76l-340 -216l21 127l223 136l-172 135l17 109z" />
    <glyph glyph-name="onequarter" unicode="&#xbc;" horiz-adv-x="859" 
d="M396 81l9 63l250 276h120l-47 -265h66l-11 -74h-68l-14 -81h-91l14 81h-228zM668 700l-450 -700h-98l450 700h98zM224 280h-91l61 330l-80 -37l-30 63l129 64h85zM507 155h130l33 185z" />
    <glyph glyph-name="onehalf" unicode="&#xbd;" horiz-adv-x="882" 
d="M790 75l-11 -75h-328l7 41q6 34 20.5 60.5t43 49.5t46 34t57.5 33q85 47 101 61q18 17 18 34q0 39 -59 39q-51 0 -122 -39l-34 63q83 51 166 51q67 0 103.5 -31t36.5 -79q0 -20 -6 -38t-22 -34.5t-27.5 -27t-38.5 -26.5t-37.5 -21.5l-41.5 -21.5q-49 -25 -66.5 -39
t-22.5 -34h217zM224 280h-91l61 330l-80 -37l-30 63l129 64h85zM668 700l-450 -700h-98l450 700h98z" />
    <glyph glyph-name="threequarters" unicode="&#xbe;" horiz-adv-x="963" 
d="M503 81l9 63l250 276h120l-47 -265h66l-11 -74h-68l-14 -81h-91l14 81h-228zM41 333l45 57q71 -42 130 -42q41 0 65.5 16.5t24.5 43.5q0 58 -114 58h-19l11 75h23q45 0 80 15t35 40q0 16 -14.5 26t-38.5 10q-53 0 -119 -36l-31 62q78 49 165 49q63 0 97 -27t34 -68
q0 -69 -94 -105q34 -10 55.5 -37.5t21.5 -63.5q0 -53 -43.5 -93t-129.5 -40q-90 0 -184 60zM776 700l-451 -700h-98l450 700h99zM615 155h129l33 185z" />
    <glyph glyph-name="questiondown" unicode="&#xbf;" horiz-adv-x="527" 
d="M450 700l-24 -140h-131l24 140h131zM17 153q0 48 21.5 86.5t59.5 65t82.5 44t98.5 28.5l27 102h80l-22 -173q-218 -40 -218 -136q0 -35 26 -54.5t70 -19.5q69 0 171 56l44 -92q-121 -71 -238 -71q-90 0 -146 43.5t-56 120.5z" />
    <glyph glyph-name="Agrave" unicode="&#xc0;" horiz-adv-x="695" 
d="M494 0l-23 149h-285l-75 -149h-149l386 700h142l140 -700h-136zM404 581l-166 -329h217zM519 745h-95l-146 135h139z" />
    <glyph glyph-name="Aacute" unicode="&#xc1;" horiz-adv-x="695" 
d="M494 0l-23 149h-285l-75 -149h-149l386 700h142l140 -700h-136zM404 581l-166 -329h217zM445 745h-108l143 135h156z" />
    <glyph glyph-name="Acircumflex" unicode="&#xc2;" horiz-adv-x="695" 
d="M494 0l-23 149h-285l-75 -149h-149l386 700h142l140 -700h-136zM404 581l-166 -329h217zM515 880l79 -135h-81l-66 78l-93 -78h-91l126 135h126z" />
    <glyph glyph-name="Atilde" unicode="&#xc3;" horiz-adv-x="695" 
d="M494 0l-23 149h-285l-75 -149h-149l386 700h142l140 -700h-136zM404 581l-166 -329h217zM318 751l-54 35q22 32 34.5 47.5t33.5 28.5t46 13q29 0 69 -24t55 -24q23 0 59 47l54 -36q-22 -31 -34.5 -46.5t-33.5 -28.5t-46 -13q-29 0 -68.5 24t-54.5 24q-24 0 -60 -47z" />
    <glyph glyph-name="Adieresis" unicode="&#xc4;" horiz-adv-x="695" 
d="M494 0l-23 149h-285l-75 -149h-149l386 700h142l140 -700h-136zM404 581l-166 -329h217zM285 755l20 111h107l-19 -111h-108zM466 755l19 111h108l-20 -111h-107z" />
    <glyph glyph-name="Aring" unicode="&#xc5;" horiz-adv-x="695" 
d="M494 0l-23 149h-285l-75 -149h-149l386 700h142l140 -700h-136zM337 844q0 45 31.5 77t77.5 32q45 0 77 -32t32 -77q0 -46 -32 -77.5t-77 -31.5q-46 0 -77.5 31.5t-31.5 77.5zM404 581l-166 -329h217zM399 844q0 -20 13.5 -33.5t33.5 -13.5t33.5 13.5t13.5 33.5
t-13.5 33.5t-33.5 13.5t-33.5 -13.5t-13.5 -33.5z" />
    <glyph glyph-name="AE" unicode="&#xc6;" horiz-adv-x="1033" 
d="M522 700h529l-18 -110h-344l-35 -186h284l-19 -108h-283l-35 -187h351l-18 -109h-478l26 149h-269l-122 -149h-165zM300 255h200l54 309z" />
    <glyph glyph-name="Ccedilla" unicode="&#xc7;" horiz-adv-x="654" 
d="M137 -159l36 64q23 -12 48 -12q57 0 57 49q0 22 -11 48q-98 5 -155 75t-57 207q0 200 98.5 319.5t245.5 119.5q54 0 110 -19t86.5 -37t82.5 -53l-71 -90q-61 42 -105 62.5t-89 20.5q-98 0 -161.5 -91t-63.5 -223q0 -88 32.5 -132.5t90.5 -44.5q82 0 223 81l56 -101
q-151 -82 -266 -93q20 -32 20 -69q0 -49 -33.5 -75t-86.5 -26q-51 0 -87 20z" />
    <glyph glyph-name="Egrave" unicode="&#xc8;" horiz-adv-x="607" 
d="M491 745h-96l-147 135h140zM507 0h-478l122 700h473l-18 -110h-344l-35 -186h283l-18 -108h-283l-34 -187h350z" />
    <glyph glyph-name="Eacute" unicode="&#xc9;" horiz-adv-x="607" 
d="M412 745h-108l143 135h154zM507 0h-478l122 700h473l-18 -110h-344l-35 -186h283l-18 -108h-283l-34 -187h350z" />
    <glyph glyph-name="Ecircumflex" unicode="&#xca;" horiz-adv-x="607" 
d="M485 880l79 -135h-80l-66 78l-92 -78h-93l128 135h124zM507 0h-478l122 700h473l-18 -110h-344l-35 -186h283l-18 -108h-283l-34 -187h350z" />
    <glyph glyph-name="Edieresis" unicode="&#xcb;" horiz-adv-x="607" 
d="M507 0h-478l122 700h473l-18 -110h-344l-35 -186h283l-18 -108h-283l-34 -187h350zM257 755l19 111h109l-20 -111h-108zM438 755l19 111h108l-19 -111h-108z" />
    <glyph glyph-name="Igrave" unicode="&#xcc;" horiz-adv-x="292" 
d="M317 745h-96l-147 135h140zM157 0h-128l123 700h128z" />
    <glyph glyph-name="Iacute" unicode="&#xcd;" horiz-adv-x="292" 
d="M237 745h-108l143 135h155zM157 0h-128l123 700h128z" />
    <glyph glyph-name="Icircumflex" unicode="&#xce;" horiz-adv-x="292" 
d="M310 880l79 -135h-80l-66 78l-92 -78h-92l126 135h125zM157 0h-128l123 700h128z" />
    <glyph glyph-name="Idieresis" unicode="&#xcf;" horiz-adv-x="292" 
d="M157 0h-128l123 700h128zM82 755l19 111h109l-20 -111h-108zM263 755l19 111h108l-20 -111h-107z" />
    <glyph glyph-name="Eth" unicode="&#xd0;" horiz-adv-x="727" 
d="M692 427q0 -58 -12.5 -115t-42.5 -114t-74.5 -100.5t-113.5 -70.5t-153 -27h-255l52 299h-72l16 102h74l52 299h207q160 0 241 -72t81 -201zM375 299h-153l-34 -190h90q134 0 208.5 90t74.5 226q0 88 -52.5 126.5t-156.5 38.5h-78l-34 -189h151z" />
    <glyph glyph-name="Ntilde" unicode="&#xd1;" horiz-adv-x="736" 
d="M470 0l-222 519l-91 -519h-128l123 700h131l221 -518l91 518h129l-123 -700h-131zM342 751l-54 35q22 32 34.5 47.5t33.5 28.5t46 13q29 0 69 -24t55 -24q23 0 59 47l54 -36q-22 -31 -34.5 -46.5t-33.5 -28.5t-46 -13q-29 0 -68.5 24t-54.5 24q-24 0 -60 -47z" />
    <glyph glyph-name="Ograve" unicode="&#xd2;" horiz-adv-x="760" 
d="M410 711q156 0 234.5 -81t79.5 -222q0 -50 -10.5 -103t-37 -111t-66 -103t-103 -74t-141.5 -29q-155 0 -233.5 81t-79.5 222q0 50 10.5 103t37 111t66 103t102.5 74t141 29zM362 98q48 0 87.5 21t65 53.5t43.5 74.5t25.5 81.5t7.5 76.5q0 196 -176 196q-48 0 -87.5 -21
t-65 -53.5t-43.5 -74.5t-25.5 -81.5t-7.5 -76.5q0 -196 176 -196zM550 745h-95l-146 135h139z" />
    <glyph glyph-name="Oacute" unicode="&#xd3;" horiz-adv-x="760" 
d="M410 711q156 0 234.5 -81t79.5 -222q0 -50 -10.5 -103t-37 -111t-66 -103t-103 -74t-141.5 -29q-155 0 -233.5 81t-79.5 222q0 50 10.5 103t37 111t66 103t102.5 74t141 29zM362 98q48 0 87.5 21t65 53.5t43.5 74.5t25.5 81.5t7.5 76.5q0 196 -176 196q-48 0 -87.5 -21
t-65 -53.5t-43.5 -74.5t-25.5 -81.5t-7.5 -76.5q0 -196 176 -196zM471 745h-108l143 135h156z" />
    <glyph glyph-name="Ocircumflex" unicode="&#xd4;" horiz-adv-x="760" 
d="M410 711q156 0 234.5 -81t79.5 -222q0 -50 -10.5 -103t-37 -111t-66 -103t-103 -74t-141.5 -29q-155 0 -233.5 81t-79.5 222q0 50 10.5 103t37 111t66 103t102.5 74t141 29zM362 98q48 0 87.5 21t65 53.5t43.5 74.5t25.5 81.5t7.5 76.5q0 196 -176 196q-48 0 -87.5 -21
t-65 -53.5t-43.5 -74.5t-25.5 -81.5t-7.5 -76.5q0 -196 176 -196zM546 880l79 -135h-81l-65 78l-92 -78h-93l126 135h126z" />
    <glyph glyph-name="Otilde" unicode="&#xd5;" horiz-adv-x="760" 
d="M410 711q156 0 234.5 -81t79.5 -222q0 -50 -10.5 -103t-37 -111t-66 -103t-103 -74t-141.5 -29q-155 0 -233.5 81t-79.5 222q0 50 10.5 103t37 111t66 103t102.5 74t141 29zM362 98q48 0 87.5 21t65 53.5t43.5 74.5t25.5 81.5t7.5 76.5q0 196 -176 196q-48 0 -87.5 -21
t-65 -53.5t-43.5 -74.5t-25.5 -81.5t-7.5 -76.5q0 -196 176 -196zM348 751l-54 35q22 32 34.5 47.5t33.5 28.5t46 13q29 0 69 -24t55 -24q23 0 59 47l54 -36q-22 -31 -34.5 -46.5t-33.5 -28.5t-46 -13q-29 0 -68.5 24t-54.5 24q-24 0 -60 -47z" />
    <glyph glyph-name="Odieresis" unicode="&#xd6;" horiz-adv-x="760" 
d="M410 711q156 0 234.5 -81t79.5 -222q0 -50 -10.5 -103t-37 -111t-66 -103t-103 -74t-141.5 -29q-155 0 -233.5 81t-79.5 222q0 50 10.5 103t37 111t66 103t102.5 74t141 29zM362 98q48 0 87.5 21t65 53.5t43.5 74.5t25.5 81.5t7.5 76.5q0 196 -176 196q-48 0 -87.5 -21
t-65 -53.5t-43.5 -74.5t-25.5 -81.5t-7.5 -76.5q0 -196 176 -196zM316 755l20 111h107l-19 -111h-108zM496 755l19 111h109l-20 -111h-108z" />
    <glyph glyph-name="multiply" unicode="&#xd7;" 
d="M558 463l-167 -133l117 -128l-75 -64l-119 131l-169 -134l-62 73l166 132l-117 129l75 63l119 -131l170 135z" />
    <glyph glyph-name="Oslash" unicode="&#xd8;" horiz-adv-x="759" 
d="M762 700l-93 -100q54 -75 54 -192q0 -50 -10.5 -103.5t-37 -111t-65.5 -102.5t-102.5 -74t-141.5 -29q-134 0 -212 60l-45 -48h-96l93 99q-53 75 -53 192q0 50 10.5 103.5t37 111t65.5 102.5t102.5 74t141.5 29q131 0 210 -60l46 49h96zM362 98q59 0 105 31t72 79.5
t39 99t13 97.5q0 56 -15 96l-338 -363q43 -40 124 -40zM185 294q0 -54 14 -95l338 362q-45 40 -123 40q-48 0 -87.5 -21t-65 -53.5t-43.5 -74.5t-25.5 -81.5t-7.5 -76.5z" />
    <glyph glyph-name="Ugrave" unicode="&#xd9;" horiz-adv-x="709" 
d="M705 700l-78 -442q-10 -60 -30.5 -105.5t-55.5 -84t-92.5 -59t-135.5 -20.5q-85 0 -140 23t-78.5 63t-29.5 95t8 118l72 412h130l-78 -436q-14 -78 9.5 -121.5t108.5 -43.5q86 0 128 44t56 121l77 436h129zM526 745h-95l-147 135h140z" />
    <glyph glyph-name="Uacute" unicode="&#xda;" horiz-adv-x="709" 
d="M705 700l-78 -442q-10 -60 -30.5 -105.5t-55.5 -84t-92.5 -59t-135.5 -20.5q-85 0 -140 23t-78.5 63t-29.5 95t8 118l72 412h130l-78 -436q-14 -78 9.5 -121.5t108.5 -43.5q86 0 128 44t56 121l77 436h129zM446 745h-109l144 135h155z" />
    <glyph glyph-name="Ucircumflex" unicode="&#xdb;" horiz-adv-x="709" 
d="M705 700l-78 -442q-10 -60 -30.5 -105.5t-55.5 -84t-92.5 -59t-135.5 -20.5q-85 0 -140 23t-78.5 63t-29.5 95t8 118l72 412h130l-78 -436q-14 -78 9.5 -121.5t108.5 -43.5q86 0 128 44t56 121l77 436h129zM520 880l79 -135h-80l-66 78l-92 -78h-92l126 135h125z" />
    <glyph glyph-name="Udieresis" unicode="&#xdc;" horiz-adv-x="709" 
d="M705 700l-78 -442q-10 -60 -30.5 -105.5t-55.5 -84t-92.5 -59t-135.5 -20.5q-85 0 -140 23t-78.5 63t-29.5 95t8 118l72 412h130l-78 -436q-14 -78 9.5 -121.5t108.5 -43.5q86 0 128 44t56 121l77 436h129zM292 755l19 111h108l-19 -111h-108zM473 755l19 111h107
l-20 -111h-106z" />
    <glyph glyph-name="Yacute" unicode="&#xdd;" horiz-adv-x="647" 
d="M205 0l49 277l-178 423h136l117 -319l227 319h151l-325 -423l-49 -277h-128zM412 745h-108l143 135h156z" />
    <glyph glyph-name="Thorn" unicode="&#xde;" horiz-adv-x="668" 
d="M644 387q0 -104 -75.5 -176t-211.5 -72h-175l-25 -139h-128l123 700h128l-20 -117h124q260 0 260 -196zM511 384q0 92 -128 92h-141l-42 -230h139q79 0 125.5 35.5t46.5 102.5z" />
    <glyph glyph-name="germandbls" unicode="&#xdf;" horiz-adv-x="692" 
d="M410 711q140 0 206 -60t46 -168l-2 -12l-67 -72q-76 42 -132 42q-34 0 -56 -16t-22 -42q0 -9 2.5 -16.5t9 -13.5t11.5 -10t17 -9.5t18.5 -8t23 -8t23.5 -7.5q69 -24 106 -59t37 -96q0 -76 -57 -121t-145 -45q-65 0 -126 23t-104 55l55 81q35 -24 85.5 -44t83.5 -20
q32 0 57 16.5t25 42.5q0 19 -15.5 33.5t-33.5 22t-49 18.5q-8 3 -12 4q-64 23 -100.5 55.5t-36.5 94.5q0 72 52 118.5t140 46.5q45 0 92 -13q-3 91 -135 91q-77 0 -124 -31t-61 -110l-84 -473h-123l86 488q21 115 95 169t214 54z" />
    <glyph glyph-name="agrave" unicode="&#xe0;" horiz-adv-x="618" 
d="M496 0h-123l12 70q-97 -81 -195 -81q-66 0 -112 46.5t-46 145.5q0 156 69.5 255.5t180.5 99.5q83 0 172 -77l12 66h123zM237 89q44 0 83 22.5t84 62.5l33 190q-60 71 -127 71q-69 0 -110 -71.5t-41 -169.5q0 -49 20 -77t58 -28zM456 594h-95l-147 135h140z" />
    <glyph glyph-name="aacute" unicode="&#xe1;" horiz-adv-x="618" 
d="M496 0h-123l12 70q-97 -81 -195 -81q-66 0 -112 46.5t-46 145.5q0 156 69.5 255.5t180.5 99.5q83 0 172 -77l12 66h123zM237 89q44 0 83 22.5t84 62.5l33 190q-60 71 -127 71q-69 0 -110 -71.5t-41 -169.5q0 -49 20 -77t58 -28zM365 594h-109l143 135h155z" />
    <glyph glyph-name="acircumflex" unicode="&#xe2;" horiz-adv-x="618" 
d="M496 0h-123l12 70q-97 -81 -195 -81q-66 0 -112 46.5t-46 145.5q0 156 69.5 255.5t180.5 99.5q83 0 172 -77l12 66h123zM237 89q44 0 83 22.5t84 62.5l33 190q-60 71 -127 71q-69 0 -110 -71.5t-41 -169.5q0 -49 20 -77t58 -28zM450 729l79 -135h-81l-65 78l-92 -78h-92
l126 135h125z" />
    <glyph glyph-name="atilde" unicode="&#xe3;" horiz-adv-x="618" 
d="M496 0h-123l12 70q-97 -81 -195 -81q-66 0 -112 46.5t-46 145.5q0 156 69.5 255.5t180.5 99.5q83 0 172 -77l12 66h123zM237 89q44 0 83 22.5t84 62.5l33 190q-60 71 -127 71q-69 0 -110 -71.5t-41 -169.5q0 -49 20 -77t58 -28zM256 600l-54 35q22 32 34.5 47.5
t33.5 28.5t46 13q29 0 68.5 -24t54.5 -24q25 0 59 47l54 -36q-22 -31 -34.5 -46.5t-33.5 -28.5t-46 -13q-29 0 -68.5 24t-54.5 24q-25 0 -59 -47z" />
    <glyph glyph-name="adieresis" unicode="&#xe4;" horiz-adv-x="618" 
d="M496 0h-123l12 70q-97 -81 -195 -81q-66 0 -112 46.5t-46 145.5q0 156 69.5 255.5t180.5 99.5q83 0 172 -77l12 66h123zM237 89q44 0 83 22.5t84 62.5l33 190q-60 71 -127 71q-69 0 -110 -71.5t-41 -169.5q0 -49 20 -77t58 -28zM226 604l19 111h108l-18 -111h-109z
M407 604l19 111h106l-18 -111h-107z" />
    <glyph glyph-name="aring" unicode="&#xe5;" horiz-adv-x="618" 
d="M496 0h-123l12 70q-97 -81 -195 -81q-66 0 -112 46.5t-46 145.5q0 156 69.5 255.5t180.5 99.5q83 0 172 -77l12 66h123zM237 89q44 0 83 22.5t84 62.5l33 190q-60 71 -127 71q-69 0 -110 -71.5t-41 -169.5q0 -49 20 -77t58 -28zM274 693q0 45 32 77t77 32q46 0 78 -32
t32 -77q0 -46 -32 -77.5t-78 -31.5q-45 0 -77 31.5t-32 77.5zM336 693q0 -20 13.5 -33.5t33.5 -13.5t34 13.5t14 33.5t-14 33.5t-34 13.5q-19 0 -33 -14t-14 -33z" />
    <glyph glyph-name="ae" unicode="&#xe6;" horiz-adv-x="940" 
d="M497 0h-124l12 70q-97 -81 -195 -81q-66 0 -112 46.5t-46 145.5q0 156 69.5 255.5t180.5 99.5q83 0 172 -77l12 66h123l-2 -11q57 22 121 22q91 0 145 -40.5t54 -106.5q0 -93 -83 -132.5t-239 -39.5h-55v-8q0 -127 104 -127q65 0 195 65l41 -87q-149 -71 -257 -71
q-67 0 -114 25zM237 89q44 0 83 22.5t84 62.5l1 8q-1 11 -1 34q0 83 31 151q-61 68 -125 68q-69 0 -110 -71.5t-41 -169.5q0 -49 20 -77t58 -28zM705 446q-60 0 -103 -45t-62 -113h52q96 0 146 25t50 70q0 29 -23 46t-60 17z" />
    <glyph glyph-name="ccedilla" unicode="&#xe7;" horiz-adv-x="521" 
d="M64 -159l36 64q23 -12 50 -12q55 0 55 49q0 24 -12 50q-74 12 -118 67.5t-44 148.5q0 154 80 241t186 87q18 0 37 -2.5t33.5 -5.5t32.5 -9.5l28.5 -10.5t27.5 -12.5t23.5 -12l22.5 -12.5t19 -11l-59 -85q-3 2 -19.5 11.5t-27.5 15t-28 13t-33.5 11.5t-31.5 4
q-67 0 -115 -63t-48 -148q0 -58 25 -91t74 -33q15 0 32 3.5t36.5 11t31 12.5t32.5 15t24 11l43 -95q-127 -58 -205 -63q19 -33 19 -68q0 -48 -33.5 -74.5t-85.5 -26.5t-88 20z" />
    <glyph glyph-name="egrave" unicode="&#xe8;" horiz-adv-x="565" 
d="M534 389q0 -93 -83 -132.5t-239 -39.5h-56v-8q0 -127 105 -127q63 0 195 65l40 -87q-146 -71 -256 -71q-98 0 -153.5 56t-55.5 171q0 140 82.5 230t221.5 90q91 0 145 -40.5t54 -106.5zM331 446q-60 0 -103 -45t-62 -113h52q96 0 146 25t50 70q0 29 -23 46t-60 17z
M444 594h-95l-147 135h140z" />
    <glyph glyph-name="eacute" unicode="&#xe9;" horiz-adv-x="565" 
d="M534 389q0 -93 -83 -132.5t-239 -39.5h-56v-8q0 -127 105 -127q63 0 195 65l40 -87q-146 -71 -256 -71q-98 0 -153.5 56t-55.5 171q0 140 82.5 230t221.5 90q91 0 145 -40.5t54 -106.5zM331 446q-60 0 -103 -45t-62 -113h52q96 0 146 25t50 70q0 29 -23 46t-60 17z
M366 594h-109l144 135h154z" />
    <glyph glyph-name="ecircumflex" unicode="&#xea;" horiz-adv-x="565" 
d="M534 389q0 -93 -83 -132.5t-239 -39.5h-56v-8q0 -127 105 -127q63 0 195 65l40 -87q-146 -71 -256 -71q-98 0 -153.5 56t-55.5 171q0 140 82.5 230t221.5 90q91 0 145 -40.5t54 -106.5zM331 446q-60 0 -103 -45t-62 -113h52q96 0 146 25t50 70q0 29 -23 46t-60 17z
M439 729l79 -135h-81l-65 78l-92 -78h-93l126 135h126z" />
    <glyph glyph-name="edieresis" unicode="&#xeb;" horiz-adv-x="565" 
d="M534 389q0 -93 -83 -132.5t-239 -39.5h-56v-8q0 -127 105 -127q63 0 195 65l40 -87q-146 -71 -256 -71q-98 0 -153.5 56t-55.5 171q0 140 82.5 230t221.5 90q91 0 145 -40.5t54 -106.5zM331 446q-60 0 -103 -45t-62 -113h52q96 0 146 25t50 70q0 29 -23 46t-60 17z
M210 604l20 111h108l-19 -111h-109zM391 604l20 111h107l-20 -111h-107z" />
    <glyph glyph-name="igrave" unicode="&#xec;" horiz-adv-x="259" 
d="M274 594h-95l-148 135h140zM138 0h-123l93 525h123z" />
    <glyph glyph-name="iacute" unicode="&#xed;" horiz-adv-x="259" 
d="M194 594h-108l143 135h155zM138 0h-123l93 525h123z" />
    <glyph glyph-name="icircumflex" unicode="&#xee;" horiz-adv-x="259" 
d="M268 729l79 -135h-81l-65 78l-92 -78h-93l127 135h125zM138 0h-123l93 525h123z" />
    <glyph glyph-name="idieresis" unicode="&#xef;" horiz-adv-x="259" 
d="M138 0h-123l93 525h123zM39 604l20 111h108l-20 -111h-108zM220 604l20 111h107l-20 -111h-107z" />
    <glyph glyph-name="eth" unicode="&#xf0;" horiz-adv-x="628" 
d="M304 535h-112l76 66h-14q-20 0 -42 -2t-34 -4l-11 -2v97q40 10 95 10q54 0 104 -14l50 43h111l-88 -76q71 -45 108.5 -125.5t37.5 -187.5q0 -160 -84 -255.5t-228 -95.5q-113 0 -178.5 58t-65.5 162q0 114 76.5 190.5t187.5 76.5q37 0 69 -9.5t51.5 -23.5t33 -28
t19.5 -23l5 -10q-4 66 -33 119t-83 79zM449 260q0 54 -31 86.5t-92 32.5q-79 0 -123.5 -51t-44.5 -123q0 -54 29 -87t92 -33q84 0 127 53.5t43 121.5z" />
    <glyph glyph-name="ntilde" unicode="&#xf1;" horiz-adv-x="613" 
d="M231 525l-12 -65q113 76 207 76q82 0 115.5 -48t18.5 -130l-63 -358h-124l62 345q16 93 -57 93q-41 0 -91.5 -23.5t-84.5 -50.5l-64 -364h-123l93 525h123zM251 600l-54 35q22 32 34.5 47.5t33.5 28.5t46 13q29 0 69 -24t55 -24q23 0 59 47l54 -36q-22 -31 -34.5 -46.5
t-33.5 -28.5t-46 -13q-29 0 -68.5 24t-54.5 24q-24 0 -60 -47z" />
    <glyph glyph-name="ograve" unicode="&#xf2;" horiz-adv-x="615" 
d="M314 536q121 0 188.5 -62t67.5 -173q0 -133 -75.5 -222.5t-206.5 -89.5q-120 0 -188 62t-68 172q0 133 76 223t206 90zM286 85q73 0 116.5 65t43.5 152q0 137 -129 137q-73 0 -116.5 -65t-43.5 -152q0 -137 129 -137zM452 594h-95l-147 135h140z" />
    <glyph glyph-name="oacute" unicode="&#xf3;" horiz-adv-x="615" 
d="M314 536q121 0 188.5 -62t67.5 -173q0 -133 -75.5 -222.5t-206.5 -89.5q-120 0 -188 62t-68 172q0 133 76 223t206 90zM286 85q73 0 116.5 65t43.5 152q0 137 -129 137q-73 0 -116.5 -65t-43.5 -152q0 -137 129 -137zM373 594h-108l143 135h155z" />
    <glyph glyph-name="ocircumflex" unicode="&#xf4;" horiz-adv-x="615" 
d="M314 536q121 0 188.5 -62t67.5 -173q0 -133 -75.5 -222.5t-206.5 -89.5q-120 0 -188 62t-68 172q0 133 76 223t206 90zM286 85q73 0 116.5 65t43.5 152q0 137 -129 137q-73 0 -116.5 -65t-43.5 -152q0 -137 129 -137zM446 729l79 -135h-80l-66 78l-92 -78h-92l126 135
h125z" />
    <glyph glyph-name="otilde" unicode="&#xf5;" horiz-adv-x="615" 
d="M314 536q121 0 188.5 -62t67.5 -173q0 -133 -75.5 -222.5t-206.5 -89.5q-120 0 -188 62t-68 172q0 133 76 223t206 90zM286 85q73 0 116.5 65t43.5 152q0 137 -129 137q-73 0 -116.5 -65t-43.5 -152q0 -137 129 -137zM249 600l-56 20q37 61 55 77q26 23 60 23
q25 0 68.5 -20.5t62.5 -20.5q30 0 55 40l55 -21q-36 -60 -54 -76q-26 -23 -59 -23q-26 0 -69 20t-62 20q-31 0 -56 -39z" />
    <glyph glyph-name="odieresis" unicode="&#xf6;" horiz-adv-x="615" 
d="M314 536q121 0 188.5 -62t67.5 -173q0 -133 -75.5 -222.5t-206.5 -89.5q-120 0 -188 62t-68 172q0 133 76 223t206 90zM286 85q73 0 116.5 65t43.5 152q0 137 -129 137q-73 0 -116.5 -65t-43.5 -152q0 -137 129 -137zM219 604l19 111h108l-19 -111h-108zM399 604l20 111
h107l-20 -111h-107z" />
    <glyph glyph-name="divide" unicode="&#xf7;" 
d="M60 286l16 94h506l-15 -94h-507zM283 502q-3 30 20 52t55 22q25 0 43 -16t20 -39q3 -30 -20 -52.5t-54 -22.5q-25 0 -43.5 16t-20.5 40zM221 146q-3 30 20 52.5t55 22.5q25 0 42.5 -16t19.5 -40q3 -30 -19.5 -52t-54.5 -22q-25 0 -43 16t-20 39z" />
    <glyph glyph-name="oslash" unicode="&#xf8;" horiz-adv-x="616" 
d="M515 525h81l-72 -74q47 -59 47 -150q0 -133 -76 -222.5t-206 -89.5q-105 0 -169 45l-33 -34h-83l73 75q-44 58 -44 148q0 134 75.5 223.5t206.5 89.5q100 0 167 -45zM286 85q73 0 116.5 65t43.5 152q0 34 -9 59l-240 -248q31 -28 89 -28zM157 222q0 -30 8 -57l240 247
q-33 27 -88 27q-73 0 -116.5 -65t-43.5 -152z" />
    <glyph glyph-name="ugrave" unicode="&#xf9;" horiz-adv-x="613" 
d="M368 0l11 62q-112 -73 -205 -73q-82 0 -115.5 48t-18.5 130l63 358h123l-61 -345q-18 -94 57 -94q40 0 90 23.5t84 50.5l65 365h124l-93 -525h-124zM447 594h-95l-147 135h140z" />
    <glyph glyph-name="uacute" unicode="&#xfa;" horiz-adv-x="613" 
d="M368 0l11 62q-112 -73 -205 -73q-82 0 -115.5 48t-18.5 130l63 358h123l-61 -345q-18 -94 57 -94q40 0 90 23.5t84 50.5l65 365h124l-93 -525h-124zM369 594h-109l143 135h155z" />
    <glyph glyph-name="ucircumflex" unicode="&#xfb;" horiz-adv-x="613" 
d="M368 0l11 62q-112 -73 -205 -73q-82 0 -115.5 48t-18.5 130l63 358h123l-61 -345q-18 -94 57 -94q40 0 90 23.5t84 50.5l65 365h124l-93 -525h-124zM442 729l79 -135h-80l-66 78l-92 -78h-93l127 135h125z" />
    <glyph glyph-name="udieresis" unicode="&#xfc;" horiz-adv-x="613" 
d="M368 0l11 62q-112 -73 -205 -73q-82 0 -115.5 48t-18.5 130l63 358h123l-61 -345q-18 -94 57 -94q40 0 90 23.5t84 50.5l65 365h124l-93 -525h-124zM214 604l19 111h109l-19 -111h-109zM395 604l19 111h108l-19 -111h-108z" />
    <glyph glyph-name="yacute" unicode="&#xfd;" horiz-adv-x="569" 
d="M-9 -124q77 26 111 47t66 70l-114 532h128l67 -382l203 382h138l-296 -525q-20 -35 -26.5 -45.5l-24.5 -38t-28.5 -37.5t-32 -29t-43 -29t-52.5 -21.5t-68 -20.5zM347 594h-108l143 135h155z" />
    <glyph glyph-name="thorn" unicode="&#xfe;" horiz-adv-x="615" 
d="M267 729l-47 -265q94 72 183 72q71 0 119.5 -46.5t48.5 -145.5q0 -157 -68 -256t-177 -99q-89 0 -177 76l-47 -269h-123l165 933h123zM357 436q-64 0 -155 -75l-36 -201q65 -71 132 -71t107 72t40 169q0 50 -22.5 78t-65.5 28z" />
    <glyph glyph-name="ydieresis" unicode="&#xff;" horiz-adv-x="569" 
d="M-9 -124q77 26 111 47t66 70l-114 532h128l67 -382l203 382h138l-296 -525q-20 -35 -26.5 -45.5l-24.5 -38t-28.5 -37.5t-32 -29t-43 -29t-52.5 -21.5t-68 -20.5zM191 604l20 111h109l-20 -111h-109zM372 604l20 111h108l-20 -111h-108z" />
    <glyph glyph-name="Amacron" unicode="&#x100;" horiz-adv-x="695" 
d="M494 0l-23 149h-285l-75 -149h-149l386 700h142l140 -700h-136zM404 581l-166 -329h217zM281 770l13 75h300l-13 -75h-300z" />
    <glyph glyph-name="amacron" unicode="&#x101;" horiz-adv-x="618" 
d="M496 0h-123l12 70q-97 -81 -195 -81q-66 0 -112 46.5t-46 145.5q0 156 69.5 255.5t180.5 99.5q83 0 172 -77l12 66h123zM237 89q44 0 83 22.5t84 62.5l33 190q-60 71 -127 71q-69 0 -110 -71.5t-41 -169.5q0 -49 20 -77t58 -28zM217 619l13 75h300l-13 -75h-300z" />
    <glyph glyph-name="Abreve" unicode="&#x102;" horiz-adv-x="695" 
d="M494 0l-23 149h-285l-75 -149h-149l386 700h142l140 -700h-136zM404 581l-166 -329h217zM430 745q-73 0 -109.5 32t-27.5 85h78q-6 -47 60 -47q37 0 62.5 12t29.5 35h80q-9 -55 -54.5 -86t-118.5 -31z" />
    <glyph glyph-name="abreve" unicode="&#x103;" horiz-adv-x="618" 
d="M496 0h-123l12 70q-97 -81 -195 -81q-66 0 -112 46.5t-46 145.5q0 156 69.5 255.5t180.5 99.5q83 0 172 -77l12 66h123zM237 89q44 0 83 22.5t84 62.5l33 190q-60 71 -127 71q-69 0 -110 -71.5t-41 -169.5q0 -49 20 -77t58 -28zM364 594q-73 0 -109.5 32t-27.5 85h79
q-4 -23 11.5 -35t47.5 -12q84 0 92 47h80q-9 -55 -54.5 -86t-118.5 -31z" />
    <glyph glyph-name="Aogonek" unicode="&#x104;" horiz-adv-x="695" 
d="M494 0l-23 149h-285l-75 -149h-149l386 700h142l140 -700h-3q-113 -56 -113 -102q0 -5 1.5 -9.5t4.5 -7t6.5 -5t9 -3.5t9.5 -2t11 -1h10.5h10.5h9l-22 -60q-81 0 -111 22q-26 19 -26 54q0 63 116 114h-49zM404 581l-166 -329h217z" />
    <glyph glyph-name="aogonek" unicode="&#x105;" horiz-adv-x="618" 
d="M382 -102q0 -5 1.5 -9.5t4.5 -7t6.5 -5t9 -3.5t9.5 -2t10.5 -1h10h10.5h9l-23 -60q-79 0 -109 21q-26 19 -26 55q0 64 115 114h-36l12 70q-97 -81 -195 -81q-66 0 -112 46.5t-46 145.5q0 156 69.5 255.5t180.5 99.5q83 0 172 -77l12 66h123l-93 -524v-1h-2
q-113 -56 -113 -102zM238 89q44 0 83 22.5t84 62.5l33 190q-60 71 -127 71q-69 0 -110 -71.5t-41 -169.5q0 -49 20 -77t58 -28z" />
    <glyph glyph-name="Cacute" unicode="&#x106;" horiz-adv-x="652" 
d="M677 602l-71 -90q-61 42 -105 62.5t-89 20.5q-98 0 -161.5 -91t-63.5 -223q0 -88 32.5 -132.5t90.5 -44.5q82 0 223 81l56 -101q-177 -95 -307 -95q-104 0 -166 70.5t-62 212.5q0 200 98.5 319.5t245.5 119.5q54 0 110 -19t86.5 -37t82.5 -53zM475 745h-108l142 135h156z
" />
    <glyph glyph-name="cacute" unicode="&#x107;" horiz-adv-x="521" 
d="M521 460l-59 -85q-3 2 -19.5 11.5t-27.5 15t-28 13t-33.5 11.5t-31.5 4q-67 0 -115 -63t-48 -148q0 -58 25 -91t74 -33q15 0 32 3.5t36.5 11t31 12.5t32.5 15t24 11l43 -95q-145 -64 -224 -64q-90 0 -146 57t-56 162q0 154 80 241t186 87q18 0 37 -2.5t33.5 -5.5
t32.5 -9.5l28.5 -10.5t27.5 -12.5t23.5 -12l22.5 -12.5t19 -11zM349 594h-108l143 135h155z" />
    <glyph glyph-name="Cdotaccent" unicode="&#x10a;" horiz-adv-x="652" 
d="M677 602l-71 -90q-61 42 -105 62.5t-89 20.5q-98 0 -161.5 -91t-63.5 -223q0 -88 32.5 -132.5t90.5 -44.5q82 0 223 81l56 -101q-177 -95 -307 -95q-104 0 -166 70.5t-62 212.5q0 200 98.5 319.5t245.5 119.5q54 0 110 -19t86.5 -37t82.5 -53zM376 755l20 111h109
l-20 -111h-109z" />
    <glyph glyph-name="cdotaccent" unicode="&#x10b;" horiz-adv-x="521" 
d="M521 460l-59 -85q-3 2 -19.5 11.5t-27.5 15t-28 13t-33.5 11.5t-31.5 4q-67 0 -115 -63t-48 -148q0 -58 25 -91t74 -33q15 0 32 3.5t36.5 11t31 12.5t32.5 15t24 11l43 -95q-145 -64 -224 -64q-90 0 -146 57t-56 162q0 154 80 241t186 87q18 0 37 -2.5t33.5 -5.5
t32.5 -9.5l28.5 -10.5t27.5 -12.5t23.5 -12l22.5 -12.5t19 -11zM284 604l19 111h108l-19 -111h-108z" />
    <glyph glyph-name="Ccaron" unicode="&#x10c;" horiz-adv-x="652" 
d="M677 602l-71 -90q-61 42 -105 62.5t-89 20.5q-98 0 -161.5 -91t-63.5 -223q0 -88 32.5 -132.5t90.5 -44.5q82 0 223 81l56 -101q-177 -95 -307 -95q-104 0 -166 70.5t-62 212.5q0 200 98.5 319.5t245.5 119.5q54 0 110 -19t86.5 -37t82.5 -53zM373 745l-79 135h81l65 -78
l92 78h92l-125 -135h-126z" />
    <glyph glyph-name="ccaron" unicode="&#x10d;" horiz-adv-x="521" 
d="M521 460l-59 -85q-3 2 -19.5 11.5t-27.5 15t-28 13t-33.5 11.5t-31.5 4q-67 0 -115 -63t-48 -148q0 -58 25 -91t74 -33q15 0 32 3.5t36.5 11t31 12.5t32.5 15t24 11l43 -95q-145 -64 -224 -64q-90 0 -146 57t-56 162q0 154 80 241t186 87q18 0 37 -2.5t33.5 -5.5
t32.5 -9.5l28.5 -10.5t27.5 -12.5t23.5 -12l22.5 -12.5t19 -11zM274 594l-79 135h81l65 -78l93 78h91l-126 -135h-125z" />
    <glyph glyph-name="Dcaron" unicode="&#x10e;" horiz-adv-x="715" 
d="M679 427q0 -58 -12.5 -115t-42.5 -114t-74 -100.5t-113 -70.5t-153 -27h-255l123 700h206q161 0 241 -72t80 -201zM549 425q0 88 -52.5 126.5t-156.5 38.5h-78l-86 -481h89q135 0 209.5 90t74.5 226zM387 745l-79 135h81l65 -78l92 78h92l-125 -135h-126z" />
    <glyph glyph-name="dcaron" unicode="&#x10f;" horiz-adv-x="668" 
d="M496 0h-123l12 70q-94 -81 -195 -81q-66 0 -112 46.5t-46 145.5q0 156 69.5 255.5t180.5 99.5q83 0 172 -77l48 270h123zM237 89q44 0 83 22.5t84 62.5l33 190q-60 71 -127 71q-69 0 -110 -71.5t-41 -169.5q0 -49 20 -77t58 -28zM660 617l19 112h100l-12 -122l-103 -107
l-23 32l64 85h-45z" />
    <glyph glyph-name="Dcroat" unicode="&#x110;" horiz-adv-x="727" 
d="M692 427q0 -58 -12.5 -115t-42.5 -114t-74.5 -100.5t-113.5 -70.5t-153 -27h-255l52 299h-72l16 102h74l52 299h207q160 0 241 -72t81 -201zM375 299h-153l-34 -190h90q134 0 208.5 90t74.5 226q0 88 -52.5 126.5t-156.5 38.5h-78l-34 -189h151z" />
    <glyph glyph-name="dcroat" unicode="&#x111;" horiz-adv-x="618" 
d="M496 0h-123l12 70q-94 -81 -195 -81q-66 0 -112 46.5t-46 145.5q0 156 69.5 255.5t180.5 99.5q83 0 172 -77l22 125h-168l12 75h169l13 70h123l-13 -70h62l-12 -75h-63zM237 89q44 0 83 22.5t84 62.5l33 190q-60 71 -127 71q-69 0 -110 -71.5t-41 -169.5q0 -49 20 -77
t58 -28z" />
    <glyph glyph-name="Emacron" unicode="&#x112;" horiz-adv-x="607" 
d="M507 0h-478l122 700h473l-18 -110h-344l-35 -186h283l-18 -108h-283l-34 -187h350zM253 770l13 75h299l-13 -75h-299z" />
    <glyph glyph-name="emacron" unicode="&#x113;" horiz-adv-x="565" 
d="M534 389q0 -93 -83 -132.5t-239 -39.5h-56v-8q0 -127 105 -127q63 0 195 65l40 -87q-146 -71 -256 -71q-98 0 -153.5 56t-55.5 171q0 140 82.5 230t221.5 90q91 0 145 -40.5t54 -106.5zM331 446q-60 0 -103 -45t-62 -113h52q96 0 146 25t50 70q0 29 -23 46t-60 17z
M207 619l13 75h300l-13 -75h-300z" />
    <glyph glyph-name="Edotaccent" unicode="&#x116;" horiz-adv-x="607" 
d="M507 0h-478l122 700h473l-18 -110h-344l-35 -186h283l-18 -108h-283l-34 -187h350zM347 755l19 111h107l-19 -111h-107z" />
    <glyph glyph-name="edotaccent" unicode="&#x117;" horiz-adv-x="565" 
d="M534 389q0 -93 -83 -132.5t-239 -39.5h-56v-8q0 -127 105 -127q63 0 195 65l40 -87q-146 -71 -256 -71q-98 0 -153.5 56t-55.5 171q0 140 82.5 230t221.5 90q91 0 145 -40.5t54 -106.5zM331 446q-60 0 -103 -45t-62 -113h52q96 0 146 25t50 70q0 29 -23 46t-60 17z
M299 604l20 111h108l-19 -111h-109z" />
    <glyph glyph-name="Eogonek" unicode="&#x118;" horiz-adv-x="607" 
d="M507 0h-3q-113 -56 -113 -102q0 -5 1.5 -9.5t4.5 -7t6.5 -5t9 -3.5t9.5 -2t10.5 -1h10h10.5h9l-22 -60q-79 0 -109 21q-26 19 -26 55q0 63 115 114h-391l122 700h473l-18 -110h-344l-35 -186h283l-18 -108h-283l-34 -187h350z" />
    <glyph glyph-name="eogonek" unicode="&#x119;" horiz-adv-x="565" 
d="M534 389q0 -93 -83 -132.5t-239 -39.5h-56v-8q0 -127 105 -127q63 0 195 65l40 -87q-87 -44 -167 -60q-112 -57 -112 -102q0 -5 1.5 -9.5t4.5 -7t6.5 -5t9 -3.5t9.5 -2t10.5 -1h10h10.5h9l-23 -60h-5q-130 -1 -130 76q0 58 92 104q-90 5 -140.5 60.5t-50.5 165.5
q0 140 82.5 230t221.5 90q91 0 145 -40.5t54 -106.5zM331 446q-60 0 -103 -45t-62 -113h52q96 0 146 25t50 70q0 29 -23 46t-60 17z" />
    <glyph glyph-name="Ecaron" unicode="&#x11a;" horiz-adv-x="607" 
d="M337 745l-80 135h81l65 -78l93 78h92l-127 -135h-124zM507 0h-478l122 700h473l-18 -110h-344l-35 -186h283l-18 -108h-283l-34 -187h350z" />
    <glyph glyph-name="ecaron" unicode="&#x11b;" horiz-adv-x="565" 
d="M534 389q0 -93 -83 -132.5t-239 -39.5h-56v-8q0 -127 105 -127q63 0 195 65l40 -87q-146 -71 -256 -71q-98 0 -153.5 56t-55.5 171q0 140 82.5 230t221.5 90q91 0 145 -40.5t54 -106.5zM331 446q-60 0 -103 -45t-62 -113h52q96 0 146 25t50 70q0 29 -23 46t-60 17z
M290 594l-79 135h80l66 -78l92 78h93l-127 -135h-125z" />
    <glyph glyph-name="Gbreve" unicode="&#x11e;" horiz-adv-x="708" 
d="M474 0l13 75q-110 -86 -209 -86q-100 0 -162 70.5t-62 206.5q0 210 99 327.5t245 117.5q56 0 114.5 -19.5t94 -40t84.5 -54.5l-73 -89q-88 57 -131 73q-40 14 -76 14q-98 0 -161 -91t-63 -224q0 -181 125 -181q82 0 196 90l18 103h-173l17 102h294l-69 -394h-121z
M433 745q-73 0 -109.5 32t-27.5 85h79q-4 -23 11.5 -35t47.5 -12q83 0 92 47h80q-9 -55 -54.5 -86t-118.5 -31z" />
    <glyph glyph-name="gbreve" unicode="&#x11f;" horiz-adv-x="616" 
d="M364 594q-73 0 -109.5 32t-28.5 85h80q-4 -23 11 -35t48 -12q37 0 62.5 12t29.5 35h81q-10 -55 -55.5 -86t-118.5 -31zM465 525h123l-95 -537q-20 -115 -79.5 -158.5t-167.5 -43.5q-121 0 -260 40l41 100q124 -39 209 -39q115 0 133 96l15 85q-99 -79 -193 -79
q-67 0 -113 46.5t-46 145.5q0 156 70 255.5t181 99.5q85 0 170 -76zM238 89q43 0 81 21.5t83 61.5l35 194q-63 69 -127 69q-68 0 -109.5 -72t-41.5 -169q0 -50 20.5 -77.5t58.5 -27.5z" />
    <glyph glyph-name="Gdotaccent" unicode="&#x120;" horiz-adv-x="708" 
d="M474 0l13 75q-110 -86 -209 -86q-100 0 -162 70.5t-62 206.5q0 210 99 327.5t245 117.5q56 0 114.5 -19.5t94 -40t84.5 -54.5l-73 -89q-88 57 -131 73q-40 14 -76 14q-98 0 -161 -91t-63 -224q0 -181 125 -181q82 0 196 90l18 103h-173l17 102h294l-69 -394h-121z
M377 755l20 111h109l-20 -111h-109z" />
    <glyph glyph-name="gdotaccent" unicode="&#x121;" horiz-adv-x="616" 
d="M308 604l20 111h107l-19 -111h-108zM465 525h123l-95 -537q-20 -115 -79.5 -158.5t-167.5 -43.5q-121 0 -260 40l41 100q124 -39 209 -39q115 0 133 96l15 85q-99 -79 -193 -79q-67 0 -113 46.5t-46 145.5q0 156 70 255.5t181 99.5q85 0 170 -76zM238 89q43 0 81 21.5
t83 61.5l35 194q-63 69 -127 69q-68 0 -109.5 -72t-41.5 -169q0 -50 20.5 -77.5t58.5 -27.5z" />
    <glyph glyph-name="Gcommaaccent" unicode="&#x122;" horiz-adv-x="708" 
d="M474 0l13 75q-110 -86 -209 -86q-100 0 -162 70.5t-62 206.5q0 210 99.5 327.5t245.5 117.5q56 0 114.5 -19.5t94 -40t83.5 -54.5l-72 -89q-4 2 -19.5 12.5t-21.5 14l-20.5 12.5t-23 13l-22.5 11t-24.5 10l-24 7t-26 5.5t-25.5 1.5q-98 0 -161.5 -91t-63.5 -224
q0 -181 126 -181q84 0 195 90l18 103h-172l17 102h294l-69 -394h-122zM235 -171l19 112h100l-12 -122l-103 -107l-23 32l65 85h-46z" />
    <glyph glyph-name="gcommaaccent" unicode="&#x123;" horiz-adv-x="616" 
d="M438 716l-19 -112h-98l11 121l102 108l24 -33l-65 -84h45zM465 525h123l-95 -537q-20 -115 -79.5 -158.5t-167.5 -43.5q-121 0 -260 40l41 100q124 -39 209 -39q115 0 133 96l15 85q-99 -79 -193 -79q-67 0 -113 46.5t-46 145.5q0 156 70 255.5t181 99.5q85 0 170 -76z
M238 89q43 0 81 21.5t83 61.5l35 194q-63 69 -127 69q-68 0 -109.5 -72t-41.5 -169q0 -50 20.5 -77.5t58.5 -27.5z" />
    <glyph glyph-name="Hbar" unicode="&#x126;" horiz-adv-x="738" 
d="M466 0l55 313h-299l-55 -313h-129l91 517h-74l12 75h75l19 108h129l-19 -108h299l19 108h128l-19 -108h75l-13 -75h-75l-91 -517h-128zM258 517l-17 -96h299l17 96h-299z" />
    <glyph glyph-name="hbar" unicode="&#x127;" horiz-adv-x="613" 
d="M57 584l13 75h61l13 70h123l-13 -70h169l-12 -75h-170l-22 -124q113 76 207 76q82 0 115.5 -48t18.5 -130l-63 -358h-124l62 345q16 93 -57 93q-41 0 -91.5 -23.5t-84.5 -50.5l-64 -364h-123l103 584h-61z" />
    <glyph glyph-name="Itilde" unicode="&#x128;" horiz-adv-x="292" 
d="M115 751l-54 35q22 32 34.5 47.5t33.5 28.5t46 13q29 0 69 -24t55 -24q23 0 59 47l54 -36q-22 -31 -34.5 -46.5t-33.5 -28.5t-46 -13q-29 0 -68.5 24t-54.5 24q-24 0 -60 -47zM157 0h-128l123 700h128z" />
    <glyph glyph-name="itilde" unicode="&#x129;" horiz-adv-x="259" 
d="M73 600l-54 35q22 32 34.5 47.5t33.5 28.5t46 13q29 0 68.5 -24t54.5 -24q25 0 59 47l54 -36q-22 -31 -34.5 -46.5t-33.5 -28.5t-46 -13q-29 0 -68.5 24t-54.5 24q-25 0 -59 -47zM138 0h-123l93 525h123z" />
    <glyph glyph-name="Imacron" unicode="&#x12a;" horiz-adv-x="292" 
d="M157 0h-128l123 700h128zM78 770l13 75h300l-13 -75h-300z" />
    <glyph glyph-name="imacron" unicode="&#x12b;" horiz-adv-x="259" 
d="M138 0h-123l93 525h123zM35 619l13 75h300l-13 -75h-300z" />
    <glyph glyph-name="Ibreve" unicode="&#x12c;" horiz-adv-x="292" 
d="M227 745q-73 0 -109.5 32t-28.5 85h80q-4 -23 11 -35t47 -12q84 0 93 47h80q-9 -54 -54.5 -85.5t-118.5 -31.5zM157 0h-128l123 700h128z" />
    <glyph glyph-name="ibreve" unicode="&#x12d;" horiz-adv-x="259" 
d="M184 594q-72 0 -108.5 32t-28.5 85h79q-6 -47 59 -47q83 0 92 47h81q-10 -55 -55.5 -86t-118.5 -31zM138 0h-123l93 525h123z" />
    <glyph glyph-name="Iogonek" unicode="&#x12e;" horiz-adv-x="292" 
d="M157 0h-3q-113 -56 -113 -102q0 -5 1.5 -9.5t4.5 -7t6.5 -5t9 -3.5t9.5 -2t10.5 -1h10.5h11h9l-23 -60q-79 0 -109 21q-26 19 -26 55q0 63 115 114h-41l123 700h129z" />
    <glyph glyph-name="iogonek" unicode="&#x12f;" horiz-adv-x="259" 
d="M139 0h-4q-113 -56 -113 -102q0 -5 1.5 -9.5t4.5 -7t6.5 -5t9 -3.5t9.5 -2t11 -1h10.5h10.5h9l-23 -60h-5q-130 -1 -130 76q0 63 115 114h-36l93 525h123zM120 610l19 116h132l-20 -116h-131z" />
    <glyph glyph-name="Idotaccent" unicode="&#x130;" horiz-adv-x="292" 
d="M157 0h-128l123 700h128zM172 755l19 111h108l-19 -111h-108z" />
    <glyph glyph-name="dotlessi" unicode="&#x131;" horiz-adv-x="259" 
d="M138 0h-123l93 525h123z" />
    <glyph glyph-name="IJ" unicode="&#x132;" horiz-adv-x="585" 
d="M578 700l-114 -643q-16 -89 -33 -119q-31 -54 -130 -85q-32 -10 -75 -20l-30 102q60 17 87 32t36 31t16 53l115 649h128zM157 0h-128l123 700h128z" />
    <glyph glyph-name="ij" unicode="&#x133;" horiz-adv-x="519" 
d="M385 610l20 116h132l-20 -116h-132zM497 525l-93 -523l-8.5 -44.5t-9 -36.5t-13 -33.5t-19 -26t-28 -25t-38.5 -20t-52.5 -20t-68.5 -17.5l-28 95q62 19 89 34t35.5 31t15.5 54l94 532h124zM138 0h-123l93 525h123zM119 610l20 116h131l-19 -116h-132z" />
    <glyph glyph-name="Jcircumflex" unicode="&#x134;" horiz-adv-x="292" 
d="M281 700l-113 -643q-5 -28 -7.5 -39.5t-8 -33.5t-10.5 -31l-14.5 -25t-20.5 -23.5l-28 -19.5t-38.5 -19.5t-49 -16t-62.5 -16.5l-30 102q60 17 87.5 32t36.5 31.5t15 52.5l115 649h128zM312 880l79 -135h-81l-66 78l-91 -78h-93l126 135h126z" />
    <glyph glyph-name="jcircumflex" unicode="&#x135;" horiz-adv-x="259" 
d="M231 525l-94 -523q-6 -35 -9.5 -50.5t-11 -40t-17 -36t-26 -28t-40 -26.5t-56.5 -21t-77 -21l-27 95q62 19 89 34t35.5 31t14.5 54l95 532h124zM266 729l80 -135h-81l-66 78l-91 -78h-93l126 135h125z" />
    <glyph glyph-name="Kcommaaccent" unicode="&#x136;" horiz-adv-x="675" 
d="M29 0l123 700h128l-60 -340l338 340h165l-339 -334l235 -366h-142l-180 281l-110 -108l-30 -173h-128zM204 -171l19 112h98l-11 -122l-103 -107l-23 32l64 85h-44z" />
    <glyph glyph-name="kcommaaccent" unicode="&#x137;" horiz-adv-x="549" 
d="M557 525l-218 -214l156 -311h-126l-114 228l-93 -91l-24 -137h-123l129 729h123l-76 -427l216 223h150zM151 -171l19 112h100l-12 -122l-103 -107l-24 32l65 85h-45z" />
    <glyph glyph-name="kgreenlandic" unicode="&#x138;" horiz-adv-x="549" 
d="M557 525l-218 -214l156 -311h-126l-114 228l-93 -91l-24 -137h-123l93 525h123l-40 -223l216 223h150z" />
    <glyph glyph-name="Lacute" unicode="&#x139;" horiz-adv-x="559" 
d="M237 745h-108l143 135h155zM491 0h-462l123 700h128l-105 -593h333z" />
    <glyph glyph-name="lacute" unicode="&#x13a;" horiz-adv-x="265" 
d="M229 774h-108l143 135h155zM142 0h-124l129 729h124z" />
    <glyph glyph-name="Lcommaaccent" unicode="&#x13b;" horiz-adv-x="559" 
d="M177 -171l19 112h99l-12 -122l-103 -107l-23 32l64 85h-44zM491 0h-462l123 700h128l-105 -593h333z" />
    <glyph glyph-name="lcommaaccent" unicode="&#x13c;" horiz-adv-x="265" 
d="M2 -171l19 112h99l-12 -122l-103 -107l-23 32l65 85h-45zM142 0h-124l129 729h123z" />
    <glyph glyph-name="Lcaron" unicode="&#x13d;" horiz-adv-x="559" 
d="M315 588l19 112h100l-11 -122l-104 -107l-23 32l65 85h-46zM491 0h-462l123 700h128l-105 -593h333z" />
    <glyph glyph-name="lcaron" unicode="&#x13e;" horiz-adv-x="313" 
d="M305 617l19 112h100l-11 -122l-104 -107l-23 32l65 85h-46zM141 0h-123l129 729h123z" />
    <glyph glyph-name="Ldot" unicode="&#x13f;" horiz-adv-x="560" 
d="M491 0h-462l123 700h128l-105 -593h333zM384 310l19 112h108l-18 -112h-109z" />
    <glyph glyph-name="ldot" unicode="&#x140;" horiz-adv-x="341" 
d="M141 0h-123l129 729h123zM249 310l19 112h108l-19 -112h-108z" />
    <glyph glyph-name="Lslash" unicode="&#x141;" horiz-adv-x="576" 
d="M505 0h-461l43 247l-76 -39l20 116l77 39l59 337h128l-47 -265l146 75l-19 -117l-148 -75l-37 -211h333z" />
    <glyph glyph-name="lslash" unicode="&#x142;" horiz-adv-x="297" 
d="M158 0h-123l47 270l-69 -35l20 116l70 36l60 342h124l-48 -272l69 36l-19 -117l-71 -36z" />
    <glyph glyph-name="Nacute" unicode="&#x143;" horiz-adv-x="736" 
d="M283 700l221 -518l91 518h129l-123 -700h-131l-222 519l-91 -519h-128l123 700h131zM464 745h-108l143 135h156z" />
    <glyph glyph-name="nacute" unicode="&#x144;" horiz-adv-x="613" 
d="M231 525l-12 -65q113 76 207 76q82 0 115.5 -48t18.5 -130l-63 -358h-124l62 345q16 93 -57 93q-41 0 -91.5 -23.5t-84.5 -50.5l-64 -364h-123l93 525h123zM374 594h-109l144 135h154z" />
    <glyph glyph-name="Ncommaaccent" unicode="&#x145;" horiz-adv-x="736" 
d="M470 0l-222 519l-91 -519h-128l123 700h131l221 -518l91 518h129l-123 -700h-131zM242 -171l19 112h100l-11 -122l-104 -107l-23 32l64 85h-45z" />
    <glyph glyph-name="ncommaaccent" unicode="&#x146;" horiz-adv-x="613" 
d="M231 525l-12 -65q113 76 207 76q82 0 115.5 -48t18.5 -130l-63 -358h-124l62 345q16 93 -57 93q-41 0 -91.5 -23.5t-84.5 -50.5l-64 -364h-123l93 525h123zM178 -171l19 112h99l-12 -122l-103 -107l-23 32l64 85h-44z" />
    <glyph glyph-name="Ncaron" unicode="&#x147;" horiz-adv-x="736" 
d="M283 700l221 -518l91 518h129l-123 -700h-131l-222 519l-91 -519h-128l123 700h131zM389 745l-79 135h81l65 -78l92 78h92l-125 -135h-126z" />
    <glyph glyph-name="ncaron" unicode="&#x148;" horiz-adv-x="613" 
d="M231 525l-12 -65q113 76 207 76q82 0 115.5 -48t18.5 -130l-63 -358h-124l62 345q16 93 -57 93q-41 0 -91.5 -23.5t-84.5 -50.5l-64 -364h-123l93 525h123zM297 594l-80 135h81l66 -78l92 78h92l-126 -135h-125z" />
    <glyph glyph-name="napostrophe" unicode="&#x149;" horiz-adv-x="613" 
d="M231 525l-12 -65q113 76 207 76q82 0 115.5 -48t18.5 -130l-63 -358h-124l62 345q16 93 -57 93q-41 0 -91.5 -23.5t-84.5 -50.5l-64 -364h-123l93 525h123zM136 683l19 112h100l-11 -121l-104 -108l-23 33l65 84h-46z" />
    <glyph glyph-name="Eng" unicode="&#x14a;" horiz-adv-x="736" 
d="M724 700l-116 -661q-8 -41 -14.5 -62t-21 -46t-38.5 -39.5t-63.5 -29.5t-99.5 -29l-30 102q63 19 89 32.5t37 37.5l-219 514l-91 -519h-128l123 700h131l221 -518l91 518h129z" />
    <glyph glyph-name="eng" unicode="&#x14b;" horiz-adv-x="613" 
d="M497 2q-6 -35 -9.5 -50.5t-11 -40t-17 -36t-26 -28t-40 -26.5t-56.5 -21t-77 -21l-28 95q62 19 89 34t35.5 31t15.5 54l63 352q18 93 -57 93q-41 0 -91.5 -23.5t-84.5 -50.5l-64 -364h-123l93 525h123l-12 -65q113 76 207 76q82 0 115.5 -48.5t18.5 -130.5z" />
    <glyph glyph-name="Omacron" unicode="&#x14c;" horiz-adv-x="760" 
d="M410 711q156 0 234.5 -81t79.5 -222q0 -50 -10.5 -103t-37 -111t-66 -103t-103 -74t-141.5 -29q-155 0 -233.5 81t-79.5 222q0 50 10.5 103t37 111t66 103t102.5 74t141 29zM362 98q48 0 87.5 21t65 53.5t43.5 74.5t25.5 81.5t7.5 76.5q0 196 -176 196q-48 0 -87.5 -21
t-65 -53.5t-43.5 -74.5t-25.5 -81.5t-7.5 -76.5q0 -196 176 -196zM312 770l13 75h300l-13 -75h-300z" />
    <glyph glyph-name="omacron" unicode="&#x14d;" horiz-adv-x="615" 
d="M314 536q121 0 188.5 -62t67.5 -173q0 -133 -75.5 -222.5t-206.5 -89.5q-120 0 -188 62t-68 172q0 133 76 223t206 90zM286 85q73 0 116.5 65t43.5 152q0 137 -129 137q-73 0 -116.5 -65t-43.5 -152q0 -137 129 -137zM214 618l12 75h300l-12 -75h-300z" />
    <glyph glyph-name="Obreve" unicode="&#x14e;" horiz-adv-x="760" 
d="M410 711q156 0 234.5 -81t79.5 -222q0 -50 -10.5 -103t-37 -111t-66 -103t-103 -74t-141.5 -29q-155 0 -233.5 81t-79.5 222q0 50 10.5 103t37 111t66 103t102.5 74t141 29zM362 98q48 0 87.5 21t65 53.5t43.5 74.5t25.5 81.5t7.5 76.5q0 196 -176 196q-48 0 -87.5 -21
t-65 -53.5t-43.5 -74.5t-25.5 -81.5t-7.5 -76.5q0 -196 176 -196zM461 745q-73 0 -109 32t-28 85h79q-3 -23 11.5 -35t47.5 -12q83 0 92 47h81q-10 -55 -55.5 -86t-118.5 -31z" />
    <glyph glyph-name="obreve" unicode="&#x14f;" horiz-adv-x="615" 
d="M314 536q121 0 188.5 -62t67.5 -173q0 -133 -75.5 -222.5t-206.5 -89.5q-120 0 -188 62t-68 172q0 133 76 223t206 90zM286 85q73 0 116.5 65t43.5 152q0 137 -129 137q-73 0 -116.5 -65t-43.5 -152q0 -137 129 -137zM363 594q-72 0 -108.5 32t-28.5 85h79q-6 -47 59 -47
q38 0 63.5 12t29.5 35h80q-10 -55 -55.5 -86t-118.5 -31z" />
    <glyph glyph-name="Ohungarumlaut" unicode="&#x150;" horiz-adv-x="760" 
d="M410 711q156 0 234.5 -81t79.5 -222q0 -50 -10.5 -103t-37 -111t-66 -103t-103 -74t-141.5 -29q-155 0 -233.5 81t-79.5 222q0 50 10.5 103t37 111t66 103t102.5 74t141 29zM362 98q48 0 87.5 21t65 53.5t43.5 74.5t25.5 81.5t7.5 76.5q0 196 -176 196q-48 0 -87.5 -21
t-65 -53.5t-43.5 -74.5t-25.5 -81.5t-7.5 -76.5q0 -196 176 -196zM563 745h-76l100 135h123zM396 745h-76l100 135h123z" />
    <glyph glyph-name="ohungarumlaut" unicode="&#x151;" horiz-adv-x="615" 
d="M314 536q121 0 188.5 -62t67.5 -173q0 -133 -75.5 -222.5t-206.5 -89.5q-120 0 -188 62t-68 172q0 133 76 223t206 90zM286 85q73 0 116.5 65t43.5 152q0 137 -129 137q-73 0 -116.5 -65t-43.5 -152q0 -137 129 -137zM465 594h-77l99 135h124zM298 594h-76l99 135h124z
" />
    <glyph glyph-name="OE" unicode="&#x152;" horiz-adv-x="1110" 
d="M1010 0h-477l6 33q-76 -45 -173 -45q-155 0 -233.5 81t-79.5 222q0 50 10.5 103t37 111t66 103t102.5 74t141 29q151 0 233 -80l12 69h472l-17 -110h-344l-35 -186h283l-17 -108h-284l-34 -187h349zM362 98q48 0 87.5 21t65 53.5t43.5 74.5t25.5 81.5t7.5 76.5
q0 196 -176 196q-48 0 -87.5 -21t-65 -53.5t-43.5 -74.5t-25.5 -81.5t-7.5 -76.5q0 -196 176 -196z" />
    <glyph glyph-name="oe" unicode="&#x153;" horiz-adv-x="975" 
d="M945 389q0 -93 -83 -132.5t-238 -39.5h-57v-8q0 -127 105 -127q64 0 194 65l41 -87q-149 -71 -256 -71q-116 0 -170 75q-75 -75 -193 -75q-120 0 -188 62t-68 172q0 133 76 223t206 90q144 0 212 -88q83 88 220 88q92 0 145.5 -40.5t53.5 -106.5zM286 85q73 0 116.5 65
t43.5 152q0 137 -129 137q-73 0 -116.5 -65t-43.5 -152q0 -137 129 -137zM742 446q-60 0 -103 -45t-62 -113h53q95 0 145 25t50 70q0 29 -23 46t-60 17z" />
    <glyph glyph-name="Racute" unicode="&#x154;" horiz-adv-x="694" 
d="M465 0l-122 280h-136l-50 -280h-128l123 700h282q254 0 254 -186q0 -87 -59 -152t-163 -79l132 -283h-133zM555 511q0 87 -131 87h-161l-39 -216h163q78 0 123 33.5t45 95.5zM457 745h-109l144 135h155z" />
    <glyph glyph-name="racute" unicode="&#x155;" horiz-adv-x="406" 
d="M231 525l-20 -111q8 14 22 30.5t40.5 39.5t67.5 36.5t87 10.5l-20 -117q-48 0 -88.5 -18t-65 -44t-41.5 -52.5t-24 -44.5l-7 -18l-44 -237h-123l93 525h123zM292 594h-108l143 135h156z" />
    <glyph glyph-name="Rcommaaccent" unicode="&#x156;" horiz-adv-x="694" 
d="M465 0l-122 280h-136l-50 -280h-128l123 700h282q254 0 254 -186q0 -87 -59 -152t-163 -79l132 -283h-133zM555 511q0 87 -131 87h-161l-39 -216h163q78 0 123 33.5t45 95.5zM213 -171l18 112h100l-11 -122l-104 -107l-22 32l64 85h-45z" />
    <glyph glyph-name="rcommaaccent" unicode="&#x157;" horiz-adv-x="406" 
d="M231 525l-20 -111q7 14 21 30.5t40.5 39.5t67 36.5t87.5 10.5l-19 -117q-48 0 -89 -18t-65 -44t-41.5 -52.5t-24.5 -44.5l-7 -18l-43 -237h-124l93 525h124zM-3 -171l19 112h100l-12 -122l-103 -107l-23 32l64 85h-45z" />
    <glyph glyph-name="Rcaron" unicode="&#x158;" horiz-adv-x="694" 
d="M465 0l-122 280h-136l-50 -280h-128l123 700h282q254 0 254 -186q0 -87 -59 -152t-163 -79l132 -283h-133zM555 511q0 87 -131 87h-161l-39 -216h163q78 0 123 33.5t45 95.5zM382 745l-79 135h80l66 -78l92 78h93l-127 -135h-125z" />
    <glyph glyph-name="rcaron" unicode="&#x159;" horiz-adv-x="406" 
d="M231 525l-20 -111q8 14 22 30.5t40.5 39.5t67.5 36.5t87 10.5l-20 -117q-48 0 -88.5 -18t-65 -44t-41.5 -52.5t-24 -44.5l-7 -18l-44 -237h-123l93 525h123zM217 594l-78 135h80l65 -78l93 78h91l-125 -135h-126z" />
    <glyph glyph-name="Sacute" unicode="&#x15a;" 
d="M405 745h-108l143 135h156zM404 399q79 -33 124.5 -76t45.5 -119q0 -96 -75 -155.5t-193 -59.5q-84 0 -165.5 29.5t-141.5 70.5l69 88q135 -81 234 -81q58 0 97 26t39 68q0 20 -9.5 35t-31 27t-40.5 20t-53.5 21t-55.5 22q-76 32 -118 73.5t-42 113.5q0 92 70.5 150.5
t186.5 58.5q134 0 283 -84l-69 -87q-44 25 -103.5 44t-104.5 19q-53 0 -89 -23.5t-36 -66.5q0 -18 7.5 -31t26 -23.5t36 -17.5l51 -19.5t57.5 -22.5z" />
    <glyph glyph-name="sacute" unicode="&#x15b;" horiz-adv-x="525" 
d="M330 594h-108l143 135h156zM304 311q37 -11 62 -22t50 -29t38 -44.5t13 -60.5q0 -76 -61 -121t-159 -45q-133 0 -254 77l59 82q109 -63 196 -63q40 0 66 16t26 43q0 9 -3 17t-10.5 14.5t-14.5 11t-21 9.5l-22.5 8t-27.5 8.5l-29 8.5q-33 10 -56 20.5t-48 27.5t-38 43
t-13 60q0 73 58 118.5t152 45.5q119 0 232 -63l-58 -80q-94 48 -169 48q-39 0 -64 -15.5t-25 -41.5q0 -9 3 -16.5t10.5 -14t14.5 -11t20 -9l22 -7.5t25.5 -7.5t25.5 -7.5z" />
    <glyph glyph-name="Scircumflex" unicode="&#x15c;" 
d="M480 880l78 -135h-80l-65 78l-93 -78h-92l126 135h126zM404 399q79 -33 124.5 -76t45.5 -119q0 -96 -75 -155.5t-193 -59.5q-84 0 -165.5 29.5t-141.5 70.5l69 88q135 -81 234 -81q58 0 97 26t39 68q0 20 -9.5 35t-31 27t-40.5 20t-53.5 21t-55.5 22q-76 32 -118 73.5
t-42 113.5q0 92 70.5 150.5t186.5 58.5q134 0 283 -84l-69 -87q-44 25 -103.5 44t-104.5 19q-53 0 -89 -23.5t-36 -66.5q0 -18 7.5 -31t26 -23.5t36 -17.5l51 -19.5t57.5 -22.5z" />
    <glyph glyph-name="scircumflex" unicode="&#x15d;" horiz-adv-x="525" 
d="M404 729l80 -135h-80l-67 78l-92 -78h-92l127 135h124zM304 311q37 -11 62 -22t50 -29t38 -44.5t13 -60.5q0 -76 -61 -121t-159 -45q-133 0 -254 77l59 82q109 -63 196 -63q40 0 66 16t26 43q0 9 -3 17t-10.5 14.5t-14.5 11t-21 9.5l-22.5 8t-27.5 8.5l-29 8.5
q-33 10 -56 20.5t-48 27.5t-38 43t-13 60q0 73 58 118.5t152 45.5q119 0 232 -63l-58 -80q-94 48 -169 48q-39 0 -64 -15.5t-25 -41.5q0 -9 3 -16.5t10.5 -14t14.5 -11t20 -9l22 -7.5t25.5 -7.5t25.5 -7.5z" />
    <glyph glyph-name="Scedilla" unicode="&#x15e;" 
d="M403 399q80 -33 125.5 -76t45.5 -119q0 -92 -70.5 -151t-182.5 -64q19 -33 19 -67q0 -49 -33.5 -75t-86.5 -26q-51 0 -87 20l36 64q23 -12 49 -12q23 0 39.5 11.5t16.5 37.5q0 16 -11 49q-140 13 -264 98l69 88q135 -81 234 -81q58 0 96.5 26t38.5 68q0 20 -9.5 35
t-30.5 27t-40 20t-53.5 21t-55.5 22q-76 31 -118.5 73t-42.5 114q0 92 71 150.5t187 58.5q133 0 282 -84l-68 -87q-45 26 -104 44.5t-105 18.5q-52 0 -88.5 -23.5t-36.5 -66.5q0 -18 7.5 -31t26 -23.5t36 -17.5l51 -19.5t57.5 -22.5z" />
    <glyph glyph-name="scedilla" unicode="&#x15f;" horiz-adv-x="525" 
d="M304 311q37 -11 62 -22t50 -29t38 -44.5t13 -60.5q0 -71 -52.5 -114.5t-140.5 -50.5q19 -33 19 -68q0 -49 -33 -75t-86 -26q-51 0 -88 20l36 64q24 -12 50 -12q23 0 39.5 11.5t16.5 37.5q0 22 -11 48q-119 9 -224 76l59 82q109 -63 196 -63q40 0 66 16t26 43q0 9 -3 17
t-10.5 14.5t-14.5 11t-21 9.5l-22.5 8t-27.5 8.5l-29 8.5q-33 10 -56 20.5t-48 27.5t-38 43t-13 60q0 73 58 118.5t152 45.5q119 0 232 -63l-58 -80q-94 48 -169 48q-39 0 -64 -15.5t-25 -41.5q0 -9 3 -16.5t10.5 -14t14.5 -11t20 -9l22 -7.5t25.5 -7.5t25.5 -7.5z" />
    <glyph glyph-name="Scaron" unicode="&#x160;" 
d="M331 745l-79 135h80l66 -78l92 78h92l-126 -135h-125zM404 399q79 -33 124.5 -76t45.5 -119q0 -96 -75 -155.5t-193 -59.5q-84 0 -165.5 29.5t-141.5 70.5l69 88q135 -81 234 -81q58 0 97 26t39 68q0 20 -9.5 35t-31 27t-40.5 20t-53.5 21t-55.5 22q-76 32 -118 73.5
t-42 113.5q0 92 70.5 150.5t186.5 58.5q134 0 283 -84l-69 -87q-44 25 -103.5 44t-104.5 19q-53 0 -89 -23.5t-36 -66.5q0 -18 7.5 -31t26 -23.5t36 -17.5l51 -19.5t57.5 -22.5z" />
    <glyph glyph-name="scaron" unicode="&#x161;" horiz-adv-x="525" 
d="M255 594l-80 135h81l67 -78l91 78h93l-127 -135h-125zM304 311q37 -11 62 -22t50 -29t38 -44.5t13 -60.5q0 -76 -61 -121t-159 -45q-133 0 -254 77l59 82q109 -63 196 -63q40 0 66 16t26 43q0 9 -3 17t-10.5 14.5t-14.5 11t-21 9.5l-22.5 8t-27.5 8.5l-29 8.5
q-33 10 -56 20.5t-48 27.5t-38 43t-13 60q0 73 58 118.5t152 45.5q119 0 232 -63l-58 -80q-94 48 -169 48q-39 0 -64 -15.5t-25 -41.5q0 -9 3 -16.5t10.5 -14t14.5 -11t20 -9l22 -7.5t25.5 -7.5t25.5 -7.5z" />
    <glyph glyph-name="Tcedilla" unicode="&#x162;" horiz-adv-x="582" 
d="M616 590h-209l-105 -590h-37q25 -35 25 -78q0 -49 -33 -75t-86 -26q-52 0 -88 20l36 64q24 -12 50 -12q55 0 55 49q0 23 -15 58h-36l105 590h-209l18 110h547z" />
    <glyph glyph-name="tcedilla" unicode="&#x163;" horiz-adv-x="400" 
d="M50 433l15 92h71l24 132l126 20l-27 -152h143l-16 -92h-144l-50 -285q-8 -51 34 -51q32 0 92 24l31 -97q-78 -28 -141 -34q19 -33 19 -68q0 -49 -33 -75t-87 -26q-50 0 -87 20l37 64q23 -12 48 -12q57 0 57 49q0 22 -13 51q-48 11 -69 53.5t-8 115.5l48 271h-70z" />
    <glyph glyph-name="Tcaron" unicode="&#x164;" horiz-adv-x="582" 
d="M305 745l-79 135h81l65 -78l93 78h92l-126 -135h-126zM615 590h-209l-105 -590h-128l105 590h-209l18 110h546z" />
    <glyph glyph-name="tcaron" unicode="&#x165;" horiz-adv-x="399" 
d="M48 433l15 92h71l24 132l127 20l-28 -152h143l-16 -92h-143l-51 -285q-8 -51 35 -51q31 0 91 24l31 -97q-99 -35 -161 -35q-68 0 -99.5 43.5t-16.5 129.5l48 271h-70zM344 683l19 112h100l-12 -121l-103 -108l-24 33l66 84h-46z" />
    <glyph glyph-name="Tbar" unicode="&#x166;" horiz-adv-x="591" 
d="M116 218l12 75h101l53 297h-209l18 110h546l-18 -110h-209l-53 -297h99l-13 -75h-99l-39 -218h-128l39 218h-100z" />
    <glyph glyph-name="tbar" unicode="&#x167;" horiz-adv-x="401" 
d="M50 433l15 92h70l24 132l127 20l-27 -152h143l-15 -92h-144l-17 -96h111l-12 -75h-113l-20 -114q-8 -51 35 -51q31 0 91 24l31 -97q-99 -35 -161 -35q-68 0 -100 43.5t-17 129.5l18 100h-49l12 75h50l17 96h-69z" />
    <glyph glyph-name="Utilde" unicode="&#x168;" horiz-adv-x="709" 
d="M324 751l-54 35q22 32 34.5 47.5t33.5 28.5t46 13q29 0 69 -24t55 -24q23 0 59 47l54 -36q-22 -31 -34.5 -46.5t-33.5 -28.5t-46 -13q-29 0 -68.5 24t-54.5 24q-24 0 -60 -47zM705 700l-78 -442q-10 -60 -30.5 -105.5t-55.5 -84t-92.5 -59t-135.5 -20.5q-85 0 -140 23
t-78.5 63t-29.5 95t8 118l72 412h130l-78 -436q-14 -78 9.5 -121.5t108.5 -43.5q86 0 128 44t56 121l77 436h129z" />
    <glyph glyph-name="utilde" unicode="&#x169;" horiz-adv-x="613" 
d="M368 0l11 62q-112 -73 -205 -73q-82 0 -115.5 48t-18.5 130l63 358h123l-61 -345q-18 -94 57 -94q40 0 90 23.5t84 50.5l65 365h124l-93 -525h-124zM252 600l-54 35q22 32 34.5 47.5t33.5 28.5t46 13q29 0 69 -24t55 -24q23 0 59 47l54 -36q-22 -31 -34.5 -46.5
t-33.5 -28.5t-46 -13q-29 0 -68.5 24t-54.5 24q-24 0 -60 -47z" />
    <glyph glyph-name="Umacron" unicode="&#x16a;" horiz-adv-x="709" 
d="M705 700l-78 -442q-10 -60 -30.5 -105.5t-55.5 -84t-92.5 -59t-135.5 -20.5q-85 0 -140 23t-78.5 63t-29.5 95t8 118l72 412h130l-78 -436q-14 -78 9.5 -121.5t108.5 -43.5q86 0 128 44t56 121l77 436h129zM287 770l13 75h300l-13 -75h-300z" />
    <glyph glyph-name="umacron" unicode="&#x16b;" horiz-adv-x="613" 
d="M368 0l11 62q-112 -73 -205 -73q-82 0 -115.5 48t-18.5 130l63 358h123l-61 -345q-18 -94 57 -94q40 0 90 23.5t84 50.5l65 365h124l-93 -525h-124zM210 619l13 75h299l-13 -75h-299z" />
    <glyph glyph-name="Ubreve" unicode="&#x16c;" horiz-adv-x="709" 
d="M436 745q-72 0 -108.5 32t-28.5 85h79q-6 -47 59 -47q84 0 92 47h81q-10 -55 -55.5 -86t-118.5 -31zM705 700l-78 -442q-10 -60 -30.5 -105.5t-55.5 -84t-92.5 -59t-135.5 -20.5q-85 0 -140 23t-78.5 63t-29.5 95t8 118l72 412h130l-78 -436q-14 -78 9.5 -121.5
t108.5 -43.5q86 0 128 44t56 121l77 436h129z" />
    <glyph glyph-name="ubreve" unicode="&#x16d;" horiz-adv-x="613" 
d="M368 0l11 62q-112 -73 -205 -73q-82 0 -115.5 48t-18.5 130l63 358h123l-61 -345q-18 -94 57 -94q40 0 90 23.5t84 50.5l65 365h124l-93 -525h-124zM358 593q-72 0 -109 32.5t-28 85.5h79q-4 -24 11 -35.5t48 -11.5q84 0 93 47h80q-10 -55 -55.5 -86.5t-118.5 -31.5z" />
    <glyph glyph-name="Uring" unicode="&#x16e;" horiz-adv-x="709" 
d="M343 844q0 45 31.5 77t77.5 32q45 0 77 -32t32 -77q0 -46 -32 -77.5t-77 -31.5q-46 0 -77.5 31.5t-31.5 77.5zM405 844q0 -20 13.5 -33.5t33.5 -13.5t33.5 13.5t13.5 33.5t-13.5 33.5t-33.5 13.5t-33.5 -13.5t-13.5 -33.5zM705 700l-78 -442q-10 -60 -30.5 -105.5
t-55.5 -84t-92.5 -59t-135.5 -20.5q-85 0 -140 23t-78.5 63t-29.5 95t8 118l72 412h130l-78 -436q-14 -78 9.5 -121.5t108.5 -43.5q86 0 128 44t56 121l77 436h129z" />
    <glyph glyph-name="uring" unicode="&#x16f;" horiz-adv-x="613" 
d="M368 0l11 62q-112 -73 -205 -73q-82 0 -115.5 48t-18.5 130l63 358h123l-61 -345q-18 -94 57 -94q40 0 90 23.5t84 50.5l65 365h124l-93 -525h-124zM265 693q0 45 31.5 77t77.5 32q45 0 77 -32t32 -77q0 -46 -32 -77.5t-77 -31.5q-46 0 -77.5 31.5t-31.5 77.5zM327 693
q0 -20 13.5 -33.5t33.5 -13.5t33.5 13.5t13.5 33.5q0 19 -13.5 33t-33.5 14t-33.5 -13.5t-13.5 -33.5z" />
    <glyph glyph-name="Uhungarumlaut" unicode="&#x170;" horiz-adv-x="709" 
d="M705 700l-78 -442q-10 -60 -30.5 -105.5t-55.5 -84t-92.5 -59t-135.5 -20.5q-85 0 -140 23t-78.5 63t-29.5 95t8 118l72 412h130l-78 -436q-14 -78 9.5 -121.5t108.5 -43.5q86 0 128 44t56 121l77 436h129zM539 745h-76l99 135h124zM372 745h-76l99 135h124z" />
    <glyph glyph-name="uhungarumlaut" unicode="&#x171;" horiz-adv-x="613" 
d="M368 0l11 62q-112 -73 -205 -73q-82 0 -115.5 48t-18.5 130l63 358h123l-61 -345q-18 -94 57 -94q40 0 90 23.5t84 50.5l65 365h124l-93 -525h-124zM293 594h-76l100 135h123zM460 594h-76l100 135h123z" />
    <glyph glyph-name="Uogonek" unicode="&#x172;" horiz-adv-x="710" 
d="M291 -102q0 -5 1.5 -9.5t5 -7t6.5 -5t8.5 -3.5t9.5 -2t11 -1h10.5h11h9.5l-23 -60q-80 0 -110 21q-26 19 -26 55q0 58 91 103q-79 2 -131 26t-73.5 64t-27 93.5t8.5 115.5l72 412h130l-78 -436q-14 -78 9.5 -121.5t108.5 -43.5q86 0 128 44t56 121l77 436h129l-78 -442
q-19 -106 -72.5 -174t-158.5 -87q-105 -56 -105 -99z" />
    <glyph glyph-name="uogonek" unicode="&#x173;" horiz-adv-x="613" 
d="M368 0l11 62q-112 -73 -206 -73q-82 0 -115 48t-19 130l63 358h124l-62 -345q-16 -94 58 -94q40 0 91 23.5t83 50.5l65 365h123l-93 -525h-3q-113 -56 -113 -102q0 -5 1.5 -9.5t4.5 -7t6.5 -5t9 -3.5t9.5 -2t11 -1h10.5h10.5h9l-23 -60h-5q-129 -1 -129 76q0 63 115 114
h-37z" />
    <glyph glyph-name="Wcircumflex" unicode="&#x174;" horiz-adv-x="952" 
d="M555 0l-40 518l-226 -518h-129l-70 700h143l28 -522l227 522h112l38 -522l210 522h152l-315 -700h-130zM640 880l79 -135h-81l-65 78l-92 -78h-92l126 135h125z" />
    <glyph glyph-name="wcircumflex" unicode="&#x175;" horiz-adv-x="823" 
d="M468 0l-44 372l-178 -372h-118l-69 525h127l29 -393l181 393h105l38 -391l166 391h135l-254 -525h-118zM548 729l79 -135h-81l-65 78l-92 -78h-92l125 135h126z" />
    <glyph glyph-name="ycircumflex" unicode="&#x177;" horiz-adv-x="568" 
d="M54 525h128l67 -377l203 377h137l-416 -729h-140l132 213zM420 729l79 -135h-81l-65 78l-92 -78h-92l125 135h126z" />
    <glyph glyph-name="Ydieresis" unicode="&#x178;" horiz-adv-x="647" 
d="M205 0l49 277l-178 423h136l117 -319l227 319h151l-325 -423l-49 -277h-128zM437 755l20 111h108l-19 -111h-109zM258 755l19 111h108l-20 -111h-107z" />
    <glyph glyph-name="Zacute" unicode="&#x179;" horiz-adv-x="626" 
d="M650 700l-16 -99l-464 -492h380l-18 -109h-551l16 100l462 490h-351l18 110h524zM408 745h-108l143 135h156z" />
    <glyph glyph-name="zacute" unicode="&#x17a;" horiz-adv-x="535" 
d="M-18 0l15 88l348 334h-277l17 103h450l-15 -89l-349 -334h288l-17 -102h-460zM331 594h-109l143 135h156z" />
    <glyph glyph-name="Zdotaccent" unicode="&#x17b;" horiz-adv-x="626" 
d="M651 700l-16 -99l-464 -492h380l-18 -109h-552l17 100l462 490h-351l18 110h524zM344 755l20 111h108l-19 -111h-109z" />
    <glyph glyph-name="zdotaccent" unicode="&#x17c;" horiz-adv-x="535" 
d="M-18 0l15 88l348 334h-277l17 103h450l-15 -89l-349 -334h288l-17 -102h-460zM265 604l19 111h109l-21 -111h-107z" />
    <glyph glyph-name="Zcaron" unicode="&#x17d;" horiz-adv-x="626" 
d="M650 700l-16 -99l-464 -492h380l-18 -109h-551l16 100l462 490h-351l18 110h524zM333 745l-79 135h81l65 -78l92 78h92l-125 -135h-126z" />
    <glyph glyph-name="zcaron" unicode="&#x17e;" horiz-adv-x="535" 
d="M-18 0l15 88l348 334h-277l17 103h450l-15 -89l-349 -334h288l-17 -102h-460zM256 594l-80 135h80l67 -78l92 78h93l-128 -135h-124z" />
    <glyph glyph-name="longs" unicode="&#x17f;" horiz-adv-x="309" 
d="M50 433l16 92h70l8 42q14 85 49 123.5t105 38.5q85 0 176 -47l-55 -81q-60 21 -98 21q-43 0 -53 -53l-94 -530q-20 -110 -38 -145q-29 -56 -110 -86q-38 -14 -96 -27l-27 95q48 14 72 24.5t39.5 30t20.5 38t13 62.5l72 402h-70z" />
    <glyph glyph-name="florin" unicode="&#x192;" horiz-adv-x="574" 
d="M136 433l36 92h73l19 46q34 85 73.5 121.5t107.5 36.5q66 0 180 -49l-72 -82q-72 25 -100 22q-42 -3 -63 -53l-18 -42h138l-36 -92h-140l-263 -637h-126l262 637h-71z" />
    <glyph glyph-name="AEacute" unicode="&#x1fc;" horiz-adv-x="1033" 
d="M523 700h529l-18 -110h-345l-34 -186h283l-19 -108h-282l-35 -187h350l-18 -109h-478l26 149h-268l-122 -149h-166zM301 255h199l55 308zM649 745h-109l143 135h156z" />
    <glyph glyph-name="aeacute" unicode="&#x1fd;" horiz-adv-x="940" 
d="M497 0h-124l12 70q-97 -81 -195 -81q-66 0 -112 46.5t-46 145.5q0 156 69.5 255.5t180.5 99.5q83 0 172 -77l12 66h123l-2 -11q57 22 121 22q91 0 145 -40.5t54 -106.5q0 -93 -83 -132.5t-239 -39.5h-55v-8q0 -127 104 -127q65 0 195 65l41 -87q-149 -71 -257 -71
q-67 0 -114 25zM237 89q44 0 83 22.5t84 62.5l1 8q-1 11 -1 34q0 83 31 151q-61 68 -125 68q-69 0 -110 -71.5t-41 -169.5q0 -49 20 -77t58 -28zM705 446q-60 0 -103 -45t-62 -113h52q96 0 146 25t50 70q0 29 -23 46t-60 17zM537 594h-108l143 135h156z" />
    <glyph glyph-name="Oslashacute" unicode="&#x1fe;" horiz-adv-x="759" 
d="M763 700l-94 -100q54 -76 54 -192q0 -50 -10.5 -103.5t-37 -111t-65.5 -102.5t-102.5 -74t-141.5 -29q-132 0 -211 60l-45 -48h-96l92 99q-53 74 -53 192q0 50 10.5 103.5t37 111t65.5 102.5t102.5 74t141.5 29q131 0 211 -61l46 50h96zM185 294q0 -55 14 -96l338 363
q-45 40 -123 40q-48 0 -87.5 -21t-65 -53.5t-43.5 -74.5t-25.5 -81.5t-7.5 -76.5zM362 98q59 0 105 31t72 79.5t39 99t13 97.5q0 55 -15 95l-338 -362q45 -40 124 -40zM471 745h-108l142 135h156z" />
    <glyph glyph-name="oslashacute" unicode="&#x1ff;" horiz-adv-x="616" 
d="M515 525h81l-72 -74q47 -58 47 -150q0 -133 -75.5 -222.5t-206.5 -89.5q-104 0 -168 46l-34 -35h-83l74 76q-45 59 -45 147q0 133 76 223t206 90q100 0 167 -45zM287 85q73 0 116.5 65t43.5 152q0 33 -9 60l-241 -249q31 -28 90 -28zM158 222q0 -33 7 -57l240 247
q-32 27 -87 27q-73 0 -116.5 -65t-43.5 -152zM557 729l-189 -135h-108l143 135h154z" />
    <glyph glyph-name="Scommaaccent" unicode="&#x218;" 
d="M184 -171l19 112h100l-12 -122l-103 -107l-24 32l66 85h-46zM403 399q80 -33 125.5 -76t45.5 -119q0 -95 -75 -155t-193 -60q-159 0 -307 100l69 88q135 -81 234 -81q58 0 96.5 26t38.5 68q0 20 -9.5 35t-30.5 27t-40 20t-53.5 21t-55.5 22q-76 31 -118.5 73t-42.5 114
q0 92 71 150.5t187 58.5q133 0 282 -84l-68 -87q-45 26 -104 44.5t-105 18.5q-52 0 -88.5 -23.5t-36.5 -66.5q0 -18 7.5 -31t26 -23.5t36 -17.5l51 -19.5t57.5 -22.5z" />
    <glyph glyph-name="scommaaccent" unicode="&#x219;" horiz-adv-x="525" 
d="M131 -171l19 112h98l-11 -122l-103 -107l-23 32l64 85h-44zM304 311q37 -11 62 -22t50 -29t38 -44.5t13 -60.5q0 -76 -61 -121t-159 -45q-133 0 -254 77l59 82q109 -63 196 -63q40 0 66 16t26 43q0 9 -3 17t-10.5 14.5t-14.5 11t-21 9.5l-22.5 8t-27.5 8.5l-29 8.5
q-33 10 -56 20.5t-48 27.5t-38 43t-13 60q0 73 58 118.5t152 45.5q119 0 232 -63l-58 -80q-94 48 -169 48q-39 0 -64 -15.5t-25 -41.5q0 -9 3 -16.5t10.5 -14t14.5 -11t20 -9l22 -7.5t25.5 -7.5t25.5 -7.5z" />
    <glyph glyph-name="uni021a" unicode="&#x21a;" horiz-adv-x="582" 
d="M158 -171l19 112h100l-12 -122l-103 -107l-23 32l65 85h-46zM615 590h-209l-105 -590h-128l105 590h-209l18 110h546z" />
    <glyph glyph-name="uni021b" unicode="&#x21b;" horiz-adv-x="400" 
d="M48 433l15 92h71l24 132l126 20l-27 -152h143l-15 -92h-145l-50 -285q-10 -51 35 -51q31 0 91 24l32 -97q-102 -35 -163 -35q-67 0 -99 43.5t-17 129.5l48 271h-69zM48 -171l19 112h99l-11 -122l-104 -107l-22 32l64 85h-45z" />
    <glyph glyph-name="hsuperior" unicode="&#x2b0;" horiz-adv-x="398" 
d="M224 822l-28 -159q67 44 126 44q53 0 74.5 -29.5t12.5 -80.5l-37 -212h-87l36 202q10 52 -34 52q-24 0 -54 -13.5t-49 -28.5l-37 -212h-88l77 437h88z" />
    <glyph glyph-name="jsuperior" unicode="&#x2b2;" horiz-adv-x="284" 
d="M183 745l13 76h93l-14 -76h-92zM265 700l-54 -307q-6 -37 -11 -53.5t-21 -36.5t-45 -31t-80 -22l-20 65q55 17 69 28.5t19 42.5l56 314h87z" />
    <glyph glyph-name="wsuperior" unicode="&#x2b7;" horiz-adv-x="458" 
d="M309 385l-27 212l-106 -212h-82l-46 315h90l17 -226l106 226h74l23 -225l96 225h95l-158 -315h-82z" />
    <glyph glyph-name="ysuperior" unicode="&#x2b8;" horiz-adv-x="378" 
d="M59 317q33 10 47 16t30 17.5t30 30.5l-74 319h91l40 -217l118 217h99l-184 -315q-19 -32 -28.5 -46t-30 -35t-49 -33t-69.5 -21z" />
    <glyph glyph-name="circumflex" unicode="&#x2c6;" horiz-adv-x="289" 
d="M335 729l79 -135h-81l-65 78l-92 -78h-93l126 135h126z" />
    <glyph glyph-name="caron" unicode="&#x2c7;" horiz-adv-x="290" 
d="M187 594l-79 135h81l65 -78l92 78h92l-126 -135h-125z" />
    <glyph glyph-name="breve" unicode="&#x2d8;" horiz-adv-x="278" 
d="M246 594q-73 0 -109.5 32t-27.5 85h79q-4 -23 11.5 -35t47.5 -12q83 0 92 47h80q-9 -55 -54.5 -86t-118.5 -31z" />
    <glyph glyph-name="dotaccent" unicode="&#x2d9;" horiz-adv-x="94" 
d="M97 604l20 111h108l-19 -111h-109z" />
    <glyph glyph-name="ring" unicode="&#x2da;" horiz-adv-x="220" 
d="M55 693q0 45 31.5 77t77.5 32q45 0 77 -32t32 -77q0 -46 -32 -77.5t-77 -31.5q-46 0 -77.5 31.5t-31.5 77.5zM117 693q0 -20 13.5 -33.5t33.5 -13.5t33.5 13.5t13.5 33.5q0 19 -13.5 33t-33.5 14t-33.5 -13.5t-13.5 -33.5z" />
    <glyph glyph-name="ogonek" unicode="&#x2db;" horiz-adv-x="160" 
d="M46 -102q0 -5 1.5 -9.5t4.5 -7t6.5 -5t9 -3.5t9.5 -2t11 -1h10.5h10.5h9l-23 -60h-5q-130 -1 -130 76q0 70 142 125l59 -10q-115 -58 -115 -103z" />
    <glyph glyph-name="tilde" unicode="&#x2dc;" horiz-adv-x="300" 
d="M143 600l-54 35q22 32 34.5 47.5t33.5 28.5t46 13q29 0 69 -24t55 -24q23 0 59 47l54 -36q-22 -31 -34.5 -46.5t-33.5 -28.5t-46 -13q-29 0 -68.5 24t-54.5 24q-24 0 -60 -47z" />
    <glyph glyph-name="hungarumlaut" unicode="&#x2dd;" horiz-adv-x="330" 
d="M327 594h-75l99 135h123zM161 594h-76l99 135h124z" />
    <glyph glyph-name="xsuperior" unicode="&#x2e3;" horiz-adv-x="391" 
d="M301 385l-63 113l-100 -113h-113l159 157l-97 158h95l58 -112l96 112h108l-153 -158l103 -157h-93z" />
    <glyph glyph-name="pi" unicode="&#x3c0;" horiz-adv-x="572" 
d="M586 525l-18 -105h-85l-76 -420h-109l75 420h-132l-75 -420h-110l76 420h-85l18 105h521z" />
    <glyph glyph-name="Wgrave" unicode="&#x1e80;" horiz-adv-x="952" 
d="M555 0l-40 518l-226 -518h-129l-70 700h143l28 -522l227 522h112l38 -522l210 522h152l-315 -700h-130zM645 745h-96l-146 135h139z" />
    <glyph glyph-name="wgrave" unicode="&#x1e81;" horiz-adv-x="823" 
d="M468 0l-44 372l-178 -372h-118l-69 525h127l29 -393l181 393h105l38 -391l166 391h135l-254 -525h-118zM554 594h-96l-146 135h140z" />
    <glyph glyph-name="Wacute" unicode="&#x1e82;" horiz-adv-x="952" 
d="M555 0l-40 518l-226 -518h-129l-70 700h143l28 -522l227 522h112l38 -522l210 522h152l-315 -700h-130zM566 745h-108l143 135h155z" />
    <glyph glyph-name="wacute" unicode="&#x1e83;" horiz-adv-x="823" 
d="M468 0l-44 372l-178 -372h-118l-69 525h127l29 -393l181 393h105l38 -391l166 391h135l-254 -525h-118zM475 594h-108l143 135h155z" />
    <glyph glyph-name="Wdieresis" unicode="&#x1e84;" horiz-adv-x="952" 
d="M555 0l-40 518l-226 -518h-129l-70 700h143l28 -522l227 522h112l38 -522l210 522h152l-315 -700h-130zM409 749l20 111h109l-20 -111h-109zM590 749l20 111h108l-19 -111h-109z" />
    <glyph glyph-name="wdieresis" unicode="&#x1e85;" horiz-adv-x="823" 
d="M468 0l-44 372l-178 -372h-118l-69 525h127l29 -393l181 393h105l38 -391l166 391h135l-254 -525h-118zM320 604l19 111h109l-19 -111h-109zM501 604l19 111h108l-20 -111h-107z" />
    <glyph glyph-name="Ygrave" unicode="&#x1ef2;" horiz-adv-x="647" 
d="M205 0l49 277l-178 423h136l117 -319l227 319h151l-325 -423l-49 -277h-128zM491 745h-95l-146 135h139z" />
    <glyph glyph-name="ygrave" unicode="&#x1ef3;" horiz-adv-x="569" 
d="M-9 -124q77 26 111 47t66 70l-114 532h128l67 -382l203 382h138l-296 -525q-20 -35 -26.5 -45.5l-24.5 -38t-28.5 -37.5t-32 -29t-43 -29t-52.5 -21.5t-68 -20.5zM426 594h-95l-147 135h140z" />
    <glyph glyph-name="endash" unicode="&#x2013;" horiz-adv-x="561" 
d="M485 234h-433l18 101h433z" />
    <glyph glyph-name="emdash" unicode="&#x2014;" horiz-adv-x="666" 
d="M590 234h-538l18 101h537z" />
    <glyph glyph-name="quoteleft" unicode="&#x2018;" horiz-adv-x="252" 
d="M237 568l-24 -150h-131l17 165l133 137l29 -43l-83 -109h59z" />
    <glyph glyph-name="quoteright" unicode="&#x2019;" horiz-adv-x="241" 
d="M101 550l25 150h131l-17 -165l-133 -137l-29 43l82 109h-59z" />
    <glyph glyph-name="quotesinglbase" unicode="&#x201a;" horiz-adv-x="258" 
d="M11 0l25 150h130l-17 -165l-132 -137l-29 43l82 109h-59z" />
    <glyph glyph-name="quotedblleft" unicode="&#x201c;" horiz-adv-x="461" 
d="M237 568l-24 -150h-131l17 165l133 137l29 -43l-83 -109h59zM448 568l-26 -150h-130l17 165l132 137l29 -43l-81 -109h59z" />
    <glyph glyph-name="quotedblright" unicode="&#x201d;" horiz-adv-x="451" 
d="M311 550l26 150h129l-16 -165l-133 -137l-29 43l82 109h-59zM101 550l25 150h131l-17 -165l-133 -137l-29 43l82 109h-59z" />
    <glyph glyph-name="quotedblbase" unicode="&#x201e;" horiz-adv-x="467" 
d="M221 0l25 150h130l-17 -165l-133 -137l-29 43l83 109h-59zM11 0l25 150h130l-17 -165l-132 -137l-29 43l82 109h-59z" />
    <glyph glyph-name="dagger" unicode="&#x2020;" horiz-adv-x="592" 
d="M43 380l17 102l217 -13l41 231h95l-41 -231l222 13l-17 -102l-218 12l-105 -596h-95l105 597z" />
    <glyph glyph-name="daggerdbl" unicode="&#x2021;" horiz-adv-x="625" 
d="M60 380l17 102l218 -13l41 231h95l-41 -231l221 13l-17 -102l-218 12l-33 -185l222 13l-17 -102l-218 12l-59 -334h-95l59 335l-221 -13l17 102l218 -13l33 186z" />
    <glyph glyph-name="bullet" unicode="&#x2022;" horiz-adv-x="452" 
d="M74 284q0 62 43 105.5t105 43.5t105.5 -43.5t43.5 -105.5t-43.5 -105t-105.5 -43t-105 43t-43 105z" />
    <glyph glyph-name="ellipsis" unicode="&#x2026;" horiz-adv-x="714" 
d="M11 0l25 150h131l-25 -150h-131zM240 0l26 150h131l-25 -150h-132zM469 0l26 150h131l-26 -150h-131z" />
    <glyph glyph-name="perthousand" unicode="&#x2030;" horiz-adv-x="1431" 
d="M279 711q83 0 131.5 -42.5t48.5 -114.5q0 -93 -55.5 -155.5t-149.5 -62.5q-84 0 -132.5 42t-48.5 114q0 93 56.5 156t149.5 63zM258 412q47 0 76 41.5t29 92.5q0 89 -86 89q-49 0 -78 -42t-29 -93q0 -88 88 -88zM763 364q83 0 131.5 -42.5t48.5 -114.5
q0 -93 -55.5 -155.5t-149.5 -62.5q-84 0 -132.5 42t-48.5 114q0 93 56.5 156t149.5 63zM742 65q47 0 76 41.5t29 92.5q0 89 -86 89q-49 0 -78 -42t-29 -93q0 -88 88 -88zM801 700l-485 -700h-100l484 700h101zM1195 364q83 0 131.5 -42.5t48.5 -114.5q0 -93 -55.5 -155.5
t-150.5 -62.5q-83 0 -131.5 42.5t-48.5 113.5q0 93 56 156t150 63zM1173 65q48 0 77 41.5t29 92.5q0 89 -87 89q-48 0 -77.5 -42t-29.5 -93q0 -88 88 -88z" />
    <glyph glyph-name="guilsinglleft" unicode="&#x2039;" horiz-adv-x="390" 
d="M352 400l-224 -137l174 -134l-18 -109l-264 216l13 76l340 215z" />
    <glyph glyph-name="guilsinglright" unicode="&#x203a;" horiz-adv-x="389" 
d="M359 312l-13 -76l-340 -216l21 127l223 136l-172 135l17 109z" />
    <glyph glyph-name="fraction" unicode="&#x2044;" horiz-adv-x="186" 
d="M377 700l-446 -700h-103l446 700h103z" />
    <glyph glyph-name="zerosuperior" unicode="&#x2070;" horiz-adv-x="441" 
d="M287 812q90 0 131 -51t41 -125q0 -28 -5.5 -59.5t-20 -68t-37 -64.5t-59.5 -47t-84 -19q-90 0 -130.5 50.5t-40.5 124.5q0 28 5.5 59.5t20 68t36.5 65t59.5 47.5t83.5 19zM253 448q31 0 55.5 23t36.5 57t17.5 64t5.5 53q-2 96 -81 96q-31 0 -55.5 -23t-36.5 -57t-18 -64
t-6 -52q2 -97 82 -97z" />
    <glyph glyph-name="foursuperior" unicode="&#x2074;" horiz-adv-x="438" 
d="M268 385l14 81h-228l10 63l249 276h120l-47 -265h65l-11 -74h-67l-14 -81h-91zM166 540h129l33 185z" />
    <glyph glyph-name="fivesuperior" unicode="&#x2075;" horiz-adv-x="396" 
d="M100 594l61 211h271l-12 -75h-195l-20 -79q29 8 57 8q66 0 103 -36.5t37 -91.5q0 -63 -49 -108t-133 -45q-89 0 -170 60l49 57q60 -40 113 -40q38 0 67.5 19.5t29.5 54.5q0 27 -18.5 42.5t-52.5 15.5q-40 0 -88 -25z" />
    <glyph glyph-name="sixsuperior" unicode="&#x2076;" horiz-adv-x="414" 
d="M369 738q-60 0 -109.5 -29t-73.5 -84q42 31 101 31q63 0 100 -35t37 -89q0 -64 -47 -109t-128 -45t-126 46.5t-45 114.5q0 114 82 193.5t205 79.5q22 0 41.5 -3t27.5 -6l9 -3l-31 -66q-18 4 -43 4zM261 588q-30 0 -54.5 -13.5t-37.5 -29.5v-12q0 -35 20 -58.5t57 -23.5
q41 0 64 23t23 55q0 25 -18 42t-54 17z" />
    <glyph glyph-name="sevensuperior" unicode="&#x2077;" horiz-adv-x="327" 
d="M398 735q-8 -7 -21 -20.5t-47 -54t-62 -80.5t-54.5 -94t-35.5 -101h-97q10 56 42 118t72 113t61 75.5t35 38.5h-199l11 75h304z" />
    <glyph glyph-name="eightsuperior" unicode="&#x2078;" horiz-adv-x="422" 
d="M63 490q0 80 120 127q-54 35 -54 85q0 48 43.5 79t117.5 31q68 0 107 -27t39 -71q0 -63 -90 -104q80 -40 80 -105q0 -57 -54 -92t-140 -35q-80 0 -124.5 29.5t-44.5 82.5zM332 509q0 40 -70 70q-33 -11 -52.5 -19t-37 -24.5t-17.5 -37.5q0 -51 77 -51q42 0 71 17t29 45z
M217 693q0 -31 46 -50q26 8 41 13.5t29 18t14 27.5q0 19 -16 31t-42 12q-30 0 -51 -15t-21 -37z" />
    <glyph glyph-name="ninesuperior" unicode="&#x2079;" horiz-adv-x="415" 
d="M148 451q60 0 110 29.5t73 84.5q-42 -31 -101 -31q-63 0 -99.5 35t-36.5 89q0 64 47 109t127 45q81 0 126 -47t45 -114q0 -114 -82 -193.5t-205 -79.5q-22 0 -41.5 3t-28.5 5l-8 3l31 66q18 -4 43 -4zM256 601q30 0 55.5 14.5t37.5 30.5v10q0 35 -20.5 58.5t-57.5 23.5
q-41 0 -64 -23t-23 -55q0 -25 18 -42t54 -17z" />
    <glyph glyph-name="plussuperior" unicode="&#x207a;" horiz-adv-x="378" 
d="M230 726h68l-19 -108h125l-10 -66h-127l-19 -109h-68l19 109h-126l11 66h127z" />
    <glyph glyph-name="parenleftsuperior" unicode="&#x207d;" horiz-adv-x="224" 
d="M72 441l56 306q7 38 12.5 55.5t22 36t45 29t78.5 20.5l16 -52q-47 -15 -60.5 -27.5t-18.5 -42.5l-63 -345q-6 -34 1 -47.5t43 -27.5l-22 -47q-85 20 -103.5 48.5t-6.5 93.5z" />
    <glyph glyph-name="parenrightsuperior" unicode="&#x207e;" horiz-adv-x="227" 
d="M258 747l-56 -307q-7 -38 -12.5 -55.5t-22 -36t-44.5 -29t-78 -20.5l-17 52q47 15 61 27.5t19 42.5l62 346q6 34 -1 46.5t-43 26.5l22 48q85 -20 103.5 -48.5t6.5 -92.5z" />
    <glyph glyph-name="nsuperior" unicode="&#x207f;" horiz-adv-x="398" 
d="M203 700l-7 -36q68 43 126 43q53 0 74.5 -29.5t12.5 -80.5l-37 -212h-87l36 202q10 52 -34 52q-24 0 -54 -13t-48 -29l-38 -212h-88l56 315h88z" />
    <glyph glyph-name="zeroinferior" unicode="&#x2080;" horiz-adv-x="442" 
d="M197 277q90 0 131 -51t41 -125q0 -28 -5.5 -59.5t-20 -68t-37 -64.5t-59.5 -47t-84 -19q-90 0 -130.5 50.5t-40.5 124.5q0 28 5.5 59.5t20 68t36.5 65t59.5 47.5t83.5 19zM163 -87q31 0 55.5 23t36.5 57t17.5 64t5.5 53q-2 96 -81 96q-31 0 -55.5 -23t-36.5 -57t-18 -64
t-6 -52q2 -97 82 -97z" />
    <glyph glyph-name="oneinferior" unicode="&#x2081;" horiz-adv-x="272" 
d="M136 -150h-91l61 330l-80 -37l-30 63l129 64h85z" />
    <glyph glyph-name="twoinferior" unicode="&#x2082;" horiz-adv-x="386" 
d="M284 -75l-12 -75h-328l7 41q6 34 20.5 60.5t43.5 49.5t46 33.5t58 33.5q8 5 22.5 13l21.5 12l18.5 10.5t17 10.5l13 9.5t11.5 10t7.5 9.5t5 10.5t1.5 10.5q-2 38 -59 38q-50 0 -122 -39l-34 63q86 51 167 51q66 0 103 -31t37 -79q0 -24 -12 -46.5t-24.5 -36.5t-43 -33.5
t-44 -26.5l-50.5 -26q-49 -25 -66.5 -39t-22.5 -34h218z" />
    <glyph glyph-name="threeinferior" unicode="&#x2083;" horiz-adv-x="386" 
d="M-57 -97l45 57q71 -42 130 -42q41 0 65.5 16.5t24.5 43.5q0 58 -114 58h-19l11 75h23q45 0 80 15t35 40q0 16 -14.5 26t-38.5 10q-53 0 -119 -36l-31 62q78 49 165 49q63 0 97 -27t34 -68q0 -69 -94 -105q34 -10 55.5 -37.5t21.5 -63.5q0 -53 -43.5 -93t-129.5 -40
q-90 0 -184 60z" />
    <glyph glyph-name="fourinferior" unicode="&#x2084;" horiz-adv-x="419" 
d="M163 -150l14 81h-228l10 63l249 276h120l-47 -265h65l-11 -74h-67l-14 -81h-91zM61 5h129l33 185z" />
    <glyph glyph-name="fiveinferior" unicode="&#x2085;" horiz-adv-x="394" 
d="M2 59l61 211h271l-12 -75h-195l-20 -79q29 8 57 8q67 0 103.5 -36.5t36.5 -91.5q0 -63 -49 -108t-133 -45q-89 0 -170 60l49 57q60 -40 113 -40q39 0 68 19.5t29 54.5q0 27 -18.5 42.5t-52.5 15.5q-40 0 -88 -25z" />
    <glyph glyph-name="sixinferior" unicode="&#x2086;" horiz-adv-x="414" 
d="M277 203q-60 0 -109.5 -29t-73.5 -84q42 31 101 31q63 0 100 -35t37 -89q0 -64 -47 -109t-128 -45t-126 46.5t-45 114.5q0 114 82 193.5t205 79.5q22 0 41.5 -3t27.5 -6l9 -3l-31 -66q-18 4 -43 4zM169 53q-30 0 -54.5 -13.5t-37.5 -29.5v-12q0 -35 20 -58.5t57 -23.5
q41 0 64 23t23 55q0 25 -18 42t-54 17z" />
    <glyph glyph-name="seveninferior" unicode="&#x2087;" horiz-adv-x="362" 
d="M317 200q-8 -7 -21 -20.5t-47 -54t-62 -80.5t-54.5 -94t-35.5 -101h-97q10 56 42 118t72 113t61 75.5t35 38.5h-199l11 75h304z" />
    <glyph glyph-name="eightinferior" unicode="&#x2088;" horiz-adv-x="411" 
d="M-33 -45q0 80 120 127q-54 35 -54 85q0 48 43.5 79t117.5 31q68 0 107 -27t39 -71q0 -63 -90 -104q80 -40 80 -105q0 -57 -54 -92t-140 -35q-79 0 -124 29.5t-45 82.5zM236 -26q0 40 -70 70q-33 -11 -52.5 -19t-37 -24.5t-17.5 -37.5q0 -51 77 -51q41 0 70.5 17t29.5 45z
M121 158q0 -31 46 -50q26 8 41 13.5t29 18t14 27.5q0 19 -16 31t-42 12q-31 0 -51.5 -15t-20.5 -37z" />
    <glyph glyph-name="nineinferior" unicode="&#x2089;" horiz-adv-x="418" 
d="M57 -84q60 0 110 29.5t73 84.5q-42 -31 -101 -31q-63 0 -99.5 35t-36.5 89q0 64 47 109t127 45q81 0 126 -47t45 -114q0 -114 -82 -193.5t-205 -79.5q-22 0 -41.5 2.5t-27.5 5.5l-9 3l31 66q18 -4 43 -4zM165 66q30 0 55.5 14.5t37.5 30.5v10q0 35 -20.5 58.5t-57.5 23.5
q-41 0 -64 -23t-23 -55q0 -25 18 -42t54 -17z" />
    <glyph glyph-name="parenleftinferior" unicode="&#x208d;" horiz-adv-x="233" 
d="M-19 -94l56 306q7 38 12.5 55.5t22 36t45 29t78.5 20.5l16 -52q-47 -15 -60.5 -27.5t-18.5 -42.5l-63 -345q-6 -34 1 -47.5t43 -27.5l-22 -47q-85 20 -103.5 48.5t-6.5 93.5z" />
    <glyph glyph-name="parenrightinferior" unicode="&#x208e;" horiz-adv-x="232" 
d="M165 212l-56 -307q-7 -38 -12.5 -55.5t-22 -36t-44.5 -29t-78 -20.5l-17 52q47 15 61 27.5t19 42.5l62 346q6 34 -1 46.5t-43 26.5l22 48q85 -20 103.5 -48.5t6.5 -92.5z" />
    <glyph glyph-name="colonmonetary" unicode="&#x20a1;" horiz-adv-x="572" 
d="M169 0h-59l43 105q-91 55 -91 191q0 155 80 241.5t186 86.5q12 0 34 -2l32 78h59l-37 -90l29 -9l40 99h60l-50 -122q28 -14 68 -39l-58 -83q-3 2 -19.5 12t-27.5 16l-119 -294q40 11 117 48l43 -93q-128 -58 -205 -67l-32 -78h-60l31 78q-4 0 -9 1t-11.5 2.5t-9.5 2.5z
M189 307q0 -45 15 -75l114 281q-55 -16 -92 -74.5t-37 -131.5zM246 191q12 -5 30 -7l131 324q-12 4 -29 7z" />
    <glyph glyph-name="lira" unicode="&#x20a4;" horiz-adv-x="574" 
d="M74 330l11 66h62q-28 70 -28 119q0 89 59.5 142.5t162.5 53.5q52 0 104.5 -17.5t78.5 -33t65 -41.5l-66 -77q-98 61 -163 61q-53 0 -83.5 -28.5t-30.5 -70.5q0 -12 1.5 -23t5.5 -23.5t7 -19t9.5 -22l8.5 -20.5h190l-10 -66h-162q2 -18 2 -26q0 -11 -2 -29h151l-10 -66
h-163q-32 -61 -88 -102h296l-17 -107h-460l15 88q10 5 26.5 14t52 40.5t54.5 66.5h-100l11 66h109q1 4 1 13q0 19 -5 42h-95z" />
    <glyph glyph-name="peseta" unicode="&#x20a7;" horiz-adv-x="695" 
d="M88 449l10 55h28l35 196h253q125 0 192 -48.5t67 -147.5h25l-9 -55h-22q-19 -86 -91 -139.5t-190 -53.5h-174l-45 -256h-129l79 449h-29zM272 592l-16 -88h285q-3 88 -128 88h-141zM368 362q61 0 104 22.5t60 64.5h-286l-16 -87h138z" />
    <glyph glyph-name="uni20A9" unicode="&#x20a9;" horiz-adv-x="1031" 
d="M596 0l-40 518l-226 -518h-129l-24 239h-137l14 76h115l-9 95h-89l13 76h68l-21 214h142l12 -214h151l93 214h111l16 -214h147l86 214h152l-97 -214h70l-14 -76h-90l-43 -95h116l-13 -76h-138l-107 -239h-129zM403 410h-114l13 -234zM772 410h-111l18 -232z" />
    <glyph glyph-name="Euro" unicode="&#x20ac;" horiz-adv-x="719" 
d="M60 388l12 70h56q39 119 124 186t192 67q55 0 110.5 -18.5t87.5 -37.5t81 -53l-70 -90q-61 43 -105 63t-90 20q-60 0 -108.5 -37t-78.5 -100h251l-12 -70h-264q-9 -39 -12 -82h261l-13 -70h-246q8 -66 39.5 -99t81.5 -33q82 0 223 81l56 -101q-175 -95 -307 -95
q-98 0 -158.5 61t-68.5 186h-69l12 70h57q2 43 9 82h-51z" />
    <glyph glyph-name="uni2116" unicode="&#x2116;" horiz-adv-x="1175" 
d="M287 700l222 -519l91 519h128l-123 -700h-131l-221 519l-91 -519h-129l123 700h131zM970 691q89 0 142 -46t53 -124q0 -100 -60.5 -170.5t-161.5 -70.5q-90 0 -142.5 46t-52.5 124q0 100 60.5 170.5t161.5 70.5zM947 367q52 0 81.5 44.5t29.5 99.5q0 94 -92 94
q-52 0 -82 -45t-30 -100q0 -93 93 -93zM735 158l12 75h329l-12 -75h-329z" />
    <glyph glyph-name="uni2117" unicode="&#x2117;" horiz-adv-x="813" 
d="M605 450q0 -72 -46.5 -109.5t-123.5 -37.5h-90l-28 -164h-49l74 421h139q57 0 90.5 -28t33.5 -82zM556 450q0 68 -82 68h-91l-30 -172h91q47 0 79.5 28t32.5 76zM59 313q0 167 102.5 282.5t279.5 115.5q152 0 241 -89.5t89 -234.5q0 -108 -43 -197t-132 -145t-208 -56
q-151 0 -240 90t-89 234zM98 314q0 -127 78.5 -207t215.5 -80q156 0 248 103.5t92 255.5q0 127 -78.5 207t-215.5 80q-156 0 -248 -103.5t-92 -255.5z" />
    <glyph glyph-name="servicemark" unicode="&#x2120;" horiz-adv-x="640" 
d="M549 476l25 142l-79 -105h-35l-41 111l-25 -148h-55l39 224h57l49 -132l101 132h58l-39 -224h-55zM252 606q65 -20 66 -65q0 -31 -29.5 -50t-76.5 -19q-59 0 -123 33l31 37q50 -26 90 -26q18 0 32 6t14 16q0 8 -9 13t-33 11t-36 10q-60 19 -60 64q0 30 27 49t71 19
q55 0 113 -29l-30 -36q-44 20 -78 20q-40 0 -40 -21q0 -8 7.5 -12t29.5 -10t34 -10z" />
    <glyph glyph-name="trademark" unicode="&#x2122;" horiz-adv-x="637" 
d="M542 476l25 142l-79 -105h-35l-41 111l-25 -148h-55l39 224h58l49 -132l100 132h58l-39 -224h-55zM332 655h-79l-32 -179h-55l32 179h-78l7 45h211z" />
    <glyph glyph-name="Omega" unicode="&#x2126;" horiz-adv-x="762" 
d="M436 711q139 0 214 -70.5t75 -201.5q0 -73 -17.5 -133.5t-47 -99t-59 -62.5t-60.5 -37h107l-18 -107h-260l19 109q88 26 146 112.5t58 218.5q0 160 -157 160q-57 0 -101.5 -23.5t-71 -59.5t-44 -83.5t-23.5 -90t-6 -84.5q0 -117 113 -150l-18 -109h-260l17 107h111
q-92 61 -92 185q0 84 23.5 158.5t68.5 133t118 93t165 34.5z" />
    <glyph glyph-name="onethird" unicode="&#x2153;" horiz-adv-x="873" 
d="M442 53l45 57q71 -42 130 -42q42 0 66 16.5t24 43.5q0 58 -114 58h-19l11 75h23q44 0 79.5 15t35.5 40q0 16 -14.5 26t-38.5 10q-54 0 -120 -36l-30 62q78 49 165 49q63 0 97 -27t34 -68q0 -70 -95 -105q34 -10 56 -37.5t22 -63.5q0 -53 -43.5 -93t-129.5 -40
q-94 0 -184 60zM225 280h-91l61 330l-80 -37l-30 63l129 64h85zM669 700l-451 -700h-97l451 700h97z" />
    <glyph glyph-name="twothirds" unicode="&#x2154;" horiz-adv-x="996" 
d="M567 53l45 57q73 -42 130 -42q42 0 66 16.5t24 43.5q0 58 -113 58h-19l11 75h23q44 0 79.5 15t35.5 40q0 16 -14.5 26t-39.5 10q-53 0 -119 -36l-30 62q78 49 165 49q63 0 97 -27t34 -68q0 -69 -94 -105q33 -10 55 -37.5t22 -63.5q0 -53 -43.5 -93t-129.5 -40
q-43 0 -87.5 14t-57 21.5zM382 355l-12 -75h-328l7 41q6 34 20.5 60.5t43.5 49.5t46 33.5t58 33.5q85 47 101 62q17 16 17 33q0 39 -59 39q-50 0 -122 -39l-34 63q86 51 167 51q67 0 103.5 -31t36.5 -79q0 -24 -12 -46.5t-24.5 -36.5t-43 -33.5t-44 -26.5l-50.5 -26
q-49 -25 -66.5 -39t-22.5 -34h218zM796 700l-450 -700h-97l450 700h97z" />
    <glyph glyph-name="oneeighth" unicode="&#x215b;" horiz-adv-x="879" 
d="M444 105q0 80 120 127q-54 35 -54 85q0 48 43.5 79t116.5 31q68 0 107.5 -27t39.5 -71q0 -60 -91 -104q80 -40 80 -105q0 -57 -53.5 -92t-139.5 -35q-79 0 -124 30t-45 82zM666 700l-450 -700h-97l450 700h97zM224 280h-91l61 330l-80 -37l-30 63l129 64h85zM713 124
q0 41 -70 71q-32 -11 -51.5 -19.5t-37.5 -25t-18 -37.5q0 -51 78 -51q41 0 70 17t29 45zM598 308q0 -31 46 -50q84 23 84 58q0 20 -15.5 32t-41.5 12q-31 0 -52 -15t-21 -37z" />
    <glyph glyph-name="threeeighths" unicode="&#x215c;" horiz-adv-x="982" 
d="M549 105q0 81 121 127q-55 35 -55 85q0 48 43.5 79t117.5 31q68 0 107 -27t39 -71q0 -63 -90 -104q79 -39 79 -105q0 -57 -53 -92t-140 -35q-79 0 -124 30t-45 82zM41 333l45 57q73 -42 130 -42q42 0 66 16.5t24 43.5q0 58 -114 58h-18l10 75h23q45 0 80.5 15t35.5 40
q0 16 -14.5 26t-39.5 10q-53 0 -119 -36l-30 62q78 49 164 49q63 0 97 -27t34 -68q0 -70 -94 -105q34 -10 56 -37.5t22 -63.5q0 -53 -43.5 -93t-130.5 -40q-90 0 -184 60zM772 700l-450 -700h-97l450 700h97zM819 124q0 39 -70 70q-50 -15 -78.5 -33t-28.5 -48q0 -51 77 -51
q41 0 70.5 17t29.5 45zM703 308q0 -31 46 -50q84 23 84 58q0 20 -15.5 32t-41.5 12q-31 0 -52 -15t-21 -37z" />
    <glyph glyph-name="fiveeighths" unicode="&#x215d;" horiz-adv-x="970" 
d="M535 105q0 80 120 127q-54 35 -54 85q0 48 44 79t117 31q68 0 107 -27t39 -71q0 -63 -90 -104q80 -39 80 -105q0 -57 -53.5 -92t-140.5 -35q-79 0 -124 30t-45 82zM94 489l60 211h272l-12 -75h-196l-19 -79q29 8 56 8q67 0 103.5 -36.5t36.5 -91.5q0 -63 -48.5 -108
t-132.5 -45q-89 0 -170 60l49 57q57 -40 112 -40q39 0 68 19.5t29 54.5q0 27 -18.5 42.5t-51.5 15.5q-43 0 -88 -25zM758 700l-450 -700h-97l451 700h96zM805 124q0 39 -70 70q-50 -15 -78.5 -33t-28.5 -48q0 -51 77 -51q41 0 70.5 17t29.5 45zM690 308q0 -31 46 -50
q39 11 61 24t22 34q0 20 -15.5 32t-41.5 12q-31 0 -51.5 -15t-20.5 -37z" />
    <glyph glyph-name="seveneighths" unicode="&#x215e;" horiz-adv-x="870" 
d="M437 105q0 81 121 127q-55 35 -55 85q0 48 44 79t117 31q69 0 107.5 -27t38.5 -71q0 -62 -91 -104q81 -40 81 -105q0 -57 -53.5 -92t-140.5 -35q-79 0 -124 30t-45 82zM661 700l-450 -700h-97l450 700h97zM396 630q-8 -7 -21 -20.5t-47 -54t-62 -80.5t-54.5 -94
t-35.5 -101h-97q10 56 42 118t72 113t61 75.5t35 38.5h-199l11 75h304zM707 124q0 39 -70 70q-32 -10 -52 -18.5t-37.5 -25t-17.5 -37.5q0 -51 77 -51q41 0 70.5 17t29.5 45zM592 308q0 -32 45 -50q84 23 84 58q0 20 -15.5 32t-41.5 12q-31 0 -51.5 -15t-20.5 -37z" />
    <glyph glyph-name="partialdiff" unicode="&#x2202;" horiz-adv-x="640" 
d="M473 382q-6 94 -59.5 156.5t-157.5 62.5q-20 0 -42 -2t-34 -4l-11 -2v97q40 10 95 10q153 0 238 -98t85 -262q0 -160 -84 -255.5t-228 -95.5q-113 0 -178.5 58t-65.5 162q0 114 76.5 190.5t187.5 76.5q37 0 69 -9.5t51.5 -23.5t33 -28t19.5 -23zM451 260q0 54 -31 86.5
t-92 32.5q-79 0 -123.5 -51t-44.5 -123q0 -54 29 -87t92 -33q84 0 127 53.5t43 121.5z" />
    <glyph glyph-name="Delta" unicode="&#x2206;" horiz-adv-x="716" 
d="M639 0h-668l389 700h137zM509 107l-98 458l-262 -458h360z" />
    <glyph glyph-name="product" unicode="&#x220f;" horiz-adv-x="712" 
d="M748 700l-17 -105h-97l-106 -595h-129l106 595h-198l-106 -595h-128l106 595h-97l16 105h650z" />
    <glyph glyph-name="summation" unicode="&#x2211;" horiz-adv-x="581" 
d="M114 700h484l-16 -108h-313l193 -242l-267 -243h298l-18 -107h-484l11 67l320 285l-220 281z" />
    <glyph glyph-name="minus" unicode="&#x2212;" 
d="M58 286l16 94h506l-15 -94h-507z" />
    <glyph glyph-name="radical" unicode="&#x221a;" horiz-adv-x="612" 
d="M680 700l-414 -700h-130l-115 340h127l65 -209l332 569h135z" />
    <glyph glyph-name="infinity" unicode="&#x221e;" horiz-adv-x="919" 
d="M242 428q45 0 85.5 -18.5t65.5 -40t63 -60.5q57 45 87 65.5t70.5 37t81.5 16.5q76 0 119 -43t43 -112q0 -78 -55.5 -131.5t-143.5 -53.5q-43 0 -83.5 18.5t-65 39.5t-63.5 61q-57 -45 -87 -65.5t-70.5 -37t-81.5 -16.5q-76 0 -119 42.5t-43 111.5q0 78 55 132t142 54z
M220 172q37 0 74 20t100 68q-50 48 -79.5 65.5t-60.5 17.5q-53 0 -83.5 -29t-30.5 -71q0 -31 22 -51t58 -20zM682 343q-37 0 -74.5 -20t-99.5 -68q47 -47 78 -65t63 -18q53 0 83 30t30 70q0 32 -22 51.5t-58 19.5z" />
    <glyph glyph-name="integral" unicode="&#x222b;" horiz-adv-x="395" 
d="M97 89l93 537q20 121 71 167t170 46h45l-13 -75h-21q-28 0 -49 -9.5t-33 -21.5t-21.5 -36.5t-13 -41t-9.5 -48.5l-93 -538q-21 -121 -72 -166.5t-170 -45.5h-45l13 74h21q28 0 49.5 9.5t33.5 21.5t21.5 36.5t13 41t9.5 49.5z" />
    <glyph glyph-name="approxequal" unicode="&#x2248;" 
d="M110 177l-65 28q73 121 163 121q46 0 110 -33t95 -33q22 0 42.5 12t46.5 49l65 -28q-73 -121 -164 -121q-47 0 -110 33t-95 33q-43 0 -88 -61zM142 362l-65 28q73 121 163 121q46 0 110 -33t95 -33q22 0 42.5 12t47.5 49l64 -28q-73 -121 -164 -121q-46 0 -109.5 33
t-95.5 33q-43 0 -88 -61z" />
    <glyph glyph-name="notequal" unicode="&#x2260;" 
d="M74 380l15 95h262l90 152l79 -33l-70 -119h145l-15 -95h-186l-55 -92h224l-15 -94h-264l-90 -152l-79 33l70 119h-144l16 94h184l54 92h-221z" />
    <glyph glyph-name="lessequal" unicode="&#x2264;" 
d="M59 301l12 76l540 192l-19 -113l-376 -122l330 -123l-17 -102zM5 0l14 82h505l-13 -82h-506z" />
    <glyph glyph-name="greaterequal" unicode="&#x2265;" 
d="M586 377l-13 -76l-539 -192l19 113l375 121l-329 124l16 102zM534 82l-13 -82h-506l14 82h505z" />
    <glyph glyph-name="uni2318" unicode="&#x2318;" horiz-adv-x="781" 
d="M558 39q-63 0 -106 42.5t-37 106.5l7 49h-86l-11 -64q-25 -134 -144 -134q-61 0 -104 40t-43 98q0 62 47 98t117 36h74l14 77h-42q-61 0 -104 40.5t-43 97.5q0 56 42 96t101 40t104 -40.5t38 -108.5q-1 -9 -3.5 -26t-2.5 -25h86l11 65q9 52 39.5 88.5t85.5 44.5
q18 2 35 0q55 -6 92.5 -45.5t37.5 -91.5q0 -62 -47 -98.5t-116 -36.5h-75l-14 -77h44q60 0 102.5 -40.5t42.5 -97.5q0 -56 -41.5 -95t-100.5 -39zM550 531l-12 -69h81q28 0 48.5 18.5t20.5 43.5q0 27 -20.5 45.5t-49.5 18.5q-28 0 -46 -18t-22 -39zM259 237h-81
q-29 0 -48.5 -18t-19.5 -44t20.5 -44t49.5 -18q28 0 45 15t22 41zM241 588q-29 0 -48.5 -18.5t-19.5 -44.5t20 -44.5t50 -18.5h55l9 44q6 32 -12.5 57t-53.5 25zM556 237h-57l-9 -44q-6 -31 12.5 -55.5t53.5 -24.5q28 0 48.5 18t20.5 43q0 27 -20.5 45t-48.5 18zM349 311h86
l14 77h-86z" />
    <glyph glyph-name="lozenge" unicode="&#x25ca;" horiz-adv-x="573" 
d="M291 700h132l125 -350l-249 -350h-132l-125 350zM429 368l-81 231l-187 -267l81 -232z" />
    <glyph glyph-name="commaaccent" unicode="&#xf6c3;" horiz-adv-x="116" 
d="M-18 -171l19 112h100l-12 -122l-103 -107l-23 32l64 85h-45z" />
    <glyph glyph-name="centinferior" unicode="&#xf6df;" horiz-adv-x="360" 
d="M159 -150h-64l8 46q-52 5 -82.5 39.5t-30.5 98.5q0 86 49.5 138t118.5 52h2l8 46h65l-10 -57q19 -6 87 -40l-40 -59q-38 22 -60 29l-29 -166q15 4 61 23l30 -65q-67 -27 -104 -35zM79 41q0 -54 37 -67l30 170q-30 -10 -48.5 -37.5t-18.5 -65.5z" />
    <glyph glyph-name="centsuperior" unicode="&#xf6e0;" horiz-adv-x="362" 
d="M249 385h-64l8 46q-52 5 -82.5 39.5t-30.5 98.5q0 86 49 138t119 52h2l8 46h65l-10 -57q32 -10 87 -40l-40 -58q-38 21 -59 28l-30 -166q28 8 61 24l30 -66q-67 -27 -104 -34zM169 577q0 -55 37 -69l30 172q-30 -10 -48.5 -38t-18.5 -65z" />
    <glyph glyph-name="commainferior" unicode="&#xf6e1;" horiz-adv-x="202" 
d="M-25 -150l16 99h91l-10 -110l-91 -85l-19 29l54 67h-41z" />
    <glyph glyph-name="commasuperior" unicode="&#xf6e2;" horiz-adv-x="186" 
d="M63 385l16 99h91l-10 -110l-91 -85l-19 29l54 67h-41z" />
    <glyph glyph-name="dollarinferior" unicode="&#xf6e3;" horiz-adv-x="407" 
d="M148 -210h-64l10 59q-73 14 -140 57l48 61q52 -31 105 -43l18 103l-18 7q-46 19 -72.5 45t-26.5 70q0 55 44 91t117 37l10 54h65l-11 -60q55 -11 124 -48l-47 -60q-47 24 -90 33l-17 -97l18 -7q49 -21 76.5 -47t27.5 -71q0 -56 -46.5 -93t-121.5 -38zM229 -34
q0 23 -43 40l-15 -87q26 4 42 16.5t16 30.5zM105 155q0 -22 37 -35l14 80q-51 -9 -51 -45z" />
    <glyph glyph-name="dollarsuperior" unicode="&#xf6e4;" horiz-adv-x="411" 
d="M243 325h-64l10 59q-77 15 -140 57l48 61q55 -32 105 -44l18 104l-18 7q-46 19 -72.5 45t-26.5 70q0 55 44 91t117 37l10 54h65l-11 -60q55 -11 124 -48l-47 -60q-47 24 -90 33l-17 -97l18 -7q49 -21 76.5 -47t27.5 -71q0 -57 -46.5 -93.5t-121.5 -37.5zM324 501
q0 23 -43 40l-15 -87q26 3 42 15.5t16 31.5zM200 690q0 -22 37 -35l14 80q-51 -9 -51 -45z" />
    <glyph glyph-name="periodinferior" unicode="&#xf6e7;" horiz-adv-x="195" 
d="M-26 -150l16 99h91l-16 -99h-91z" />
    <glyph glyph-name="periodsuperior" unicode="&#xf6e8;" horiz-adv-x="186" 
d="M63 385l16 99h91l-16 -99h-91z" />
    <glyph glyph-name="asuperior" unicode="&#xf6e9;" horiz-adv-x="410" 
d="M374 385h-88l6 37q-59 -44 -119 -44q-43 0 -72.5 29t-29.5 91q0 92 43.5 150.5t112.5 58.5q53 0 108 -45l7 38h87zM207 448q43 0 98 45l18 105q-37 39 -74 39q-40 0 -64 -39t-24 -93q0 -57 46 -57z" />
    <glyph glyph-name="bsuperior" unicode="&#xf6ea;" horiz-adv-x="410" 
d="M64 385l77 437h88l-28 -157q57 42 114 42q44 0 75.5 -29.5t31.5 -91.5q0 -92 -42.5 -150t-111.5 -58q-55 0 -110 43l-6 -36h-88zM281 637q-38 0 -92 -42l-19 -110q35 -37 77 -37q39 0 62 38.5t23 91.5q0 59 -51 59z" />
    <glyph glyph-name="dsuperior" unicode="&#xf6eb;" horiz-adv-x="410" 
d="M374 385h-88l6 37q-59 -44 -119 -44q-43 0 -72.5 29t-29.5 91q0 92 43.5 150.5t112.5 58.5q54 0 108 -44l28 159h87zM207 448q43 0 98 45l18 105q-37 39 -74 39q-40 0 -64 -39t-24 -93q0 -57 46 -57z" />
    <glyph glyph-name="esuperior" unicode="&#xf6ec;" horiz-adv-x="379" 
d="M394 612q0 -55 -52.5 -77t-146.5 -22h-38q4 -70 65 -70q41 0 122 37l28 -60q-88 -42 -165 -42q-136 0 -136 139q0 83 52 136.5t141 53.5q60 0 95 -25t35 -70zM260 644q-38 0 -64 -23t-35 -61h37q112 0 112 50q0 34 -50 34z" />
    <glyph glyph-name="isuperior" unicode="&#xf6ed;" horiz-adv-x="188" 
d="M153 385h-88l56 315h88zM127 745l13 76h92l-13 -76h-92z" />
    <glyph glyph-name="lsuperior" unicode="&#xf6ee;" horiz-adv-x="189" 
d="M152 385h-87l77 437h88z" />
    <glyph glyph-name="msuperior" unicode="&#xf6ef;" horiz-adv-x="604" 
d="M209 700l-7 -39q58 46 113 46q72 0 85 -56q21 20 56 38t68 18q52 0 73 -29t12 -79l-37 -214h-88l37 202q11 52 -31 52t-91 -45l-37 -209h-88l37 202q9 52 -31 52q-39 0 -90 -44l-37 -210h-88l56 315h88z" />
    <glyph glyph-name="osuperior" unicode="&#xf6f0;" horiz-adv-x="404" 
d="M251 707q77 0 121.5 -38.5t44.5 -105.5q0 -79 -48 -132t-132 -53q-78 0 -122 38t-44 106q0 79 48 132t132 53zM235 445q43 0 67.5 37t24.5 81q0 76 -74 76q-43 0 -67.5 -36.5t-24.5 -81.5q0 -76 74 -76z" />
    <glyph glyph-name="rsuperior" unicode="&#xf6f1;" horiz-adv-x="280" 
d="M209 700l-12 -66q7 13 20 27t45 29.5t70 13.5l-12 -82q-30 0 -56 -11t-41 -27t-26 -32t-15 -27l-4 -11l-25 -129h-88l56 315h88z" />
    <glyph glyph-name="ssuperior" unicode="&#xf6f2;" horiz-adv-x="357" 
d="M255 574q49 -14 76 -34.5t27 -60.5q0 -46 -38 -73.5t-101 -27.5q-90 0 -166 48l40 57q72 -39 126 -39q51 0 51 29q0 4 -1 7t-3.5 5.5t-5 4.5t-7.5 4.5t-9 4t-11.5 3.5t-12.5 3.5t-14.5 4t-15.5 4.5q-20 6 -33.5 11.5t-30.5 16t-26 26.5t-9 38q0 44 36.5 72.5t97.5 28.5
q76 0 152 -40l-40 -55q-60 29 -110 29q-47 0 -47 -27q0 -4 1 -7t3.5 -6t5 -5t7.5 -4l9 -3.5t10.5 -3.5l11.5 -3.5t13.5 -3.5t13.5 -4z" />
    <glyph glyph-name="tsuperior" unicode="&#xf6f3;" horiz-adv-x="283" 
d="M77 636l12 64h42l14 79l90 12l-17 -91h91l-11 -64h-91l-27 -152q-5 -31 21 -31q21 0 55 14l23 -67q-60 -22 -106 -22t-67.5 29t-11.5 85l25 144h-42z" />
    <glyph glyph-name="apple" unicode="&#xf8ff;" horiz-adv-x="903" 
d="M745 327q-9 -4 -10 -11t7 -12l28 -20q8 -5 7.5 -10.5t-10.5 -7.5l-34 -6q-10 -1 -12 -8t5 -14l24 -24q6 -7 4 -12t-12 -5l-35 2q-10 0 -13 -6t3 -14l18 -30q5 -8 2 -12.5t-13 -2.5l-34 9q-9 3 -13.5 -2.5t-1.5 -14.5l11 -33q4 -9 0 -12.5t-13 0.5l-31 15q-8 5 -14 0.5
t-5 -14.5l5 -33q1 -10 -3 -12.5t-12 3.5l-28 21q-8 6 -14 3t-7 -13l-2 -34q-1 -10 -6 -11.5t-11 5.5l-23 27q-16 16 -22 -5l-10 -33q-2 -10 -8 -10t-10 8l-17 30q-10 20 -23 0l-15 -30q-4 -8 -10 -8t-8 10l-10 33q-6 21 -22 5l-23 -27q-14 -15 -17 6l-2 34q-1 10 -7.5 13
t-14.5 -3l-26 -21q-8 -6 -13 -3.5t-3 12.5l5 33q1 10 -5 14.5t-15 -0.5l-30 -15q-9 -4 -13 -0.5t0 12.5l11 33q4 9 -1 14.5t-14 2.5l-34 -9q-10 -2 -13 2.5t2 12.5l19 30q5 8 2 14t-13 6l-35 -2q-10 0 -12 5t4 12l25 24q6 7 4 14t-12 8l-33 6q-7 1 -10 4t-1 7t7 7l28 20
q1 1 2.5 2t2.5 2l1 2q9 8 18 -6l16 -31q5 -9 10 -8t8 10l9 34q2 6 5.5 8.5t8 1.5t8.5 -6l23 -26q7 -7 11.5 -5.5t5.5 11.5l2 34q2 10 7.5 12.5t13.5 -3.5l28 -21q8 -6 12.5 -3.5t2.5 12.5l-4 34q-1 10 4.5 14t13.5 -1l31 -14q9 -4 13 -0.5t1 12.5l-11 33q-4 9 0.5 14t13.5 2
l7 -1q20 -38 34.5 -99t14.5 -106q-14 -18 -46 -18h-4q0 22 -16 35q9 -10 9 -27v-7q-16 1 -16 19q0 21 -13.5 35t-37.5 14q-20 0 -33.5 -15.5t-13.5 -38.5q0 -29 24.5 -47t67.5 -18q68 0 134.5 53t105 127t38.5 139q0 29 -18 48t-46 19q-23 0 -41.5 -16.5t-18.5 -41.5
q0 -52 58 -58q-15 -60 -29 -85q-13 102 -58 150q44 -58 52 -161l-14 -20q0 76 -25 140t-64 84q-6 11 12 15l34 6q6 1 8.5 3.5t1 6.5t-6.5 7l-29 19q-17 15 3 23l31 14q7 2 9.5 5.5t0 7t-9.5 5.5l-31 13q-11 5 -10 14q6 3 7 8l17 30q5 9 10.5 8.5t7.5 -9.5l10 -33
q7 -23 22 -5l23 26q6 8 11 6.5t6 -11.5l2 -35q1 -10 7.5 -12.5t13.5 3.5l28 21q7 6 11.5 3t3.5 -13l-5 -34q-1 -10 5 -14t14 1l31 16q9 4 13 0t0 -14l-11 -31q-3 -10 1.5 -15t13.5 -2l34 7q10 3 13 -1t-2 -13l-18 -29q-6 -8 -3 -14.5t13 -5.5l35 2q10 0 12 -5t-4 -12
l-24 -26q-7 -7 -5 -13.5t12 -7.5l34 -6q20 -5 3 -19l-28 -19q-8 -5 -7.5 -11.5t10.5 -10.5l31 -13q9 -4 9 -9t-9 -9zM364 124q69 0 135 52.5t104.5 127t38.5 139.5q0 31 -20 49q12 -18 12 -41q0 -103 -85 -210q-92 -113 -196 -113q-29 0 -49 9q20 -13 60 -13z" />
    <glyph glyph-name="s_t" unicode="&#xfb06;" horiz-adv-x="921" 
d="M661 550q23 120 -84 120q-58 0 -95 -35t-37 -91q0 -30 10 -50q27 -12 44 -21l-58 -80q-94 48 -169 48q-39 0 -64 -15.5t-25 -41.5q0 -9 3 -16.5t10.5 -14t14.5 -11t20 -9l22 -7.5t25.5 -7.5t25.5 -7.5q37 -11 62 -22t50 -29t38 -44.5t13 -60.5q0 -76 -61 -121t-159 -45
q-133 0 -254 77l59 82q109 -63 196 -63q40 0 66 16t26 43q0 9 -3 17t-10.5 14.5t-14.5 11t-21 9.5l-22.5 8t-27.5 8.5l-29 8.5q-33 10 -56 20.5t-48 27.5t-38 43t-13 60q0 73 58 118.5t152 45.5q59 0 121 -18q-4 15 -4 37q0 75 57 124.5t154 49.5q99 0 151.5 -51t36.5 -139
l-3 -14h142l-15 -92h-143l-51 -285q-10 -51 34 -51q29 0 92 24l31 -97q-102 -35 -162 -35q-68 0 -99.5 43.5t-16.5 129.5l48 271h-70l16 92h70z" />
    <glyph glyph-name="eight.numr" horiz-adv-x="427" 
d="M48 385q0 80 120 127q-54 35 -54 85q0 48 43.5 79t117.5 31q68 0 107 -27t39 -71q0 -62 -91 -104q81 -40 81 -105q0 -57 -54 -92t-140 -35q-79 0 -124 29.5t-45 82.5zM317 404q0 40 -70 70q-32 -10 -52 -18.5t-37.5 -25t-17.5 -37.5q0 -51 77 -51q42 0 71 17t29 45z
M202 588q0 -31 46 -50q84 23 84 58q0 20 -16 32t-42 12q-30 0 -51 -15t-21 -37z" />
    <glyph glyph-name="Qsuperior" horiz-adv-x="499" 
d="M313 812q100 0 151 -49t52 -136q1 -41 -11.5 -84.5t-47.5 -88t-87 -63.5l59 -52l-64 -56l-89 95q-93 3 -140.5 51t-48.5 133q0 37 11 76.5t35 80.5t71 67t109 26zM285 455q68 0 103 55t35 115q0 109 -106 109q-68 0 -102.5 -55t-34.5 -115q0 -109 105 -109z" />
    <glyph glyph-name="f_f.calt" horiz-adv-x="742" 
d="M51 433l16 92h70l8 42q14 85 49 123.5t105 38.5q85 0 176 -47l-47 -81q-66 21 -106 21q-43 0 -53 -53l-8 -44h123l-16 -92h-123l-70 -396q-20 -110 -38 -145q-29 -56 -111 -86q-38 -14 -96 -27l-27 95q48 14 72 24.5t40 30t21 38t13 62.5l72 404h-70zM421 433l16 92h70
l8 42q14 84 49 123t103 39q59 0 144 -38l-44 -84q-47 15 -75 15q-43 0 -53 -53l-8 -44h133l-16 -92h-133l-70 -396q-20 -110 -38 -145q-29 -56 -111 -86q-38 -14 -96 -27l-27 95q48 14 72 24.5t40 30t21 38t13 62.5l72 404h-70z" />
    <glyph glyph-name="f_f.ss01" horiz-adv-x="715" 
d="M50 433l16 92h71l6 32q16 85 56 123.5t110 38.5q84 0 217 -42q36 52 116 52q85 0 176 -47l-56 -81q-57 21 -97 21q-43 0 -53 -53l-8 -44h132l-16 -92h-133l-70 -396q-20 -110 -38 -145q-29 -56 -110 -86q-38 -14 -96 -27l-27 95q48 15 72 25t40 29.5t21 38t13 62.5
l71 404h-219l-70 -396q-20 -110 -38 -145q-29 -56 -110 -86q-38 -14 -96 -27l-27 95q48 14 72 24.5t39.5 30t20.5 38t13 62.5l72 404h-70zM267 559l-6 -34h218l12 65q-107 22 -158 22q-56 0 -66 -53z" />
    <glyph glyph-name="f_f_b.ss01" horiz-adv-x="1331" 
d="M51 433l16 92h70l6 32q16 85 56 123.5t110 38.5q78 0 221 -43q41 53 123 53q83 0 200 -37l7 37h123l-47 -265q94 72 184 72q70 0 118.5 -46.5t48.5 -145.5q0 -157 -68 -256t-177 -99q-88 0 -177 75l-11 -64h-123l106 599q-95 23 -160 23q-56 0 -66 -53l-8 -44h133
l-16 -92h-133l-70 -396q-7 -38 -10.5 -55.5t-11 -45t-14.5 -39.5t-20 -31t-28.5 -27.5l-39 -21t-53 -21t-68.5 -17.5l-27 95q48 15 72 25t40 29.5t21 38t13 62.5l72 404h-219l-70 -396q-20 -110 -38 -145q-29 -56 -110 -86q-38 -14 -96 -27l-27 95q48 14 72 24.5t39.5 30
t20.5 38t13 62.5l72 404h-69zM1072 436q-63 0 -154 -75l-36 -201q65 -71 132 -71t107 72t40 169q0 51 -23 78.5t-66 27.5zM261 525h218l13 65q-110 22 -159 22q-56 0 -66 -53z" />
    <glyph glyph-name="f_f_h.ss01" horiz-adv-x="1329" 
d="M51 433l16 92h70l6 32q16 85 56 123.5t110 38.5q78 0 221 -43q41 53 123 53q83 0 200 -37l7 37h123l-48 -268q111 75 207 75q82 0 115.5 -48t18.5 -130l-63 -358h-124l62 345q16 93 -57 93q-41 0 -92 -23.5t-84 -50.5l-64 -364h-123l106 599q-95 23 -160 23
q-56 0 -66 -53l-8 -44h133l-16 -92h-133l-70 -396q-7 -38 -10.5 -55.5t-11 -45t-14.5 -39.5t-20 -31t-28.5 -27.5l-39 -21t-53 -21t-68.5 -17.5l-27 95q48 15 72 25t40 29.5t21 38t13 62.5l72 404h-219l-70 -396q-20 -110 -38 -145q-29 -56 -110 -86q-38 -14 -96 -27l-27 95
q48 14 72 24.5t39.5 30t20.5 38t13 62.5l72 404h-69zM261 525h218l13 65q-110 22 -159 22q-56 0 -66 -53z" />
    <glyph glyph-name="f_f_i.ss01" horiz-adv-x="945" 
d="M899 682l-50 -82q-97 22 -167 22q-61 0 -71 -53l-8 -44h315l-93 -525h-124l76 433h-190l-70 -396q-7 -38 -10.5 -55.5t-11 -45t-14.5 -39.5t-20 -31t-28.5 -27.5l-39 -21t-53 -21t-68.5 -17.5l-27 95q48 15 72 25t40 29.5t21 38t13 62.5l72 404h-219l-70 -396
q-20 -110 -38 -145q-29 -56 -110 -86q-38 -14 -96 -27l-27 95q48 14 72 24.5t39.5 30t20.5 38t13 62.5l72 404h-69l16 92h70l6 32q16 85 56 123.5t110 38.5q80 0 221 -43q43 53 128 53q102 0 241 -47zM261 525h218l13 65q-110 22 -159 22q-56 0 -66 -53z" />
    <glyph glyph-name="f_f_j.ss01" horiz-adv-x="945" 
d="M51 433l16 92h70l6 32q16 85 56 123.5t110 38.5q80 0 221 -43q43 53 128 53q102 0 241 -47l-50 -82q-97 22 -167 22q-61 0 -71 -53l-8 -44h315l-93 -523l-8.5 -44.5t-9 -36.5t-13 -33.5t-19 -26t-28 -25t-38.5 -20t-52.5 -20t-68.5 -17.5l-28 95q62 19 89.5 34t36 31
t14.5 54l78 440h-191l-70 -396q-7 -38 -10.5 -55.5t-11 -45t-14.5 -39.5t-20 -31t-28.5 -27.5l-39 -21t-53 -21t-68.5 -17.5l-27 95q48 15 72 25t40 29.5t21 38t13 62.5l72 404h-219l-70 -396q-20 -110 -38 -145q-29 -56 -110 -86q-38 -14 -96 -27l-27 95q48 14 72 24.5
t39.5 30t20.5 38t13 62.5l72 404h-69zM479 525l13 65q-110 22 -159 22q-56 0 -66 -53l-6 -34h218z" />
    <glyph glyph-name="f_f_k.ss01" horiz-adv-x="1265" 
d="M51 433l16 92h70l6 32q16 85 56 123.5t110 38.5q78 0 221 -43q41 53 123 53q83 0 200 -37l7 37h123l-76 -427l216 223h150l-218 -214l156 -311h-125l-115 228l-93 -91l-24 -137h-123l106 599q-95 23 -160 23q-56 0 -66 -53l-8 -44h133l-16 -92h-133l-70 -396
q-7 -38 -10.5 -55.5t-11 -45t-14.5 -39.5t-20 -31t-28.5 -27.5l-39 -21t-53 -21t-68.5 -17.5l-27 95q48 15 72 25t40 29.5t21 38t13 62.5l72 404h-219l-70 -396q-20 -110 -38 -145q-29 -56 -110 -86q-38 -14 -96 -27l-27 95q48 14 72 24.5t39.5 30t20.5 38t13 62.5l72 404
h-69zM261 525h218l13 65q-110 22 -159 22q-56 0 -66 -53z" />
    <glyph glyph-name="f.calt" horiz-adv-x="372" 
d="M51 433l16 92h70l8 42q14 84 49 123t103 39q59 0 144 -38l-44 -84q-48 15 -75 15q-43 0 -53 -53l-8 -44h133l-16 -92h-133l-70 -396q-20 -110 -38 -145q-29 -56 -111 -86q-38 -14 -96 -27l-27 95q48 14 72 24.5t40 30t21 38t13 62.5l72 404h-70z" />
    <glyph glyph-name="f_f_l.ss01" horiz-adv-x="981" 
d="M51 433l16 92h70l6 32q16 85 56 123.5t110 38.5q78 0 221 -43q41 53 123 53q83 0 200 -37l7 37h123l-129 -729h-123l106 599q-95 23 -160 23q-56 0 -66 -53l-8 -44h133l-16 -92h-133l-70 -396q-7 -38 -10.5 -55.5t-11 -45t-14.5 -39.5t-20 -31t-28.5 -27.5l-39 -21
t-53 -21t-68.5 -17.5l-27 95q48 15 72 25t40 29.5t21 38t13 62.5l72 404h-219l-70 -396q-20 -110 -38 -145q-29 -56 -110 -86q-38 -14 -96 -27l-27 95q48 14 72 24.5t39.5 30t20.5 38t13 62.5l72 404h-69zM479 525l13 65q-110 22 -159 22q-56 0 -66 -53l-6 -34h218z" />
    <glyph glyph-name="f_f_t.ss01" horiz-adv-x="1084" 
d="M817 682l-56 -81q-57 21 -98 21q-43 0 -53 -53l-8 -44h217l24 132l127 20l-27 -152h142l-15 -92h-144l-50 -285q-10 -51 34 -51q31 0 91 24l32 -97q-102 -35 -161 -35q-68 0 -100 43.5t-17 129.5l48 271h-217l-70 -396q-7 -38 -10.5 -55.5t-11 -45t-14.5 -39.5t-20 -31
t-28.5 -27.5l-39 -21t-53 -21t-68.5 -17.5l-26 95q88 27 110 51.5t35 103.5l73 404h-219l-70 -396q-20 -110 -38 -145q-29 -56 -110 -86q-38 -14 -96 -27l-27 95q48 14 72 24.5t39.5 30t20.5 38t13 62.5l72 404h-70l16 92h71l6 32q16 85 56 123.5t110 38.5q79 0 216 -41
q36 51 115 51q86 0 177 -47zM261 525h218l12 65q-107 22 -158 22q-56 0 -66 -53z" />
    <glyph glyph-name="f_h.ss01" horiz-adv-x="987" 
d="M51 433l16 92h70l8 42q16 85 56 123.5t109 38.5q77 0 200 -36l7 36h124l-48 -269q108 76 207 76q82 0 115.5 -48t18.5 -130l-63 -358h-124l61 345q18 93 -57 93q-40 0 -90 -23t-85 -50l-64 -365h-124l106 600q-110 22 -159 22q-56 0 -66 -53l-8 -44h133l-16 -92h-133
l-70 -396q-20 -110 -38 -145q-29 -56 -111 -86q-38 -14 -96 -27l-27 95q48 14 72 24.5t40 30t21 38t13 62.5l72 404h-70z" />
    <glyph glyph-name="exclamsuperior" horiz-adv-x="196" 
d="M67 385l15 91h91l-15 -91h-91zM239 805l-77 -285h-53l23 285h107z" />
    <glyph glyph-name="f_i.ss01" horiz-adv-x="603" 
d="M51 433l16 92h70l8 42q16 85 57 123.5t113 38.5q101 0 242 -47l-50 -82q-101 22 -167 22q-60 0 -70 -53l-8 -44h314l-93 -525h-123l76 433h-191l-70 -396q-20 -110 -38 -145q-29 -56 -111 -86q-38 -14 -96 -27l-27 95q48 14 72 24.5t40 30t21 38t13 62.5l72 404h-70z" />
    <glyph glyph-name="f_j.ss01" horiz-adv-x="603" 
d="M51 433l16 92h70l8 42q16 85 57 123.5t113 38.5q101 0 242 -47l-50 -82q-101 22 -167 22q-60 0 -70 -53l-8 -44h314l-93 -523l-8.5 -44.5t-9 -36.5t-13 -33.5t-19 -26t-28 -25t-38.5 -20t-52.5 -20t-68.5 -17.5l-28 95q62 19 89 34t35.5 31t15.5 54l78 440h-191l-70 -396
q-20 -110 -38 -145q-29 -56 -111 -86q-38 -14 -96 -27l-27 95q48 14 72 24.5t40 30t21 38t13 62.5l72 404h-70z" />
    <glyph glyph-name="f_k.ss01" horiz-adv-x="922" 
d="M51 433l16 92h70l8 42q16 85 56 123.5t109 38.5q77 0 200 -36l7 36h124l-76 -426l215 222h150l-217 -214l156 -311h-126l-114 229l-93 -92l-24 -137h-124l106 600q-110 22 -159 22q-56 0 -66 -53l-8 -44h133l-16 -92h-133l-70 -396q-20 -110 -38 -145q-29 -56 -111 -86
q-38 -14 -96 -27l-27 95q48 14 72 24.5t40 30t21 37.5t13 63l72 404h-70z" />
    <glyph glyph-name="exclaminferior" horiz-adv-x="200" 
d="M-25 -150l15 91h91l-15 -91h-91zM147 270l-77 -285h-53l23 285h107z" />
    <glyph glyph-name="f_l.ss01" horiz-adv-x="639" 
d="M51 433l16 92h70l8 42q16 85 56 123.5t109 38.5q77 0 200 -36l7 36h124l-129 -729h-124l106 600q-110 22 -159 22q-56 0 -66 -53l-8 -44h133l-16 -92h-133l-70 -396q-20 -110 -38 -145q-29 -56 -111 -86q-38 -14 -96 -27l-27 95q48 14 72 24.5t40 30t21 37.5t13 63
l72 404h-70z" />
    <glyph glyph-name="f_t.ss01" horiz-adv-x="743" 
d="M475 682l-55 -81q-60 21 -98 21q-43 0 -53 -53l-8 -44h212l24 132l127 20l-27 -152h143l-16 -92h-144l-50 -285q-10 -51 34 -51q32 0 92 24l30 -97q-102 -35 -160 -35q-69 0 -100.5 43.5t-16.5 129.5l48 271h-212l-70 -396q-20 -110 -38 -145q-29 -56 -111 -86
q-38 -14 -96 -27l-27 95q48 14 72 24.5t40 30t21 38t13 62.5l72 404h-70l16 92h70l8 42q14 85 49 123.5t105 38.5q85 0 176 -47z" />
    <glyph glyph-name="finferior" horiz-adv-x="278" 
d="M-11 101l11 64h45l3 16q9 56 32 81t70 25q56 0 116 -30l-40 -56q-36 12 -57 12q-27 0 -32 -30l-4 -18h81l-10 -64h-82l-40 -222q-6 -32 -9 -45.5t-10.5 -34t-17 -29t-26 -20.5t-40 -19t-58.5 -15l-20 66q55 16 68.5 30.5t22.5 60.5l41 228h-44z" />
    <glyph glyph-name="exclamdownsuperior" horiz-adv-x="200" 
d="M129 714l14 91h91l-15 -91h-90zM192 669l-25 -284h-106l78 284h53z" />
    <glyph glyph-name="five.dnom" horiz-adv-x="400" 
d="M34 209l61 211h271l-12 -75h-195l-20 -79q29 8 57 8q66 0 103 -36.5t37 -91.5q0 -63 -49 -108t-133 -45q-89 0 -170 60l49 57q60 -40 113 -40q39 0 68 19.5t29 54.5q0 27 -18.5 42.5t-52.5 15.5q-40 0 -88 -25z" />
    <glyph glyph-name="five.numr" horiz-adv-x="399" 
d="M83 489l61 211h271l-12 -75h-195l-20 -79q29 8 57 8q67 0 103.5 -36.5t36.5 -91.5q0 -63 -49 -108t-133 -45q-89 0 -170 60l49 57q60 -40 113 -40q38 0 67.5 19.5t29.5 54.5q0 27 -18.5 42.5t-52.5 15.5q-40 0 -88 -25z" />
    <glyph glyph-name="five.onum" horiz-adv-x="591" 
d="M52 224l98 350h417l-17 -108h-310l-39 -154q45 15 97 15q103 0 160 -59.5t57 -149.5q0 -106 -78 -180.5t-210 -74.5q-135 0 -257 93l71 82q87 -65 173 -65q68 0 118.5 38t50.5 102q0 49 -31 79t-90 30q-61 0 -140 -43z" />
    <glyph glyph-name="five.tnum" horiz-adv-x="660" 
d="M109 350l98 350h417l-17 -108h-310l-39 -154q45 15 97 15q103 0 160 -59.5t57 -149.5q0 -106 -78 -180.5t-210 -74.5q-135 0 -257 93l71 82q87 -65 173 -65q68 0 118.5 38t50.5 102q0 49 -31 79t-90 30q-61 0 -140 -43z" />
    <glyph glyph-name="exclamdowninferior" horiz-adv-x="196" 
d="M33 179l14 91h91l-15 -91h-90zM96 134l-25 -284h-106l78 284h53z" />
    <glyph glyph-name="fiveeighths.onum" horiz-adv-x="845" 
d="M460 87q0 65 103 103q-49 29 -49 71q0 39 38 64t100 25q58 0 92 -22.5t34 -58.5q0 -51 -78 -85q69 -34 69 -87q0 -46 -45.5 -74.5t-118.5 -28.5q-68 0 -106.5 24.5t-38.5 68.5zM76 401l51 173h232l-9 -61h-171l-17 -66q28 7 50 7q58 0 90.5 -30.5t32.5 -74.5
q0 -52 -42 -88.5t-114 -36.5q-79 0 -145 49l39 46q47 -33 98 -33q35 0 61 16t26 45q0 48 -64 48q-42 0 -76 -20zM646 574l-386 -574h-79l385 574h80zM694 101q0 34 -65 59q-95 -27 -95 -67q0 -43 70 -43q37 0 63.5 14t26.5 37zM587 253q0 -25 43 -42q75 20 75 48
q0 17 -14.5 27t-38.5 10q-28 0 -46.5 -12.5t-18.5 -30.5z" />
    <glyph glyph-name="exclamdown.sc" horiz-adv-x="265" 
d="M100 451l19 123h121l-19 -123h-121zM183 389l-35 -389h-139l105 389h69z" />
    <glyph glyph-name="fivesixths" horiz-adv-x="948" 
d="M823 353q-60 0 -109.5 -29t-73.5 -84q42 31 101 31q63 0 100 -35t37 -89q0 -64 -47 -109t-128 -45t-126 46.5t-45 114.5q0 114 82 193.5t205 79.5q22 0 41.5 -3t27.5 -6l9 -3l-31 -66q-18 4 -43 4zM94 489l61 211h271l-12 -75h-195l-20 -79q29 8 57 8q67 0 103.5 -36.5
t36.5 -91.5q0 -63 -49 -108t-133 -45q-89 0 -170 60l49 57q60 -40 113 -40q39 0 68 19.5t29 54.5q0 27 -18.5 42.5t-52.5 15.5q-40 0 -88 -25zM757 700l-450 -700h-97l451 700h96zM715 203q-30 0 -54.5 -13.5t-37.5 -29.5v-12q0 -35 20 -58.5t57 -23.5q41 0 64 23t23 55
q0 25 -18 42t-54 17z" />
    <glyph glyph-name="fivesixths.onum" horiz-adv-x="826" 
d="M704 291q-53 0 -96 -25t-64 -70q37 26 88 26q55 0 87 -29t32 -74q0 -52 -40 -88.5t-109 -36.5q-70 0 -108.5 38.5t-38.5 95.5q0 93 70 157.5t175 64.5q18 0 34.5 -2t23.5 -4l8 -3l-25 -54q-16 4 -37 4zM76 401l51 173h232l-9 -61h-171l-17 -66q26 7 50 7q58 0 90.5 -30.5
t32.5 -74.5q0 -52 -42 -88.5t-114 -36.5q-79 0 -145 49l39 46q47 -33 98 -33q35 0 61 16t26 45q0 48 -64 48q-42 0 -76 -20zM645 574l-387 -574h-78l385 574h80zM612 167q-50 0 -83 -35v-9q0 -29 18.5 -49t51.5 -20q36 0 57 19t21 45q0 21 -16 35t-49 14z" />
    <glyph glyph-name="exclam.sc" horiz-adv-x="264" 
d="M20 0l20 123h120l-19 -123h-121zM251 574l-104 -390h-69l34 390h139z" />
    <glyph glyph-name="einferior" horiz-adv-x="371" 
d="M300 77q0 -55 -52.5 -77t-146.5 -22h-38q3 -70 65 -70q41 0 122 37l28 -60q-87 -42 -165 -42q-136 0 -136 139q0 83 52 136.5t141 53.5q60 0 95 -25t35 -70zM166 109q-38 0 -64 -23t-35 -61h37q112 0 112 50q0 34 -50 34z" />
    <glyph glyph-name="eight.tnum" horiz-adv-x="660" 
d="M30 171q0 136 197 214q-89 55 -89 142q0 82 68.5 133t181.5 51q104 0 164 -44t60 -116q0 -110 -152 -177q130 -67 130 -175q0 -94 -85 -152t-219 -58q-119 0 -187.5 48t-68.5 134zM458 205q0 72 -118 125q-37 -12 -64.5 -24t-56 -30t-43.5 -41.5t-15 -52.5q0 -44 34 -69
t92 -25q70 0 120.5 33t50.5 84zM262 515q0 -56 83 -92q140 43 140 111q0 33 -26.5 57t-71.5 24q-52 0 -88.5 -30t-36.5 -70z" />
    <glyph glyph-name="four.dnom" horiz-adv-x="435" 
d="M198 0l14 81h-228l10 63l249 276h121l-48 -265h66l-11 -74h-68l-14 -81h-91zM97 155h128l32 183z" />
    <glyph glyph-name="four.numr" horiz-adv-x="434" 
d="M247 280l14 81h-228l10 63l249 276h121l-48 -265h66l-11 -74h-68l-14 -81h-91zM146 435h128l32 183z" />
    <glyph glyph-name="four.onum" horiz-adv-x="649" 
d="M311 -126l25 141h-362l16 92l403 467h170l-79 -451h105l-18 -108h-106l-25 -141h-129zM133 123h222l58 330z" />
    <glyph glyph-name="four.tnum" horiz-adv-x="660" 
d="M7 141l15 92l404 467h163l-80 -451h100l-17 -108h-102l-25 -141h-126l25 141h-357zM165 249h218l56 323z" />
    <glyph glyph-name="fourfifths" horiz-adv-x="1018" 
d="M257 280l14 81h-228l10 63l249 276h121l-48 -265h66l-11 -74h-68l-14 -81h-91zM641 209l60 211h272l-12 -75h-197l-20 -79q29 8 58 8q67 0 103.5 -36.5t36.5 -91.5q0 -63 -48.5 -108t-132.5 -45q-92 0 -170 60l49 57q57 -40 112 -40q39 0 68 19.5t29 54.5
q0 27 -18.5 42.5t-51.5 15.5q-41 0 -89 -25zM809 700l-451 -700h-97l451 700h97zM156 435h128l32 183z" />
    <glyph glyph-name="fourfifths.onum" horiz-adv-x="887" 
d="M220 230l11 66h-197l7 51l216 227h99l-39 -218h57l-9 -60h-59l-11 -66h-75zM549 171l51 173h232l-9 -60h-171l-18 -67q28 7 52 7q58 0 90 -30t32 -75q0 -52 -42 -88.5t-114 -36.5q-75 0 -145 49l40 46q47 -32 96 -32q35 0 61.5 16t26.5 44q0 49 -64 49q-38 0 -76 -21z
M690 574l-387 -574h-80l388 574h79zM128 356h114l28 155z" />
    <glyph glyph-name="eight.onum" horiz-adv-x="644" 
d="M22 171q0 136 197 214q-89 56 -89 142q0 82 69 133t182 51q104 0 164 -44t60 -116q0 -110 -152 -177q129 -66 129 -175q0 -94 -84.5 -152t-218.5 -58q-120 0 -188.5 48t-68.5 134zM451 205q0 71 -118 125q-37 -12 -64.5 -24t-56 -30t-43.5 -41.5t-15 -52.5q0 -44 34 -69
t92 -25q70 0 120.5 33t50.5 84zM254 515q0 -56 84 -92q139 43 139 111q0 33 -26 57t-71 24q-52 0 -89 -30t-37 -70z" />
    <glyph glyph-name="eight.dnom" horiz-adv-x="427" 
d="M-1 105q0 81 121 127q-55 35 -55 85q0 48 44 79t117 31q68 0 107 -27t39 -71q0 -63 -90 -104q80 -40 80 -105q0 -57 -53.5 -92t-140.5 -35q-79 0 -124 30t-45 82zM269 124q0 39 -70 70q-50 -15 -78.5 -33t-28.5 -48q0 -51 77 -51q41 0 70.5 17t29.5 45zM154 308
q0 -32 45 -50q84 23 84 58q0 20 -15.5 32t-41.5 12q-31 0 -51.5 -15t-20.5 -37z" />
    <glyph glyph-name="dollar.onum" horiz-adv-x="581" 
d="M268 -82h-84l14 81q-105 19 -192 77l63 80q83 -45 147 -59l26 147l-23 9q-65 26 -102.5 61.5t-37.5 95.5q0 74 61 123t162 50l13 74h83l-15 -82q79 -16 172 -64l-62 -80q-58 31 -127 46l-24 -139l23 -8q31 -12 54 -24.5t46 -31t35 -45.5t12 -60q0 -78 -64 -127.5
t-167 -50.5zM386 156q0 37 -66 61l-22 -126q40 5 64 22t24 43zM207 419q0 -20 13.5 -31.5t42.5 -22.5l21 117q-34 -5 -55.5 -21t-21.5 -42z" />
    <glyph glyph-name="frenchfranc" horiz-adv-x="620" 
d="M14 115l13 75h64l90 510h471l-17 -110h-344l-36 -187h273l-17 -107h-273l-19 -106h178l-13 -75h-179l-20 -115h-128l20 115h-63z" />
    <glyph glyph-name="frenchfranc.onum" horiz-adv-x="556" 
d="M8 89l10 68h56l74 417h416l-16 -101h-298l-26 -137h235l-15 -99h-237l-14 -80h154l-10 -68h-156l-15 -89h-119l15 89h-54z" />
    <glyph glyph-name="frenchfrancinferior" horiz-adv-x="400" 
d="M-48 -86l8 51h42l54 305h305l-13 -76h-214l-18 -97h168l-13 -75h-167l-11 -57h112l-8 -51h-113l-11 -64h-91l11 64h-41z" />
    <glyph glyph-name="frenchfrancsuperior" horiz-adv-x="395" 
d="M59 449l8 51h42l54 305h305l-13 -76h-214l-18 -97h168l-13 -75h-167l-11 -57h112l-8 -51h-113l-11 -64h-91l11 64h-41z" />
    <glyph glyph-name="fsuperior" horiz-adv-x="280" 
d="M98 636l11 64h45l3 16q9 56 32 81t70 25q56 0 116 -30l-40 -56q-36 12 -57 12q-27 0 -32 -30l-4 -18h81l-10 -64h-82l-40 -222q-6 -32 -9 -45.5t-10.5 -34t-17 -29t-26 -20.5t-40 -19t-58.5 -15l-20 66q55 16 68.5 30.5t22.5 60.5l41 228h-44z" />
    <glyph glyph-name="dinferior" horiz-adv-x="404" 
d="M273 -150h-87l6 38q-58 -45 -119 -45q-43 0 -72.5 29t-29.5 91q0 92 43.5 150.5t112.5 58.5q54 0 108 -44l28 159h87zM107 -87q42 0 98 46l18 104q-37 39 -74 39q-40 0 -64 -39t-24 -93q0 -57 46 -57z" />
    <glyph glyph-name="csuperior" horiz-adv-x="356" 
d="M387 656l-40 -59q-54 35 -92 35q-40 0 -67.5 -30.5t-27.5 -77.5q0 -72 60 -72q31 0 99 31l30 -65q-94 -40 -148 -40q-59 0 -94.5 34.5t-35.5 103.5q0 86 49.5 138.5t118.5 52.5q11 0 23 -1.5t21 -3.5t21.5 -6.5t18.5 -7t19 -8.5t16 -8t16 -9z" />
    <glyph glyph-name="copyright.sc" horiz-adv-x="714" 
d="M46 261q0 135 88 228.5t241 93.5q133 0 211 -74.5t78 -195.5q0 -135 -87.5 -228.5t-240.5 -93.5q-133 0 -211.5 74.5t-78.5 195.5zM80 261q0 -106 69 -172.5t189 -66.5q134 0 213.5 83.5t79.5 207.5q0 106 -69 172.5t-189 66.5q-134 0 -213.5 -83.5t-79.5 -207.5z
M508 410l-28 -27q-60 46 -113 46q-57 0 -94.5 -51t-33.5 -127q3 -50 24 -78t59 -28q60 0 129 44l24 -30q-85 -51 -151 -51q-54 0 -90 37t-38 103q-6 100 44.5 158.5t127.5 58.5q67 0 140 -55z" />
    <glyph glyph-name="colonsuperior" horiz-adv-x="195" 
d="M100 573l17 99h91l-17 -99h-91zM67 385l17 99h91l-17 -99h-91z" />
    <glyph glyph-name="colonmonetarysuperior" horiz-adv-x="365" 
d="M156 385h-39l26 62q-59 33 -59 122q0 86 49 138t119 52q6 0 20 -2l20 48h41l-23 -55l16 -5l25 60h40l-31 -75l44 -22l-40 -59q-12 7 -31 17l-64 -156q28 7 67 25l30 -65q-78 -34 -130 -39l-19 -46h-41l19 46q-10 0 -19 3zM173 576q0 -25 7 -40l60 143
q-30 -10 -48.5 -37.5t-18.5 -65.5zM208 509q12 -4 18 -4l73 174q-6 2 -18 4z" />
    <glyph glyph-name="germandblsinferior" horiz-adv-x="450" 
d="M217 277q95 0 137 -38t32 -100l-1 -10l-58 -45q-46 22 -76 22q-19 0 -31 -8t-12 -21q0 -5 2 -9.5t6 -8t8.5 -6t12 -4.5t12.5 -4t14.5 -4t14.5 -4q41 -12 65.5 -33t24.5 -60q0 -45 -34 -73t-91 -28q-44 0 -86 15t-68 35l38 56q64 -40 110 -40q18 0 31.5 8.5t13.5 22.5
q0 4 -1 7t-3.5 6t-5 5.5t-7.5 4.5l-8.5 3.5t-10 4t-10 3.5t-11.5 3.5t-12 3.5q-90 27 -90 91q0 43 32 71.5t90 28.5q25 0 55 -7q-6 44 -83 44q-101 0 -115 -78l-49 -281h-88l52 291q13 67 60 101.5t140 34.5z" />
    <glyph glyph-name="germandblssuperior" horiz-adv-x="468" 
d="M316 812q95 0 137 -38t32 -100l-1 -10l-58 -45q-46 22 -76 22q-19 0 -31 -8t-12 -21q0 -5 2 -9.5t6 -8t8.5 -6t12 -4.5t12.5 -4t14.5 -4t14.5 -4q41 -12 65.5 -33t24.5 -60q0 -45 -34 -73t-91 -28q-44 0 -86 15t-68 35l38 56q64 -40 110 -40q18 0 31.5 8.5t13.5 22.5
q0 4 -1 7t-3.5 6t-5 5.5t-7.5 4.5l-8.5 3.5t-10 4t-10 3.5t-11.5 3.5t-12 3.5q-90 27 -90 91q0 43 32 71.5t90 28.5q25 0 55 -7q-6 44 -83 44q-101 0 -115 -78l-49 -281h-88l52 291q13 67 60 101.5t140 34.5z" />
    <glyph glyph-name="ginferior" horiz-adv-x="406" 
d="M247 165h88l-56 -317q-13 -72 -51 -99t-109 -27q-80 0 -169 24l27 70q78 -24 133 -24q70 0 80 53l7 42q-59 -44 -119 -44q-42 0 -71.5 29t-29.5 91q0 92 43.5 150.5t112.5 58.5q51 0 107 -44zM113 -87q43 0 97 44l19 106q-35 39 -74 39q-40 0 -64.5 -39t-24.5 -93
q0 -57 47 -57z" />
    <glyph glyph-name="colonmonetaryinferior" horiz-adv-x="364" 
d="M62 -150h-39l26 62q-59 34 -59 122q0 86 49.5 138t118.5 52q4 0 10.5 -0.5t9.5 -0.5l20 47h41l-23 -55q7 -1 16 -5l25 60h40l-31 -74l25 -13t19 -10l-40 -59q-12 7 -31 17l-64 -156q20 6 67 25l30 -65q-87 -35 -130 -39l-19 -46h-41l19 46l-19 3zM79 41q0 -25 7 -40
l60 143q-30 -10 -48.5 -37.5t-18.5 -65.5zM114 -25q13 -4 18 -5l73 174q-6 2 -18 4z" />
    <glyph glyph-name="colonmonetary.onum" horiz-adv-x="509" 
d="M148 0h-53l35 85q-82 43 -82 161q0 126 69 196t161 70q10 0 30 -2l27 64h53l-31 -74q16 -3 25 -7l34 81h54l-43 -101q26 -13 58 -31l-52 -77q-2 1 -17 9.5l-24 13.5l-93 -221q34 9 95 36l39 -86q-113 -46 -177 -53l-27 -64h-54l27 64q-18 2 -26 4zM166 255q0 -35 12 -57
l87 210q-43 -15 -71 -58.5t-28 -94.5zM217 165q12 -5 25 -5l103 247q-16 4 -25 5z" />
    <glyph glyph-name="coloninferior" horiz-adv-x="190" 
d="M4 38l17 99h91l-17 -99h-91zM-29 -150l17 99h91l-17 -99h-91z" />
    <glyph glyph-name="gsuperior" horiz-adv-x="426" 
d="M351 700h88l-56 -317q-13 -72 -51 -99t-109 -27q-80 0 -169 24l27 70q78 -24 133 -24q70 0 80 53l7 42q-59 -44 -119 -44q-42 0 -71.5 29t-29.5 91q0 92 43.5 150.5t112.5 58.5q51 0 107 -44zM217 448q43 0 97 44l19 106q-35 39 -74 39q-40 0 -64.5 -39t-24.5 -93
q0 -57 47 -57z" />
    <glyph glyph-name="cinferior" horiz-adv-x="350" 
d="M294 121l-40 -59q-54 35 -92 35q-40 0 -67.5 -30.5t-27.5 -77.5q0 -72 60 -72q31 0 99 31l30 -65q-94 -40 -148 -40q-59 0 -94.5 34.5t-35.5 103.5q0 86 49 138.5t119 52.5q55 0 148 -51z" />
    <glyph glyph-name="cent.onum" horiz-adv-x="507" 
d="M272 0h-83l11 63q-70 8 -112 54t-42 128q0 126 68.5 196t160.5 70h4l11 63h83l-14 -76q43 -13 124 -57l-52 -77q-50 30 -88 42l-42 -239q40 12 91 35l39 -86q-91 -37 -147 -48zM163 254q0 -74 54 -91l43 242q-42 -16 -69.5 -58.5t-27.5 -92.5z" />
    <glyph glyph-name="c_t" horiz-adv-x="920" 
d="M569 433l16 92h70l5 25q20 120 -77 120q-53 0 -89.5 -35t-36.5 -90q0 -34 13 -57l51 -28l-59 -85q-3 2 -19.5 11.5t-27.5 15t-28 13t-33.5 11.5t-31.5 4q-67 0 -115 -63t-48 -148q0 -58 25 -91t74 -33q15 0 32 3.5t36.5 11t31 12.5t32.5 15t24 11l43 -95
q-145 -64 -224 -64q-90 0 -146 57t-56 162q0 154 80 241t186 87q49 0 105 -18q-4 15 -4 37q0 74 55 124t145 50q99 0 149.5 -50.5t34.5 -139.5l-3 -14h142l-15 -92h-143l-51 -285q-10 -51 34 -51q29 0 92 24l31 -97q-102 -35 -161 -35q-68 0 -100 43.5t-17 129.5l48 271h-70
z" />
    <glyph glyph-name="c_l" horiz-adv-x="786" 
d="M662 0h-123l118 670h-66q-56 0 -92 -34.5t-36 -90.5q0 -36 12 -59q34 -20 46 -26l-59 -85q-3 2 -19.5 11.5t-27.5 15t-28 13t-33.5 11.5t-31.5 4q-67 0 -115 -63t-48 -148q0 -58 25 -91t74 -33q15 0 32 3.5t36.5 11t31 12.5t32.5 15t24 11l43 -95q-145 -64 -224 -64
q-90 0 -146 57t-56 162q0 154 80 241t186 87q51 0 111 -20q-4 16 -4 39q0 75 49.5 124.5t135.5 49.5h202z" />
    <glyph glyph-name="c_k" horiz-adv-x="1070" 
d="M1078 525l-218 -214l156 -311h-126l-114 228l-93 -91l-24 -137h-123l118 670h-63q-56 0 -92 -34.5t-36 -90.5q0 -36 12 -59q34 -20 46 -26l-59 -85q-3 2 -19.5 11.5t-27.5 15t-28 13t-33.5 11.5t-31.5 4q-67 0 -115 -63t-48 -148q0 -58 25 -91t74 -33q15 0 32 3.5
t36.5 11t31 12.5t32.5 15t24 11l43 -95q-145 -64 -224 -64q-90 0 -146 57t-56 162q0 154 80 241t186 87q51 0 111 -20q-4 16 -4 39q0 75 49.5 124.5t135.5 49.5h199l-76 -427l216 223h150z" />
    <glyph glyph-name="c_h" horiz-adv-x="1134" 
d="M788 729l-48 -269q113 76 206 76q83 0 116.5 -48t18.5 -130l-63 -358h-124l62 345q16 93 -58 93q-40 0 -90.5 -23.5t-84.5 -50.5l-64 -364h-123l118 670h-63q-56 0 -92 -34.5t-36 -90.5q0 -36 12 -59q34 -20 46 -26l-59 -85q-3 2 -19.5 11.5t-27.5 15t-28 13t-33.5 11.5
t-31.5 4q-67 0 -115 -63t-48 -148q0 -58 25 -91t74 -33q15 0 32 3.5t36.5 11t31 12.5t32.5 15t24 11l43 -95q-145 -64 -224 -64q-90 0 -146 57t-56 162q0 154 80 241t186 87q51 0 111 -20q-4 16 -4 39q0 75 49.5 124.5t135.5 49.5h199z" />
    <glyph glyph-name="hinferior" horiz-adv-x="397" 
d="M137 287l-28 -159q67 44 126 44q53 0 74.5 -29.5t12.5 -80.5l-37 -212h-87l36 202q10 52 -34 52q-24 0 -54 -13.5t-49 -28.5l-37 -212h-88l77 437h88z" />
    <glyph glyph-name="brokenbar.sc" horiz-adv-x="245" 
d="M171 332h-86l60 339h86zM95 -101h-86l60 339h86z" />
    <glyph glyph-name="bracketrightsuperior" horiz-adv-x="251" 
d="M194 299h-168l9 51h77l86 487h-77l9 51h168z" />
    <glyph glyph-name="bracketrightinferior" horiz-adv-x="255" 
d="M103 -236h-168l9 51h77l86 487h-77l9 51h168z" />
    <glyph glyph-name="bracketright.sc" horiz-adv-x="339" 
d="M187 -118h-227l13 69h106l119 668h-108l12 69h227z" />
    <glyph glyph-name="bracketleftsuperior" horiz-adv-x="249" 
d="M223 299h-168l104 589h168l-10 -51h-76l-86 -487h77z" />
    <glyph glyph-name="bracketleftinferior" horiz-adv-x="254" 
d="M131 -236h-168l104 589h168l-10 -51h-76l-86 -487h77z" />
    <glyph glyph-name="bracketleft.sc" horiz-adv-x="339" 
d="M232 -118h-227l142 806h227l-12 -69h-107l-119 -668h107z" />
    <glyph glyph-name="bracerightsuperior" horiz-adv-x="274" 
d="M308 621l-10 -55q-68 1 -70 -67l-3 -60q-4 -73 -46 -106.5t-125 -33.5h-27l8 50h12q79 0 85 79l2 54q2 56 26.5 81t75.5 31q-96 20 -62 117l12 37q29 90 -51 90h-12l8 50h12q78 0 117 -38t17 -108l-17 -53q-23 -68 48 -68z" />
    <glyph glyph-name="bracerightinferior" horiz-adv-x="277" 
d="M216 86l-10 -55q-68 1 -70 -67l-3 -60q-4 -73 -46 -106.5t-125 -33.5h-27l8 50h12q79 0 85 79l2 54q2 56 26.5 81t75.5 31q-96 20 -62 117l12 37q29 90 -51 90h-12l8 50h12q78 0 117 -38t17 -108l-17 -53q-23 -68 48 -68z" />
    <glyph glyph-name="iinferior" horiz-adv-x="191" 
d="M60 -150h-88l56 315h88zM34 210l13 76h92l-13 -76h-92z" />
    <glyph glyph-name="braceright.sc" horiz-adv-x="375" 
d="M347 322l-13 -73q-95 0 -99 -93l-3 -82q-4 -99 -61 -145t-174 -46h-35l11 66h16q64 0 91 30t30 81l3 74q3 75 36 109.5t101 43.5q-128 27 -83 158l17 51q39 125 -74 125h-16l10 67h16q109 0 161 -52t22 -149l-23 -72q-30 -93 67 -93z" />
    <glyph glyph-name="braceleftsuperior" horiz-adv-x="272" 
d="M67 566l9 55q69 0 73 67l2 60q4 73 46 106.5t125 33.5h27l-8 -50h-12q-79 0 -85 -79l-2 -55q-3 -55 -27 -80t-72 -32q91 -20 59 -116l-12 -36q-30 -91 51 -91h12l-8 -50h-12q-78 0 -116.5 38t-17.5 109l16 53q20 67 -48 67z" />
    <glyph glyph-name="braceleftinferior" horiz-adv-x="278" 
d="M-24 31l9 55q69 0 73 67l2 60q4 73 46 106.5t125 33.5h27l-8 -50h-12q-79 0 -85 -79l-2 -55q-3 -55 -27 -80t-72 -32q91 -20 59 -116l-12 -36q-30 -91 51 -91h12l-8 -50h-12q-78 0 -116.5 38t-17.5 109l16 53q20 67 -48 67z" />
    <glyph glyph-name="braceleft.sc" horiz-adv-x="375" 
d="M23 249l13 73q54 -1 76.5 26t23.5 66l2 82q3 100 60.5 146t174.5 46h35l-11 -67h-16q-114 0 -120 -111l-3 -74q-4 -76 -37.5 -110t-101.5 -43q129 -27 85 -157l-17 -52q-42 -125 73 -125h16l-10 -66h-16q-108 0 -160.5 51.5t-22.5 148.5l23 73q30 93 -67 93z" />
    <glyph glyph-name="binferior" horiz-adv-x="400" 
d="M-28 -150l77 437h88l-28 -157q57 42 114 42q44 0 75.5 -29.5t31.5 -91.5q0 -92 -42.5 -150t-111.5 -58q-55 0 -110 43l-6 -36h-88zM189 102q-38 0 -92 -42l-19 -109q36 -38 77 -38q39 0 62 38.5t23 91.5q0 59 -51 59z" />
    <glyph glyph-name="bar.sc" horiz-adv-x="245" 
d="M95 -101h-86l136 772h86z" />
    <glyph glyph-name="backslash.sc" horiz-adv-x="417" 
d="M249 -74l-162 722h83l161 -722h-82z" />
    <glyph glyph-name="at.sc" horiz-adv-x="790" 
d="M315 -105q42 0 81.5 9t57.5 18l18 9l21 -35q-8 -5 -23 -12t-62 -19t-94 -12q-132 0 -209.5 84.5t-77.5 215.5q0 110 51 203.5t147.5 150t218.5 56.5q82 0 143.5 -25.5t95 -69.5t47.5 -97.5t8 -113.5q-4 -35 -11 -68.5t-23 -73.5t-37.5 -69.5t-56 -49.5t-77.5 -20
q-55 0 -76 30t-19 68q-70 -55 -141 -55q-46 0 -75.5 27.5t-29.5 72.5q0 69 44 107.5t108 38.5q16 0 35.5 -2.5t32.5 -5t31.5 -6.5t23.5 -5l7 35q7 37 -5 53t-50 16q-53 0 -138 -33l-19 61q109 38 180 38q70 0 99 -32.5t16 -101.5l-25 -143q-5 -27 -7 -42t-1 -32.5t10 -25.5
t26 -8q46 0 86 65t48 161q6 49 -4.5 94t-37 84t-79.5 62t-126 23q-170 0 -273 -107.5t-103 -259.5q0 -114 65 -186t179 -72zM448 135l11 66q-77 14 -92 14q-44 0 -65 -23.5t-21 -57.5q0 -49 52 -49t115 50z" />
    <glyph glyph-name="asterisksuperior" horiz-adv-x="297" 
d="M155 580l40 89l-84 -55l-25 68l100 9l-91 43l47 55l61 -80l-8 97l72 -13l-40 -88l83 56l26 -69l-97 -9l87 -42l-46 -56l-59 76l6 -93z" />
    <glyph glyph-name="jinferior" horiz-adv-x="192" 
d="M34 210l13 76h93l-14 -76h-92zM116 165l-54 -307q-6 -37 -11 -53.5t-21 -36.5t-45 -31t-80 -22l-20 65q55 17 69 28.5t19 42.5l56 314h87z" />
    <glyph glyph-name="asteriskinferior" horiz-adv-x="310" 
d="M73 45l40 89l-84 -55l-25 68l100 9l-91 43l47 55l61 -80l-8 97l72 -13l-40 -88l83 56l26 -69l-97 -9l87 -42l-46 -56l-59 76l6 -93z" />
    <glyph glyph-name="ampersandsuperior" horiz-adv-x="468" 
d="M467 385h-93l-33 37q-66 -44 -140 -44q-63 0 -101.5 29t-38.5 77q0 42 30 72t82 57q-41 50 -41 91q0 48 38 78t95 30q53 0 86.5 -26t33.5 -66q0 -36 -28.5 -64t-79.5 -58l64 -73q31 39 46 81h88q-25 -77 -82 -138zM204 443q44 0 89 34l-77 86q-67 -41 -67 -77
q0 -17 13 -30t42 -13zM213 703q0 -28 23 -58q71 35 71 70q0 34 -43 34q-25 0 -38 -12.5t-13 -33.5z" />
    <glyph glyph-name="ampersandinferior" horiz-adv-x="444" 
d="M371 -150h-93l-33 38q-65 -45 -140 -45q-63 0 -101.5 29t-38.5 77q0 42 30 72t82 57q-41 50 -41 91q0 48 38 78t95 30q53 0 86.5 -26t33.5 -66q0 -36 -28.5 -64t-79.5 -58l64 -72q31 37 46 80h88q-24 -75 -82 -138zM108 -92q44 0 89 34l-77 86q-67 -41 -67 -77
q0 -17 13 -30t42 -13zM117 168q0 -28 23 -58q71 36 71 70t-43 34q-25 0 -38 -12.5t-13 -33.5z" />
    <glyph glyph-name="ampersand.sc" horiz-adv-x="629" 
d="M570 0h-122l-48 54q-90 -63 -195 -63q-86 0 -138.5 39.5t-52.5 105.5q0 58 41.5 99t113.5 78q-56 66 -56 124q0 66 51.5 106t128.5 40q71 0 117 -35t46 -88q0 -50 -39 -89t-109 -79l92 -103q43 56 64 114h116q-30 -101 -112 -190zM210 77q63 0 126 48l-108 121
q-48 -29 -73.5 -54t-25.5 -54q0 -26 20 -43.5t61 -17.5zM217 432q0 -33 35 -77q48 25 73 47.5t25 50.5q0 20 -14.5 33.5t-43.5 13.5q-35 0 -55 -20t-20 -48z" />
    <glyph glyph-name="kinferior" horiz-adv-x="365" 
d="M323 165l-136 -128l100 -187h-89l-70 131l-55 -52l-13 -79h-88l77 437h88l-44 -246l123 124h107z" />
    <glyph glyph-name="ksuperior" horiz-adv-x="379" 
d="M416 700l-136 -128l100 -187h-89l-70 131l-55 -53l-13 -78h-88l77 437h88l-44 -246l123 124h107z" />
    <glyph glyph-name="ainferior" horiz-adv-x="407" 
d="M280 -150h-88l6 38q-58 -45 -119 -45q-43 0 -72.5 29t-29.5 91q0 92 43.5 150.5t112.5 58.5q53 0 108 -45l7 38h87zM113 -87q42 0 98 46l18 104q-37 39 -74 39q-40 0 -64 -39t-24 -93q0 -57 46 -57z" />
    <glyph glyph-name="Zsuperior" horiz-adv-x="419" 
d="M470 805l-11 -69l-280 -275h232l-13 -76h-353l12 69l280 275h-216l14 76h335z" />
    <glyph glyph-name="Zinferior" horiz-adv-x="419" 
d="M376 270l-11 -69l-280 -275h232l-13 -76h-353l12 69l280 275h-216l14 76h335z" />
    <glyph glyph-name="Zdotaccent.sc" horiz-adv-x="560" 
d="M565 574l-16 -91l-392 -382h327l-18 -101h-485l16 92l389 381h-300l17 101h462zM286 628l19 112h109l-19 -112h-109z" />
    <glyph glyph-name="Zcaron.sc" horiz-adv-x="560" 
d="M565 574l-16 -91l-392 -382h327l-18 -101h-485l16 92l389 381h-300l17 101h462zM276 618l-78 135h80l65 -78l93 78h92l-126 -135h-126z" />
    <glyph glyph-name="Zacute.sc" horiz-adv-x="560" 
d="M565 574l-16 -91l-392 -382h327l-18 -101h-485l16 92l389 381h-300l17 101h462zM352 618h-108l142 135h156z" />
    <glyph glyph-name="Z.sc" horiz-adv-x="560" 
d="M467 0h-486l16 92l390 381h-300l17 101h461l-15 -91l-392 -382h326z" />
    <glyph glyph-name="linferior" horiz-adv-x="190" 
d="M59 -150h-87l77 437h88z" />
    <glyph glyph-name="Ysuperior" horiz-adv-x="411" 
d="M175 385l29 167l-113 253h96l70 -183l134 183h106l-202 -253l-29 -167h-91z" />
    <glyph glyph-name="lira.onum" horiz-adv-x="516" 
d="M60 271l9 56h52q-23 54 -23 96q0 73 51.5 116.5t140.5 43.5q104 0 219 -79l-59 -70q-81 50 -140 50q-45 0 -70 -21t-25 -53q0 -25 27 -83h166l-10 -56h-139q2 -16 2 -23q0 -12 -1 -18h130l-9 -56h-140q-26 -46 -72 -75h255l-17 -99h-404l14 80q9 4 23 11t45 31t47 52h-89
l9 56h96v4q0 17 -5 37h-83z" />
    <glyph glyph-name="lirainferior" horiz-adv-x="370" 
d="M1 49l6 40h37q-16 36 -16 70q0 54 37 86t102 32q34 0 69 -11.5t51 -21l43 -26.5l-45 -54q-60 38 -102 38q-30 0 -47.5 -15.5t-17.5 -36.5q0 -17 21 -61h117l-7 -40h-96q2 -12 2 -17q0 -3 -0.5 -7t-0.5 -6h90l-8 -40h-98q-6 -9 -14 -18t-13.5 -14.5t-14 -12.5t-10.5 -9
h181l-11 -75h-297l9 61q59 22 84 68h-64l7 40h68v2q0 10 -4 28h-58z" />
    <glyph glyph-name="lirasuperior" horiz-adv-x="380" 
d="M101 584l6 40h37q-16 36 -16 70q0 54 37 86t102 32q34 0 69 -11.5t51 -21l43 -26.5l-45 -54q-60 38 -102 38q-30 0 -47.5 -15.5t-17.5 -36.5q0 -17 21 -61h117l-7 -40h-96q2 -12 2 -17q0 -3 -0.5 -7t-0.5 -6h90l-8 -40h-98q-6 -9 -14 -18t-13.5 -14.5t-14 -12.5t-10.5 -9
h181l-11 -75h-297l9 61q59 22 84 68h-64l7 40h68v2q0 10 -4 28h-58z" />
    <glyph glyph-name="Yinferior" horiz-adv-x="411" 
d="M81 -150l29 167l-113 253h96l70 -183l134 183h106l-202 -253l-29 -167h-91z" />
    <glyph glyph-name="Ygrave.sc" horiz-adv-x="580" 
d="M176 0l39 227l-157 347h126l100 -255l189 255h140l-278 -345l-40 -229h-119zM440 618h-95l-147 135h140z" />
    <glyph glyph-name="Ydieresis.sc" horiz-adv-x="580" 
d="M176 0l39 227l-157 347h126l100 -255l189 255h140l-278 -345l-40 -229h-119zM201 628l20 112h108l-19 -112h-109zM382 628l20 112h106l-19 -112h-107z" />
    <glyph glyph-name="Yacute.sc" horiz-adv-x="580" 
d="M176 0l39 227l-157 347h126l100 -255l189 255h140l-278 -345l-40 -229h-119zM356 618h-108l144 135h155z" />
    <glyph glyph-name="Y.sc" horiz-adv-x="580" 
d="M176 0l39 227l-157 347h126l100 -255l189 255h140l-278 -345l-40 -229h-119z" />
    <glyph glyph-name="Xsuperior" horiz-adv-x="425" 
d="M108 805h100l62 -156l115 156h110l-176 -209l110 -211h-102l-66 153l-120 -153h-115l183 211z" />
    <glyph glyph-name="Xinferior" horiz-adv-x="425" 
d="M14 270h100l62 -156l115 156h110l-176 -209l110 -211h-102l-66 153l-120 -153h-115l183 211z" />
    <glyph glyph-name="minferior" horiz-adv-x="594" 
d="M112 165l-7 -39q57 46 113 46q72 0 85 -56q21 20 56 38t68 18q52 0 73 -29t12 -79l-37 -214h-88l37 202q11 52 -31 52q-41 0 -91 -45l-37 -209h-88l37 202q9 52 -31 52q-39 0 -90 -44l-37 -210h-88l56 315h88z" />
    <glyph glyph-name="X.sc" horiz-adv-x="572" 
d="M70 574h129l90 -219l164 219h146l-244 -287l153 -287h-133l-96 215l-169 -215h-151l253 288z" />
    <glyph glyph-name="Wsuperior" horiz-adv-x="612" 
d="M400 385l-26 297l-132 -297h-91l-48 420h101l18 -297l132 297h78l25 -297l122 297h108l-196 -420h-91z" />
    <glyph glyph-name="Winferior" horiz-adv-x="611" 
d="M305 -150l-26 297l-132 -297h-91l-48 420h101l18 -297l132 297h78l25 -297l122 297h108l-196 -420h-91z" />
    <glyph glyph-name="Wgrave.sc" horiz-adv-x="849" 
d="M482 0l-38 420l-189 -420h-117l-67 574h132l28 -419l188 419h100l36 -420l174 420h141l-269 -574h-119zM571 618h-95l-147 135h140z" />
    <glyph glyph-name="Wdieresis.sc" horiz-adv-x="849" 
d="M482 0l-38 420l-189 -420h-117l-67 574h132l28 -419l188 419h100l36 -420l174 420h141l-269 -574h-119zM336 628l19 112h109l-20 -112h-108zM517 628l19 112h107l-20 -112h-106z" />
    <glyph glyph-name="Wcircumflex.sc" horiz-adv-x="849" 
d="M482 0l-38 420l-189 -420h-117l-67 574h132l28 -419l188 419h100l36 -420l174 420h141l-269 -574h-119zM565 753l79 -135h-80l-66 78l-92 -78h-92l126 135h125z" />
    <glyph glyph-name="Wacute.sc" horiz-adv-x="849" 
d="M482 0l-38 420l-189 -420h-117l-67 574h132l28 -419l188 419h100l36 -420l174 420h141l-269 -574h-119zM491 618h-109l144 135h156z" />
    <glyph glyph-name="W.sc" horiz-adv-x="849" 
d="M482 0l-38 420l-189 -420h-117l-67 574h132l28 -419l188 419h100l36 -420l174 420h141l-269 -574h-119z" />
    <glyph glyph-name="Vsuperior" horiz-adv-x="447" 
d="M199 805l53 -322l163 322h112l-239 -420h-100l-91 420h102z" />
    <glyph glyph-name="Vinferior" horiz-adv-x="447" 
d="M105 270l53 -321l163 321h112l-239 -420h-100l-91 420h102z" />
    <glyph glyph-name="nine.dnom" horiz-adv-x="418" 
d="M81 66q60 0 110 29.5t73 84.5q-42 -31 -101 -31q-63 0 -99.5 35t-36.5 89q0 64 47 109t127 45q81 0 126 -47t45 -114q0 -114 -82 -193.5t-205 -79.5q-22 0 -41.5 3t-27.5 6l-9 2l31 66q18 -4 43 -4zM189 216q30 0 55.5 14.5t37.5 30.5v10q0 35 -20.5 58.5t-57.5 23.5
q-41 0 -64 -23t-23 -55q0 -25 18 -42t54 -17z" />
    <glyph glyph-name="nine.numr" horiz-adv-x="418" 
d="M131 346q60 0 110 29.5t73 84.5q-42 -31 -101 -31q-63 0 -99.5 35t-36.5 89q0 64 47 109t127 45q81 0 126 -47t45 -114q0 -114 -82 -193.5t-205 -79.5q-22 0 -41.5 2.5t-27.5 5.5l-9 3l31 66q18 -4 43 -4zM239 496q30 0 55.5 14.5t37.5 30.5v10q0 35 -20.5 58.5
t-57.5 23.5q-41 0 -64 -23t-23 -55q0 -25 18 -42t54 -17z" />
    <glyph glyph-name="nine.onum" horiz-adv-x="624" 
d="M121 -38q99 0 181 57t120 157q-70 -58 -168 -58t-155 58t-57 144q0 106 74 182.5t201 76.5q124 0 192.5 -75.5t68.5 -182.5q0 -194 -130 -329t-323 -135q-33 0 -62.5 4.5t-42.5 8.5l-13 4l47 95q28 -7 67 -7zM291 215q50 0 93 26t64 56q0 5 0.5 15t0.5 16
q0 60 -33.5 102.5t-94.5 42.5q-70 0 -110 -44.5t-40 -103.5q0 -46 30.5 -78t89.5 -32z" />
    <glyph glyph-name="nine.tnum" horiz-adv-x="660" 
d="M160 94q99 0 181 57t120 157q-70 -58 -168 -58t-155 58t-57 144q0 106 74 182.5t201 76.5q124 0 192.5 -75.5t68.5 -182.5q0 -194 -130 -329t-323 -135q-33 0 -62.5 4.5t-42.5 8.5l-13 4l47 95q28 -7 67 -7zM330 347q50 0 93 26t64 56q0 5 0.5 15t0.5 16
q0 60 -33.5 102.5t-94.5 42.5q-70 0 -110 -44.5t-40 -103.5q0 -46 30.5 -78t89.5 -32z" />
    <glyph glyph-name="V.sc" horiz-adv-x="623" 
d="M196 574l77 -449l232 449h147l-329 -574h-132l-127 574h132z" />
    <glyph glyph-name="Utilde.sc" horiz-adv-x="628" 
d="M258 625l-54 35q22 31 34.5 46.5t33.5 28.5t46 13q29 0 69 -24t55 -24q23 0 59 47l54 -35q-22 -32 -34.5 -47.5t-33.5 -28.5t-46 -13q-29 0 -68.5 24t-54.5 24q-25 0 -60 -46zM608 574l-63 -359q-9 -50 -26 -87.5t-48 -70t-81.5 -49.5t-118.5 -17q-75 0 -124.5 19.5
t-70.5 53.5t-26.5 80.5t6.5 99.5l58 330h119l-63 -353q-11 -61 9.5 -94.5t91.5 -33.5q132 0 155 128l63 353h119z" />
    <glyph glyph-name="ninferior" horiz-adv-x="400" 
d="M112 165l-7 -36q68 43 126 43q53 0 74.5 -29.5t12.5 -80.5l-37 -212h-87l36 202q10 52 -34 52q-24 0 -54 -13t-48 -29l-38 -212h-88l56 315h88z" />
    <glyph glyph-name="Usuperior" horiz-adv-x="468" 
d="M502 805l-46 -262q-14 -77 -59 -121t-140 -44q-107 0 -140.5 50t-18.5 138l42 239h91l-45 -258q-8 -44 6 -68t65 -24q92 0 108 92l46 258h91z" />
    <glyph glyph-name="Uring.sc" horiz-adv-x="628" 
d="M273 717q0 46 31.5 78t77.5 32q45 0 77 -32t32 -78q0 -45 -32 -77t-77 -32q-46 0 -77.5 32t-31.5 77zM335 717q0 -20 13.5 -33.5t33.5 -13.5t33.5 14t13.5 33q0 20 -13.5 34t-33.5 14t-33.5 -14t-13.5 -34zM608 574l-63 -359q-9 -50 -26 -87.5t-48 -70t-81.5 -49.5
t-118.5 -17q-75 0 -124.5 19.5t-70.5 53.5t-26.5 80.5t6.5 99.5l58 330h119l-63 -353q-11 -61 9.5 -94.5t91.5 -33.5q132 0 155 128l63 353h119z" />
    <glyph glyph-name="Uogonek.sc" 
d="M609 574l-63 -359q-16 -86 -59 -141.5t-129 -73.5q-112 -57 -112 -102q0 -5 1.5 -9.5t4.5 -7t6.5 -5t9 -3.5t9.5 -2t11 -1h10.5h10.5h9l-23 -60h-5q-130 -1 -130 76q0 58 95 105q-70 2 -116 22.5t-65 54.5t-24 79t7 97l58 330h119l-63 -353q-11 -61 9.5 -94.5t91.5 -33.5
q132 0 155 128l63 353h119z" />
    <glyph glyph-name="Umacron.sc" horiz-adv-x="628" 
d="M221 643l14 75h299l-13 -75h-300zM608 574l-63 -359q-9 -50 -26 -87.5t-48 -70t-81.5 -49.5t-118.5 -17q-75 0 -124.5 19.5t-70.5 53.5t-26.5 80.5t6.5 99.5l58 330h119l-63 -353q-11 -61 9.5 -94.5t91.5 -33.5q132 0 155 128l63 353h119z" />
    <glyph glyph-name="numbersign.onum" horiz-adv-x="656" 
d="M296 0l44 131h-134l-44 -131h-90l44 131h-102l14 86h117l46 139h-101l13 87h118l44 131h91l-44 -131h133l44 131h90l-44 -131h102l-13 -87h-119l-47 -139h104l-14 -86h-119l-44 -131h-89zM282 356l-47 -139h134l46 139h-133z" />
    <glyph glyph-name="numbersigninferior" horiz-adv-x="474" 
d="M168 -150l31 94h-93l-32 -94h-69l32 94h-72l11 66h83l34 99h-72l10 66h84l32 95h69l-32 -95h92l32 95h69l-32 -95h74l-11 -66h-85l-33 -99h74l-11 -66h-85l-31 -94h-69zM162 109l-34 -99h93l33 99h-92z" />
    <glyph glyph-name="numbersignsuperior" horiz-adv-x="474" 
d="M266 385l31 94h-93l-32 -94h-69l32 94h-72l11 66h83l34 99h-72l10 66h84l32 95h69l-32 -95h92l32 95h69l-32 -95h74l-11 -66h-85l-33 -99h74l-11 -66h-85l-31 -94h-69zM260 644l-34 -99h93l33 99h-92z" />
    <glyph glyph-name="Uinferior" horiz-adv-x="469" 
d="M409 270l-46 -262q-14 -77 -59 -121t-140 -44q-107 0 -140.5 50t-18.5 138l42 239h92l-47 -258q-8 -44 6.5 -68t65.5 -24t75.5 24t32.5 68l46 258h91z" />
    <glyph glyph-name="Uhungarumlaut.sc" horiz-adv-x="628" 
d="M472 618h-76l99 135h124zM305 618h-76l100 135h123zM608 574l-63 -359q-9 -50 -26 -87.5t-48 -70t-81.5 -49.5t-118.5 -17q-75 0 -124.5 19.5t-70.5 53.5t-26.5 80.5t6.5 99.5l58 330h119l-63 -353q-11 -61 9.5 -94.5t91.5 -33.5q132 0 155 128l63 353h119z" />
    <glyph glyph-name="Ugrave.sc" horiz-adv-x="628" 
d="M459 618h-95l-147 135h140zM608 574l-63 -359q-9 -50 -26 -87.5t-48 -70t-81.5 -49.5t-118.5 -17q-75 0 -124.5 19.5t-70.5 53.5t-26.5 80.5t6.5 99.5l58 330h119l-63 -353q-11 -61 9.5 -94.5t91.5 -33.5q132 0 155 128l63 353h119z" />
    <glyph glyph-name="Udieresis.sc" horiz-adv-x="628" 
d="M225 628l19 112h109l-20 -112h-108zM406 628l19 112h108l-19 -112h-108zM608 574l-63 -359q-9 -50 -26 -87.5t-48 -70t-81.5 -49.5t-118.5 -17q-75 0 -124.5 19.5t-70.5 53.5t-26.5 80.5t6.5 99.5l58 330h119l-63 -353q-11 -61 9.5 -94.5t91.5 -33.5q132 0 155 128
l63 353h119z" />
    <glyph glyph-name="Ucircumflex.sc" horiz-adv-x="628" 
d="M454 753l78 -135h-79l-66 78l-93 -78h-92l127 135h125zM608 574l-63 -359q-9 -50 -26 -87.5t-48 -70t-81.5 -49.5t-118.5 -17q-75 0 -124.5 19.5t-70.5 53.5t-26.5 80.5t6.5 99.5l58 330h119l-63 -353q-11 -61 9.5 -94.5t91.5 -33.5q132 0 155 128l63 353h119z" />
    <glyph glyph-name="Ubreve.sc" horiz-adv-x="628" 
d="M370 618q-72 0 -108.5 32.5t-28.5 85.5h79q-6 -47 59 -47q84 0 93 47h80q-10 -55 -55.5 -86.5t-118.5 -31.5zM608 574l-63 -359q-9 -50 -26 -87.5t-48 -70t-81.5 -49.5t-118.5 -17q-75 0 -124.5 19.5t-70.5 53.5t-26.5 80.5t6.5 99.5l58 330h119l-63 -353
q-11 -61 9.5 -94.5t91.5 -33.5q132 0 155 128l63 353h119z" />
    <glyph glyph-name="Uacute.sc" horiz-adv-x="628" 
d="M381 618h-109l143 135h155zM608 574l-63 -359q-9 -50 -26 -87.5t-48 -70t-81.5 -49.5t-118.5 -17q-75 0 -124.5 19.5t-70.5 53.5t-26.5 80.5t6.5 99.5l58 330h119l-63 -353q-11 -61 9.5 -94.5t91.5 -33.5q132 0 155 128l63 353h119z" />
    <glyph glyph-name="U.sc" 
d="M609 574l-63 -359q-9 -50 -26 -87.5t-48 -70t-81.5 -49.5t-118.5 -17q-75 0 -124.5 19.5t-70.5 53.5t-26.5 80.5t6.5 99.5l58 330h119l-63 -353q-11 -61 9.5 -94.5t91.5 -33.5q132 0 155 128l63 353h119z" />
    <glyph glyph-name="Tsuperior" horiz-adv-x="385" 
d="M442 729h-128l-60 -344h-92l61 344h-130l14 76h348z" />
    <glyph glyph-name="oinferior" horiz-adv-x="398" 
d="M158 172q77 0 121.5 -38.5t44.5 -105.5q0 -79 -48 -132t-132 -53q-78 0 -122 38t-44 106q0 79 48 132t132 53zM142 -90q43 0 67.5 37t24.5 81q0 76 -74 76q-43 0 -67.5 -36.5t-24.5 -81.5q0 -76 74 -76z" />
    <glyph glyph-name="Tinferior" horiz-adv-x="386" 
d="M348 194h-128l-60 -344h-92l61 344h-130l14 76h348z" />
    <glyph glyph-name="Thorn.sc" horiz-adv-x="596" 
d="M561 315q0 -83 -64.5 -143t-182.5 -60h-154l-19 -112h-119l101 574h119l-17 -93h105q112 0 171.5 -41.5t59.5 -124.5zM438 313q0 69 -109 69h-120l-32 -172h118q65 0 104 27t39 76z" />
    <glyph glyph-name="one.dnom" horiz-adv-x="270" 
d="M159 0h-92l61 330l-80 -37l-29 63l129 64h85z" />
    <glyph glyph-name="one.numr" horiz-adv-x="271" 
d="M208 280h-91l61 330l-80 -37l-30 63l129 64h85z" />
    <glyph glyph-name="one.onum" horiz-adv-x="391" 
d="M260 0h-128l80 444l-130 -63l-40 91l199 102h120z" />
    <glyph glyph-name="one.tnum" horiz-adv-x="660" 
d="M23 0l18 107h204l83 463l-162 -78l-40 91l231 117h121l-104 -593h203l-18 -107h-536z" />
    <glyph glyph-name="Tcedilla.sc" horiz-adv-x="518" 
d="M52 -160l36 64q24 -12 50 -12q56 0 56 49q0 32 -16 59h-31l84 473h-181l17 101h479l-18 -101h-178l-84 -473h-33q26 -35 26 -79q0 -49 -33 -75t-86 -26q-51 0 -88 20z" />
    <glyph glyph-name="oneeighth.onum" horiz-adv-x="765" 
d="M377 87q0 67 103 103q-48 29 -48 71q0 39 37.5 64t99.5 25q59 0 93 -22.5t34 -58.5q0 -50 -79 -85q70 -34 70 -87q0 -46 -46 -74.5t-120 -28.5q-67 0 -105.5 24.5t-38.5 68.5zM564 574l-387 -574h-80l387 574h80zM184 230h-75l50 272l-69 -31l-25 51l110 52h69zM611 101
q0 34 -65 59q-28 -8 -45.5 -15t-33 -21t-15.5 -31q0 -43 69 -43q38 0 64 14t26 37zM505 253q0 -25 42 -42q75 20 75 48q0 17 -14 27t-38 10q-28 0 -46.5 -12.5t-18.5 -30.5z" />
    <glyph glyph-name="onefifth" horiz-adv-x="880" 
d="M501 209l61 211h272l-12 -75h-197l-19 -79q29 8 57 8q67 0 103.5 -36.5t36.5 -91.5q0 -63 -49 -108t-132 -45q-92 0 -170 60l49 57q57 -40 112 -40q39 0 68 19.5t29 54.5q0 27 -18.5 42.5t-51.5 15.5q-41 0 -89 -25zM669 700l-451 -700h-97l451 700h97zM225 280h-91
l61 330l-80 -37l-30 63l129 64h85z" />
    <glyph glyph-name="onefifth.onum" horiz-adv-x="765" 
d="M426 171l50 173h232l-9 -60h-171l-17 -67q28 7 52 7q58 0 89.5 -30t31.5 -75q0 -52 -41.5 -88.5t-113.5 -36.5q-73 0 -146 49l40 46q49 -32 98 -32q35 0 61 16t26 44q0 49 -64 49q-39 0 -77 -21zM566 574l-387 -574h-80l387 574h80zM185 230h-75l50 272l-69 -31l-25 51
l110 52h69z" />
    <glyph glyph-name="Tcaron.sc" horiz-adv-x="519" 
d="M529 473h-179l-84 -473h-119l84 473h-181l17 101h479zM251 618l-79 135h80l66 -78l93 78h92l-127 -135h-125z" />
    <glyph glyph-name="onehalf.onum" horiz-adv-x="767" 
d="M674 61l-10 -61h-280l6 33q4 28 16.5 50t36.5 40.5t40.5 28t50.5 27.5q76 40 88 52q14 13 14 27q0 31 -53 31q-46 0 -106 -32l-29 51q74 42 142 42q58 0 90 -25.5t32 -64.5q0 -20 -10.5 -38t-21.5 -30t-37 -27.5t-38 -22t-44 -21.5q-43 -21 -58 -32t-19 -28h190zM184 230
h-75l50 272l-69 -31l-25 51l110 52h69zM565 574l-386 -574h-82l387 574h81z" />
    <glyph glyph-name="Tbar.sc" horiz-adv-x="527" 
d="M98 175l11 68h85l41 230h-181l17 101h480l-17 -101h-180l-41 -230h85l-12 -68h-85l-30 -175h-119l30 175h-84z" />
    <glyph glyph-name="T.sc" horiz-adv-x="519" 
d="M530 473h-180l-83 -473h-119l83 473h-181l17 101h480z" />
    <glyph glyph-name="onequarter.onum" horiz-adv-x="745" 
d="M336 66l7 51l216 227h99l-39 -217h56l-8 -61h-59l-11 -66h-76l12 66h-197zM565 574l-386 -574h-82l387 574h81zM184 230h-75l50 272l-69 -31l-25 51l110 52h69zM430 127h114l28 154z" />
    <glyph glyph-name="onesixth" horiz-adv-x="862" 
d="M734 353q-60 0 -109.5 -29t-73.5 -84q42 31 101 31q63 0 100 -35t37 -89q0 -64 -47 -109t-128 -45t-126 46.5t-45 114.5q0 114 82 193.5t205 79.5q22 0 41.5 -3t28.5 -6l8 -3l-31 -66q-18 4 -43 4zM668 700l-451 -700h-97l451 700h97zM224 280h-92l61 330l-80 -37l-29 63
l129 64h85zM626 203q-30 0 -54.5 -13.5t-37.5 -29.5v-12q0 -35 20 -58.5t57 -23.5q41 0 64 23t23 55q0 25 -18 42t-54 17z" />
    <glyph glyph-name="onesixth.onum" horiz-adv-x="749" 
d="M624 291q-53 0 -96 -25t-64 -70q37 26 88 26q55 0 87 -29t32 -74q0 -52 -40 -88.5t-109 -36.5q-70 0 -108.5 38.5t-38.5 95.5q0 93 70 157.5t175 64.5q18 0 34.5 -2t23.5 -4l8 -3l-25 -54q-16 4 -37 4zM565 574l-386 -574h-81l387 574h80zM184 230h-75l50 272l-69 -31
l-25 51l110 52h69zM532 167q-51 0 -83 -35v-9q0 -29 18.5 -49t51.5 -20q36 0 57 19t21 45q0 21 -16 35t-49 14z" />
    <glyph glyph-name="Ssuperior" horiz-adv-x="421" 
d="M322 627q49 -21 76.5 -47t27.5 -71q0 -57 -47 -94t-123 -37q-103 0 -201 63l48 61q85 -49 151 -49q32 0 54 13t22 35q0 10 -6.5 18t-20 14.5t-26.5 11l-34 11.5t-35 13q-46 19 -72.5 45t-26.5 70q0 56 44.5 92t119.5 36q87 0 185 -54l-47 -60q-78 39 -135 39
q-29 0 -49.5 -12.5t-20.5 -34.5q0 -15 12 -23.5t49 -20t55 -19.5z" />
    <glyph glyph-name="Sinferior" horiz-adv-x="421" 
d="M227 92q49 -21 76.5 -47t27.5 -71q0 -57 -47 -94t-123 -37q-103 0 -201 63l48 61q85 -49 151 -49q32 0 54 13t22 35q0 10 -6.5 18t-20 14.5t-26.5 11l-34 11.5t-35 13q-46 19 -72.5 45t-26.5 70q0 56 44.5 92t119.5 36q87 0 185 -54l-47 -60q-78 39 -135 39
q-29 0 -49.5 -12.5t-20.5 -34.5q0 -15 12 -23.5t49 -20t55 -19.5z" />
    <glyph glyph-name="onethird.onum" horiz-adv-x="759" 
d="M374 43l37 46q60 -34 112 -34q38 0 60 14t22 35q0 49 -101 49h-16l9 61h19q40 0 70.5 12t30.5 33q0 30 -49 30q-39 0 -103 -29l-25 50q64 40 140 40q54 0 83.5 -22.5t29.5 -55.5q0 -57 -82 -86q31 -8 50.5 -31t19.5 -53q0 -43 -38 -75.5t-112 -32.5t-157 49zM184 230h-75
l50 272l-69 -31l-25 51l110 52h69zM565 574l-387 -574h-80l387 574h80z" />
    <glyph glyph-name="Scommaaccent.sc" horiz-adv-x="561" 
d="M149 -171l20 112h98l-11 -122l-104 -107l-22 32l64 85h-45zM353 330q33 -13 54.5 -25t45.5 -30.5t36 -45t12 -59.5q0 -78 -66 -128.5t-170 -50.5q-137 0 -272 85l63 81q125 -68 207 -68q46 0 78.5 18.5t32.5 50.5q0 15 -8.5 26t-27 20.5t-36 16t-47 16.5t-49.5 18
q-66 26 -102 60t-36 93q0 76 61.5 125.5t163.5 49.5q120 0 252 -72l-63 -80q-106 53 -186 53q-42 0 -71 -17.5t-29 -48.5q0 -13 7.5 -23t23.5 -18t32.5 -14l44.5 -15.5t49 -17.5z" />
    <glyph glyph-name="Scircumflex.sc" horiz-adv-x="561" 
d="M422 753l79 -135h-80l-66 78l-92 -78h-92l127 135h124zM353 330q32 -13 53.5 -24.5t45.5 -30.5t36 -45.5t12 -59.5q0 -78 -66 -128.5t-170 -50.5q-138 0 -271 85l63 81q125 -68 207 -68q46 0 78 18.5t32 50.5q0 15 -8.5 26t-27 20.5t-36 16t-47 16.5t-49.5 18
q-65 27 -101.5 60.5t-36.5 92.5q0 76 61.5 125.5t164.5 49.5q119 0 251 -72l-62 -80q-106 53 -186 53q-42 0 -71.5 -17.5t-29.5 -48.5q0 -13 7.5 -23t23.5 -18t32.5 -14t45 -15.5t49.5 -17.5z" />
    <glyph glyph-name="Scedilla.sc" horiz-adv-x="562" 
d="M354 330q33 -13 54.5 -25t45.5 -30.5t36 -45t12 -59.5q0 -75 -60.5 -124.5t-158.5 -53.5q21 -34 21 -72q0 -49 -33 -75t-85 -26t-89 20l37 64q23 -12 49 -12q23 0 39.5 11.5t16.5 37.5q0 24 -13 53q-118 11 -232 83l63 81q125 -68 207 -68q46 0 78.5 18.5t32.5 50.5
q0 15 -8.5 26t-27 20.5t-36 16t-47 16.5t-49.5 18q-66 26 -102 60t-36 93q0 76 61.5 125.5t163.5 49.5q120 0 252 -72l-63 -80q-106 53 -186 53q-42 0 -71 -17.5t-29 -48.5q0 -13 7.5 -23t23.5 -18t32.5 -14l44.5 -15.5t49 -17.5z" />
    <glyph glyph-name="Scaron.sc" horiz-adv-x="561" 
d="M273 618l-79 135h80l66 -78l93 78h91l-126 -135h-125zM353 330q32 -13 53.5 -24.5t45.5 -30.5t36 -45.5t12 -59.5q0 -78 -66 -128.5t-170 -50.5q-138 0 -271 85l63 81q125 -68 207 -68q46 0 78 18.5t32 50.5q0 15 -8.5 26t-27 20.5t-36 16t-47 16.5t-49.5 18
q-65 27 -101.5 60.5t-36.5 92.5q0 76 61.5 125.5t164.5 49.5q119 0 251 -72l-62 -80q-106 53 -186 53q-42 0 -71.5 -17.5t-29.5 -48.5q0 -13 7.5 -23t23.5 -18t32.5 -14t45 -15.5t49.5 -17.5z" />
    <glyph glyph-name="Sacute.sc" horiz-adv-x="561" 
d="M349 618h-108l142 135h156zM353 330q32 -13 53.5 -24.5t45.5 -30.5t36 -45.5t12 -59.5q0 -78 -66 -128.5t-170 -50.5q-138 0 -271 85l63 81q125 -68 207 -68q46 0 78 18.5t32 50.5q0 15 -8.5 26t-27 20.5t-36 16t-47 16.5t-49.5 18q-65 27 -101.5 60.5t-36.5 92.5
q0 76 61.5 125.5t164.5 49.5q119 0 251 -72l-62 -80q-106 53 -186 53q-42 0 -71.5 -17.5t-29.5 -48.5q0 -13 7.5 -23t23.5 -18t32.5 -14t45 -15.5t49.5 -17.5z" />
    <glyph glyph-name="S.sc" horiz-adv-x="561" 
d="M353 330q33 -13 54.5 -25t45.5 -30.5t36 -45t12 -59.5q0 -78 -66 -128.5t-170 -50.5q-137 0 -272 85l63 81q125 -68 207 -68q46 0 78.5 18.5t32.5 50.5q0 15 -8.5 26t-27 20.5t-36 16t-47 16.5t-49.5 18q-66 26 -102 60t-36 93q0 76 61.5 125.5t163.5 49.5q120 0 252 -72
l-63 -80q-106 53 -186 53q-42 0 -71 -17.5t-29 -48.5q0 -13 7.5 -23t23.5 -18t32.5 -14l44.5 -15.5t49 -17.5z" />
    <glyph glyph-name="Rsuperior" horiz-adv-x="461" 
d="M347 385l-77 163h-78l-28 -163h-91l74 420h182q80 0 122.5 -30t42.5 -88q0 -52 -36 -90t-100 -47l82 -165h-93zM401 687q0 47 -78 47h-98l-20 -116h97q46 0 72.5 18t26.5 51z" />
    <glyph glyph-name="Rinferior" horiz-adv-x="461" 
d="M253 -150l-77 163h-78l-28 -163h-91l74 420h182q80 0 122.5 -30t42.5 -88q0 -52 -36 -90t-100 -47l82 -165h-93zM307 152q0 47 -78 47h-98l-20 -116h97q46 0 72.5 18t26.5 51z" />
    <glyph glyph-name="paragraph.sc" horiz-adv-x="616" 
d="M304 574h105l-128 -726h-98l61 336q-90 0 -145 41.5t-55 123.5q0 108 74 166.5t186 58.5zM358 -153l128 727h98l-128 -727h-98z" />
    <glyph glyph-name="Rcommaaccent.sc" horiz-adv-x="619" 
d="M401 0l-108 224h-112l-40 -224h-119l101 574h249q226 0 226 -157q0 -68 -50 -122.5t-140 -67.5l115 -227h-122zM475 414q0 66 -112 66h-137l-30 -162h138q65 0 103 25t38 71zM174 -171l19 112h99l-12 -122l-102 -107l-23 32l64 85h-45z" />
    <glyph glyph-name="parenleft.sc" horiz-adv-x="312" 
d="M29 73l77 425q10 51 17.5 74.5t29.5 48.5t60.5 39t105.5 28l22 -69q-66 -20 -84.5 -37.5t-25.5 -58.5l-86 -476q-9 -47 1 -64.5t63 -36.5l-31 -63q-80 19 -115.5 43t-39 59.5t5.5 87.5z" />
    <glyph glyph-name="Rcaron.sc" horiz-adv-x="619" 
d="M402 0l-108 224h-113l-40 -224h-119l101 574h249q226 0 226 -157q0 -68 -50 -122.5t-140 -67.5l116 -227h-122zM475 414q0 66 -111 66h-137l-30 -162h137q66 0 103.5 25t37.5 71zM318 618l-79 135h81l65 -78l93 78h91l-125 -135h-126z" />
    <glyph glyph-name="Racute.sc" horiz-adv-x="619" 
d="M402 0l-108 224h-113l-40 -224h-119l101 574h249q226 0 226 -157q0 -68 -50 -122.5t-140 -67.5l116 -227h-122zM475 414q0 66 -111 66h-137l-30 -162h137q66 0 103.5 25t37.5 71zM394 618h-109l143 135h156z" />
    <glyph glyph-name="R.sc" horiz-adv-x="619" 
d="M401 0l-108 224h-112l-40 -224h-119l101 574h249q226 0 226 -157q0 -68 -50 -122.5t-140 -67.5l115 -227h-122zM475 414q0 66 -112 66h-137l-30 -162h138q65 0 103 25t38 71z" />
    <glyph glyph-name="parenright.sc" horiz-adv-x="310" 
d="M276 498l-77 -425q-6 -35 -10.5 -52.5t-14 -39.5t-22 -33t-35 -24.5t-53.5 -22.5t-77 -18l-22 69q66 20 84.5 36.5t26.5 58.5l85 476q9 47 -1 64.5t-62 36.5l30 64q80 -19 115.5 -43.5t39 -59.5t-6.5 -87z" />
    <glyph glyph-name="f_b.ss01" horiz-adv-x="988" 
d="M51 433l16 92h70l8 42q16 85 56 123.5t109 38.5q77 0 200 -36l7 36h124l-47 -265q92 72 183 72q70 0 118.5 -46.5t48.5 -145.5q0 -157 -67.5 -256t-176.5 -99q-90 0 -177 75l-11 -64h-124l106 600q-110 22 -159 22q-56 0 -66 -53l-8 -44h133l-16 -92h-133l-70 -396
q-20 -110 -38 -145q-29 -56 -111 -86q-38 -14 -96 -27l-27 95q48 14 72 24.5t40 30t21 37.5t13 63l72 404h-70zM730 436q-63 0 -154 -75l-36 -202q64 -70 132 -70q67 0 106.5 72t39.5 169q0 50 -22.5 78t-65.5 28z" />
    <glyph glyph-name="Qinferior" horiz-adv-x="499" 
d="M218 277q100 0 151 -49t52 -136q1 -41 -11.5 -84.5t-47.5 -87.5t-87 -63l59 -53l-64 -56l-89 95q-93 4 -140.5 52t-48.5 132q0 37 11 76.5t35 80.5t71 67t109 26zM190 -80q68 0 103 55t35 115q0 109 -106 109q-68 0 -102.5 -55t-34.5 -115q0 -109 105 -109z" />
    <glyph glyph-name="Q.sc" horiz-adv-x="671" 
d="M349 583q138 0 208 -67t70 -185q0 -41 -10.5 -86.5t-32.5 -92.5t-63.5 -86.5t-96.5 -58.5l80 -72l-84 -74l-120 129q-129 4 -194.5 70.5t-66.5 181.5q0 39 9 82t31.5 90t56.5 84t89.5 61t123.5 24zM312 91q50 0 89 24t60.5 61.5t32.5 76.5t11 75q0 153 -151 153
q-50 0 -89 -24t-60 -61t-32 -76t-11 -75q0 -154 150 -154z" />
    <glyph glyph-name="Psuperior" horiz-adv-x="439" 
d="M480 684q0 -64 -47.5 -107t-130.5 -43h-112l-26 -149h-91l74 420h166q81 0 124 -30.5t43 -90.5zM386 680q0 50 -77 50h-84l-22 -123h82q45 0 73 18.5t28 54.5z" />
    <glyph glyph-name="percent.onum" horiz-adv-x="884" 
d="M236 583q73 0 116 -35.5t43 -94.5q0 -76 -47.5 -126.5t-130.5 -50.5q-74 0 -117 35t-43 95q0 75 48.5 126t130.5 51zM220 344q40 0 63.5 32t23.5 70q0 68 -73 68q-40 0 -64.5 -32t-24.5 -69q0 -69 75 -69zM661 298q74 0 117 -35t43 -95q0 -75 -48 -126t-130 -51
q-74 0 -117 35t-43 95q0 75 48.5 126t129.5 51zM645 59q40 0 64 32t24 70q0 69 -73 69q-40 0 -64.5 -32t-24.5 -70q0 -69 74 -69zM692 574l-415 -574h-91l414 574h92z" />
    <glyph glyph-name="percentinferior" horiz-adv-x="620" 
d="M134 277q53 0 84 -26t31 -69q0 -55 -35.5 -92.5t-95.5 -37.5q-53 0 -84.5 25.5t-31.5 68.5q0 55 36 93t96 38zM120 103q28 0 45.5 23.5t17.5 49.5q0 49 -51 49q-29 0 -46.5 -23.5t-17.5 -50.5q0 -48 52 -48zM441 68q53 0 84 -25.5t31 -68.5q0 -55 -35 -93t-96 -38
q-53 0 -84 25.5t-31 68.5q0 55 35.5 93t95.5 38zM427 -105q29 0 46 23t17 50q0 48 -51 48q-29 0 -46 -23t-17 -50q0 -48 51 -48zM464 270l-305 -427h-70l306 427h69z" />
    <glyph glyph-name="percentsuperior" horiz-adv-x="623" 
d="M211 812q53 0 84 -26t31 -69q0 -55 -35.5 -92.5t-95.5 -37.5q-53 0 -84.5 25.5t-31.5 68.5q0 55 36 93t96 38zM197 638q28 0 45.5 23.5t17.5 49.5q0 49 -51 49q-29 0 -46.5 -23.5t-17.5 -50.5q0 -48 52 -48zM518 603q53 0 84 -25.5t31 -68.5q0 -55 -35 -93t-96 -38
q-53 0 -84 25.5t-31 68.5q0 55 35.5 93t95.5 38zM504 430q29 0 46 23t17 50q0 48 -51 48q-29 0 -46 -23t-17 -50q0 -48 51 -48zM541 805l-305 -427h-70l306 427h69z" />
    <glyph glyph-name="Pinferior" horiz-adv-x="439" 
d="M386 149q0 -64 -47.5 -107t-130.5 -43h-112l-26 -149h-91l74 420h166q81 0 124 -30.5t43 -90.5zM292 145q0 50 -77 50h-84l-22 -123h82q45 0 73 18.5t28 54.5z" />
    <glyph glyph-name="P.sc" horiz-adv-x="588" 
d="M577 408q0 -83 -64.5 -143t-182.5 -60h-152l-37 -205h-119l101 574h222q232 0 232 -166zM454 406q0 69 -109 69h-120l-31 -172h117q65 0 104 27t39 76z" />
    <glyph glyph-name="Otilde.sc" horiz-adv-x="671" 
d="M349 583q138 0 208 -67t70 -185q0 -39 -8.5 -82t-31.5 -90t-57 -84t-89.5 -61t-123.5 -24q-137 0 -207 67t-71 185q0 39 9 82t31.5 90t56.5 84t89.5 61t123.5 24zM312 91q50 0 89 24t60.5 61.5t32.5 76.5t11 75q0 153 -151 153q-50 0 -89 -24t-60 -61t-32 -76t-11 -75
q0 -154 150 -154zM282 625l-54 35q22 31 34.5 46.5t33.5 28.5t46 13q29 0 69 -24t55 -24q23 0 59 47l54 -35q-22 -32 -34.5 -47.5t-33.5 -28.5t-46 -13q-29 0 -68.5 24t-54.5 24q-25 0 -60 -46z" />
    <glyph glyph-name="Osuperior" horiz-adv-x="498" 
d="M312 812q100 0 151 -49t52 -136q0 -28 -6 -59.5t-22.5 -66t-41.5 -61.5t-65.5 -44.5t-91.5 -17.5q-100 0 -150.5 48.5t-51.5 135.5q0 37 11 76.5t35 80.5t71 67t109 26zM284 455q68 0 103 55t35 115q0 109 -106 109q-68 0 -102.5 -55t-34.5 -115q0 -109 105 -109z" />
    <glyph glyph-name="Oslashacute.sc" horiz-adv-x="671" 
d="M654 574l-79 -80q51 -63 51 -163q0 -39 -8.5 -82t-31.5 -90t-57 -84t-89.5 -61t-123.5 -24q-118 0 -188 50l-40 -40h-85l82 83q-47 62 -47 159q0 39 9 82t31.5 90t56.5 84t89.5 61t123.5 24q113 0 183 -48l38 39h85zM311 91q50 0 89 24t60.5 61.5t32.5 76.5t11 75
q0 47 -14 79l-283 -286q36 -30 104 -30zM161 245q0 -44 11 -74l280 284q-37 26 -99 26q-50 0 -89 -24t-60 -61t-32 -76t-11 -75zM399 618h-109l144 135h156z" />
    <glyph glyph-name="perthousand.onum" horiz-adv-x="1259" 
d="M236 583q73 0 116 -35.5t43 -94.5q0 -76 -47.5 -126.5t-130.5 -50.5q-74 0 -117 35t-43 95q0 75 48.5 126t130.5 51zM220 344q40 0 63.5 32t23.5 70q0 68 -73 68q-40 0 -64.5 -32t-24.5 -69q0 -69 75 -69zM661 298q74 0 117 -35t43 -95q0 -75 -48 -126t-130 -51
q-74 0 -117 35t-43 95q0 75 48.5 126t129.5 51zM645 59q40 0 64 32t24 70q0 69 -73 69q-40 0 -64.5 -32t-24.5 -70q0 -69 74 -69zM692 574l-415 -574h-91l414 574h92zM1039 298q73 0 115.5 -35t42.5 -95q0 -75 -47.5 -126t-130.5 -51q-73 0 -116.5 35.5t-43.5 94.5
q0 75 49 126t131 51zM1022 59q40 0 64 32t24 70q0 69 -73 69q-40 0 -64.5 -32t-24.5 -70q0 -69 74 -69z" />
    <glyph glyph-name="Omacron.sc" horiz-adv-x="671" 
d="M349 583q138 0 208 -67t70 -185q0 -39 -8.5 -82t-31.5 -90t-57 -84t-89.5 -61t-123.5 -24q-137 0 -207 67t-71 185q0 39 9 82t31.5 90t56.5 84t89.5 61t123.5 24zM312 91q50 0 89 24t60.5 61.5t32.5 76.5t11 75q0 153 -151 153q-50 0 -89 -24t-60 -61t-32 -76t-11 -75
q0 -154 150 -154zM245 643l13 75h300l-13 -75h-300z" />
    <glyph glyph-name="peseta.onum" horiz-adv-x="623" 
d="M73 370l6 37h24l30 167h222q232 0 232 -166v-1h21l-6 -37h-19q-15 -71 -77.5 -118t-165.5 -47h-153l-36 -205h-119l65 370h-24zM235 475l-13 -68h243q-1 68 -110 68h-120zM321 302q111 0 137 68h-242l-12 -68h117z" />
    <glyph glyph-name="pesetainferior" horiz-adv-x="451" 
d="M10 118l6 31h16l22 121h167q80 0 123 -31t43 -90h14l-4 -31h-13q-11 -53 -56.5 -86t-118.5 -33h-111l-27 -149h-91l47 268h-17zM132 195l-8 -46h169q-3 46 -77 46h-84zM193 72q76 0 95 46h-169l-8 -46h82z" />
    <glyph glyph-name="pesetasuperior" horiz-adv-x="442" 
d="M102 653l6 31h16l22 121h167q80 0 123 -31t43 -90h14l-4 -31h-13q-11 -53 -56.5 -86t-118.5 -33h-111l-27 -149h-91l47 268h-17zM224 730l-8 -46h169q-3 46 -77 46h-84zM285 607q76 0 95 46h-169l-8 -46h82z" />
    <glyph glyph-name="Oinferior" horiz-adv-x="498" 
d="M218 277q100 0 151 -49t52 -136q0 -28 -6 -59.5t-22.5 -66t-41.5 -61.5t-65.5 -44.5t-91.5 -17.5q-100 0 -150.5 48.5t-51.5 135.5q0 37 11 76.5t35 80.5t71 67t109 26zM190 -80q68 0 103 55t35 115q0 109 -106 109q-68 0 -102.5 -55t-34.5 -115q0 -109 105 -109z" />
    <glyph glyph-name="pinferior" horiz-adv-x="403" 
d="M-53 -272l77 437h88l-6 -35q61 42 114 42q44 0 75.5 -29.5t31.5 -91.5q0 -92 -42.5 -150t-111.5 -58q-53 0 -110 43l-28 -158h-88zM185 102q-35 0 -92 -42l-19 -109q38 -38 78 -38q39 0 62 38.5t23 91.5q0 59 -52 59z" />
    <glyph glyph-name="Ohungarumlaut.sc" horiz-adv-x="671" 
d="M349 583q138 0 208 -67t70 -185q0 -39 -8.5 -82t-31.5 -90t-57 -84t-89.5 -61t-123.5 -24q-137 0 -207 67t-71 185q0 39 9 82t31.5 90t56.5 84t89.5 61t123.5 24zM312 91q50 0 89 24t60.5 61.5t32.5 76.5t11 75q0 153 -151 153q-50 0 -89 -24t-60 -61t-32 -76t-11 -75
q0 -154 150 -154zM496 618h-76l99 135h124zM330 618h-76l99 135h124z" />
    <glyph glyph-name="plusinferior" horiz-adv-x="381" 
d="M139 191h68l-19 -108h125l-10 -66h-127l-19 -109h-68l19 109h-126l11 66h127z" />
    <glyph glyph-name="Ograve.sc" horiz-adv-x="671" 
d="M349 583q138 0 208 -67t70 -185q0 -39 -8.5 -82t-31.5 -90t-57 -84t-89.5 -61t-123.5 -24q-137 0 -207 67t-71 185q0 39 9 82t31.5 90t56.5 84t89.5 61t123.5 24zM312 91q50 0 89 24t60.5 61.5t32.5 76.5t11 75q0 153 -151 153q-50 0 -89 -24t-60 -61t-32 -76t-11 -75
q0 -154 150 -154zM484 618h-96l-146 135h140z" />
    <glyph glyph-name="Odieresis.sc" horiz-adv-x="671" 
d="M349 583q138 0 208 -67t70 -185q0 -39 -8.5 -82t-31.5 -90t-57 -84t-89.5 -61t-123.5 -24q-137 0 -207 67t-71 185q0 39 9 82t31.5 90t56.5 84t89.5 61t123.5 24zM312 91q50 0 89 24t60.5 61.5t32.5 76.5t11 75q0 153 -151 153q-50 0 -89 -24t-60 -61t-32 -76t-11 -75
q0 -154 150 -154zM250 628l20 112h108l-20 -112h-108zM428 629l20 111h107l-20 -111h-107z" />
    <glyph glyph-name="Ocircumflex.sc" horiz-adv-x="671" 
d="M349 583q138 0 208 -67t70 -185q0 -39 -8.5 -82t-31.5 -90t-57 -84t-89.5 -61t-123.5 -24q-137 0 -207 67t-71 185q0 39 9 82t31.5 90t56.5 84t89.5 61t123.5 24zM312 91q50 0 89 24t60.5 61.5t32.5 76.5t11 75q0 153 -151 153q-50 0 -89 -24t-60 -61t-32 -76t-11 -75
q0 -154 150 -154zM478 753l79 -135h-81l-65 78l-92 -78h-92l126 135h125z" />
    <glyph glyph-name="psuperior" horiz-adv-x="418" 
d="M51 263l77 437h88l-6 -35q61 42 114 42q44 0 75.5 -29.5t31.5 -91.5q0 -92 -42.5 -150t-111.5 -58q-54 0 -110 42l-28 -157h-88zM289 637q-35 0 -92 -42l-19 -109q36 -38 78 -38q39 0 62 38.5t23 91.5q0 59 -52 59z" />
    <glyph glyph-name="Obreve.sc" horiz-adv-x="671" 
d="M349 583q138 0 208 -67t70 -185q0 -39 -8.5 -82t-31.5 -90t-57 -84t-89.5 -61t-123.5 -24q-137 0 -207 67t-71 185q0 39 9 82t31.5 90t56.5 84t89.5 61t123.5 24zM312 91q50 0 89 24t60.5 61.5t32.5 76.5t11 75q0 153 -151 153q-50 0 -89 -24t-60 -61t-32 -76t-11 -75
q0 -154 150 -154zM394 618q-72 0 -108.5 32.5t-28.5 85.5h79q-6 -47 59 -47q85 0 92 47h81q-9 -55 -54.5 -86.5t-119.5 -31.5z" />
    <glyph glyph-name="qinferior" horiz-adv-x="407" 
d="M258 -272h-88l28 159q-62 -44 -119 -44q-43 0 -72.5 29t-29.5 91q0 92 43.5 150.5t112.5 58.5q53 0 107 -44l7 37h88zM113 -87q42 0 97 45l19 105q-35 39 -74 39q-40 0 -64 -39t-24 -93q0 -57 46 -57z" />
    <glyph glyph-name="qsuperior" horiz-adv-x="418" 
d="M354 263h-88l28 159q-59 -44 -119 -44q-43 0 -72.5 29t-29.5 91q0 92 43.5 150.5t112.5 58.5q53 0 107 -44l7 37h88zM209 448q42 0 97 45l19 105q-35 39 -74 39q-40 0 -64 -39t-24 -93q0 -57 46 -57z" />
    <glyph glyph-name="Oacute.sc" horiz-adv-x="671" 
d="M349 583q138 0 208 -67t70 -185q0 -39 -8.5 -82t-31.5 -90t-57 -84t-89.5 -61t-123.5 -24q-137 0 -207 67t-71 185q0 39 9 82t31.5 90t56.5 84t89.5 61t123.5 24zM312 91q50 0 89 24t60.5 61.5t32.5 76.5t11 75q0 153 -151 153q-50 0 -89 -24t-60 -61t-32 -76t-11 -75
q0 -154 150 -154zM404 618h-109l144 135h155z" />
    <glyph glyph-name="question.sc" horiz-adv-x="470" 
d="M74 0l22 123h120l-21 -123h-121zM454 443q0 -76 -63.5 -120.5t-163.5 -62.5l-22 -76h-74l17 140q92 16 139.5 40.5t47.5 63.5q0 26 -22 41t-60 15q-56 0 -146 -45l-41 86q110 58 208 58q80 0 130 -38t50 -102z" />
    <glyph glyph-name="OE.sc" horiz-adv-x="974" 
d="M875 0h-421l4 22q-62 -32 -141 -32q-137 0 -207 67t-71 185q0 39 9 82t31.5 90t56.5 84t89.5 61t123.5 24q128 0 200 -61l10 52h416l-16 -101h-299l-26 -137h244l-17 -98h-244l-26 -137h300zM312 91q50 0 89 24t60.5 61.5t32.5 76.5t11 75q0 153 -151 153q-50 0 -89 -24
t-60 -61t-32 -76t-11 -75q0 -154 150 -154z" />
    <glyph glyph-name="questiondown.sc" horiz-adv-x="472" 
d="M388 574l-21 -123h-120l22 123h119zM11 131q0 140 228 183l21 75h74l-18 -140q-186 -31 -186 -103q0 -26 21.5 -41t59.5 -15q59 0 147 44l41 -85q-103 -58 -207 -58q-80 0 -130.5 37.5t-50.5 102.5z" />
    <glyph glyph-name="questiondowninferior" horiz-adv-x="313" 
d="M234 270l-15 -91h-91l15 91h91zM-45 -54q0 56 47 88.5t120 45.5l15 54h55l-12 -102q-71 -12 -103.5 -27t-32.5 -45q0 -42 59 -42q41 0 105 32l31 -64q-78 -43 -152 -43q-59 0 -95.5 28t-36.5 75z" />
    <glyph glyph-name="questiondownsuperior" horiz-adv-x="338" 
d="M337 805l-15 -91h-91l15 91h91zM58 481q0 56 47 88.5t120 45.5l15 54h55l-12 -102q-71 -12 -103.5 -27t-32.5 -45q0 -42 59 -42q41 0 105 32l31 -64q-78 -43 -152 -43q-59 0 -95.5 28t-36.5 75z" />
    <glyph glyph-name="questioninferior" horiz-adv-x="340" 
d="M11 -150l15 91h91l-15 -91h-91zM290 173q0 -55 -47.5 -88t-119.5 -46l-15 -54h-56l12 103q72 12 104 26.5t32 45.5q0 42 -59 42q-41 0 -105 -33l-31 65q80 43 152 43q59 0 96 -28.5t37 -75.5z" />
    <glyph glyph-name="questionsuperior" horiz-adv-x="318" 
d="M90 385l15 91h91l-15 -91h-91zM369 708q0 -55 -47.5 -88t-119.5 -46l-15 -54h-56l12 103q72 12 104 26.5t32 45.5q0 42 -59 42q-41 0 -105 -33l-31 65q80 43 152 43q59 0 96 -28.5t37 -75.5z" />
    <glyph glyph-name="O.sc" horiz-adv-x="671" 
d="M349 583q138 0 208 -67t70 -185q0 -39 -8.5 -82t-31.5 -90t-57 -84t-89.5 -61t-123.5 -24q-137 0 -207 67t-71 185q0 39 9 82t31.5 90t56.5 84t89.5 61t123.5 24zM312 91q50 0 89 24t60.5 61.5t32.5 76.5t11 75q0 153 -151 153q-50 0 -89 -24t-60 -61t-32 -76t-11 -75
q0 -154 150 -154z" />
    <glyph glyph-name="Ntilde.sc" horiz-adv-x="654" 
d="M244 574l190 -417l74 417h120l-101 -574h-122l-191 418l-73 -418h-119l101 574h121zM280 625l-54 35q22 31 34.5 46.5t33.5 28.5t46 13q29 0 68.5 -24t54.5 -24q25 0 59 47l54 -35q-22 -32 -34.5 -47.5t-33.5 -28.5t-46 -13q-29 0 -68.5 24t-54.5 24q-25 0 -59 -46z" />
    <glyph glyph-name="Nsuperior" horiz-adv-x="485" 
d="M350 385l-134 297l-52 -297h-91l74 420h92l134 -298l52 298h90l-73 -420h-92z" />
    <glyph glyph-name="Ninferior" horiz-adv-x="485" 
d="M256 -150l-134 297l-52 -297h-91l74 420h92l134 -298l52 298h90l-73 -420h-92z" />
    <glyph glyph-name="Ncommaaccent.sc" horiz-adv-x="654" 
d="M405 0l-191 417l-73 -417h-119l101 574h121l190 -417l74 417h120l-101 -574h-122zM197 -171l19 112h100l-11 -122l-104 -107l-23 32l65 85h-46z" />
    <glyph glyph-name="Ncaron.sc" horiz-adv-x="654" 
d="M244 574l190 -417l74 417h120l-101 -574h-122l-191 418l-73 -418h-119l101 574h121zM326 618l-79 135h81l66 -78l91 78h93l-126 -135h-126z" />
    <glyph glyph-name="Nacute.sc" horiz-adv-x="654" 
d="M405 0l-191 418l-73 -418h-119l101 574h121l190 -417l74 417h120l-101 -574h-122zM422 618h-109l143 135h156z" />
    <glyph glyph-name="N.sc" horiz-adv-x="654" 
d="M405 0l-191 417l-73 -417h-119l101 574h121l190 -417l74 417h120l-101 -574h-122z" />
    <glyph glyph-name="Msuperior" horiz-adv-x="557" 
d="M421 385l48 273l-140 -203h-49l-66 214l-50 -284h-91l74 420h93l77 -253l175 253h94l-73 -420h-92z" />
    <glyph glyph-name="Minferior" horiz-adv-x="556" 
d="M327 -150l48 273l-140 -203h-49l-66 214l-50 -284h-91l74 420h93l77 -253l175 253h94l-73 -420h-92z" />
    <glyph glyph-name="M.sc" horiz-adv-x="751" 
d="M504 0l68 388l-201 -292h-62l-97 308l-71 -404h-119l101 574h122l111 -351l245 351h123l-101 -574h-119z" />
    <glyph glyph-name="Lsuperior" horiz-adv-x="371" 
d="M370 385h-297l74 420h91l-61 -345h205z" />
    <glyph glyph-name="Lslash.sc" horiz-adv-x="511" 
d="M324 323l-128 -63l-28 -161h287l-17 -99h-406l34 196l-64 -32l17 106l66 32l48 272h119l-37 -208l126 62z" />
    <glyph glyph-name="Linferior" horiz-adv-x="372" 
d="M277 -150h-298l74 420h91l-62 -345h206z" />
    <glyph glyph-name="rinferior" horiz-adv-x="290" 
d="M113 165l-12 -66q7 13 20 27t45 29.5t70 13.5l-12 -82q-30 0 -56 -11t-41 -27t-26 -32t-15 -27l-4 -11l-25 -129h-88l56 315h88z" />
    <glyph glyph-name="Ldot.sc" horiz-adv-x="501" 
d="M428 0h-406l101 574h119l-84 -475h286zM325 249l19 112h109l-19 -112h-109z" />
    <glyph glyph-name="Lcommaaccent.sc" horiz-adv-x="498" 
d="M428 0h-406l101 574h119l-84 -475h286zM146 -171l18 112h100l-12 -122l-103 -107l-23 32l65 85h-45z" />
    <glyph glyph-name="Lcaron.sc" horiz-adv-x="499" 
d="M428 0h-406l101 574h119l-84 -475h286zM267 462l20 112h99l-12 -122l-103 -107l-22 32l64 85h-46z" />
    <glyph glyph-name="s_h" horiz-adv-x="1139" 
d="M304 311q37 -11 62 -22t50 -29t38 -44.5t13 -60.5q0 -76 -61 -121t-159 -45q-133 0 -254 77l59 82q109 -63 196 -63q40 0 66 16t26 43q0 9 -3 17t-10.5 14.5t-14.5 11t-21 9.5l-22.5 8t-27.5 8.5l-29 8.5q-33 10 -56 20.5t-48 27.5t-38 43t-13 60q0 73 58 118.5t152 45.5
q61 0 128 -20q-5 15 -5 41q0 75 51.5 123.5t140.5 48.5h211l-48 -268q109 75 206 75q82 0 116 -48t19 -130l-63 -358h-124l61 345q18 93 -57 93q-40 0 -90 -23t-85 -50l-64 -365h-124l118 670h-77q-58 0 -95 -35t-37 -90q0 -30 10 -53q19 -8 40 -19l-58 -80q-94 48 -169 48
q-39 0 -64 -15.5t-25 -41.5q0 -9 3 -16.5t10.5 -14t14.5 -11t20 -9l22 -7.5t25.5 -7.5t25.5 -7.5z" />
    <glyph glyph-name="s_k" horiz-adv-x="1074" 
d="M1083 525l-218 -214l155 -311h-125l-114 229l-93 -92l-24 -137h-124l118 670h-77q-58 0 -95 -35t-37 -90q0 -30 10 -53q19 -8 40 -19l-58 -80q-94 48 -169 48q-39 0 -64 -15.5t-25 -41.5q0 -9 3 -16.5t10.5 -14t14.5 -11t20 -9l22 -7.5t25.5 -7.5t25.5 -7.5
q37 -11 62 -22t50 -29t38 -44.5t13 -60.5q0 -76 -61 -121t-159 -45q-133 0 -254 77l59 82q109 -63 196 -63q40 0 66 16t26 43q0 9 -3 17t-10.5 14.5t-14.5 11t-21 9.5l-22.5 8t-27.5 8.5l-29 8.5q-33 10 -56 20.5t-48 27.5t-38 43t-13 60q0 73 58 118.5t152 45.5
q61 0 128 -20q-5 15 -5 41q0 75 51.5 123.5t140.5 48.5h211l-76 -427l215 223h151z" />
    <glyph glyph-name="s_l" horiz-adv-x="791" 
d="M667 0h-124l118 670h-80q-58 0 -95 -35t-37 -90q0 -30 10 -53q19 -8 40 -19l-58 -80q-94 48 -169 48q-39 0 -64 -15.5t-25 -41.5q0 -9 3 -16.5t10.5 -14t14.5 -11t20 -9l22 -7.5t25.5 -7.5t25.5 -7.5q37 -11 62 -22t50 -29t38 -44.5t13 -60.5q0 -76 -61 -121t-159 -45
q-133 0 -254 77l59 82q109 -63 196 -63q40 0 66 16t26 43q0 9 -3 17t-10.5 14.5t-14.5 11t-21 9.5l-22.5 8t-27.5 8.5l-29 8.5q-33 10 -56 20.5t-48 27.5t-38 43t-13 60q0 73 58 118.5t152 45.5q61 0 128 -20q-5 15 -5 41q0 75 51.5 123.5t140.5 48.5h214z" />
    <glyph glyph-name="Lacute.sc" horiz-adv-x="498" 
d="M428 0h-406l101 574h119l-84 -475h287zM200 618h-109l143 135h156z" />
    <glyph glyph-name="L.sc" horiz-adv-x="498" 
d="M428 0h-406l101 574h119l-84 -475h286z" />
    <glyph glyph-name="Ksuperior" horiz-adv-x="449" 
d="M73 385l74 420h91l-34 -194l199 194h116l-210 -200l147 -220h-100l-108 162l-67 -64l-17 -98h-91z" />
    <glyph glyph-name="Kinferior" horiz-adv-x="449" 
d="M-21 -150l74 420h91l-34 -194l199 194h116l-210 -200l147 -220h-100l-108 162l-67 -63l-17 -99h-91z" />
    <glyph glyph-name="Kcommaaccent.sc" horiz-adv-x="603" 
d="M22 0l101 574h119l-48 -272l282 272h152l-290 -274l207 -300h-133l-153 225l-94 -90l-24 -135h-119zM170 -171l19 112h98l-10 -122l-103 -107l-23 32l64 85h-45z" />
    <glyph glyph-name="K.sc" horiz-adv-x="603" 
d="M22 0l101 574h119l-48 -272l282 272h152l-290 -274l207 -300h-133l-153 225l-94 -90l-24 -135h-119z" />
    <glyph glyph-name="Jsuperior" horiz-adv-x="208" 
d="M238 805l-67 -382q-6 -37 -11.5 -53.5t-21 -36.5t-45 -31.5t-80.5 -22.5l-22 71q54 15 68.5 26.5t19.5 41.5l68 387h91z" />
    <glyph glyph-name="Jinferior" horiz-adv-x="208" 
d="M144 270l-67 -382q-6 -37 -11.5 -53.5t-21 -36.5t-45 -31.5t-80.5 -22.5l-22 71q54 15 68.5 26.5t19.5 41.5l68 387h91z" />
    <glyph glyph-name="semicoloninferior" horiz-adv-x="195" 
d="M6 38l17 99h92l-17 -99h-92zM-27 -150l17 99h91l-11 -110l-91 -85l-19 29l54 67h-41z" />
    <glyph glyph-name="semicolonsuperior" horiz-adv-x="199" 
d="M101 573l17 99h92l-17 -99h-92zM68 385l17 99h91l-11 -110l-91 -85l-19 29l54 67h-41z" />
    <glyph glyph-name="Jcircumflex.sc" horiz-adv-x="269" 
d="M243 574l-93 -524l-7 -38t-7.5 -31.5t-11.5 -29l-17 -23t-25 -22t-34.5 -17.5t-47 -17t-61.5 -15l-29 93q73 20 92.5 36.5t27.5 58.5l94 529h119zM275 753l79 -135h-80l-66 78l-92 -78h-92l126 135h125z" />
    <glyph glyph-name="J.sc" horiz-adv-x="269" 
d="M243 574l-93 -524l-7 -38t-7.5 -31.5t-11.5 -29l-17 -23t-25 -22t-34.5 -17.5t-47 -17t-61.5 -15l-29 93q73 20 92.5 36.5t27.5 58.5l94 529h119z" />
    <glyph glyph-name="seven.dnom" horiz-adv-x="346" 
d="M337 350q-8 -7 -21 -20.5t-47 -54t-62 -80.5t-54.5 -94t-35.5 -101h-97q10 56 42 118t72 113t61 75.5t35 38.5h-199l11 75h304z" />
    <glyph glyph-name="seven.numr" horiz-adv-x="346" 
d="M385 630q-8 -7 -20.5 -20.5t-47 -54t-62 -80.5t-54 -94t-35.5 -101h-97q10 56 42 118t72 113t61 75.5t35 38.5h-200l11 75h305z" />
    <glyph glyph-name="seven.onum" horiz-adv-x="516" 
d="M530 475l-33 -35.5t-76.5 -91.5t-100.5 -137t-89 -161.5t-59 -175.5h-137q14 77 52.5 164.5t81 154.5t92 132.5t75 95t41.5 45.5h-325l17 108h476z" />
    </font>
</defs>
</svg>
