<?xml version="1.0" standalone="no"?>
<!DOCTYPE svg PUBLIC "-//W3C//DTD SVG 1.1//EN" "http://www.w3.org/Graphics/SVG/1.1/DTD/svg11.dtd" >
<svg>
<metadata>
Created by FontForge 20090622 at Thu Mar  2 23:19:51 2017
 By deploy user
Copyright (c) 2012 by Yellow Desing Studio. All rights reserved.
</metadata>
<defs>
<font id="VerbRegular" horiz-adv-x="607" >
  <font-face 
    font-family="Verb Regular"
    font-weight="400"
    font-stretch="normal"
    units-per-em="1000"
    panose-1="2 0 5 0 3 0 0 2 0 4"
    ascent="800"
    descent="-200"
    x-height="525"
    cap-height="700"
    bbox="-120 -280 1374 948"
    underline-thickness="50"
    underline-position="-50"
    unicode-range="U+0020-U+FB06"
  />
<missing-glyph horiz-adv-x="267" 
 />
    <glyph glyph-name="f_f" unicode="ff" horiz-adv-x="706" 
d="M33 461v64h73v72q0 132 118 132q63 0 155 -35l-31 -61q-72 24 -111 24q-49 0 -49 -56v-76h136v-64h-136v-461h-82v461h-73zM386 461v64h74v72q0 72 30.5 102t86.5 30q66 0 155 -35l-30 -61q-72 24 -111 24q-50 0 -50 -56v-76h142v-64h-142v-461h-81v461h-74z" />
    <glyph glyph-name="f_i" unicode="fi" horiz-adv-x="598" 
d="M33 461v64h73v72q0 132 115 132q52 0 126 -27l-24 -62q-61 17 -86 17q-49 0 -49 -56v-76h141v-64h-141v-461h-82v461h-73zM516 0h-82v525h82v-525zM430 629v97h92v-97h-92z" />
    <glyph glyph-name="f_l" unicode="fl" 
d="M33 461v64h73v72q0 132 115 132q52 0 126 -27l-24 -62q-61 17 -86 17q-49 0 -49 -56v-76h141v-64h-141v-461h-82v461h-73zM521 0h-83v729h83v-729z" />
    <glyph glyph-name="f_f_i" unicode="ffi" horiz-adv-x="951" 
d="M33 461v64h73v72q0 132 118 132q63 0 155 -35l-27 -61q-75 24 -115 24q-49 0 -49 -56v-76h136v-64h-136v-461h-82v461h-73zM386 461v64h74v72q0 132 114 132q49 0 127 -27l-25 -62q-58 17 -85 17q-50 0 -50 -56v-76h142v-64h-142v-461h-81v461h-74zM870 0h-83v525h83
v-525zM784 629v97h92v-97h-92z" />
    <glyph glyph-name="f_f_l" unicode="ffl" horiz-adv-x="960" 
d="M33 461v64h73v72q0 132 118 132q63 0 155 -35l-27 -61q-75 24 -115 24q-49 0 -49 -56v-76h136v-64h-136v-461h-82v461h-73zM386 461v64h74v72q0 132 114 132q49 0 127 -27l-25 -62q-58 17 -85 17q-50 0 -50 -56v-76h142v-64h-142v-461h-81v461h-74zM875 0h-83v729h83
v-729z" />
    <glyph glyph-name="f_f_b" unicode="ffb" horiz-adv-x="1310" 
d="M787 0v729h83v-272q88 79 186 79q89 0 144.5 -68t55.5 -206q0 -137 -55.5 -205t-144.5 -68q-101 0 -186 79v-68h-83zM1040 467q-96 0 -170 -85v-240q75 -84 170 -84q64 0 97.5 53.5t33.5 150.5q0 98 -33.5 151.5t-97.5 53.5zM33 461v64h73v72q0 132 118 132q63 0 155 -35
l-27 -61q-75 24 -115 24q-49 0 -49 -56v-76h136v-64h-136v-461h-82v461h-73zM386 461v64h74v72q0 132 114 132q49 0 127 -27l-25 -62q-58 17 -85 17q-50 0 -50 -56v-76h142v-64h-142v-461h-81v461h-74z" />
    <glyph glyph-name="f_f_h" unicode="ffh" horiz-adv-x="1313" 
d="M870 729v-278q118 85 217 85q149 0 149 -162v-374h-83v359q0 109 -90 109q-49 0 -104 -28t-89 -58v-382h-83v729h83zM33 461v64h73v72q0 132 118 132q63 0 155 -35l-27 -61q-75 24 -115 24q-49 0 -49 -56v-76h136v-64h-136v-461h-82v461h-73zM386 461v64h74v72
q0 132 114 132q49 0 127 -27l-25 -62q-58 17 -85 17q-50 0 -50 -56v-76h142v-64h-142v-461h-81v461h-74z" />
    <glyph glyph-name="f_b" unicode="fb" horiz-adv-x="956" 
d="M434 0v729h82v-272q88 79 186 79q89 0 144.5 -68t55.5 -206q0 -137 -55.5 -205t-144.5 -68q-101 0 -186 79v-68h-82zM686 467q-96 0 -170 -85v-240q75 -84 170 -84q64 0 97.5 53.5t33.5 150.5q0 98 -33.5 151.5t-97.5 53.5zM33 461v64h73v72q0 132 115 132q52 0 126 -27
l-24 -62q-61 17 -86 17q-49 0 -49 -56v-76h141v-64h-141v-461h-82v461h-73z" />
    <glyph glyph-name="f_f_j" unicode="ffj" horiz-adv-x="951" 
d="M33 461v64h73v72q0 132 118 132q63 0 155 -35l-27 -61q-75 24 -115 24q-49 0 -49 -56v-76h136v-64h-136v-461h-82v461h-73zM386 461v64h74v72q0 132 114 132q49 0 127 -27l-25 -62q-58 17 -85 17q-50 0 -50 -56v-76h142v-64h-142v-461h-81v461h-74zM870 525v-545
q0 -30 -0.5 -43.5t-3.5 -34.5t-9.5 -30.5t-18.5 -23.5t-31 -22.5t-46 -18.5t-64 -20l-27 63q46 15 68 24t34 25t13.5 29t1.5 48v549h83zM783 629v97h92v-97h-92z" />
    <glyph glyph-name="f_f_k" unicode="ffk" horiz-adv-x="1232" 
d="M1186 525l-178 -212l210 -313h-88l-172 253l-88 -105v-148h-83v729h83v-479l221 275h95zM33 461v64h73v72q0 132 118 132q63 0 155 -35l-27 -61q-75 24 -115 24q-49 0 -49 -56v-76h136v-64h-136v-461h-82v461h-73zM386 461v64h74v72q0 132 114 132q49 0 127 -27l-25 -62
q-58 17 -85 17q-50 0 -50 -56v-76h142v-64h-142v-461h-81v461h-74z" />
    <glyph glyph-name="f_f_t" unicode="fft" horiz-adv-x="1087" 
d="M33 461v64h73v72q0 132 118 132q63 0 155 -35l-27 -61q-75 24 -115 24q-49 0 -49 -56v-76h136v-64h-136v-461h-82v461h-73zM386 461v64h74v72q0 72 30.5 102t86.5 30q66 0 155 -35l-30 -61q-72 24 -111 24q-50 0 -50 -56v-76h137v-64h-137v-461h-81v461h-74zM738 461v64
h73v132l82 20v-152h144v-64h-144v-344q0 -55 49 -55q39 0 100 27l31 -63q-81 -37 -144 -37q-118 0 -118 132v340h-73z" />
    <glyph glyph-name="f_h" unicode="fh" horiz-adv-x="959" 
d="M516 729v-278q118 85 217 85q149 0 149 -162v-374h-83v359q0 109 -90 109q-49 0 -104 -28t-89 -58v-382h-82v729h82zM33 461v64h73v72q0 132 115 132q52 0 126 -27l-24 -62q-61 17 -86 17q-49 0 -49 -56v-76h141v-64h-141v-461h-82v461h-73z" />
    <glyph glyph-name="f_j" unicode="fj" horiz-adv-x="598" 
d="M33 461v64h73v72q0 132 115 132q52 0 126 -27l-24 -62q-61 17 -86 17q-49 0 -49 -56v-76h141v-64h-141v-461h-82v461h-73zM516 525v-545q0 -30 -0.5 -43.5t-3.5 -34.5t-9.5 -30.5t-18.5 -23.5t-31 -22.5t-45.5 -18.5t-63.5 -20l-28 63q31 10 49.5 16.5t33 16t21 15t10 20
t4 24.5t0.5 34v549h82zM429 629v97h92v-97h-92z" />
    <glyph glyph-name="f_k" unicode="fk" horiz-adv-x="879" 
d="M832 525l-177 -211l209 -314h-88l-172 253l-88 -105v-148h-82v729h82v-481l222 277h94zM33 461v64h73v72q0 132 115 132q52 0 126 -27l-24 -62q-61 17 -86 17q-49 0 -49 -56v-76h141v-64h-141v-461h-82v461h-73z" />
    <glyph glyph-name="f_t" unicode="ft" horiz-adv-x="737" 
d="M33 461v64h73v72q0 132 118 132q63 0 155 -35l-31 -61q-72 24 -111 24q-49 0 -49 -56v-76h136v-64h-136v-461h-82v461h-73zM388 461v64h73v132l82 20v-152h144v-64h-144v-344q0 -55 49 -55q39 0 100 27l31 -63q-81 -37 -144 -37q-118 0 -118 132v340h-73z" />
    <glyph glyph-name=".notdef" horiz-adv-x="267" 
 />
    <glyph glyph-name=".null" horiz-adv-x="0" 
 />
    <glyph glyph-name="nonmarkingreturn" horiz-adv-x="333" 
 />
    <glyph glyph-name="space" unicode=" " horiz-adv-x="282" 
 />
    <glyph glyph-name="exclam" unicode="!" horiz-adv-x="265" 
d="M85 0v115h96v-115h-96zM183 700l-25 -491h-51l-24 491h100z" />
    <glyph glyph-name="quotedbl" unicode="&#x22;" horiz-adv-x="408" 
d="M343 700l-16 -259h-56l-16 259h88zM154 700l-15 -259h-57l-16 259h88z" />
    <glyph glyph-name="numbersign" unicode="#" horiz-adv-x="752" 
d="M417 0l28 179h-193l-28 -179h-69l28 179h-134v66h144l33 209h-135v66h146l28 180h68l-28 -180h193l28 180h68l-28 -180h135v-66h-145l-33 -209h136v-66h-146l-28 -179h-68zM295 454l-33 -209h193l33 209h-193z" />
    <glyph glyph-name="dollar" unicode="$" horiz-adv-x="615" 
d="M342 -100h-64v93q-122 15 -230 81l41 64q90 -53 189 -70v258l-12 4q-44 14 -73 27t-62 35.5t-50 56t-17 76.5q0 83 60 133t154 53v90h64v-94q106 -13 198 -62l-40 -64q-78 39 -158 51v-237q45 -14 78.5 -28.5t70 -39t56.5 -62t20 -84.5q0 -88 -64.5 -138.5t-160.5 -53.5
v-89zM479 175q0 46 -34.5 75t-102.5 54v-241q58 2 97.5 31t39.5 81zM154 530q0 -44 30.5 -68t93.5 -46v221q-54 -3 -89 -30t-35 -77z" />
    <glyph glyph-name="percent" unicode="%" horiz-adv-x="995" 
d="M949 176q0 -90 -49 -138.5t-133 -48.5q-83 0 -131.5 48.5t-48.5 138.5t48.5 139t131.5 49q84 0 133 -49t49 -139zM879 176q0 63 -29.5 97t-82.5 34q-52 0 -81.5 -34t-29.5 -97q0 -62 29.5 -95.5t81.5 -33.5q54 0 83 33t29 96zM407 523q0 -90 -49.5 -138.5t-132.5 -48.5
q-82 0 -131 48.5t-49 138.5t49 139t131 49q83 0 132.5 -49t49.5 -139zM337 523q0 63 -29.5 97t-82.5 34t-82 -34t-29 -97t29 -96t82 -33q54 0 83 33t29 96zM716 700l-368 -700h-71l368 700h71z" />
    <glyph glyph-name="ampersand" unicode="&#x26;" horiz-adv-x="699" 
d="M693 0h-103l-80 81q-90 -92 -219 -92q-95 0 -157.5 50t-62.5 133q0 66 39 112t109 93q-30 31 -48 53.5t-33.5 57.5t-15.5 70q0 74 53.5 113.5t123.5 39.5q71 0 118.5 -40t47.5 -108q0 -58 -35.5 -102.5t-100.5 -91.5l172 -175q46 81 58 175h85q-16 -126 -88 -231zM293 56
q94 0 165 78l-189 193q-56 -40 -85.5 -73.5t-29.5 -75.5q0 -45 34.5 -83.5t104.5 -38.5zM201 556q0 -26 13.5 -53.5t28 -44t38.5 -40.5q51 34 78.5 66.5t27.5 74.5q0 37 -22.5 62t-66.5 25q-46 0 -71.5 -26t-25.5 -64z" />
    <glyph glyph-name="quotesingle" unicode="'" horiz-adv-x="219" 
d="M154 700l-15 -259h-57l-16 259h88z" />
    <glyph glyph-name="parenleft" unicode="(" horiz-adv-x="312" 
d="M81 43v610q0 37 2 55.5t10.5 41t27 35.5t51 27t83.5 27l24 -55q-57 -19 -79.5 -33.5t-27.5 -31t-5 -58.5v-626q0 -42 5 -58.5t27.5 -31t79.5 -33.5l-24 -55q-51 13 -83.5 27t-51 27t-27 35.5t-10.5 41t-2 55.5z" />
    <glyph glyph-name="parenright" unicode=")" horiz-adv-x="312" 
d="M231 653v-610q0 -37 -2 -55.5t-10.5 -41t-27 -35.5t-51 -27t-83.5 -27l-25 55q44 15 65.5 24t33 24.5t13 28.5t1.5 46v626q0 33 -1.5 46t-13 28.5t-33 24.5t-65.5 24l25 55q51 -13 83.5 -27t51 -27t27 -35.5t10.5 -41t2 -55.5z" />
    <glyph glyph-name="asterisk" unicode="*" horiz-adv-x="483" 
d="M204 326l21 155l-127 -97l-38 65l148 60l-148 61l38 65l127 -99l-21 156h75l-21 -155l126 97l38 -65l-147 -60l147 -61l-38 -64l-125 95l20 -153h-75z" />
    <glyph glyph-name="plus" unicode="+" horiz-adv-x="615" 
d="M273 560h67v-194h218v-66h-218v-193h-67v193h-217v66h217v194z" />
    <glyph glyph-name="comma" unicode="," horiz-adv-x="246" 
d="M74 0v120h94l11 -127l-83 -128l-28 32l50 103h-44z" />
    <glyph glyph-name="hyphen" unicode="-" horiz-adv-x="435" 
d="M360 249h-284v72h284v-72z" />
    <glyph glyph-name="period" unicode="." horiz-adv-x="244" 
d="M74 0v120h96v-120h-96z" />
    <glyph glyph-name="slash" unicode="/" horiz-adv-x="449" 
d="M425 790l-333 -880h-68l333 880h68z" />
    <glyph glyph-name="zero" unicode="0" horiz-adv-x="657" 
d="M329 711q129 0 196 -93.5t67 -267.5q0 -175 -67 -268t-196 -93q-130 0 -197 93t-67 268q0 174 67.5 267.5t196.5 93.5zM329 59q175 0 175 291t-175 291q-177 0 -177 -291t177 -291z" />
    <glyph glyph-name="one" unicode="1" horiz-adv-x="369" 
d="M272 0h-86v613l-125 -65l-37 59l169 93h79v-700z" />
    <glyph glyph-name="two" unicode="2" horiz-adv-x="584" 
d="M522 74v-74h-471v55q0 114 98 200q32 28 124 90q43 29 63.5 44t47.5 40t38.5 49t11.5 51q0 48 -36.5 78t-99.5 30q-97 0 -186 -63l-42 59q113 78 234 78q99 0 158 -49.5t59 -130.5q0 -24 -6.5 -47.5t-13.5 -40.5t-26.5 -38.5l-29.5 -32.5t-38.5 -32.5t-38 -28
l-44.5 -29.5t-42 -28q-71 -47 -102.5 -84t-31.5 -96h374z" />
    <glyph glyph-name="three" unicode="3" horiz-adv-x="592" 
d="M39 61l40 63q101 -61 200 -61q72 0 119 36.5t47 97.5q0 39 -21 69t-55.5 46t-71 24t-74.5 8h-31v75h36q75 0 130.5 31.5t55.5 89.5q0 45 -35 71t-94 26q-89 0 -176 -58l-38 57q103 75 225 75q97 0 150.5 -47.5t53.5 -116.5q0 -51 -33 -94.5t-101 -66.5q73 -18 119.5 -69
t46.5 -120q0 -86 -62.5 -147t-180.5 -61q-75 0 -142 23t-108 49z" />
    <glyph glyph-name="four" unicode="4" horiz-adv-x="631" 
d="M35 155v64l337 481h112v-472h107v-73h-107v-155h-87v155h-362zM126 228h271v393z" />
    <glyph glyph-name="five" unicode="5" horiz-adv-x="580" 
d="M79 355l38 345h381v-74h-312l-18 -208q56 27 123 27q107 0 171 -65t64 -160t-65.5 -163t-183.5 -68q-111 0 -228 71l40 65q92 -61 178 -61q71 0 121 43.5t50 112.5q0 64 -44 108t-120 44q-71 0 -149 -44z" />
    <glyph glyph-name="six" unicode="6" horiz-adv-x="616" 
d="M430 638q-96 0 -173.5 -67t-99.5 -201q72 77 186 77q104 0 164 -63.5t60 -157.5q0 -99 -67 -168t-177 -69q-85 0 -146 44t-87.5 108t-27.5 140q0 102 30 185.5t81.5 136t117 80.5t137.5 28q24 0 47 -2.5t35 -5.5l11 -3l-20 -70q-32 8 -71 8zM327 379q-63 0 -110.5 -30.5
t-66.5 -67.5v-7q0 -90 45 -151t127 -61q75 0 117 48.5t42 113.5q0 63 -39.5 109t-114.5 46z" />
    <glyph glyph-name="seven" unicode="7" horiz-adv-x="509" 
d="M485 635l-27.5 -36.5t-62 -95.5t-78.5 -143.5t-62 -171t-28 -188.5h-91q0 80 25 172.5t55 160t73.5 142t61 100l36.5 51.5h-355v74h453v-65z" />
    <glyph glyph-name="eight" unicode="8" horiz-adv-x="629" 
d="M55 181q0 126 169 197q-128 58 -128 164q0 77 60.5 123t157.5 46t157.5 -46t60.5 -123q0 -106 -128 -164q170 -71 170 -197q0 -89 -73 -140.5t-187 -51.5t-186.5 51.5t-72.5 140.5zM485 184q0 57 -46.5 94t-124.5 66q-36 -13 -63 -26.5t-53.5 -32.5t-40.5 -45t-14 -56
q0 -57 49 -91.5t122 -34.5t122 34.5t49 91.5zM181 535q0 -79 133 -125q133 47 133 125q0 45 -37.5 76.5t-95.5 31.5q-57 0 -95 -32t-38 -76z" />
    <glyph glyph-name="nine" unicode="9" horiz-adv-x="617" 
d="M187 62q96 0 174 67t100 202q-71 -79 -187 -79q-104 0 -164 63.5t-60 158.5q0 99 67 168t178 69q65 0 116 -25t81.5 -67t46.5 -93t16 -107q1 -201 -106.5 -315.5t-259.5 -114.5q-24 0 -47 2.5t-34 5.5l-12 3l21 70q31 -8 70 -8zM291 321q63 0 111 31.5t66 68.5v4
q0 91 -45 152t-127 61q-75 0 -117 -48.5t-42 -114.5q0 -62 39 -108t115 -46z" />
    <glyph glyph-name="colon" unicode=":" horiz-adv-x="251" 
d="M77 341v120h97v-120h-97zM77 0v120h97v-120h-97z" />
    <glyph glyph-name="semicolon" unicode=";" horiz-adv-x="264" 
d="M83 341v120h95v-120h-95zM83 0v120h94l11 -127l-83 -128l-28 32l50 103h-44z" />
    <glyph glyph-name="less" unicode="&#x3c;" horiz-adv-x="615" 
d="M42 365l501 210v-78l-410 -164l410 -163v-77l-501 210v62z" />
    <glyph glyph-name="equal" unicode="=" horiz-adv-x="615" 
d="M56 391v66h502v-66h-502zM56 211v66h502v-66h-502z" />
    <glyph glyph-name="greater" unicode="&#x3e;" horiz-adv-x="615" 
d="M572 303l-502 -210v77l411 163l-411 164v78l502 -210v-62z" />
    <glyph glyph-name="question" unicode="?" horiz-adv-x="514" 
d="M165 0v115h96v-115h-96zM467 541q0 -147 -218 -204l-6 -128h-60l-7 176q103 22 154.5 54.5t51.5 91.5q0 49 -37 77.5t-94 28.5q-76 0 -173 -58l-41 58q109 74 224 74q86 0 146 -44.5t60 -125.5z" />
    <glyph glyph-name="at" unicode="@" horiz-adv-x="970" 
d="M475 -136q54 0 102 11t69 23l21 11l27 -35q-8 -6 -24.5 -15t-73.5 -23.5t-121 -14.5q-186 0 -301.5 123t-115.5 309q0 188 120.5 310.5t321.5 122.5q200 0 309 -119t110 -313q0 -121 -49.5 -198.5t-140.5 -77.5q-64 0 -92.5 35t-33.5 82q-79 -72 -168 -72
q-61 0 -104.5 36t-43.5 111q0 74 44.5 112.5t109.5 38.5q18 0 42.5 -3t42.5 -6.5t43.5 -9t32.5 -6.5v55q0 52 -20.5 75t-74.5 23q-67 0 -162 -41l-28 52q112 45 199 45q153 0 153 -150v-204q0 -29 1.5 -45.5t7.5 -37.5t21 -31t40 -10q49 0 92 55.5t43 172.5
q0 172 -95.5 279.5t-279.5 107.5q-124 0 -215 -54t-135 -141t-44 -194q0 -167 102 -278t268 -111zM450 79q78 0 152 72v103q-8 1 -37 7t-54.5 9.5t-46.5 3.5q-56 0 -82 -28.5t-26 -72.5q0 -48 26 -71t68 -23z" />
    <glyph glyph-name="A" unicode="A" horiz-adv-x="686" 
d="M567 0l-62 171h-324l-62 -171h-94l271 700h94l271 -700h-94zM343 620l-137 -378h273z" />
    <glyph glyph-name="B" unicode="B" horiz-adv-x="675" 
d="M620 187q0 -89 -59 -138t-173 -49h-292v700h244q116 0 179 -44.5t63 -126.5q0 -68 -39 -109.5t-82 -48.5q25 -3 49.5 -14t50.5 -31t42.5 -56t16.5 -83zM497 517q0 52 -39 82.5t-118 30.5h-157v-229h152q73 0 117.5 29t44.5 87zM535 200q0 134 -193 134h-159v-264h196
q77 0 116.5 35.5t39.5 94.5z" />
    <glyph glyph-name="C" unicode="C" horiz-adv-x="647" 
d="M607 608l-45 -62q-40 26 -66 40.5t-70 30.5t-81 16q-86 0 -139.5 -75.5t-53.5 -207.5t53.5 -207.5t139.5 -75.5q37 0 81 16t70 30.5t66 40.5l45 -62q-152 -103 -269 -103q-119 0 -197 90.5t-78 270.5q0 179 78 270t197 91q117 0 269 -103z" />
    <glyph glyph-name="D" unicode="D" horiz-adv-x="705" 
d="M643 350q0 -350 -330 -350h-217v700h217q330 0 330 -350zM554 350q0 143 -60 209t-187 66h-124v-550h124q128 0 187.5 65.5t59.5 209.5z" />
    <glyph glyph-name="E" unicode="E" horiz-adv-x="600" 
d="M546 0h-450v700h444v-75h-357v-238h295v-74h-295v-238h363v-75z" />
    <glyph glyph-name="F" unicode="F" horiz-adv-x="572" 
d="M540 625h-357v-238h285v-74h-285v-313h-87v700h444v-75z" />
    <glyph glyph-name="G" unicode="G" horiz-adv-x="704" 
d="M548 0v82q-106 -93 -215 -93q-116 0 -193 91t-77 270t78.5 270t198.5 91q126 0 280 -109l-46 -63q-98 63 -150 80q-41 14 -78 14q-87 0 -140.5 -75.5t-53.5 -207.5t53 -209t141 -77q90 0 202 100v146h-192v72h276v-382h-84z" />
    <glyph glyph-name="H" unicode="H" horiz-adv-x="714" 
d="M532 0v330h-349v-330h-87v700h87v-296h349v296h86v-700h-86z" />
    <glyph glyph-name="I" unicode="I" horiz-adv-x="278" 
d="M183 0h-87v700h87v-700z" />
    <glyph glyph-name="J" unicode="J" horiz-adv-x="278" 
d="M183 700v-655q0 -26 -0.5 -38t-2.5 -31.5t-6 -28.5t-12.5 -22.5t-21 -21t-31 -17.5t-43 -17.5t-57.5 -16.5l-30 67q47 15 69 24t34 24.5t13.5 28.5t1.5 46v658h86z" />
    <glyph glyph-name="K" unicode="K" horiz-adv-x="657" 
d="M96 0v700h87v-394l329 394h102l-285 -337l315 -363h-105l-261 303l-95 -113v-190h-87z" />
    <glyph glyph-name="L" unicode="L" horiz-adv-x="555" 
d="M529 0h-433v700h87v-625h346v-75z" />
    <glyph glyph-name="M" unicode="M" horiz-adv-x="844" 
d="M662 0v558l-212 -441h-55l-212 438v-555h-87v700h90l236 -489l235 489h91v-700h-86z" />
    <glyph glyph-name="N" unicode="N" horiz-adv-x="730" 
d="M545 0l-362 572v-572h-87v700h89l363 -573v573h86v-700h-89z" />
    <glyph glyph-name="O" unicode="O" horiz-adv-x="740" 
d="M369 711q108 0 179 -50t100 -128.5t29 -182.5q0 -77 -17 -140.5t-52.5 -114t-96.5 -78.5t-142 -28t-141.5 28t-96 78.5t-52.5 114t-17 140.5t17 140.5t52.5 114t96 78.5t141.5 28zM369 64q116 0 167.5 77.5t51.5 208.5t-51.5 208.5t-167.5 77.5q-115 0 -166.5 -78
t-51.5 -208t51.5 -208t166.5 -78z" />
    <glyph glyph-name="P" unicode="P" horiz-adv-x="646" 
d="M608 486q0 -214 -261 -214h-164v-272h-87v700h251q261 0 261 -214zM519 486q0 140 -171 140h-165v-281h165q171 0 171 141z" />
    <glyph glyph-name="Q" unicode="Q" horiz-adv-x="740" 
d="M369 -11q-81 0 -141.5 28t-96 78.5t-52.5 114t-17 140.5t17 140.5t52.5 114t96 78.5t141.5 28q108 0 179 -50t100 -128.5t29 -182.5q0 -134 -52 -227.5t-161 -122.5l118 -94l-59 -60zM369 64q116 0 167.5 77.5t51.5 208.5t-51.5 208.5t-167.5 77.5q-115 0 -166.5 -78
t-51.5 -208t51.5 -208t166.5 -78z" />
    <glyph glyph-name="R" unicode="R" horiz-adv-x="686" 
d="M536 0l-183 297h-170v-297h-87v700h272q262 0 262 -202q0 -172 -190 -197l191 -301h-95zM542 498q0 131 -172 131h-187v-261h182q177 0 177 130z" />
    <glyph glyph-name="S" unicode="S" horiz-adv-x="613" 
d="M345 394q47 -16 77.5 -29.5t68 -38.5t56.5 -61.5t19 -83.5q0 -91 -68.5 -141.5t-168.5 -50.5q-73 0 -149 25.5t-133 59.5l40 64q133 -75 242 -75q62 0 105 29t43 83q0 24 -11 44t-26 33.5t-45.5 28t-53.5 23t-65 22.5q-8 3 -12 4q-44 14 -73 27t-62 35.5t-50 56t-17 76.5
q0 86 63.5 136t161.5 50q61 0 130 -19t121 -47l-40 -64q-46 24 -105 40t-103 16q-59 0 -98.5 -27t-39.5 -80q0 -15 4.5 -28.5t10 -23t19.5 -19l22.5 -15t29.5 -14t31.5 -12l37.5 -12t38 -12.5z" />
    <glyph glyph-name="T" unicode="T" horiz-adv-x="576" 
d="M551 625h-220v-625h-86v625h-220v75h526v-75z" />
    <glyph glyph-name="U" unicode="U" horiz-adv-x="704" 
d="M615 700v-444q0 -267 -262 -267q-263 0 -263 267v444h87v-447q0 -43 7.5 -74.5t26 -59t54 -41.5t88.5 -14q100 0 138 50t38 139v447h86z" />
    <glyph glyph-name="V" unicode="V" horiz-adv-x="683" 
d="M122 700l219 -610l221 610h97l-270 -700h-94l-271 700h98z" />
    <glyph glyph-name="W" unicode="W" horiz-adv-x="942" 
d="M623 0l-152 578l-152 -578h-92l-194 700h97l147 -597l154 597h80l154 -596l148 596h96l-194 -700h-92z" />
    <glyph glyph-name="X" unicode="X" horiz-adv-x="624" 
d="M34 700h100l178 -297l179 297h99l-230 -352l242 -348h-103l-187 289l-187 -289h-103l241 348z" />
    <glyph glyph-name="Y" unicode="Y" horiz-adv-x="635" 
d="M274 0v278l-256 422h98l202 -355l201 355h98l-257 -423v-277h-86z" />
    <glyph glyph-name="Z" unicode="Z" horiz-adv-x="621" 
d="M42 69l417 556h-394v75h502v-68l-417 -557h422v-75h-530v69z" />
    <glyph glyph-name="bracketleft" unicode="[" horiz-adv-x="342" 
d="M308 -144h-220v983h220v-58h-133v-867h133v-58z" />
    <glyph glyph-name="backslash" unicode="\" horiz-adv-x="449" 
d="M357 -90l-333 880h68l333 -880h-68z" />
    <glyph glyph-name="bracketright" unicode="]" horiz-adv-x="342" 
d="M254 -144h-220v58h134v867h-134v58h220v-983z" />
    <glyph glyph-name="asciicircum" unicode="^" horiz-adv-x="615" 
d="M447 347l-140 281l-142 -281h-91l191 353h84l191 -353h-93z" />
    <glyph glyph-name="underscore" unicode="_" horiz-adv-x="707" 
d="M631 -146h-556v63h556v-63z" />
    <glyph glyph-name="grave" unicode="`" horiz-adv-x="214" 
d="M225 599h-70l-166 130h112z" />
    <glyph glyph-name="a" unicode="a" horiz-adv-x="577" 
d="M417 0v70q-88 -81 -195 -81q-72 0 -124 42t-52 126t52 127.5t130 43.5q27 0 62 -5t78.5 -13.5l48.5 -9.5v59q0 58 -24 84t-86 26q-61 0 -195 -44l-30 61q139 50 236 50q90 0 136 -41t46 -133v-362h-83zM242 58q91 0 175 77v115q-118 23 -158 23q-67 0 -97.5 -31
t-30.5 -81q0 -103 111 -103z" />
    <glyph glyph-name="b" unicode="b" horiz-adv-x="603" 
d="M81 0v729h83v-272q88 79 185 79q89 0 144.5 -68t55.5 -206t-55.5 -205.5t-144.5 -67.5q-100 0 -185 79v-68h-83zM333 467q-95 0 -169 -85v-240q75 -84 169 -84q64 0 98 53.5t34 150.5t-34 151t-98 54z" />
    <glyph glyph-name="c" unicode="c" horiz-adv-x="522" 
d="M484 467l-38 -62q-1 1 -16 9.5l-23.5 13t-25.5 12.5t-30.5 12.5t-30.5 8t-32 3.5q-65 0 -107 -55t-42 -146t42 -146.5t107 -55.5q18 0 37.5 4.5t38.5 12.5t32 14t30 16t20 11l38 -61q-120 -69 -203 -69q-95 0 -161.5 72t-66.5 202t66.5 201.5t161.5 71.5q83 0 203 -69z
" />
    <glyph glyph-name="d" unicode="d" horiz-adv-x="603" 
d="M522 0h-83v68q-85 -79 -185 -79q-89 0 -144.5 67.5t-55.5 205.5t55.5 206t144.5 68q97 0 185 -79v272h83v-729zM270 58q92 0 169 84v240q-76 85 -169 85q-64 0 -98 -54t-34 -151t34 -150.5t98 -53.5z" />
    <glyph glyph-name="e" unicode="e" horiz-adv-x="575" 
d="M513 241h-375q5 -86 46 -136t105 -50q76 0 196 71l38 -55q-40 -24 -63 -36t-76 -29t-100 -17q-100 0 -165.5 71t-65.5 202q0 130 67.5 202t176.5 72q107 0 165 -62.5t58 -164.5q0 -17 -2 -34t-4 -25zM296 472q-68 0 -109 -47t-48 -130h298q4 177 -141 177z" />
    <glyph glyph-name="f" unicode="f" horiz-adv-x="352" 
d="M33 461v64h74v72q0 72 30.5 102t86.5 30q66 0 155 -35l-30 -61q-72 24 -111 24q-50 0 -50 -56v-76h142v-64h-142v-461h-81v461h-74z" />
    <glyph glyph-name="g" unicode="g" horiz-adv-x="603" 
d="M439 525h83v-555q0 -184 -200 -184q-110 0 -245 38l18 70q133 -39 216 -39q65 0 96.5 26t31.5 86v101q-85 -79 -185 -79q-89 0 -144.5 67.5t-55.5 205.5t55.5 206t144.5 68q97 0 185 -79v68zM270 58q92 0 169 84v240q-76 85 -169 85q-64 0 -98 -54t-34 -151t34 -150.5
t98 -53.5z" />
    <glyph glyph-name="h" unicode="h" 
d="M164 729v-278q41 31 99 58t117 27q150 0 150 -162v-374h-83v359q0 109 -91 109q-49 0 -103.5 -28t-88.5 -58v-382h-83v729h83z" />
    <glyph glyph-name="i" unicode="i" horiz-adv-x="245" 
d="M163 0h-83v525h83v-525zM77 629v97h92v-97h-92z" />
    <glyph glyph-name="j" unicode="j" horiz-adv-x="245" 
d="M77 629v97h92v-97h-92zM165 525v-545q0 -30 -0.5 -43.5t-3.5 -34.5t-9.5 -30.5t-18.5 -23.5t-31 -22.5t-46 -18.5t-64 -20l-28 63q31 10 49.5 16.5t33 16t21 15t10 20t4 24.5t0.5 34v549h83z" />
    <glyph glyph-name="k" unicode="k" horiz-adv-x="526" 
d="M479 525l-177 -212l210 -313h-89l-171 253l-88 -105v-148h-83v729h83v-479l221 275h94z" />
    <glyph glyph-name="l" unicode="l" horiz-adv-x="254" 
d="M168 0h-82v729h82v-729z" />
    <glyph glyph-name="m" unicode="m" horiz-adv-x="920" 
d="M164 525v-77q98 88 193 88q110 0 138 -98q36 36 90.5 67t112.5 31q145 0 145 -162v-374h-83v359q0 109 -86 109q-45 0 -92 -28.5t-80 -64.5v-375h-82v359q0 109 -87 109q-80 0 -169 -89v-379h-83v525h83z" />
    <glyph glyph-name="n" unicode="n" 
d="M164 525v-74q41 31 99 58t117 27q150 0 150 -162v-374h-83v359q0 109 -91 109q-49 0 -103.5 -28t-88.5 -58v-382h-83v525h83z" />
    <glyph glyph-name="o" unicode="o" horiz-adv-x="600" 
d="M548 262q0 -129 -64 -201t-183 -72q-120 0 -184 72t-64 201t64.5 201.5t183.5 72.5t183 -72.5t64 -201.5zM463 262q0 98 -39.5 152.5t-122.5 54.5t-123 -54.5t-40 -152.5q0 -206 163 -206q162 0 162 206z" />
    <glyph glyph-name="p" unicode="p" horiz-adv-x="603" 
d="M164 525v-68q88 79 185 79q89 0 144.5 -68t55.5 -206t-55.5 -205.5t-144.5 -67.5q-100 0 -185 79v-272h-83v729h83zM333 467q-95 0 -169 -85v-240q75 -84 169 -84q64 0 98 53.5t34 150.5t-34 151t-98 54z" />
    <glyph glyph-name="q" unicode="q" horiz-adv-x="603" 
d="M439 -204v272q-85 -79 -185 -79q-89 0 -144.5 67.5t-55.5 205.5t55.5 206t144.5 68q97 0 185 -79v68h83v-729h-83zM270 58q92 0 169 84v240q-76 85 -169 85q-64 0 -98 -54t-34 -151t34 -150.5t98 -53.5z" />
    <glyph glyph-name="r" unicode="r" horiz-adv-x="387" 
d="M164 525v-112q5 12 15.5 28t33.5 40.5t62.5 38.5t87.5 11v-79q-50 0 -89 -17t-59 -41t-32.5 -48.5t-15.5 -41.5l-3 -17v-287h-83v525h83z" />
    <glyph glyph-name="s" unicode="s" horiz-adv-x="512" 
d="M279 301q93 -25 141.5 -63t48.5 -103q0 -71 -54.5 -108.5t-136.5 -37.5q-119 0 -234 64l37 61q110 -58 193 -58q46 0 79 20t33 56q0 22 -12.5 38.5t-36 28t-45 18.5t-50.5 15l-12 3q-37 10 -62.5 20t-54 28t-43.5 45.5t-15 63.5q0 67 50.5 105.5t133.5 38.5q99 0 207 -53
l-36 -58q-94 44 -169 44q-47 0 -75.5 -19.5t-28.5 -53.5q0 -21 11.5 -37t34.5 -27t39.5 -16t44.5 -12z" />
    <glyph glyph-name="t" unicode="t" horiz-adv-x="383" 
d="M34 461v64h74v132l81 20v-152h145v-64h-145v-344q0 -55 50 -55q39 0 100 27l31 -63q-81 -37 -145 -37q-117 0 -117 132v340h-74z" />
    <glyph glyph-name="u" unicode="u" 
d="M443 0v73q-113 -84 -217 -84q-149 0 -149 161v375h83v-359q0 -109 91 -109q48 0 103 27.5t89 58.5v382h83v-525h-83z" />
    <glyph glyph-name="v" unicode="v" horiz-adv-x="557" 
d="M319 0h-80l-212 525h91l161 -440l161 440h91z" />
    <glyph glyph-name="w" unicode="w" horiz-adv-x="813" 
d="M535 0l-128 425l-129 -425h-82l-164 525h88l121 -439l128 439h76l128 -439l121 439h88l-166 -525h-81z" />
    <glyph glyph-name="x" unicode="x" horiz-adv-x="575" 
d="M454 0l-167 218l-166 -218h-102l219 263l-208 262h98l160 -213l158 213h99l-209 -261l220 -264h-102z" />
    <glyph glyph-name="y" unicode="y" horiz-adv-x="557" 
d="M27 525h90l161 -427l161 427h91l-294 -729h-91l92 207z" />
    <glyph glyph-name="z" unicode="z" horiz-adv-x="513" 
d="M43 0v64l320 391h-310v70h413v-64l-318 -391h318v-70h-423z" />
    <glyph glyph-name="braceleft" unicode="{" horiz-adv-x="394" 
d="M27 312v71q114 0 97 123l-12 93q-16 115 42.5 177.5t188.5 62.5h18v-57h-18q-165 0 -144 -170l12 -91q19 -145 -106 -174q125 -27 106 -172l-12 -91q-21 -170 144 -170h18v-57h-18q-131 0 -189 62t-42 178l13 93q9 66 -17 94t-81 28z" />
    <glyph glyph-name="bar" unicode="|" horiz-adv-x="243" 
d="M155 -123h-66v941h66v-941z" />
    <glyph glyph-name="braceright" unicode="}" horiz-adv-x="394" 
d="M366 383v-71q-113 0 -96 -122l13 -93q16 -116 -42.5 -178t-188.5 -62h-19v57h19q165 0 142 170l-12 91q-19 145 106 172q-125 29 -106 174l12 91q23 170 -142 170h-19v57h19q130 0 188 -62.5t42 -177.5l-13 -93q-16 -123 97 -123z" />
    <glyph glyph-name="asciitilde" unicode="~" horiz-adv-x="615" 
d="M89 206l-56 23q54 117 154 117q51 0 127.5 -37t116.5 -37q56 0 94 67l56 -22q-55 -118 -155 -118q-50 0 -126.5 37t-116.5 37q-27 0 -49 -13.5t-45 -53.5z" />
    <glyph glyph-name="uni00A0" unicode="&#xa0;" horiz-adv-x="282" 
 />
    <glyph glyph-name="exclamdown" unicode="&#xa1;" horiz-adv-x="265" 
d="M85 584v116h96v-116h-96zM158 491l25 -491h-100l23 491h52z" />
    <glyph glyph-name="cent" unicode="&#xa2;" horiz-adv-x="559" 
d="M339 0h-65v77q-90 6 -151.5 77.5t-61.5 196.5t61.5 195.5t151.5 76.5v77h65v-81q62 -13 164 -71l-39 -61q-4 2 -22 12.5l-31 17.5t-33.5 15.5t-38.5 13.5v-392q41 11 125 60l39 -61q-105 -60 -164 -71v-82zM147 351q0 -83 35 -137t92 -63v399q-57 -9 -92 -62.5
t-35 -136.5z" />
    <glyph glyph-name="sterling" unicode="&#xa3;" horiz-adv-x="557" 
d="M73 259v58h103q-8 30 -32 67.5t-41.5 75.5t-17.5 81q0 77 53 123.5t143 46.5q93 0 223 -70l-41 -60q-107 56 -172 56q-57 0 -89 -31t-32 -76q0 -42 41 -108t50 -105h164v-58h-160q-5 -58 -35.5 -108.5t-58.5 -76.5h321v-74h-430v61q5 3 12.5 9.5t27.5 27t36 42t29.5 54.5
t15.5 65h-110z" />
    <glyph glyph-name="yen" unicode="&#xa5;" horiz-adv-x="669" 
d="M97 297v57h148l-210 346h98l202 -355l201 355h98l-211 -346h148v-57h-182l-12 -20v-52h194v-57h-194v-168h-86v168h-194v57h194v54l-11 18h-183z" />
    <glyph glyph-name="brokenbar" unicode="&#xa6;" horiz-adv-x="245" 
d="M156 405h-66v413h66v-413zM156 -123h-66v413h66v-413z" />
    <glyph glyph-name="section" unicode="&#xa7;" horiz-adv-x="550" 
d="M248 163q-93 25 -141.5 63t-48.5 101q0 86 98 119q-78 42 -78 120q0 68 51 106.5t134 38.5q97 0 207 -53l-36 -58q-92 44 -168 44q-47 0 -77 -19.5t-30 -53.5q0 -21 11.5 -37t35.5 -27t40 -16t46 -12l12 -3q189 -48 189 -164q0 -87 -99 -120q78 -43 78 -120
q0 -67 -51 -105.5t-134 -38.5q-101 0 -207 53l36 58q96 -45 170 -45q46 0 75 20t29 54q0 12 -4.5 22t-9.5 17.5t-17 15t-19 11.5t-23.5 9.5t-23 7.5t-24 6.5zM254 410l-14 3q-46 -5 -74 -25.5t-28 -53.5q0 -22 12.5 -39t38.5 -29.5t44 -18.5t52 -15q7 -2 11 -3l14 -4
q46 5 74.5 25.5t28.5 53.5q0 22 -12.5 39.5t-39 30t-44.5 18.5t-52 15q-7 2 -11 3z" />
    <glyph glyph-name="dieresis" unicode="&#xa8;" horiz-adv-x="231" 
d="M-10 609v93h83v-93h-83zM159 609v93h82v-93h-82z" />
    <glyph glyph-name="copyright" unicode="&#xa9;" horiz-adv-x="836" 
d="M579 505l-31 -36q-69 54 -134 54q-56 0 -90 -47.5t-34 -126.5q0 -78 34 -125t90 -47q64 0 134 52l31 -35q-88 -62 -167 -62q-74 0 -124 57t-50 160q0 104 50 161t124 57q79 0 167 -62zM62 350q0 157 95 259t262 102t261.5 -102t94.5 -259t-94.5 -259t-261.5 -102
t-262 102t-95 259zM102 350q0 -141 84 -232t232 -91q149 0 233.5 91t84.5 232t-84.5 232t-233.5 91q-148 0 -232 -91t-84 -232z" />
    <glyph glyph-name="ordfeminine" unicode="&#xaa;" horiz-adv-x="424" 
d="M288 385v41q-52 -48 -122 -48q-46 0 -78.5 26.5t-32.5 75.5q0 50 33 76.5t84 26.5q28 0 116 -17v31q0 32 -15 46.5t-51 14.5t-123 -26l-21 45q92 30 153 30q120 0 120 -109v-213h-63zM184 429q56 0 104 42v60q-71 13 -93 13q-75 0 -75 -60q0 -55 64 -55z" />
    <glyph glyph-name="guillemotleft" unicode="&#xab;" horiz-adv-x="686" 
d="M318 306l305 222v-83l-231 -166l231 -165v-83l-305 221v54zM38 306l305 222v-83l-231 -166l231 -165v-83l-305 221v54z" />
    <glyph glyph-name="logicalnot" unicode="&#xac;" horiz-adv-x="615" 
d="M594 90h-74v210h-503v66h577v-276z" />
    <glyph glyph-name="registered" unicode="&#xae;" horiz-adv-x="514" 
d="M59 500q0 87 53 143.5t145 56.5t144.5 -56.5t52.5 -143.5t-52.5 -143.5t-144.5 -56.5t-145 56.5t-53 143.5zM95 500q0 -74 41.5 -120.5t120.5 -46.5t120 46.5t41 120.5t-41 120.5t-120 46.5t-120.5 -46.5t-41.5 -120.5zM344 545q0 -20 -14 -35.5t-36 -20.5l47 -87h-37
l-44 85h-44v-85h-33v201h93q31 0 49.5 -16t18.5 -42zM310 545q0 28 -33 28h-61v-55h59q35 0 35 27z" />
    <glyph glyph-name="macron" unicode="&#xaf;" horiz-adv-x="292" 
d="M0 624v55h292v-55h-292z" />
    <glyph glyph-name="degree" unicode="&#xb0;" horiz-adv-x="437" 
d="M52 534q0 68 49 117t118 49q68 0 117 -49t49 -117q0 -69 -49 -118t-117 -49q-69 0 -118 49t-49 118zM107 534q0 -46 32.5 -79t79.5 -33q46 0 79 33t33 79t-33 79t-79 33t-79 -33t-33 -79z" />
    <glyph glyph-name="plusminus" unicode="&#xb1;" horiz-adv-x="615" 
d="M271 530h68v-162h219v-66h-219v-162h-68v162h-215v66h215v162zM56 0v60h502v-60h-502z" />
    <glyph glyph-name="twosuperior" unicode="&#xb2;" horiz-adv-x="392" 
d="M346 440v-55h-307v36q0 31 10.5 56.5t34.5 48t41.5 35t52.5 34.5t52 34t32.5 31t15.5 39q0 26 -21 42t-59 16q-59 0 -116 -39l-31 43q77 51 154 51q65 0 102.5 -30.5t37.5 -80.5q0 -27 -10 -49.5t-34.5 -44t-39 -31t-51.5 -31.5q-9 -5 -13 -8q-43 -26 -62.5 -46.5
t-19.5 -50.5h231z" />
    <glyph glyph-name="threesuperior" unicode="&#xb3;" horiz-adv-x="394" 
d="M30 425l31 45q65 -37 127 -37q42 0 69 19.5t27 52.5q0 41 -41 60t-93 19h-21v56h24q45 0 78.5 16t33.5 49q0 24 -20 38t-54 14q-53 0 -113 -35l-27 41q62 49 149 49q63 0 97 -29t34 -71q0 -30 -20.5 -55.5t-60.5 -39.5q45 -12 73 -42t28 -70q0 -52 -39.5 -89.5
t-115.5 -37.5q-82 0 -166 47z" />
    <glyph glyph-name="acute" unicode="&#xb4;" horiz-adv-x="214" 
d="M58 599h-69l122 130h114z" />
    <glyph glyph-name="mu" unicode="&#xb5;" 
d="M88 -204v729h83v-359q0 -109 90 -109q48 0 103.5 28t89.5 58v382h82v-525h-82v73q-116 -84 -218 -84q-37 0 -65 11v-204h-83z" />
    <glyph glyph-name="paragraph" unicode="&#xb6;" horiz-adv-x="644" 
d="M289 700h73v-885h-75v454q-114 0 -181 55.5t-67 159.5q0 107 64 161.5t186 54.5zM472 -186v886h75v-886h-75z" />
    <glyph glyph-name="periodcentered" unicode="&#xb7;" horiz-adv-x="248" 
d="M76 224v121h96v-121h-96z" />
    <glyph glyph-name="cedilla" unicode="&#xb8;" horiz-adv-x="173" 
d="M-4 -153l21 50q29 -14 51 -14q56 0 56 46q0 16 -8 34.5t-16 28.5l-7 10h43q40 -42 40 -91q0 -39 -28 -61t-73 -22q-41 0 -79 19z" />
    <glyph glyph-name="onesuperior" unicode="&#xb9;" horiz-adv-x="258" 
d="M192 385h-66v357l-78 -39l-28 44l111 58h61v-420z" />
    <glyph glyph-name="ordmasculine" unicode="&#xba;" horiz-adv-x="431" 
d="M375 542q0 -77 -41.5 -120.5t-118.5 -43.5t-118.5 43.5t-41.5 120.5q0 78 41.5 121.5t118.5 43.5t118.5 -43.5t41.5 -121.5zM311 542q0 115 -96 115t-96 -115q0 -114 96 -114t96 114z" />
    <glyph glyph-name="guillemotright" unicode="&#xbb;" horiz-adv-x="686" 
d="M368 252l-306 -221v83l231 165l-231 166v83l306 -222v-54zM648 306v-54l-306 -221v83l231 165l-231 166v83z" />
    <glyph glyph-name="onequarter" unicode="&#xbc;" horiz-adv-x="817" 
d="M640 0v89h-229v47l209 284h87v-277h68v-54h-68v-89h-67zM565 700l-333 -700h-70l333 700h70zM204 280h-66v357l-78 -39l-28 44l111 58h61v-420zM480 143h160v222z" />
    <glyph glyph-name="onehalf" unicode="&#xbd;" horiz-adv-x="840" 
d="M204 280h-66v357l-78 -39l-28 44l111 58h61v-420zM565 700l-333 -700h-70l333 700h70zM784 55v-55h-307v36q0 31 10.5 56.5t35 48t41.5 34.5t53 35t52 34t32 30.5t16 39.5q0 25 -21.5 41.5t-58.5 16.5q-60 0 -117 -39l-31 43q77 51 155 51q64 0 101.5 -30.5t37.5 -80.5
q0 -27 -10 -49.5t-34.5 -44t-39 -31t-51.5 -31.5q-9 -5 -13 -8q-42 -25 -61.5 -46t-19.5 -51h230z" />
    <glyph glyph-name="threequarters" unicode="&#xbe;" horiz-adv-x="929" 
d="M523 89v47l209 284h87v-277h67v-54h-67v-89h-66v89h-230zM45 320l31 45q63 -37 127 -37q42 0 69 19.5t27 52.5q0 41 -41.5 60t-93.5 19h-21v56h24q45 0 79 16.5t34 48.5q0 24 -20 38t-55 14q-52 0 -112 -35l-28 41q11 9 28 18.5t51.5 20t69.5 10.5q63 0 97.5 -29
t34.5 -71q0 -30 -20.5 -55.5t-60.5 -39.5q44 -12 72 -42t28 -70q0 -53 -39 -90t-116 -37q-84 0 -165 47zM678 700l-333 -700h-70l333 700h70zM593 143h160v222z" />
    <glyph glyph-name="questiondown" unicode="&#xbf;" horiz-adv-x="512" 
d="M46 159q0 147 219 203l6 129h60l7 -176q-103 -23 -154 -55.5t-51 -90.5q0 -50 36.5 -78t94.5 -28q77 0 173 58l40 -58q-106 -74 -224 -74q-86 0 -146.5 44.5t-60.5 125.5zM349 700v-116h-96v116h96z" />
    <glyph glyph-name="Agrave" unicode="&#xc0;" horiz-adv-x="686" 
d="M567 0l-62 171h-324l-62 -171h-94l271 700h94l271 -700h-94zM343 620l-137 -378h273zM422 750h-70l-166 130h112z" />
    <glyph glyph-name="Aacute" unicode="&#xc1;" horiz-adv-x="686" 
d="M567 0l-62 171h-324l-62 -171h-94l271 700h94l271 -700h-94zM343 620l-137 -378h273zM335 750h-70l122 130h113z" />
    <glyph glyph-name="Acircumflex" unicode="&#xc2;" horiz-adv-x="686" 
d="M567 0l-62 171h-324l-62 -171h-94l271 700h94l271 -700h-94zM343 620l-137 -378h273zM391 880l100 -130h-63l-85 85l-84 -85h-63l98 130h97z" />
    <glyph glyph-name="Atilde" unicode="&#xc3;" horiz-adv-x="686" 
d="M567 0l-62 171h-324l-62 -171h-94l271 700h94l271 -700h-94zM343 620l-137 -378h273zM231 760l-46 20q15 29 25.5 44t28 27.5t39.5 12.5q28 0 70.5 -24.5t56.5 -24.5q24 0 50 46l45 -19q-21 -43 -41.5 -64t-51.5 -21q-27 0 -69.5 24.5t-56.5 24.5q-25 0 -50 -46z" />
    <glyph glyph-name="Adieresis" unicode="&#xc4;" horiz-adv-x="686" 
d="M567 0l-62 171h-324l-62 -171h-94l271 700h94l271 -700h-94zM343 620l-137 -378h273zM218 761v93h83v-93h-83zM386 761v93h83v-93h-83z" />
    <glyph glyph-name="Aring" unicode="&#xc5;" horiz-adv-x="686" 
d="M567 0l-62 171h-324l-62 -171h-94l271 700h94l271 -700h-94zM343 620l-137 -378h273zM241 843q0 44 30 74.5t73 30.5t73.5 -30.5t30.5 -74.5q0 -43 -30.5 -73t-73.5 -30t-73 30t-30 73zM288 843q0 -23 16 -39.5t40 -16.5t40.5 16.5t16.5 39.5q0 24 -16.5 40.5t-40.5 16.5
t-40 -16.5t-16 -40.5z" />
    <glyph glyph-name="AE" unicode="&#xc6;" horiz-adv-x="1007" 
d="M951 0h-450v171h-294l-114 -171h-102l481 700h472v-75h-357v-238h296v-74h-296v-238h364v-75zM256 244h245v366z" />
    <glyph glyph-name="Ccedilla" unicode="&#xc7;" horiz-adv-x="647" 
d="M219 -153l20 50q31 -14 51 -14q56 0 56 46q0 27 -21 60q-114 5 -188 95.5t-74 265.5q0 179 78 270t197 91q117 0 269 -103l-45 -62q-40 26 -66 40.5t-70 30.5t-81 16q-86 0 -139.5 -75.5t-53.5 -207.5t53.5 -207.5t139.5 -75.5q37 0 81 16t70 30.5t66 40.5l45 -62
q-135 -91 -239 -101q32 -43 32 -80q0 -39 -28.5 -61t-73.5 -22q-42 0 -79 19z" />
    <glyph glyph-name="Egrave" unicode="&#xc8;" horiz-adv-x="600" 
d="M546 0h-450v700h444v-75h-357v-238h295v-74h-295v-238h363v-75zM400 750h-70l-166 130h113z" />
    <glyph glyph-name="Eacute" unicode="&#xc9;" horiz-adv-x="600" 
d="M546 0h-450v700h444v-75h-357v-238h295v-74h-295v-238h363v-75zM312 750h-69l123 130h113z" />
    <glyph glyph-name="Ecircumflex" unicode="&#xca;" horiz-adv-x="600" 
d="M546 0h-450v700h444v-75h-357v-238h295v-74h-295v-238h363v-75zM368 880l100 -130h-62l-85 85l-85 -85h-62l99 130h95z" />
    <glyph glyph-name="Edieresis" unicode="&#xcb;" horiz-adv-x="600" 
d="M546 0h-450v700h444v-75h-357v-238h295v-74h-295v-238h363v-75zM195 760v93h83v-93h-83zM364 760v93h82v-93h-82z" />
    <glyph glyph-name="Igrave" unicode="&#xcc;" horiz-adv-x="278" 
d="M183 0h-86v700h86v-700zM218 750h-69l-167 130h113z" />
    <glyph glyph-name="Iacute" unicode="&#xcd;" horiz-adv-x="278" 
d="M182 0h-87v700h87v-700zM130 750h-69l122 130h114z" />
    <glyph glyph-name="Icircumflex" unicode="&#xce;" horiz-adv-x="278" 
d="M182 0h-86v700h86v-700zM187 880l100 -130h-63l-85 85l-84 -85h-63l99 130h96z" />
    <glyph glyph-name="Idieresis" unicode="&#xcf;" horiz-adv-x="278" 
d="M182 0h-86v700h86v-700zM14 759v93h83v-93h-83zM182 759v93h82v-93h-82z" />
    <glyph glyph-name="Eth" unicode="&#xd0;" horiz-adv-x="712" 
d="M648 350q0 -350 -330 -350h-215v314h-75v72h75v314h215q330 0 330 -350zM560 350q0 143 -59.5 209t-186.5 66h-125v-239h168v-72h-168v-239h125q127 0 186.5 65.5t59.5 209.5z" />
    <glyph glyph-name="Ntilde" unicode="&#xd1;" horiz-adv-x="730" 
d="M185 700l363 -573v573h86v-700h-89l-362 572v-572h-87v700h89zM259 762l-45 20q21 42 41 63t52 21q27 0 69.5 -24t56.5 -24q13 0 24 9t26 37l45 -20q-20 -41 -40.5 -62.5t-52.5 -21.5q-27 0 -69.5 24t-56.5 24q-13 0 -24 -9t-26 -37z" />
    <glyph glyph-name="Ograve" unicode="&#xd2;" horiz-adv-x="740" 
d="M369 711q108 0 179 -50t100 -128.5t29 -182.5q0 -77 -17 -140.5t-52.5 -114t-96.5 -78.5t-142 -28t-141.5 28t-96 78.5t-52.5 114t-17 140.5t17 140.5t52.5 114t96 78.5t141.5 28zM369 64q116 0 167.5 77.5t51.5 208.5t-51.5 208.5t-167.5 77.5q-115 0 -166.5 -78
t-51.5 -208t51.5 -208t166.5 -78zM448 750h-69l-167 130h113z" />
    <glyph glyph-name="Oacute" unicode="&#xd3;" horiz-adv-x="740" 
d="M369 711q108 0 179 -50t100 -128.5t29 -182.5q0 -77 -17 -140.5t-52.5 -114t-96.5 -78.5t-142 -28t-141.5 28t-96 78.5t-52.5 114t-17 140.5t17 140.5t52.5 114t96 78.5t141.5 28zM369 64q116 0 167.5 77.5t51.5 208.5t-51.5 208.5t-167.5 77.5q-115 0 -166.5 -78
t-51.5 -208t51.5 -208t166.5 -78zM361 750h-70l122 130h114z" />
    <glyph glyph-name="Ocircumflex" unicode="&#xd4;" horiz-adv-x="740" 
d="M369 711q108 0 179 -50t100 -128.5t29 -182.5q0 -77 -17 -140.5t-52.5 -114t-96.5 -78.5t-142 -28t-141.5 28t-96 78.5t-52.5 114t-17 140.5t17 140.5t52.5 114t96 78.5t141.5 28zM369 64q116 0 167.5 77.5t51.5 208.5t-51.5 208.5t-167.5 77.5q-115 0 -166.5 -78
t-51.5 -208t51.5 -208t166.5 -78zM417 880l100 -130h-63l-85 85l-84 -85h-63l100 130h95z" />
    <glyph glyph-name="Otilde" unicode="&#xd5;" horiz-adv-x="740" 
d="M369 711q108 0 179 -50t100 -128.5t29 -182.5q0 -77 -17 -140.5t-52.5 -114t-96.5 -78.5t-142 -28t-141.5 28t-96 78.5t-52.5 114t-17 140.5t17 140.5t52.5 114t96 78.5t141.5 28zM369 64q116 0 167.5 77.5t51.5 208.5t-51.5 208.5t-167.5 77.5q-115 0 -166.5 -78
t-51.5 -208t51.5 -208t166.5 -78zM257 760l-45 20q22 42 42 63t51 21q27 0 69.5 -24.5t56.5 -24.5q25 0 50 46l45 -19q-20 -42 -40.5 -63.5t-52.5 -21.5q-27 0 -69.5 24.5t-56.5 24.5q-25 0 -50 -46z" />
    <glyph glyph-name="Odieresis" unicode="&#xd6;" horiz-adv-x="740" 
d="M369 711q108 0 179 -50t100 -128.5t29 -182.5q0 -77 -17 -140.5t-52.5 -114t-96.5 -78.5t-142 -28t-141.5 28t-96 78.5t-52.5 114t-17 140.5t17 140.5t52.5 114t96 78.5t141.5 28zM369 64q116 0 167.5 77.5t51.5 208.5t-51.5 208.5t-167.5 77.5q-115 0 -166.5 -78
t-51.5 -208t51.5 -208t166.5 -78zM244 760v93h83v-93h-83zM413 760v93h82v-93h-82z" />
    <glyph glyph-name="multiply" unicode="&#xd7;" horiz-adv-x="615" 
d="M508 470l-150 -136l151 -136l-48 -47l-154 138l-151 -137l-49 48l149 135l-151 137l48 48l154 -140l152 138z" />
    <glyph glyph-name="Oslash" unicode="&#xd8;" horiz-adv-x="738" 
d="M666 700l-65 -87q76 -95 76 -263q0 -77 -17 -140.5t-52.5 -114t-96.5 -78.5t-142 -28q-117 0 -191 58l-35 -47h-70l65 87q-76 93 -76 263q0 77 17 140.5t52 114t96 78.5t142 28q115 0 191 -58l35 47h71zM369 64q116 0 167.5 78t51.5 208q0 119 -41 191l-320 -428
q54 -49 142 -49zM151 350q0 -122 40 -191l320 428q-54 49 -142 49q-79 0 -129 -39.5t-69.5 -101t-19.5 -145.5z" />
    <glyph glyph-name="Ugrave" unicode="&#xd9;" horiz-adv-x="704" 
d="M615 700v-444q0 -267 -262 -267q-263 0 -263 267v444h87v-447q0 -43 7.5 -74.5t26 -59t54 -41.5t88.5 -14q100 0 138 50t38 139v447h86zM432 750h-69l-167 130h113z" />
    <glyph glyph-name="Uacute" unicode="&#xda;" horiz-adv-x="704" 
d="M615 700v-444q0 -267 -262 -267q-263 0 -263 267v444h87v-447q0 -43 7.5 -74.5t26 -59t54 -41.5t88.5 -14q100 0 138 50t38 139v447h86zM344 750h-69l122 130h114z" />
    <glyph glyph-name="Ucircumflex" unicode="&#xdb;" horiz-adv-x="704" 
d="M615 700v-444q0 -267 -262 -267q-263 0 -263 267v444h87v-447q0 -43 7.5 -74.5t26 -59t54 -41.5t88.5 -14q100 0 138 50t38 139v447h86zM401 880l100 -130h-63l-85 85l-85 -85h-62l99 130h96z" />
    <glyph glyph-name="Udieresis" unicode="&#xdc;" horiz-adv-x="704" 
d="M615 700v-444q0 -267 -262 -267q-263 0 -263 267v444h87v-447q0 -43 7.5 -74.5t26 -59t54 -41.5t88.5 -14q100 0 138 50t38 139v447h86zM227 760v93h82v-93h-82zM396 760v93h82v-93h-82z" />
    <glyph glyph-name="Yacute" unicode="&#xdd;" horiz-adv-x="635" 
d="M274 0v278l-256 422h98l202 -355l201 355h98l-257 -423v-277h-86zM309 750h-69l122 130h113z" />
    <glyph glyph-name="Thorn" unicode="&#xde;" horiz-adv-x="657" 
d="M608 362q0 -215 -261 -215h-164v-147h-87v700h87v-125h164q261 0 261 -213zM519 362q0 139 -178 139h-158v-281h158q178 0 178 142z" />
    <glyph glyph-name="germandbls" unicode="&#xdf;" horiz-adv-x="644" 
d="M329 711q248 0 248 -224v-4l-53 -45q-68 34 -127 34q-38 0 -63 -20.5t-25 -54.5q0 -10 2.5 -18.5t5 -15t9.5 -13l11 -10.5t14 -9.5t14.5 -7.5t17 -6.5t16.5 -5.5t17.5 -5t16.5 -5q81 -25 124 -63.5t43 -102.5q0 -71 -48 -108.5t-123 -37.5q-107 0 -211 64l34 58
q97 -58 168 -58q40 0 68.5 20.5t28.5 57.5q0 19 -9.5 34.5t-19 24.5t-33.5 19.5t-33.5 13.5l-38.5 12q-34 11 -55.5 20.5t-48 27.5t-39.5 45.5t-13 63.5q0 67 45.5 105.5t118.5 38.5q48 0 102 -17q-8 68 -48.5 96.5t-115.5 28.5q-84 0 -124.5 -36t-40.5 -124v-484h-83v486
q0 225 248 225z" />
    <glyph glyph-name="agrave" unicode="&#xe0;" horiz-adv-x="577" 
d="M417 0v70q-88 -81 -195 -81q-72 0 -124 42t-52 126t52 127.5t130 43.5q27 0 62 -5t78.5 -13.5l48.5 -9.5v59q0 58 -24 84t-86 26q-61 0 -195 -44l-30 61q139 50 236 50q90 0 136 -41t46 -133v-362h-83zM242 58q91 0 175 77v115q-118 23 -158 23q-67 0 -97.5 -31
t-30.5 -81q0 -103 111 -103zM370 599h-70l-165 130h112z" />
    <glyph glyph-name="aacute" unicode="&#xe1;" horiz-adv-x="577" 
d="M417 0v70q-88 -81 -195 -81q-72 0 -124 42t-52 126t52 127.5t130 43.5q27 0 62 -5t78.5 -13.5l48.5 -9.5v59q0 58 -24 84t-86 26q-61 0 -195 -44l-30 61q139 50 236 50q90 0 136 -41t46 -133v-362h-83zM242 58q91 0 175 77v115q-118 23 -158 23q-67 0 -97.5 -31
t-30.5 -81q0 -103 111 -103zM283 599h-70l123 130h113z" />
    <glyph glyph-name="acircumflex" unicode="&#xe2;" horiz-adv-x="576" 
d="M417 0v70q-88 -81 -195 -81q-72 0 -124 42t-52 126t52 127.5t130 43.5q27 0 62 -5t78.5 -13.5l48.5 -9.5v59q0 58 -24 84t-86 26q-61 0 -195 -44l-30 61q139 50 236 50q90 0 136 -41t46 -133v-362h-83zM242 58q91 0 175 77v115q-118 23 -158 23q-67 0 -97.5 -31
t-30.5 -81q0 -103 111 -103zM340 729l99 -130h-63l-85 85l-84 -85h-63l99 130h97z" />
    <glyph glyph-name="atilde" unicode="&#xe3;" horiz-adv-x="577" 
d="M417 0v70q-88 -81 -195 -81q-72 0 -124 42t-52 126t52 127.5t130 43.5q27 0 62 -5t78.5 -13.5l48.5 -9.5v59q0 58 -24 84t-86 26q-61 0 -195 -44l-30 61q139 50 236 50q90 0 136 -41t46 -133v-362h-83zM242 58q91 0 175 77v115q-118 23 -158 23q-67 0 -97.5 -31
t-30.5 -81q0 -103 111 -103zM179 609l-45 20q22 42 42 63t51 21q27 0 69.5 -24.5t56.5 -24.5q25 0 50 46l45 -19q-20 -42 -40.5 -63.5t-52.5 -21.5q-27 0 -69.5 24.5t-56.5 24.5q-25 0 -50 -46z" />
    <glyph glyph-name="adieresis" unicode="&#xe4;" horiz-adv-x="577" 
d="M417 0v70q-88 -81 -195 -81q-72 0 -124 42t-52 126t52 127.5t130 43.5q27 0 62 -5t78.5 -13.5l48.5 -9.5v59q0 58 -24 84t-86 26q-61 0 -195 -44l-30 61q139 50 236 50q90 0 136 -41t46 -133v-362h-83zM242 58q91 0 175 77v115q-118 23 -158 23q-67 0 -97.5 -31
t-30.5 -81q0 -103 111 -103zM166 609v93h83v-93h-83zM334 609v93h82v-93h-82z" />
    <glyph glyph-name="aring" unicode="&#xe5;" horiz-adv-x="577" 
d="M417 0v70q-88 -81 -195 -81q-72 0 -124 42t-52 126t52 127.5t130 43.5q27 0 62 -5t78.5 -13.5l48.5 -9.5v59q0 58 -24 84t-86 26q-61 0 -195 -44l-30 61q139 50 236 50q90 0 136 -41t46 -133v-362h-83zM242 58q91 0 175 77v115q-118 23 -158 23q-67 0 -97.5 -31
t-30.5 -81q0 -103 111 -103zM188 692q0 44 30 74.5t73 30.5t73.5 -30.5t30.5 -74.5q0 -43 -30.5 -73t-73.5 -30t-73 30t-30 73zM235 692q0 -23 16 -39.5t40 -16.5t40.5 16.5t16.5 39.5q0 24 -16.5 40.5t-40.5 16.5t-40 -16.5t-16 -40.5z" />
    <glyph glyph-name="ae" unicode="&#xe6;" horiz-adv-x="921" 
d="M859 241h-375q5 -86 46 -136t105 -50q75 0 197 71l37 -55q-38 -23 -62 -35.5t-76.5 -29.5t-100.5 -17q-126 0 -189 103q-100 -103 -219 -103q-72 0 -124 42t-52 126t52 127.5t130 43.5q48 0 172 -31q5 46 16 81q-3 47 -27.5 69t-81.5 22q-61 0 -195 -44l-30 61
q139 50 236 50q113 0 155 -65q67 65 170 65q108 0 166 -62.5t58 -164.5q0 -17 -2 -34t-4 -25zM418 139q-18 50 -19 106q-106 28 -140 28q-67 0 -97.5 -31t-30.5 -81q0 -103 111 -103q90 0 176 81zM642 472q-68 0 -109 -47t-48 -130h298q4 177 -141 177z" />
    <glyph glyph-name="ccedilla" unicode="&#xe7;" horiz-adv-x="523" 
d="M151 -153l21 50q28 -14 51 -14q56 0 56 46q0 29 -22 61q-87 9 -145.5 80t-58.5 193q0 130 66.5 201.5t161.5 71.5q83 0 203 -69l-38 -62q-1 1 -16 9.5l-23.5 13t-25.5 12.5t-30.5 12.5t-30.5 8t-32 3.5q-65 0 -107 -55t-42 -146t42 -146.5t107 -55.5q18 0 37.5 4.5
t38.5 12.5t32 14t30 16t20 11l38 -61q-110 -62 -183 -68q30 -40 30 -79t-28 -61t-73 -22q-42 0 -79 19z" />
    <glyph glyph-name="egrave" unicode="&#xe8;" horiz-adv-x="575" 
d="M513 241h-375q5 -86 46 -136t105 -50q76 0 196 71l38 -55q-40 -24 -63 -36t-76 -29t-100 -17q-100 0 -165.5 71t-65.5 202q0 130 67.5 202t176.5 72q107 0 165 -62.5t58 -164.5q0 -17 -2 -34t-4 -25zM296 472q-68 0 -109 -47t-48 -130h298q4 177 -141 177zM375 599h-69
l-166 130h113z" />
    <glyph glyph-name="eacute" unicode="&#xe9;" horiz-adv-x="575" 
d="M513 241h-375q5 -86 46 -136t105 -50q76 0 196 71l38 -55q-40 -24 -63 -36t-76 -29t-100 -17q-100 0 -165.5 71t-65.5 202q0 130 67.5 202t176.5 72q107 0 165 -62.5t58 -164.5q0 -17 -2 -34t-4 -25zM296 472q-68 0 -109 -47t-48 -130h298q4 177 -141 177zM289 599h-70
l122 130h114z" />
    <glyph glyph-name="ecircumflex" unicode="&#xea;" horiz-adv-x="575" 
d="M513 241h-375q5 -86 46 -136t105 -50q76 0 196 71l38 -55q-40 -24 -63 -36t-76 -29t-100 -17q-100 0 -165.5 71t-65.5 202q0 130 67.5 202t176.5 72q107 0 165 -62.5t58 -164.5q0 -17 -2 -34t-4 -25zM296 472q-68 0 -109 -47t-48 -130h298q4 177 -141 177zM345 729
l100 -130h-63l-85 85l-84 -85h-63l99 130h96z" />
    <glyph glyph-name="edieresis" unicode="&#xeb;" horiz-adv-x="575" 
d="M513 241h-375q5 -86 46 -136t105 -50q76 0 196 71l38 -55q-40 -24 -63 -36t-76 -29t-100 -17q-100 0 -165.5 71t-65.5 202q0 130 67.5 202t176.5 72q107 0 165 -62.5t58 -164.5q0 -17 -2 -34t-4 -25zM296 472q-68 0 -109 -47t-48 -130h298q4 177 -141 177zM172 609v93h83
v-93h-83zM340 609v93h82v-93h-82z" />
    <glyph glyph-name="igrave" unicode="&#xec;" horiz-adv-x="245" 
d="M164 0h-83v525h83v-525zM201 599h-70l-166 130h112z" />
    <glyph glyph-name="iacute" unicode="&#xed;" horiz-adv-x="245" 
d="M164 0h-83v525h83v-525zM114 599h-69l122 130h114z" />
    <glyph glyph-name="icircumflex" unicode="&#xee;" horiz-adv-x="245" 
d="M164 0h-83v525h83v-525zM170 729l100 -130h-63l-85 85l-84 -85h-63l100 130h95z" />
    <glyph glyph-name="idieresis" unicode="&#xef;" horiz-adv-x="245" 
d="M164 0h-83v525h83v-525zM-3 609v93h83v-93h-83zM166 609v93h82v-93h-82z" />
    <glyph glyph-name="eth" unicode="&#xf0;" horiz-adv-x="610" 
d="M237 557h-84l87 72q-20 3 -42 3q-19 0 -38 -2t-28 -4l-10 -3l-14 65q37 12 92 12q54 0 107 -16l56 45h86l-86 -70q90 -49 141 -148.5t51 -228.5q0 -154 -69 -223.5t-181 -69.5q-116 0 -183.5 66t-67.5 177q0 110 64 177t167 67q36 0 68 -8t51.5 -20t33.5 -23.5t20 -19.5
l6 -8q-17 67 -58 125.5t-104 87.5zM470 233q0 82 -42 129t-122 47t-122.5 -48.5t-42.5 -128.5t42.5 -128t122.5 -48q78 0 121 47t43 130z" />
    <glyph glyph-name="ntilde" unicode="&#xf1;" 
d="M164 525v-74q41 31 99 58t117 27q150 0 150 -162v-374h-83v359q0 109 -91 109q-49 0 -103.5 -28t-88.5 -58v-382h-83v525h83zM192 601l-45 20q22 43 42 63.5t51 20.5q28 0 70.5 -24t56.5 -24q13 0 23.5 9t26.5 37l45 -20q-22 -42 -42 -63t-51 -21q-28 0 -70.5 24
t-56.5 24q-13 0 -23.5 -9t-26.5 -37z" />
    <glyph glyph-name="ograve" unicode="&#xf2;" horiz-adv-x="600" 
d="M548 262q0 -129 -64 -201t-183 -72q-120 0 -184 72t-64 201t64.5 201.5t183.5 72.5t183 -72.5t64 -201.5zM463 262q0 98 -39.5 152.5t-122.5 54.5t-123 -54.5t-40 -152.5q0 -206 163 -206q162 0 162 206zM379 599h-69l-167 130h113z" />
    <glyph glyph-name="oacute" unicode="&#xf3;" horiz-adv-x="600" 
d="M548 262q0 -129 -64 -201t-183 -72q-120 0 -184 72t-64 201t64.5 201.5t183.5 72.5t183 -72.5t64 -201.5zM463 262q0 98 -39.5 152.5t-122.5 54.5t-123 -54.5t-40 -152.5q0 -206 163 -206q162 0 162 206zM292 599h-70l123 130h113z" />
    <glyph glyph-name="ocircumflex" unicode="&#xf4;" horiz-adv-x="600" 
d="M548 262q0 -129 -64 -201t-183 -72q-120 0 -184 72t-64 201t64.5 201.5t183.5 72.5t183 -72.5t64 -201.5zM463 262q0 98 -39.5 152.5t-122.5 54.5t-123 -54.5t-40 -152.5q0 -206 163 -206q162 0 162 206zM348 729l100 -130h-62l-85 85l-85 -85h-62l99 130h95z" />
    <glyph glyph-name="otilde" unicode="&#xf5;" horiz-adv-x="600" 
d="M548 262q0 -129 -64 -201t-183 -72q-120 0 -184 72t-64 201t64.5 201.5t183.5 72.5t183 -72.5t64 -201.5zM463 262q0 98 -39.5 152.5t-122.5 54.5t-123 -54.5t-40 -152.5q0 -206 163 -206q162 0 162 206zM188 609l-43 15q19 43 37.5 64t50.5 21q25 0 68.5 -20t61.5 -20
q29 -2 49 38l45 -15q-11 -22 -17 -33t-17.5 -26t-24.5 -21t-30 -6q-25 0 -69 20.5t-60 20.5t-27 -7t-24 -31z" />
    <glyph glyph-name="odieresis" unicode="&#xf6;" horiz-adv-x="600" 
d="M548 262q0 -129 -64 -201t-183 -72q-120 0 -184 72t-64 201t64.5 201.5t183.5 72.5t183 -72.5t64 -201.5zM463 262q0 98 -39.5 152.5t-122.5 54.5t-123 -54.5t-40 -152.5q0 -206 163 -206q162 0 162 206zM175 609v93h83v-93h-83zM344 609v93h82v-93h-82z" />
    <glyph glyph-name="divide" unicode="&#xf7;" horiz-adv-x="615" 
d="M56 300v66h502v-66h-502zM249 504q0 22 17.5 38t41.5 16q23 0 40.5 -16t17.5 -38t-17.5 -38.5t-40.5 -16.5q-24 0 -41.5 16.5t-17.5 38.5zM249 163q0 23 17.5 39t41.5 16t41 -16t17 -39q0 -22 -17.5 -38t-40.5 -16q-24 0 -41.5 16t-17.5 38z" />
    <glyph glyph-name="oslash" unicode="&#xf8;" horiz-adv-x="598" 
d="M534 525l-50 -64q62 -73 62 -199q0 -129 -64 -201t-183 -72q-91 0 -149 41l-24 -30h-63l50 64q-61 72 -61 198q0 129 64 201.5t183 72.5q89 0 148 -42l25 31h62zM462 262q0 82 -28 134l-238 -307q39 -33 103 -33q83 0 123 54.5t40 151.5zM137 262q0 -84 27 -132l238 305
q-40 34 -103 34q-83 0 -122.5 -54.5t-39.5 -152.5z" />
    <glyph glyph-name="ugrave" unicode="&#xf9;" 
d="M443 0v73q-113 -84 -217 -84q-149 0 -149 161v375h83v-359q0 -109 91 -109q48 0 103 27.5t89 58.5v382h83v-525h-83zM380 599h-70l-166 130h112z" />
    <glyph glyph-name="uacute" unicode="&#xfa;" 
d="M443 0v73q-113 -84 -217 -84q-149 0 -149 161v375h83v-359q0 -109 91 -109q48 0 103 27.5t89 58.5v382h83v-525h-83zM293 599h-70l122 130h113z" />
    <glyph glyph-name="ucircumflex" unicode="&#xfb;" 
d="M443 0v73q-113 -84 -217 -84q-149 0 -149 161v375h83v-359q0 -109 91 -109q48 0 103 27.5t89 58.5v382h83v-525h-83zM349 729l100 -130h-63l-85 85l-84 -85h-63l98 130h97z" />
    <glyph glyph-name="udieresis" unicode="&#xfc;" 
d="M443 0v73q-113 -84 -217 -84q-149 0 -149 161v375h83v-359q0 -109 91 -109q48 0 103 27.5t89 58.5v382h83v-525h-83zM344 609v93h83v-93h-83zM176 609v93h83v-93h-83z" />
    <glyph glyph-name="yacute" unicode="&#xfd;" horiz-adv-x="557" 
d="M27 525h90l161 -427l161 427h91l-294 -729h-91l92 207zM270 599h-70l123 130h113z" />
    <glyph glyph-name="thorn" unicode="&#xfe;" horiz-adv-x="603" 
d="M349 -11q-100 0 -185 79v-272h-83v933h83v-272q88 79 185 79q89 0 144.5 -68t55.5 -206t-55.5 -205.5t-144.5 -67.5zM333 467q-95 0 -169 -85v-240q75 -84 169 -84q64 0 98 53.5t34 150.5t-34 151t-98 54z" />
    <glyph glyph-name="ydieresis" unicode="&#xff;" horiz-adv-x="557" 
d="M27 525h90l161 -427l161 427h91l-294 -729h-91l92 207zM153 609v93h83v-93h-83zM322 609v93h82v-93h-82z" />
    <glyph glyph-name="Amacron" unicode="&#x100;" horiz-adv-x="686" 
d="M567 0l-62 171h-324l-62 -171h-94l271 700h94l271 -700h-94zM343 620l-137 -378h273zM197 775v55h292v-55h-292z" />
    <glyph glyph-name="amacron" unicode="&#x101;" horiz-adv-x="577" 
d="M417 0v70q-88 -81 -195 -81q-72 0 -124 42t-52 126t52 127.5t130 43.5q27 0 62 -5t78.5 -13.5l48.5 -9.5v59q0 58 -24 84t-86 26q-61 0 -195 -44l-30 61q139 50 236 50q90 0 136 -41t46 -133v-362h-83zM242 58q91 0 175 77v115q-118 23 -158 23q-67 0 -97.5 -31
t-30.5 -81q0 -103 111 -103zM145 625v55h292v-55h-292z" />
    <glyph glyph-name="Abreve" unicode="&#x102;" horiz-adv-x="686" 
d="M567 0l-62 171h-324l-62 -171h-94l271 700h94l271 -700h-94zM343 620l-137 -378h273zM342 750q-67 0 -104.5 28.5t-37.5 78.5h59q0 -53 83 -53q84 0 84 53h59q0 -50 -38 -78.5t-105 -28.5z" />
    <glyph glyph-name="abreve" unicode="&#x103;" horiz-adv-x="577" 
d="M417 0v70q-88 -81 -195 -81q-72 0 -124 42t-52 126t52 127.5t130 43.5q27 0 62 -5t78.5 -13.5l48.5 -9.5v59q0 58 -24 84t-86 26q-61 0 -195 -44l-30 61q139 50 236 50q90 0 136 -41t46 -133v-362h-83zM242 58q91 0 175 77v115q-118 23 -158 23q-67 0 -97.5 -31
t-30.5 -81q0 -103 111 -103zM292 599q-67 0 -104.5 28.5t-37.5 78.5h59q0 -53 83 -53q84 0 84 53h59q0 -50 -38 -78.5t-105 -28.5z" />
    <glyph glyph-name="Aogonek" unicode="&#x104;" horiz-adv-x="686" 
d="M567 0l-62 171h-324l-62 -171h-94l271 700h94l271 -700h-3q-2 -1 -14.5 -8.5t-17 -10t-15.5 -10t-16 -12l-13 -12t-12 -13.5t-7 -14t-3 -16q0 -7 1.5 -12.5t5.5 -9l7.5 -6.5t10 -4.5l10.5 -2.5t12 -1.5t11.5 -0.5h11.5h10l-11 -50q-133 0 -133 78q0 59 98 105h-27z
M343 620l-137 -378h273z" />
    <glyph glyph-name="aogonek" unicode="&#x105;" horiz-adv-x="576" 
d="M417 0v70q-88 -81 -195 -81q-72 0 -124 42t-52 126t52 127.5t130 43.5q27 0 62 -5t78.5 -13.5l48.5 -9.5v59q0 58 -24 84t-86 26q-61 0 -195 -44l-30 61q139 50 236 50q90 0 136 -41t46 -133v-362h-3q-64 -37 -82 -58q-16 -19 -16 -38q0 -8 2.5 -14t5.5 -9.5t10 -6.5
t11 -4.5t13 -2t13 -0.5h13.5h10.5l-10 -50q-23 0 -37.5 1.5t-41 7.5t-41 23.5t-14.5 45.5q0 58 100 105h-17zM242 58q91 0 175 77v115q-118 23 -158 23q-67 0 -97.5 -31t-30.5 -81q0 -103 111 -103z" />
    <glyph glyph-name="Cacute" unicode="&#x106;" horiz-adv-x="647" 
d="M607 608l-45 -62q-40 26 -66 40.5t-70 30.5t-81 16q-86 0 -139.5 -75.5t-53.5 -207.5t53.5 -207.5t139.5 -75.5q37 0 81 16t70 30.5t66 40.5l45 -62q-152 -103 -269 -103q-119 0 -197 90.5t-78 270.5q0 179 78 270t197 91q117 0 269 -103zM370 750h-69l122 130h113z" />
    <glyph glyph-name="cacute" unicode="&#x107;" horiz-adv-x="522" 
d="M484 467l-38 -62q-1 1 -16 9.5l-23.5 13t-25.5 12.5t-30.5 12.5t-30.5 8t-32 3.5q-65 0 -107 -55t-42 -146t42 -146.5t107 -55.5q18 0 37.5 4.5t38.5 12.5t32 14t30 16t20 11l38 -61q-120 -69 -203 -69q-95 0 -161.5 72t-66.5 202t66.5 201.5t161.5 71.5q83 0 203 -69z
M275 599h-69l122 130h114z" />
    <glyph glyph-name="Cdotaccent" unicode="&#x10a;" horiz-adv-x="647" 
d="M607 608l-45 -62q-40 26 -66 40.5t-70 30.5t-81 16q-86 0 -139.5 -75.5t-53.5 -207.5t53.5 -207.5t139.5 -75.5q37 0 81 16t70 30.5t66 40.5l45 -62q-152 -103 -269 -103q-119 0 -197 90.5t-78 270.5q0 179 78 270t197 91q117 0 269 -103zM304 760v93h83v-93h-83z" />
    <glyph glyph-name="cdotaccent" unicode="&#x10b;" horiz-adv-x="522" 
d="M484 467l-38 -62q-1 1 -16 9.5l-23.5 13t-25.5 12.5t-30.5 12.5t-30.5 8t-32 3.5q-65 0 -107 -55t-42 -146t42 -146.5t107 -55.5q18 0 37.5 4.5t38.5 12.5t32 14t30 16t20 11l38 -61q-120 -69 -203 -69q-95 0 -161.5 72t-66.5 202t66.5 201.5t161.5 71.5q83 0 203 -69z
M242 610v92h83v-92h-83z" />
    <glyph glyph-name="Ccaron" unicode="&#x10c;" horiz-adv-x="647" 
d="M607 608l-45 -62q-40 26 -66 40.5t-70 30.5t-81 16q-86 0 -139.5 -75.5t-53.5 -207.5t53.5 -207.5t139.5 -75.5q37 0 81 16t70 30.5t66 40.5l45 -62q-152 -103 -269 -103q-119 0 -197 90.5t-78 270.5q0 179 78 270t197 91q117 0 269 -103zM502 880l-100 -130h-95l-99 130
h62l85 -86l85 86h62z" />
    <glyph glyph-name="ccaron" unicode="&#x10d;" horiz-adv-x="522" 
d="M484 467l-38 -62q-1 1 -16 9.5l-23.5 13t-25.5 12.5t-30.5 12.5t-30.5 8t-32 3.5q-65 0 -107 -55t-42 -146t42 -146.5t107 -55.5q18 0 37.5 4.5t38.5 12.5t32 14t30 16t20 11l38 -61q-120 -69 -203 -69q-95 0 -161.5 72t-66.5 202t66.5 201.5t161.5 71.5q83 0 203 -69z
M431 729l-99 -130h-96l-100 130h63l84 -86l85 86h63z" />
    <glyph glyph-name="Dcaron" unicode="&#x10e;" horiz-adv-x="705" 
d="M643 350q0 -350 -330 -350h-217v700h217q330 0 330 -350zM554 350q0 143 -60 209t-187 66h-124v-550h124q128 0 187.5 65.5t59.5 209.5zM518 880l-100 -130h-97l-99 130h63l84 -86l86 86h63z" />
    <glyph glyph-name="dcaron" unicode="&#x10f;" horiz-adv-x="631" 
d="M522 0h-83v68q-85 -79 -185 -79q-89 0 -144.5 67.5t-55.5 205.5t55.5 206t144.5 68q97 0 185 -79v272h83v-729zM270 58q92 0 169 84v240q-76 85 -169 85q-64 0 -98 -54t-34 -151t34 -150.5t98 -53.5zM582 632v97h80l10 -101l-71 -108l-24 26l43 86h-38z" />
    <glyph glyph-name="Dcroat" unicode="&#x110;" horiz-adv-x="712" 
d="M648 350q0 -350 -330 -350h-215v314h-75v72h75v314h215q330 0 330 -350zM560 350q0 143 -59.5 209t-186.5 66h-125v-239h168v-72h-168v-239h125q127 0 186.5 65.5t59.5 209.5z" />
    <glyph glyph-name="dcroat" unicode="&#x111;" horiz-adv-x="603" 
d="M270 594v56h169v79h83v-79h65v-56h-65v-594h-83v68q-85 -79 -185 -79q-89 0 -144.5 67.5t-55.5 205.5t55.5 206t144.5 68q97 0 185 -79v137h-169zM270 58q92 0 169 84v240q-76 85 -169 85q-64 0 -98 -54t-34 -151t34 -150.5t98 -53.5z" />
    <glyph glyph-name="Emacron" unicode="&#x112;" horiz-adv-x="600" 
d="M546 0h-450v700h444v-75h-357v-238h295v-74h-295v-238h363v-75zM175 775v55h292v-55h-292z" />
    <glyph glyph-name="emacron" unicode="&#x113;" horiz-adv-x="575" 
d="M513 241h-375q5 -86 46 -136t105 -50q76 0 196 71l38 -55q-40 -24 -63 -36t-76 -29t-100 -17q-100 0 -165.5 71t-65.5 202q0 130 67.5 202t176.5 72q107 0 165 -62.5t58 -164.5q0 -17 -2 -34t-4 -25zM296 472q-68 0 -109 -47t-48 -130h298q4 177 -141 177zM152 624v55
h292v-55h-292z" />
    <glyph glyph-name="Edotaccent" unicode="&#x116;" horiz-adv-x="600" 
d="M546 0h-450v700h444v-75h-357v-238h295v-74h-295v-238h363v-75zM280 760v93h83v-93h-83z" />
    <glyph glyph-name="edotaccent" unicode="&#x117;" horiz-adv-x="575" 
d="M513 241h-375q5 -86 46 -136t105 -50q76 0 196 71l38 -55q-40 -24 -63 -36t-76 -29t-100 -17q-100 0 -165.5 71t-65.5 202q0 130 67.5 202t176.5 72q107 0 165 -62.5t58 -164.5q0 -17 -2 -34t-4 -25zM296 472q-68 0 -109 -47t-48 -130h298q4 177 -141 177zM256 609v93h82
v-93h-82z" />
    <glyph glyph-name="Eogonek" unicode="&#x118;" horiz-adv-x="600" 
d="M445 -96q0 -7 1.5 -12.5t5.5 -9l7.5 -6.5t10 -4.5l10.5 -2.5t12 -1.5t11.5 -0.5h11.5h10l-11 -50q-133 0 -133 78q0 59 98 105h-383v700h444v-75h-357v-238h295v-74h-295v-238h363v-75h-3q-2 -1 -14.5 -8.5t-17 -10t-15.5 -10t-16 -12l-13 -12t-12 -13.5t-7 -14t-3 -16z
" />
    <glyph glyph-name="eogonek" unicode="&#x119;" horiz-adv-x="575" 
d="M265 -96q0 -7 1.5 -12.5t5.5 -9l7.5 -6.5t10 -4.5l10.5 -2.5t12 -1.5t11.5 -0.5h11.5h10l-11 -50q-18 0 -28 0.5t-33 4t-36 11t-24.5 23.5t-11.5 39q0 51 78 94q-98 2 -162 73t-64 200q0 130 67.5 202t176.5 72q107 0 165 -62.5t58 -164.5q0 -17 -2 -34t-4 -25l-1 -9
h-375q5 -86 46 -136t105 -50q76 0 196 71l38 -55q-98 -57 -162 -72q-24 -14 -32.5 -19.5t-28 -19.5t-27.5 -27.5t-8 -28.5zM296 472q-68 0 -109 -47t-48 -130h298q4 177 -141 177z" />
    <glyph glyph-name="Ecaron" unicode="&#x11a;" horiz-adv-x="600" 
d="M546 0h-450v700h444v-75h-357v-238h295v-74h-295v-238h363v-75zM468 872l-100 -130h-95l-99 130h62l85 -85l85 85h62z" />
    <glyph glyph-name="ecaron" unicode="&#x11b;" horiz-adv-x="575" 
d="M513 241h-375q5 -86 46 -136t105 -50q76 0 196 71l38 -55q-40 -24 -63 -36t-76 -29t-100 -17q-100 0 -165.5 71t-65.5 202q0 130 67.5 202t176.5 72q107 0 165 -62.5t58 -164.5q0 -17 -2 -34t-4 -25zM296 472q-68 0 -109 -47t-48 -130h298q4 177 -141 177zM445 729
l-100 -130h-96l-99 130h63l84 -86l85 86h63z" />
    <glyph glyph-name="Gbreve" unicode="&#x11e;" horiz-adv-x="704" 
d="M548 0v82q-106 -93 -215 -93q-116 0 -193 91t-77 270t78.5 270t198.5 91q126 0 280 -109l-46 -63q-98 63 -150 80q-41 14 -78 14q-87 0 -140.5 -75.5t-53.5 -207.5t53 -209t141 -77q90 0 202 100v146h-192v72h276v-382h-84zM347 750q-66 0 -104 28.5t-38 78.5h59
q0 -53 83 -53q84 0 84 53h60q0 -50 -38 -78.5t-106 -28.5z" />
    <glyph glyph-name="gbreve" unicode="&#x11f;" horiz-adv-x="603" 
d="M301 599q-67 0 -105 28.5t-38 78.5h59q0 -53 84 -53t84 53h59q0 -50 -38 -78.5t-105 -28.5zM439 525h83v-555q0 -184 -200 -184q-110 0 -245 38l18 70q133 -39 216 -39q65 0 96.5 26t31.5 86v101q-85 -79 -185 -79q-89 0 -144.5 67.5t-55.5 205.5t55.5 206t144.5 68
q97 0 185 -79v68zM270 58q92 0 169 84v240q-76 85 -169 85q-64 0 -98 -54t-34 -151t34 -150.5t98 -53.5z" />
    <glyph glyph-name="Gdotaccent" unicode="&#x120;" horiz-adv-x="704" 
d="M548 0v82q-106 -93 -215 -93q-116 0 -193 91t-77 270t78.5 270t198.5 91q126 0 280 -109l-46 -63q-98 63 -150 80q-41 14 -78 14q-87 0 -140.5 -75.5t-53.5 -207.5t53 -209t141 -77q90 0 202 100v146h-192v72h276v-382h-84zM306 760v93h83v-93h-83z" />
    <glyph glyph-name="gdotaccent" unicode="&#x121;" horiz-adv-x="603" 
d="M258 609v93h83v-93h-83zM439 525h83v-555q0 -184 -200 -184q-110 0 -245 38l18 70q133 -39 216 -39q65 0 96.5 26t31.5 86v101q-85 -79 -185 -79q-89 0 -144.5 67.5t-55.5 205.5t55.5 206t144.5 68q97 0 185 -79v68zM270 58q92 0 169 84v240q-76 85 -169 85
q-64 0 -98 -54t-34 -151t34 -150.5t98 -53.5z" />
    <glyph glyph-name="Gcommaaccent" unicode="&#x122;" horiz-adv-x="704" 
d="M548 0v82q-106 -93 -215 -93q-116 0 -193 91t-77 270t78.5 270t198.5 91q126 0 280 -109l-46 -63q-98 63 -150 80q-41 14 -78 14q-87 0 -140.5 -75.5t-53.5 -207.5t53 -209t141 -77q90 0 202 100v146h-192v72h276v-382h-84zM327 -160v97h80l10 -101l-71 -108l-25 26
l44 86h-38z" />
    <glyph glyph-name="gcommaaccent" unicode="&#x123;" horiz-adv-x="603" 
d="M341 707v-98h-80l-11 102l73 111l25 -27l-44 -88h37zM439 525h83v-555q0 -184 -200 -184q-110 0 -245 38l18 70q133 -39 216 -39q65 0 96.5 26t31.5 86v101q-85 -79 -185 -79q-89 0 -144.5 67.5t-55.5 205.5t55.5 206t144.5 68q97 0 185 -79v68zM270 58q92 0 169 84v240
q-76 85 -169 85q-64 0 -98 -54t-34 -151t34 -150.5t98 -53.5z" />
    <glyph glyph-name="Hbar" unicode="&#x126;" horiz-adv-x="727" 
d="M539 0v330h-350v-330h-86v520h-76v55h76v125h86v-125h350v125h86v-125h75v-55h-75v-520h-86zM189 520v-116h350v116h-350z" />
    <glyph glyph-name="hbar" unicode="&#x127;" 
d="M16 594v56h66v79h82v-79h170v-56h-170v-143q118 85 218 85q148 0 148 -162v-374h-83v359q0 109 -90 109q-49 0 -103 -27.5t-90 -58.5v-382h-82v594h-66z" />
    <glyph glyph-name="Itilde" unicode="&#x128;" horiz-adv-x="278" 
d="M26 760l-45 20q15 29 25.5 44t28 27.5t39.5 12.5q28 0 70.5 -24.5t56.5 -24.5q24 0 50 46l45 -19q-21 -43 -41.5 -64t-51.5 -21q-28 0 -70.5 24.5t-56.5 24.5q-24 0 -50 -46zM182 0h-86v700h86v-700z" />
    <glyph glyph-name="itilde" unicode="&#x129;" horiz-adv-x="245" 
d="M10 609l-45 20q22 42 42 63t51 21q27 0 69.5 -24.5t56.5 -24.5q25 0 50 46l45 -19q-20 -42 -40.5 -63.5t-52.5 -21.5q-27 0 -69.5 24.5t-56.5 24.5q-25 0 -50 -46zM164 0h-83v525h83v-525z" />
    <glyph glyph-name="Imacron" unicode="&#x12a;" horiz-adv-x="278" 
d="M182 0h-86v700h86v-700zM-7 775v55h292v-55h-292z" />
    <glyph glyph-name="imacron" unicode="&#x12b;" horiz-adv-x="245" 
d="M163 0h-82v525h82v-525zM-24 624v55h292v-55h-292z" />
    <glyph glyph-name="Ibreve" unicode="&#x12c;" horiz-adv-x="278" 
d="M139 750q-67 0 -104.5 28.5t-37.5 78.5h59q0 -53 83 -53q84 0 84 53h59q0 -50 -38 -78.5t-105 -28.5zM182 0h-86v700h86v-700z" />
    <glyph glyph-name="ibreve" unicode="&#x12d;" horiz-adv-x="245" 
d="M122 599q-67 0 -104.5 28.5t-37.5 78.5h59q0 -53 83 -53q84 0 84 53h60q0 -50 -38 -78.5t-106 -28.5zM164 0h-83v525h83v-525z" />
    <glyph glyph-name="Iogonek" unicode="&#x12e;" horiz-adv-x="278" 
d="M81 -96q0 -7 1.5 -12.5t5.5 -9l7.5 -6.5t10 -4.5l10.5 -2.5t12 -1.5t11.5 -0.5h11.5h10l-11 -50q-134 0 -134 78q0 57 99 105h-19v700h86v-700h-3q-2 -1 -14.5 -8.5t-17 -10t-15.5 -10t-16 -12l-13 -12t-12 -13.5t-7 -14t-3 -16z" />
    <glyph glyph-name="iogonek" unicode="&#x12f;" horiz-adv-x="245" 
d="M63 -96q0 -7 1.5 -12.5t5.5 -9l7.5 -6.5t9.5 -4.5t10.5 -2.5t12 -1.5t11 -0.5h11.5h10l-10 -50q-134 0 -134 78q0 57 99 105h-16v525h83v-525h-3q-64 -37 -82 -58q-16 -19 -16 -38zM77 629v97h92v-97h-92z" />
    <glyph glyph-name="Idotaccent" unicode="&#x130;" horiz-adv-x="278" 
d="M183 0h-87v700h87v-700zM98 760v93h83v-93h-83z" />
    <glyph glyph-name="dotlessi" unicode="&#x131;" horiz-adv-x="245" 
d="M164 0h-83v525h83v-525z" />
    <glyph glyph-name="IJ" unicode="&#x132;" horiz-adv-x="557" 
d="M183 0h-87v700h87v-700zM463 700v-655q0 -26 -0.5 -38t-2.5 -31.5t-6.5 -28.5t-12.5 -22.5t-20.5 -21t-31.5 -17.5t-43.5 -17.5t-57.5 -16.5l-29 67q46 15 68 24t34 24.5t13.5 28.5t1.5 46v658h87z" />
    <glyph glyph-name="ij" unicode="&#x133;" horiz-adv-x="490" 
d="M326 629v97h91v-97h-91zM412 525v-545q0 -30 -0.5 -43.5t-3.5 -34.5t-9.5 -30.5t-18.5 -23.5t-31 -22.5t-45.5 -18.5t-63.5 -20l-28 63q31 10 49.5 16.5t33 16t21 15t10 20t4 24.5t0.5 34v549h82zM163 0h-83v525h83v-525zM77 629v97h92v-97h-92z" />
    <glyph glyph-name="Jcircumflex" unicode="&#x134;" horiz-adv-x="279" 
d="M183 700v-655q0 -26 -0.5 -38t-2.5 -31.5t-6 -28.5t-12.5 -22.5t-21 -21t-31 -17.5t-43 -17.5t-57.5 -16.5l-30 67q47 15 69 24t34 24.5t13.5 28.5t1.5 46v658h86zM188 880l100 -130h-63l-85 85l-84 -85h-63l98 130h97z" />
    <glyph glyph-name="jcircumflex" unicode="&#x135;" horiz-adv-x="245" 
d="M165 525v-545q0 -30 -0.5 -43.5t-3.5 -34.5t-9.5 -30.5t-18.5 -23.5t-31 -22.5t-46 -18.5t-64 -20l-28 63q31 10 49.5 16.5t33 16t21 15t10 20t4 24.5t0.5 34v549h83zM171 729l100 -130h-63l-85 85l-84 -85h-63l98 130h97z" />
    <glyph glyph-name="Kcommaaccent" unicode="&#x136;" horiz-adv-x="657" 
d="M96 0v700h87v-394l329 394h102l-285 -337l315 -363h-105l-261 303l-95 -113v-190h-87zM287 -160v97h80l10 -101l-72 -108l-24 26l43 86h-37z" />
    <glyph glyph-name="kcommaaccent" unicode="&#x137;" horiz-adv-x="526" 
d="M479 525l-177 -212l210 -313h-89l-171 253l-88 -105v-148h-83v729h83v-479l221 275h94zM233 -160v97h80l10 -101l-71 -108l-25 26l44 86h-38z" />
    <glyph glyph-name="kgreenlandic" unicode="&#x138;" horiz-adv-x="526" 
d="M479 525l-177 -212l210 -313h-89l-171 253l-88 -105v-148h-83v525h83v-275l221 275h94z" />
    <glyph glyph-name="Lacute" unicode="&#x139;" horiz-adv-x="556" 
d="M529 0h-434v700h87v-625h347v-75zM130 750h-69l122 130h114z" />
    <glyph glyph-name="lacute" unicode="&#x13a;" horiz-adv-x="254" 
d="M168 0h-83v729h83v-729zM118 780h-69l123 130h113z" />
    <glyph glyph-name="Lcommaaccent" unicode="&#x13b;" horiz-adv-x="555" 
d="M270 -160v97h80l10 -101l-71 -108l-25 26l44 86h-38zM529 0h-433v700h87v-625h346v-75z" />
    <glyph glyph-name="lcommaaccent" unicode="&#x13c;" horiz-adv-x="254" 
d="M88 -160v97h80l9 -101l-71 -108l-24 26l43 86h-37zM169 0h-83v729h83v-729z" />
    <glyph glyph-name="Lcaron" unicode="&#x13d;" horiz-adv-x="555" 
d="M243 603v97h80l10 -101l-71 -108l-25 26l44 86h-38zM529 0h-433v700h87v-625h346v-75z" />
    <glyph glyph-name="lcaron" unicode="&#x13e;" horiz-adv-x="277" 
d="M228 632v97h80l10 -101l-70 -108l-26 26l44 86h-38zM168 0h-82v729h82v-729z" />
    <glyph glyph-name="Ldot" unicode="&#x13f;" horiz-adv-x="556" 
d="M529 0h-433v700h87v-625h346v-75zM385 317v92h83v-92h-83z" />
    <glyph glyph-name="ldot" unicode="&#x140;" horiz-adv-x="294" 
d="M168 0h-82v729h82v-729zM228 317v92h83v-92h-83z" />
    <glyph glyph-name="Lslash" unicode="&#x141;" horiz-adv-x="564" 
d="M538 0h-433v269l-73 -40v83l73 40v348h86v-301l137 76v-82l-137 -76v-242h347v-75z" />
    <glyph glyph-name="lslash" unicode="&#x142;" horiz-adv-x="278" 
d="M181 0h-82v300l-69 -38v83l69 38v346h82v-301l68 38v-82l-68 -38v-346z" />
    <glyph glyph-name="Nacute" unicode="&#x143;" horiz-adv-x="730" 
d="M545 0l-362 572v-572h-87v700h89l363 -573v573h86v-700h-89zM362 750h-69l122 130h114z" />
    <glyph glyph-name="nacute" unicode="&#x144;" 
d="M164 525v-74q41 31 99 58t117 27q150 0 150 -162v-374h-83v359q0 109 -91 109q-49 0 -103.5 -28t-88.5 -58v-382h-83v525h83zM297 599h-71l123 130h113z" />
    <glyph glyph-name="Ncommaaccent" unicode="&#x145;" horiz-adv-x="730" 
d="M185 700l363 -573v573h86v-700h-89l-362 572v-572h-87v700h89zM331 -160v97h80l10 -101l-71 -108l-25 26l43 86h-37z" />
    <glyph glyph-name="ncommaaccent" unicode="&#x146;" 
d="M164 525v-74q41 31 99 58t117 27q150 0 150 -162v-374h-83v359q0 109 -91 109q-49 0 -103.5 -28t-88.5 -58v-382h-83v525h83zM265 -160v97h80l10 -101l-71 -108l-25 26l44 86h-38z" />
    <glyph glyph-name="Ncaron" unicode="&#x147;" horiz-adv-x="730" 
d="M545 0l-362 572v-572h-87v700h89l363 -573v573h86v-700h-89zM519 880l-100 -130h-96l-100 130h63l84 -86l86 86h63z" />
    <glyph glyph-name="ncaron" unicode="&#x148;" 
d="M164 525v-74q41 31 99 58t117 27q150 0 150 -162v-374h-83v359q0 109 -91 109q-49 0 -103.5 -28t-88.5 -58v-382h-83v525h83zM450 729l-100 -130h-96l-99 130h62l85 -86l86 86h62z" />
    <glyph glyph-name="napostrophe" unicode="&#x149;" horiz-adv-x="606" 
d="M164 525v-73q116 84 217 84q148 0 148 -162v-374h-83v359q0 109 -90 109q-48 0 -103 -27.5t-89 -58.5v-382h-83v525h83zM81 688v96h80l9 -101l-70 -108l-25 26l43 87h-37z" />
    <glyph glyph-name="Eng" unicode="&#x14a;" horiz-adv-x="730" 
d="M634 700v-664q0 -31 -1 -47t-6.5 -36.5t-16 -31.5t-30 -24.5t-48 -23.5t-71.5 -21l-30 67q69 21 90 35.5t25 43.5l-363 574v-572h-87v700h89l363 -572v572h86z" />
    <glyph glyph-name="eng" unicode="&#x14b;" 
d="M530 374v-395q0 -26 -0.5 -38t-2.5 -31.5t-6 -28t-12.5 -22.5t-21 -21l-30.5 -17t-42.5 -17.5t-57.5 -16.5l-28 63l50 17t33 15.5t20.5 15t9.5 19.5t4.5 24.5t0.5 34.5v383q0 109 -91 109q-49 0 -103.5 -28t-88.5 -58v-382h-83v525h83v-74q41 31 99 58t117 27
q150 0 150 -162z" />
    <glyph glyph-name="Omacron" unicode="&#x14c;" horiz-adv-x="740" 
d="M369 711q108 0 179 -50t100 -128.5t29 -182.5q0 -77 -17 -140.5t-52.5 -114t-96.5 -78.5t-142 -28t-141.5 28t-96 78.5t-52.5 114t-17 140.5t17 140.5t52.5 114t96 78.5t141.5 28zM369 64q116 0 167.5 77.5t51.5 208.5t-51.5 208.5t-167.5 77.5q-115 0 -166.5 -78
t-51.5 -208t51.5 -208t166.5 -78zM223 775v55h292v-55h-292z" />
    <glyph glyph-name="omacron" unicode="&#x14d;" horiz-adv-x="600" 
d="M548 262q0 -129 -64 -201t-183 -72q-120 0 -184 72t-64 201t64.5 201.5t183.5 72.5t183 -72.5t64 -201.5zM463 262q0 98 -39.5 152.5t-122.5 54.5t-123 -54.5t-40 -152.5q0 -206 163 -206q162 0 162 206zM155 624v55h292v-55h-292z" />
    <glyph glyph-name="Obreve" unicode="&#x14e;" horiz-adv-x="740" 
d="M369 711q108 0 179 -50t100 -128.5t29 -182.5q0 -77 -17 -140.5t-52.5 -114t-96.5 -78.5t-142 -28t-141.5 28t-96 78.5t-52.5 114t-17 140.5t17 140.5t52.5 114t96 78.5t141.5 28zM369 64q116 0 167.5 77.5t51.5 208.5t-51.5 208.5t-167.5 77.5q-115 0 -166.5 -78
t-51.5 -208t51.5 -208t166.5 -78zM369 750q-67 0 -105 28.5t-38 78.5h59q0 -53 84 -53t84 53h59q0 -50 -38 -78.5t-105 -28.5z" />
    <glyph glyph-name="obreve" unicode="&#x14f;" horiz-adv-x="600" 
d="M548 262q0 -129 -64 -201t-183 -72q-120 0 -184 72t-64 201t64.5 201.5t183.5 72.5t183 -72.5t64 -201.5zM463 262q0 98 -39.5 152.5t-122.5 54.5t-123 -54.5t-40 -152.5q0 -206 163 -206q162 0 162 206zM300 599q-66 0 -104 28.5t-38 78.5h59q0 -53 83 -53q84 0 84 53
h60q0 -50 -38 -78.5t-106 -28.5z" />
    <glyph glyph-name="Ohungarumlaut" unicode="&#x150;" horiz-adv-x="740" 
d="M369 711q108 0 179 -50t100 -128.5t29 -182.5q0 -77 -17 -140.5t-52.5 -114t-96.5 -78.5t-142 -28t-141.5 28t-96 78.5t-52.5 114t-17 140.5t17 140.5t52.5 114t96 78.5t141.5 28zM369 64q116 0 167.5 77.5t51.5 208.5t-51.5 208.5t-167.5 77.5q-115 0 -166.5 -78
t-51.5 -208t51.5 -208t166.5 -78zM453 750h-51l77 130h95zM302 750h-52l77 130h97z" />
    <glyph glyph-name="ohungarumlaut" unicode="&#x151;" horiz-adv-x="600" 
d="M548 262q0 -129 -64 -201t-183 -72q-120 0 -184 72t-64 201t64.5 201.5t183.5 72.5t183 -72.5t64 -201.5zM463 262q0 98 -39.5 152.5t-122.5 54.5t-123 -54.5t-40 -152.5q0 -206 163 -206q162 0 162 206zM384 599h-52l77 130h96zM232 599h-52l78 130h96z" />
    <glyph glyph-name="OE" unicode="&#x152;" horiz-adv-x="1095" 
d="M1040 0h-449v76q-79 -87 -222 -87q-81 0 -141.5 28t-96 78.5t-52.5 114t-17 140.5t17 140.5t52.5 114t96 78.5t141.5 28q143 0 222 -87v76h443v-75h-357v-238h295v-74h-295v-238h363v-75zM369 64q116 0 167.5 77.5t51.5 208.5t-51.5 208.5t-167.5 77.5q-115 0 -166.5 -78
t-51.5 -208t51.5 -208t166.5 -78z" />
    <glyph glyph-name="oe" unicode="&#x153;" horiz-adv-x="985" 
d="M925 241h-375q5 -86 45 -136t104 -50q77 0 197 71l38 -55q-40 -24 -63 -36t-76 -29t-100 -17q-126 0 -189 102q-62 -102 -205 -102q-120 0 -184 72t-64 201t64.5 201.5t183.5 72.5q141 0 206 -104q64 104 201 104q107 0 165 -62.5t58 -164.5q0 -17 -1.5 -34t-3.5 -25z
M463 262q0 98 -39.5 152.5t-122.5 54.5t-123 -54.5t-40 -152.5q0 -206 163 -206q162 0 162 206zM707 472q-68 0 -109 -47t-47 -130h297q1 90 -36 133.5t-105 43.5z" />
    <glyph glyph-name="Racute" unicode="&#x154;" horiz-adv-x="686" 
d="M536 0l-183 297h-170v-297h-87v700h272q262 0 262 -202q0 -172 -190 -197l191 -301h-95zM542 498q0 131 -172 131h-187v-261h182q177 0 177 130zM355 750h-70l122 130h115z" />
    <glyph glyph-name="racute" unicode="&#x155;" horiz-adv-x="387" 
d="M213 599h-69l123 130h113zM164 525v-112q5 12 15.5 28t33.5 40.5t62.5 38.5t87.5 11v-79q-50 0 -89 -17t-59 -41t-32.5 -48.5t-15.5 -41.5l-3 -17v-287h-83v525h83z" />
    <glyph glyph-name="Rcommaaccent" unicode="&#x156;" horiz-adv-x="686" 
d="M536 0l-183 297h-170v-297h-87v700h272q262 0 262 -202q0 -172 -190 -197l191 -301h-95zM542 498q0 131 -172 131h-187v-261h182q177 0 177 130zM302 -160v97h80l10 -101l-71 -108l-25 26l43 86h-37z" />
    <glyph glyph-name="rcommaaccent" unicode="&#x157;" horiz-adv-x="387" 
d="M83 -160v97h79l10 -101l-71 -108l-24 26l43 86h-37zM163 525v-112q6 14 16 29t33.5 39.5t63 38.5t87.5 11v-79q-50 0 -89 -17t-59 -41t-33 -48.5t-16 -41.5l-3 -17v-287h-82v525h82z" />
    <glyph glyph-name="Rcaron" unicode="&#x158;" horiz-adv-x="686" 
d="M536 0l-183 297h-170v-297h-87v700h272q262 0 262 -202q0 -172 -190 -197l191 -301h-95zM542 498q0 131 -172 131h-187v-261h182q177 0 177 130zM511 880l-100 -130h-95l-100 130h63l84 -86l85 86h63z" />
    <glyph glyph-name="rcaron" unicode="&#x159;" horiz-adv-x="387" 
d="M370 729l-100 -130h-96l-99 130h63l84 -86l85 86h63zM163 525v-112q6 14 16 29t33.5 39.5t63 38.5t87.5 11v-79q-50 0 -89 -17t-59 -41t-33 -48.5t-16 -41.5l-3 -17v-287h-82v525h82z" />
    <glyph glyph-name="Sacute" unicode="&#x15a;" horiz-adv-x="613" 
d="M297 750h-70l123 130h113zM345 394q47 -16 77.5 -29.5t68 -38.5t56.5 -61.5t19 -83.5q0 -91 -68.5 -141.5t-168.5 -50.5q-73 0 -149 25.5t-133 59.5l40 64q133 -75 242 -75q62 0 105 29t43 83q0 30 -14.5 53t-45 40t-62.5 30t-81 29q-7 2 -10 3q-44 15 -72.5 27.5t-62 35
t-50.5 56t-17 76.5q0 86 63.5 136t161.5 50q61 0 130 -19t121 -47l-40 -64q-46 24 -105 40t-103 16q-59 0 -98.5 -27t-39.5 -80q0 -15 4.5 -28.5t10 -23t19.5 -19l22.5 -15t29.5 -14t31.5 -12l37.5 -12t38 -12.5z" />
    <glyph glyph-name="sacute" unicode="&#x15b;" horiz-adv-x="512" 
d="M248 599h-70l122 130h114zM279 301q93 -25 141.5 -63t48.5 -103q0 -71 -54.5 -108.5t-136.5 -37.5q-119 0 -234 64l37 61q110 -58 193 -58q46 0 79 20t33 56q0 22 -12.5 38.5t-36 28t-45 18.5t-50.5 15l-12 3q-37 10 -62.5 20t-54 28t-43.5 45.5t-15 63.5
q0 67 50.5 105.5t133.5 38.5q99 0 207 -53l-36 -58q-94 44 -169 44q-47 0 -75.5 -19.5t-28.5 -53.5q0 -21 11.5 -37t34.5 -27t39.5 -16t44.5 -12z" />
    <glyph glyph-name="Scircumflex" unicode="&#x15c;" horiz-adv-x="613" 
d="M354 880l99 -130h-61l-86 85l-85 -85h-62l99 130h96zM345 394q47 -16 77.5 -29.5t68 -38.5t56.5 -61.5t19 -83.5q0 -91 -68.5 -141.5t-168.5 -50.5q-73 0 -149 25.5t-133 59.5l40 64q133 -75 242 -75q62 0 105 29t43 83q0 30 -14.5 53t-45 40t-62.5 30t-81 29q-7 2 -10 3
q-44 15 -72.5 27.5t-62 35t-50.5 56t-17 76.5q0 86 63.5 136t161.5 50q61 0 130 -19t121 -47l-40 -64q-46 24 -105 40t-103 16q-59 0 -98.5 -27t-39.5 -80q0 -15 4.5 -28.5t10 -23t19.5 -19l22.5 -15t29.5 -14t31.5 -12l37.5 -12t38 -12.5z" />
    <glyph glyph-name="scircumflex" unicode="&#x15d;" horiz-adv-x="512" 
d="M305 729l100 -130h-63l-85 85l-84 -85h-63l99 130h96zM279 301q93 -25 141.5 -63t48.5 -103q0 -71 -54.5 -108.5t-136.5 -37.5q-119 0 -234 64l37 61q110 -58 193 -58q46 0 79 20t33 56q0 22 -12.5 38.5t-36 28t-45 18.5t-50.5 15l-12 3q-37 10 -62.5 20t-54 28
t-43.5 45.5t-15 63.5q0 67 50.5 105.5t133.5 38.5q99 0 207 -53l-36 -58q-94 44 -169 44q-47 0 -75.5 -19.5t-28.5 -53.5q0 -21 11.5 -37t34.5 -27t39.5 -16t44.5 -12z" />
    <glyph glyph-name="Scedilla" unicode="&#x15e;" horiz-adv-x="614" 
d="M345 394q47 -16 77.5 -29.5t68 -38.5t56.5 -61.5t19 -83.5q0 -84 -59 -133.5t-148 -57.5q30 -38 30 -79q0 -39 -28 -61t-73 -22q-44 0 -79 19l20 50q29 -14 52 -14q55 0 55 46q0 28 -21 61q-71 3 -143 27.5t-125 56.5l40 64q133 -75 242 -75q62 0 105 29t43 83
q0 30 -14.5 53t-45 40t-62.5 30t-81 29q-7 2 -10 3q-44 15 -72.5 27.5t-62 35t-50.5 56t-17 76.5q0 86 63.5 136t161.5 50q61 0 130 -19t121 -47l-40 -64q-46 24 -105 40t-103 16q-59 0 -98.5 -27t-39.5 -80q0 -15 4.5 -28.5t10 -23t19.5 -19l22.5 -15t29.5 -14t31.5 -12
l37.5 -12t38 -12.5z" />
    <glyph glyph-name="scedilla" unicode="&#x15f;" horiz-adv-x="512" 
d="M279 301q93 -25 141.5 -63t48.5 -103t-46.5 -102t-118.5 -43q31 -39 31 -79q0 -39 -29 -61t-74 -22q-41 0 -79 19l21 50q31 -14 51 -14q56 0 56 46q0 28 -21 61q-113 5 -216 63l37 61q110 -58 193 -58q46 0 79 20t33 56q0 22 -12.5 38.5t-36 28t-45 18.5t-50.5 15l-12 3
q-37 10 -62.5 20t-54 28t-43.5 45.5t-15 63.5q0 67 50.5 105.5t133.5 38.5q99 0 207 -53l-36 -58q-94 44 -169 44q-47 0 -75.5 -19.5t-28.5 -53.5q0 -21 11.5 -37t34.5 -27t39.5 -16t44.5 -12z" />
    <glyph glyph-name="Scaron" unicode="&#x160;" horiz-adv-x="613" 
d="M454 880l-99 -130h-97l-99 130h63l84 -86l86 86h62zM345 394q47 -16 77.5 -29.5t68 -38.5t56.5 -61.5t19 -83.5q0 -91 -68.5 -141.5t-168.5 -50.5q-73 0 -149 25.5t-133 59.5l40 64q133 -75 242 -75q62 0 105 29t43 83q0 30 -14.5 53t-45 40t-62.5 30t-81 29q-7 2 -10 3
q-44 15 -72.5 27.5t-62 35t-50.5 56t-17 76.5q0 86 63.5 136t161.5 50q61 0 130 -19t121 -47l-40 -64q-46 24 -105 40t-103 16q-59 0 -98.5 -27t-39.5 -80q0 -15 4.5 -28.5t10 -23t19.5 -19l22.5 -15t29.5 -14t31.5 -12l37.5 -12t38 -12.5z" />
    <glyph glyph-name="scaron" unicode="&#x161;" horiz-adv-x="512" 
d="M405 729l-100 -130h-96l-99 130h63l84 -86l85 86h63zM279 301q93 -25 141.5 -63t48.5 -103q0 -71 -54.5 -108.5t-136.5 -37.5q-119 0 -234 64l37 61q110 -58 193 -58q46 0 79 20t33 56q0 22 -12.5 38.5t-36 28t-45 18.5t-50.5 15l-12 3q-37 10 -62.5 20t-54 28
t-43.5 45.5t-15 63.5q0 67 50.5 105.5t133.5 38.5q99 0 207 -53l-36 -58q-94 44 -169 44q-47 0 -75.5 -19.5t-28.5 -53.5q0 -21 11.5 -37t34.5 -27t39.5 -16t44.5 -12z" />
    <glyph glyph-name="Tcedilla" unicode="&#x162;" horiz-adv-x="576" 
d="M168 -153l20 50q29 -14 52 -14q55 0 55 46q0 34 -28 71h-22v625h-220v75h526v-75h-220v-625h-21q38 -44 38 -89q0 -39 -28 -61t-73 -22q-44 0 -79 19z" />
    <glyph glyph-name="tcedilla" unicode="&#x163;" horiz-adv-x="382" 
d="M34 461v64h73v132l82 20v-152h144v-64h-144v-344q0 -55 49 -55q39 0 100 27l31 -63q-63 -30 -123 -36q31 -39 31 -79q0 -39 -28.5 -61t-73.5 -22q-42 0 -79 19l20 50q31 -14 51 -14q56 0 56 46q0 28 -22 62q-94 12 -94 130v340h-73z" />
    <glyph glyph-name="Tcaron" unicode="&#x164;" horiz-adv-x="576" 
d="M551 625h-220v-625h-86v625h-220v75h526v-75zM436 880l-100 -130h-97l-98 130h63l84 -86l85 86h63z" />
    <glyph glyph-name="tcaron" unicode="&#x165;" horiz-adv-x="383" 
d="M34 461v64h74v132l81 20v-152h145v-64h-145v-344q0 -55 50 -55q39 0 100 27l31 -63q-81 -37 -145 -37q-117 0 -117 132v340h-74zM254 688v96h80l10 -101l-70 -108l-25 26l43 87h-38z" />
    <glyph glyph-name="Tbar" unicode="&#x166;" horiz-adv-x="587" 
d="M140 229v56h110v340h-220v75h526v-75h-219v-340h109v-56h-109v-229h-87v229h-110z" />
    <glyph glyph-name="tbar" unicode="&#x167;" horiz-adv-x="383" 
d="M34 461v64h73v132l82 20v-152h145v-64h-145v-127h114v-55h-114v-162q0 -55 50 -55q36 0 100 27l31 -63q-81 -37 -145 -37q-118 0 -118 132v158h-53v55h53v127h-73z" />
    <glyph glyph-name="Utilde" unicode="&#x168;" horiz-adv-x="704" 
d="M241 760l-46 20q15 29 25.5 44t28 27.5t39.5 12.5q28 0 70.5 -24.5t56.5 -24.5q24 0 50 46l45 -19q-21 -43 -41.5 -64t-51.5 -21q-27 0 -69.5 24.5t-56.5 24.5q-25 0 -50 -46zM615 700v-444q0 -267 -262 -267q-263 0 -263 267v444h87v-447q0 -43 7.5 -74.5t26 -59
t54 -41.5t88.5 -14q100 0 138 50t38 139v447h86z" />
    <glyph glyph-name="utilde" unicode="&#x169;" 
d="M443 0v73q-113 -84 -217 -84q-149 0 -149 161v375h83v-359q0 -109 91 -109q48 0 103 27.5t89 58.5v382h83v-525h-83zM200 609l-46 20q15 29 25.5 44t28 27.5t39.5 12.5q28 0 70.5 -24.5t56.5 -24.5q24 0 50 46l45 -19q-21 -43 -41.5 -64t-51.5 -21q-27 0 -69.5 24.5
t-56.5 24.5q-25 0 -50 -46z" />
    <glyph glyph-name="Umacron" unicode="&#x16a;" horiz-adv-x="704" 
d="M615 700v-444q0 -267 -262 -267q-263 0 -263 267v444h87v-447q0 -43 7.5 -74.5t26 -59t54 -41.5t88.5 -14q100 0 138 50t38 139v447h86zM207 775v55h292v-55h-292z" />
    <glyph glyph-name="umacron" unicode="&#x16b;" 
d="M443 0v73q-113 -84 -217 -84q-149 0 -149 161v375h83v-359q0 -109 91 -109q48 0 103 27.5t89 58.5v382h83v-525h-83zM155 624v55h292v-55h-292z" />
    <glyph glyph-name="Ubreve" unicode="&#x16c;" horiz-adv-x="704" 
d="M352 750q-67 0 -104.5 28.5t-37.5 78.5h59q0 -53 83 -53q84 0 84 53h60q0 -50 -38 -78.5t-106 -28.5zM615 700v-444q0 -267 -262 -267q-263 0 -263 267v444h87v-447q0 -43 7.5 -74.5t26 -59t54 -41.5t88.5 -14q100 0 138 50t38 139v447h86z" />
    <glyph glyph-name="ubreve" unicode="&#x16d;" 
d="M443 0v73q-113 -84 -217 -84q-149 0 -149 161v375h83v-359q0 -109 91 -109q48 0 103 27.5t89 58.5v382h83v-525h-83zM300 599q-67 0 -104.5 28.5t-37.5 78.5h59q0 -53 83 -53q84 0 84 53h59q0 -50 -38 -78.5t-105 -28.5z" />
    <glyph glyph-name="Uring" unicode="&#x16e;" horiz-adv-x="704" 
d="M251 843q0 44 30 74.5t73 30.5q44 0 74.5 -31t30.5 -74t-30.5 -73t-74.5 -30q-43 0 -73 30t-30 73zM298 843q0 -23 16.5 -39.5t39.5 -16.5q24 0 40.5 16.5t16.5 39.5q0 24 -16.5 40.5t-40.5 16.5q-23 0 -39.5 -16.5t-16.5 -40.5zM615 700v-444q0 -267 -262 -267
q-263 0 -263 267v444h87v-447q0 -43 7.5 -74.5t26 -59t54 -41.5t88.5 -14q100 0 138 50t38 139v447h86z" />
    <glyph glyph-name="uring" unicode="&#x16f;" 
d="M443 0v73q-113 -84 -217 -84q-149 0 -149 161v375h83v-359q0 -109 91 -109q48 0 103 27.5t89 58.5v382h83v-525h-83zM198 692q0 44 30 74.5t73 30.5t74 -30.5t31 -74.5q0 -43 -30.5 -73t-74.5 -30q-43 0 -73 30t-30 73zM245 692q0 -23 16.5 -39.5t39.5 -16.5
q24 0 40.5 16.5t16.5 39.5q0 24 -16.5 40.5t-40.5 16.5q-23 0 -39.5 -16.5t-16.5 -40.5z" />
    <glyph glyph-name="Uhungarumlaut" unicode="&#x170;" horiz-adv-x="704" 
d="M615 700v-444q0 -267 -262 -267q-263 0 -263 267v444h87v-447q0 -43 7.5 -74.5t26 -59t54 -41.5t88.5 -14q100 0 138 50t38 139v447h86zM437 750h-53l78 130h96zM285 750h-53l79 130h95z" />
    <glyph glyph-name="uhungarumlaut" unicode="&#x171;" 
d="M443 0v73q-113 -84 -217 -84q-149 0 -149 161v375h83v-359q0 -109 91 -109q48 0 103 27.5t89 58.5v382h83v-525h-83zM233 599h-52l77 130h97zM384 599h-52l78 130h95z" />
    <glyph glyph-name="Uogonek" unicode="&#x172;" horiz-adv-x="705" 
d="M351 -96q0 -8 2.5 -14t5.5 -9.5t10 -6.5t11 -4.5t13 -2t13 -0.5h13.5h10.5l-10 -50q-134 0 -134 78q0 50 79 94h-12q-263 0 -263 267v444h87v-447q0 -43 7.5 -74.5t26 -59t54 -41.5t88.5 -14q100 0 138 50t38 139v447h86v-444q0 -212 -165 -256l-45 -26t-34.5 -29.5
t-19.5 -40.5z" />
    <glyph glyph-name="uogonek" unicode="&#x173;" 
d="M442 0v73q-113 -84 -217 -84q-149 0 -149 161v375h83v-359q0 -109 91 -109q48 0 103 27.5t89 58.5v382h83v-525h-4q-2 -1 -12.5 -7.5t-15 -9t-14 -8.5t-14.5 -10l-12.5 -10.5t-11.5 -11.5t-8.5 -11.5t-6.5 -13.5t-2 -14t1.5 -12.5t5.5 -9l7.5 -6.5t9.5 -4.5t10.5 -2.5
t12 -1.5t11 -0.5h11.5h10l-11 -50q-133 0 -133 78q0 58 99 105h-16z" />
    <glyph glyph-name="Wcircumflex" unicode="&#x174;" horiz-adv-x="942" 
d="M623 0l-152 578l-152 -578h-92l-194 700h97l147 -597l154 597h80l154 -596l148 596h96l-194 -700h-92zM519 880l99 -130h-62l-85 85l-85 -85h-62l99 130h96z" />
    <glyph glyph-name="wcircumflex" unicode="&#x175;" horiz-adv-x="813" 
d="M535 0l-128 425l-129 -425h-82l-164 525h88l121 -439l128 439h76l128 -439l121 439h88l-166 -525h-81zM455 729l100 -130h-63l-85 85l-84 -85h-63l99 130h96z" />
    <glyph glyph-name="ycircumflex" unicode="&#x177;" horiz-adv-x="557" 
d="M27 525h90l161 -427l161 427h91l-294 -729h-91l92 207zM326 729l100 -130h-62l-85 85l-85 -85h-62l98 130h96z" />
    <glyph glyph-name="Ydieresis" unicode="&#x178;" horiz-adv-x="635" 
d="M274 0v278l-256 422h98l202 -355l201 355h98l-257 -423v-277h-86zM192 760v93h83v-93h-83zM361 760v93h82v-93h-82z" />
    <glyph glyph-name="Zacute" unicode="&#x179;" horiz-adv-x="621" 
d="M42 69l417 556h-394v75h502v-68l-417 -557h422v-75h-530v69zM307 750h-69l123 130h113z" />
    <glyph glyph-name="zacute" unicode="&#x17a;" horiz-adv-x="513" 
d="M43 0v64l320 391h-310v70h413v-64l-318 -391h318v-70h-423zM246 599h-70l122 130h114z" />
    <glyph glyph-name="Zdotaccent" unicode="&#x17b;" horiz-adv-x="621" 
d="M42 69l417 556h-394v75h502v-68l-417 -557h422v-75h-530v69zM275 759v93h83v-93h-83z" />
    <glyph glyph-name="zdotaccent" unicode="&#x17c;" horiz-adv-x="513" 
d="M43 0v64l320 391h-310v70h413v-64l-318 -391h318v-70h-423zM212 609v93h83v-93h-83z" />
    <glyph glyph-name="Zcaron" unicode="&#x17d;" horiz-adv-x="621" 
d="M42 69l417 556h-394v75h502v-68l-417 -557h422v-75h-530v69zM464 880l-100 -130h-96l-99 130h62l85 -86l86 86h62z" />
    <glyph glyph-name="zcaron" unicode="&#x17e;" horiz-adv-x="513" 
d="M43 0v64l320 391h-310v70h413v-64l-318 -391h318v-70h-423zM402 729l-100 -130h-96l-99 130h63l84 -86l85 86h63z" />
    <glyph glyph-name="longs" unicode="&#x17f;" horiz-adv-x="289" 
d="M33 461v64h74v72q0 132 117 132q66 0 155 -35l-30 -61q-72 24 -111 24q-50 0 -50 -56v-601h-81v461h-74z" />
    <glyph glyph-name="florin" unicode="&#x192;" horiz-adv-x="540" 
d="M122 461l15 64h73l18 74q18 73 49.5 101.5t91.5 28.5q54 0 157 -37l-43 -60q-79 25 -111 24q-48 -2 -61 -56l-18 -75h144l-14 -64h-146l-158 -665h-82l158 665h-73z" />
    <glyph glyph-name="AEacute" unicode="&#x1fc;" horiz-adv-x="1007" 
d="M951 0h-450v171h-294l-114 -171h-102l481 700h472v-75h-357v-238h296v-74h-296v-238h364v-75zM256 244h245v366zM537 750h-70l122 130h115z" />
    <glyph glyph-name="aeacute" unicode="&#x1fd;" horiz-adv-x="921" 
d="M859 241h-375q5 -86 46 -136t105 -50q75 0 197 71l37 -55q-38 -23 -62 -35.5t-76.5 -29.5t-100.5 -17q-126 0 -189 103q-100 -103 -219 -103q-72 0 -124 42t-52 126t52 127.5t130 43.5q48 0 172 -31q5 46 16 81q-3 47 -27.5 69t-81.5 22q-61 0 -195 -44l-30 61
q139 50 236 50q113 0 155 -65q67 65 170 65q108 0 166 -62.5t58 -164.5q0 -17 -2 -34t-4 -25zM418 139q-18 50 -19 106q-106 28 -140 28q-67 0 -97.5 -31t-30.5 -81q0 -103 111 -103q90 0 176 81zM642 472q-68 0 -109 -47t-48 -130h298q4 177 -141 177zM449 599h-70l123 130
h113z" />
    <glyph glyph-name="Oslashacute" unicode="&#x1fe;" horiz-adv-x="738" 
d="M666 700l-65 -87q76 -95 76 -263q0 -77 -17 -140.5t-52.5 -114t-96.5 -78.5t-142 -28q-117 0 -191 58l-35 -47h-70l65 87q-76 93 -76 263q0 77 17 140.5t52 114t96 78.5t142 28q115 0 191 -58l35 47h71zM369 64q116 0 167.5 78t51.5 208q0 119 -41 191l-320 -428
q54 -49 142 -49zM151 350q0 -122 40 -191l320 428q-54 49 -142 49q-79 0 -129 -39.5t-69.5 -101t-19.5 -145.5zM361 750h-71l123 130h113z" />
    <glyph glyph-name="oslashacute" unicode="&#x1ff;" horiz-adv-x="598" 
d="M534 525l-50 -64q62 -73 62 -199q0 -129 -64 -201t-183 -72q-91 0 -149 41l-24 -30h-63l50 64q-61 72 -61 198q0 129 64 201.5t183 72.5q89 0 148 -42l25 31h62zM462 262q0 82 -28 134l-238 -307q39 -33 103 -33q83 0 123 54.5t40 151.5zM137 262q0 -84 27 -132l238 305
q-40 34 -103 34q-83 0 -122.5 -54.5t-39.5 -152.5zM288 599h-69l122 130h114z" />
    <glyph glyph-name="Scommaaccent" unicode="&#x218;" horiz-adv-x="613" 
d="M269 -160v97h80l10 -101l-72 -108l-24 26l43 86h-37zM345 394q47 -16 77.5 -29.5t68 -38.5t56.5 -61.5t19 -83.5q0 -91 -68.5 -141.5t-168.5 -50.5q-73 0 -149 25.5t-133 59.5l40 64q133 -75 242 -75q62 0 105 29t43 83q0 30 -14.5 53t-45 40t-62.5 30t-81 29q-7 2 -10 3
q-44 15 -72.5 27.5t-62 35t-50.5 56t-17 76.5q0 86 63.5 136t161.5 50q61 0 130 -19t121 -47l-40 -64q-46 24 -105 40t-103 16q-59 0 -98.5 -27t-39.5 -80q0 -15 4.5 -28.5t10 -23t19.5 -19l22.5 -15t29.5 -14t31.5 -12l37.5 -12t38 -12.5z" />
    <glyph glyph-name="scommaaccent" unicode="&#x219;" horiz-adv-x="512" 
d="M215 -160v97h80l9 -101l-70 -108l-25 26l43 86h-37zM279 301q93 -25 141.5 -63t48.5 -103q0 -71 -54.5 -108.5t-136.5 -37.5q-119 0 -234 64l37 61q110 -58 193 -58q46 0 79 20t33 56q0 22 -12.5 38.5t-36 28t-45 18.5t-50.5 15l-12 3q-37 10 -62.5 20t-54 28t-43.5 45.5
t-15 63.5q0 67 50.5 105.5t133.5 38.5q99 0 207 -53l-36 -58q-94 44 -169 44q-47 0 -75.5 -19.5t-28.5 -53.5q0 -21 11.5 -37t34.5 -27t39.5 -16t44.5 -12z" />
    <glyph glyph-name="uni021a" unicode="&#x21a;" horiz-adv-x="576" 
d="M248 -160v97h80l10 -101l-71 -108l-25 26l44 86h-38zM551 625h-220v-625h-86v625h-220v75h526v-75z" />
    <glyph glyph-name="uni021b" unicode="&#x21b;" horiz-adv-x="383" 
d="M34 461v64h74v132l81 20v-152h145v-64h-145v-344q0 -55 50 -55q39 0 100 27l31 -63q-81 -37 -145 -37q-117 0 -117 132v340h-74zM137 -160v97h80l10 -101l-72 -108l-24 26l43 86h-37z" />
    <glyph glyph-name="hsuperior" unicode="&#x2b0;" horiz-adv-x="401" 
d="M118 822v-165q68 50 135 50q94 0 94 -99v-223h-63v211q0 60 -53 60q-29 0 -61 -15t-52 -32v-224h-63v437h63z" />
    <glyph glyph-name="jsuperior" unicode="&#x2b2;" horiz-adv-x="174" 
d="M51 757v64h70v-64h-70zM118 700v-320q0 -27 -1 -38.5t-6.5 -27.5t-18 -24t-34.5 -17.5t-57 -17.5l-20 46q54 17 64 28t10 47v324h63z" />
    <glyph glyph-name="wsuperior" unicode="&#x2b7;" horiz-adv-x="522" 
d="M338 385l-76 242l-77 -242h-61l-104 315h68l69 -253l76 253h57l75 -253l70 253h68l-103 -315h-62z" />
    <glyph glyph-name="ysuperior" unicode="&#x2b8;" horiz-adv-x="356" 
d="M15 700h69l94 -240l95 240h69l-184 -437h-69l56 124z" />
    <glyph glyph-name="circumflex" unicode="&#x2c6;" horiz-adv-x="270" 
d="M182 729l100 -130h-62l-85 85l-85 -85h-62l99 130h95z" />
    <glyph glyph-name="caron" unicode="&#x2c7;" horiz-adv-x="270" 
d="M282 729l-100 -130h-95l-99 130h62l85 -86l85 86h62z" />
    <glyph glyph-name="breve" unicode="&#x2d8;" horiz-adv-x="266" 
d="M132 599q-67 0 -104.5 28.5t-37.5 78.5h59q0 -53 83 -53q84 0 84 53h60q0 -50 -38 -78.5t-106 -28.5z" />
    <glyph glyph-name="dotaccent" unicode="&#x2d9;" horiz-adv-x="73" 
d="M-5 609v93h83v-93h-83z" />
    <glyph glyph-name="ring" unicode="&#x2da;" horiz-adv-x="202" 
d="M-3 692q0 44 30 74.5t73 30.5q44 0 74.5 -30.5t30.5 -74.5q0 -43 -30.5 -73t-74.5 -30q-43 0 -73 30t-30 73zM44 692q0 -23 16.5 -39.5t39.5 -16.5q24 0 40.5 16.5t16.5 39.5q0 24 -16.5 40.5t-40.5 16.5q-23 0 -39.5 -16.5t-16.5 -40.5z" />
    <glyph glyph-name="ogonek" unicode="&#x2db;" horiz-adv-x="155" 
d="M55 -96q0 -7 1.5 -12.5t5.5 -9l7.5 -6.5t9.5 -4.5t10.5 -2.5t12 -1.5t11 -0.5h11.5h10l-10 -50q-134 0 -134 78q0 64 124 116l41 -10q-2 -1 -12 -7l-13.5 -8l-13 -7.5t-13.5 -8.5t-12 -9.5t-12 -10.5t-9.5 -10t-8 -11.5t-4.5 -12t-2 -12.5z" />
    <glyph glyph-name="tilde" unicode="&#x2dc;" horiz-adv-x="288" 
d="M32 609l-45 20q22 42 42 63t51 21q27 0 69.5 -24.5t56.5 -24.5q25 0 50 46l45 -19q-20 -42 -40.5 -63.5t-52.5 -21.5q-27 0 -69.5 24.5t-56.5 24.5q-25 0 -50 -46z" />
    <glyph glyph-name="hungarumlaut" unicode="&#x2dd;" horiz-adv-x="304" 
d="M193 599h-52l77 130h97zM42 599h-53l79 130h95z" />
    <glyph glyph-name="xsuperior" unicode="&#x2e3;" horiz-adv-x="384" 
d="M291 385l-99 126l-97 -126h-77l137 158l-131 157h75l94 -124l92 124h75l-129 -157l136 -158h-76z" />
    <glyph glyph-name="pi" unicode="&#x3c0;" horiz-adv-x="569" 
d="M535 525v-73h-88v-452h-76v452h-172v-452h-77v452h-88v73h501z" />
    <glyph glyph-name="Wgrave" unicode="&#x1e80;" horiz-adv-x="942" 
d="M623 0l-152 578l-152 -578h-92l-194 700h97l147 -597l154 597h80l154 -596l148 596h96l-194 -700h-92zM550 750h-70l-166 130h113z" />
    <glyph glyph-name="wgrave" unicode="&#x1e81;" horiz-adv-x="813" 
d="M535 0l-128 425l-129 -425h-82l-164 525h88l121 -439l128 439h76l128 -439l121 439h88l-166 -525h-81zM485 599h-69l-166 130h112z" />
    <glyph glyph-name="Wacute" unicode="&#x1e82;" horiz-adv-x="942" 
d="M623 0l-152 578l-152 -578h-92l-194 700h97l147 -597l154 597h80l154 -596l148 596h96l-194 -700h-92zM462 750h-69l122 130h114z" />
    <glyph glyph-name="wacute" unicode="&#x1e83;" horiz-adv-x="813" 
d="M535 0l-128 425l-129 -425h-82l-164 525h88l121 -439l128 439h76l128 -439l121 439h88l-166 -525h-81zM399 599h-71l123 130h114z" />
    <glyph glyph-name="Wdieresis" unicode="&#x1e84;" horiz-adv-x="942" 
d="M623 0l-152 578l-152 -578h-92l-194 700h97l147 -597l154 597h80l154 -596l148 596h96l-194 -700h-92zM346 760v93h83v-93h-83zM515 760v93h82v-93h-82z" />
    <glyph glyph-name="wdieresis" unicode="&#x1e85;" horiz-adv-x="813" 
d="M535 0l-128 425l-129 -425h-82l-164 525h88l121 -439l128 439h76l128 -439l121 439h88l-166 -525h-81zM282 609v93h83v-93h-83zM450 609v93h82v-93h-82z" />
    <glyph glyph-name="Ygrave" unicode="&#x1ef2;" horiz-adv-x="635" 
d="M274 0v278l-256 422h98l202 -355l201 355h98l-257 -423v-277h-86zM397 750h-70l-166 130h112z" />
    <glyph glyph-name="ygrave" unicode="&#x1ef3;" horiz-adv-x="557" 
d="M27 525h90l161 -427l161 427h91l-294 -729h-91l92 207zM357 599h-69l-167 130h113z" />
    <glyph glyph-name="endash" unicode="&#x2013;" horiz-adv-x="567" 
d="M491 249h-415v71h415v-71z" />
    <glyph glyph-name="emdash" unicode="&#x2014;" horiz-adv-x="671" 
d="M595 249h-519v71h519v-71z" />
    <glyph glyph-name="quoteleft" unicode="&#x2018;" horiz-adv-x="238" 
d="M166 585v-120h-94l-11 127l82 128l29 -32l-50 -103h44z" />
    <glyph glyph-name="quoteright" unicode="&#x2019;" horiz-adv-x="229" 
d="M71 579v121h94l11 -128l-83 -127l-28 31l50 103h-44z" />
    <glyph glyph-name="quotesinglbase" unicode="&#x201a;" horiz-adv-x="246" 
d="M74 0v120h94l11 -127l-83 -128l-28 32l50 103h-44z" />
    <glyph glyph-name="quotedblleft" unicode="&#x201c;" horiz-adv-x="423" 
d="M166 585v-120h-94l-11 127l82 128l29 -32l-50 -103h44zM350 585v-120h-95l-11 127l84 128l28 -32l-50 -103h44z" />
    <glyph glyph-name="quotedblright" unicode="&#x201d;" horiz-adv-x="414" 
d="M254 579v121h95l11 -128l-83 -127l-29 31l50 103h-44zM71 579v121h94l11 -128l-83 -127l-28 31l50 103h-44z" />
    <glyph glyph-name="quotedblbase" unicode="&#x201e;" horiz-adv-x="430" 
d="M257 0v120h95l11 -127l-83 -128l-29 32l50 103h-44zM74 0v120h94l11 -127l-83 -128l-28 32l50 103h-44z" />
    <glyph glyph-name="dagger" unicode="&#x2020;" horiz-adv-x="582" 
d="M33 394v73l224 -10v243h68v-243l224 10v-73l-224 10v-608h-68v608z" />
    <glyph glyph-name="daggerdbl" unicode="&#x2021;" horiz-adv-x="626" 
d="M55 394v73l224 -10v243h67v-243l225 10v-73l-225 10v-209l225 10v-73l-225 10v-346h-67v346l-224 -10v73l224 -10v209z" />
    <glyph glyph-name="bullet" unicode="&#x2022;" horiz-adv-x="435" 
d="M89 284q0 54 37.5 92t91.5 38q53 0 91 -38t38 -92t-37.5 -91t-91.5 -37t-91.5 37t-37.5 91z" />
    <glyph glyph-name="ellipsis" unicode="&#x2026;" horiz-adv-x="653" 
d="M74 0v120h96v-120h-96zM278 0v120h96v-120h-96zM482 0v120h97v-120h-97z" />
    <glyph glyph-name="perthousand" unicode="&#x2030;" horiz-adv-x="1420" 
d="M407 523q0 -90 -49.5 -138.5t-132.5 -48.5q-82 0 -131 48.5t-49 138.5t49 139t131 49q83 0 132.5 -49t49.5 -139zM337 523q0 63 -29.5 97t-82.5 34t-82 -34t-29 -97t29 -96t82 -33q54 0 83 33t29 96zM949 176q0 -90 -49 -138.5t-133 -48.5q-83 0 -131.5 48.5t-48.5 138.5
t48.5 139t131.5 49q84 0 133 -49t49 -139zM879 176q0 63 -29.5 97t-82.5 34q-52 0 -81.5 -34t-29.5 -97q0 -62 29.5 -95.5t81.5 -33.5q54 0 83 33t29 96zM1374 176q0 -90 -49 -138.5t-132 -48.5t-132 48.5t-49 138.5t49 139t132 49t132 -49t49 -139zM1305 176q0 63 -29.5 97
t-82.5 34t-82 -34t-29 -97t29 -96t82 -33t82.5 33.5t29.5 95.5zM716 700l-367 -700h-71l367 700h71z" />
    <glyph glyph-name="guilsinglleft" unicode="&#x2039;" horiz-adv-x="405" 
d="M38 306l305 222v-83l-231 -166l231 -165v-83l-305 221v54z" />
    <glyph glyph-name="guilsinglright" unicode="&#x203a;" horiz-adv-x="405" 
d="M368 306v-54l-306 -221v83l231 165l-231 166v83z" />
    <glyph glyph-name="fraction" unicode="&#x2044;" horiz-adv-x="163" 
d="M284 700l-334 -700h-70l334 700h70z" />
    <glyph glyph-name="zerosuperior" unicode="&#x2070;" horiz-adv-x="436" 
d="M219 812q84 0 127.5 -56t43.5 -161q0 -104 -44 -160.5t-128 -56.5t-127.5 56t-43.5 161q0 104 44 160.5t128 56.5zM218 430q106 0 106 165t-105 165t-105 -165t104 -165z" />
    <glyph glyph-name="foursuperior" unicode="&#x2074;" horiz-adv-x="426" 
d="M30 474v47l208 284h87v-277h68v-54h-68v-89h-66v89h-229zM99 528h160v222z" />
    <glyph glyph-name="fivesuperior" unicode="&#x2075;" horiz-adv-x="391" 
d="M55 596l24 209h251v-55h-197l-9 -110q35 14 73 14q70 0 111 -39t41 -96q0 -58 -42 -99.5t-119 -41.5q-73 0 -151 46l30 49q52 -38 113 -38q42 0 71 23t29 60q0 36 -25.5 59.5t-71.5 23.5q-44 0 -91 -25z" />
    <glyph glyph-name="sixsuperior" unicode="&#x2076;" horiz-adv-x="411" 
d="M284 758q-63 0 -109 -39t-59 -109q41 44 115 44q65 0 103.5 -38t38.5 -95q0 -59 -43.5 -101t-115.5 -42q-83 0 -126 53t-43 134q0 106 66.5 176.5t171.5 70.5q16 0 31 -2t22 -4l8 -1l-15 -52q-21 5 -45 5zM216 603q-37 0 -65 -16t-40 -36q1 -57 28.5 -88t73.5 -31
q45 0 69.5 26.5t24.5 61.5q0 34 -23.5 58.5t-67.5 24.5z" />
    <glyph glyph-name="sevensuperior" unicode="&#x2077;" horiz-adv-x="346" 
d="M321 755q-7 -8 -17.5 -21.5t-38.5 -56t-49 -84t-38.5 -99.5t-17.5 -109h-69q0 58 21.5 123t54 119.5t50 80t31.5 42.5h-219v55h292v-50z" />
    <glyph glyph-name="eightsuperior" unicode="&#x2078;" horiz-adv-x="416" 
d="M39 495q0 74 104 117q-77 37 -77 98q0 46 39.5 74t103.5 28t103 -28t39 -74q0 -61 -78 -98q104 -44 104 -117q0 -54 -47 -85.5t-121 -31.5q-76 0 -123 31.5t-47 85.5zM309 499q0 52 -101 88q-102 -36 -102 -88q0 -32 29.5 -51t73.5 -19q43 0 71.5 19t28.5 51zM130 704
q0 -26 21.5 -41.5t56.5 -27.5q78 28 78 69q0 24 -22 41t-55 17q-35 0 -57 -17t-22 -41z" />
    <glyph glyph-name="ninesuperior" unicode="&#x2079;" horiz-adv-x="411" 
d="M126 432q62 0 108 38.5t60 108.5q-46 -43 -115 -43q-65 0 -103 37.5t-38 94.5q0 60 43 102t115 42q82 0 125.5 -53t43.5 -134q0 -106 -66.5 -176.5t-171.5 -70.5q-16 0 -31 2t-22 4l-8 1l17 52q18 -5 43 -5zM194 586q37 0 65.5 17t39.5 37q-2 56 -29.5 87t-72.5 31
t-69.5 -26.5t-24.5 -61.5q0 -34 23.5 -59t67.5 -25z" />
    <glyph glyph-name="plussuperior" unicode="&#x207a;" horiz-adv-x="396" 
d="M173 723h51v-114h134v-48h-134v-114h-51v114h-134v48h134v114z" />
    <glyph glyph-name="parenleftsuperior" unicode="&#x207d;" horiz-adv-x="226" 
d="M59 421v345q0 31 2 45t13.5 30.5t35.5 26.5t67 20l18 -39q-50 -15 -60 -26.5t-10 -46.5v-365q0 -34 10 -45.5t60 -27.5l-18 -39q-43 10 -67 20t-35.5 26.5t-13.5 30.5t-2 45z" />
    <glyph glyph-name="parenrightsuperior" unicode="&#x207e;" horiz-adv-x="226" 
d="M166 766v-345q0 -30 -2.5 -44.5t-13.5 -31t-35 -26.5t-66 -20l-18 39q49 16 59 27.5t10 45.5v365q0 35 -10 46.5t-59 26.5l18 39q42 -10 66 -20t35 -26.5t13.5 -31t2.5 -44.5z" />
    <glyph glyph-name="nsuperior" unicode="&#x207f;" horiz-adv-x="401" 
d="M118 700v-43q68 50 135 50q94 0 94 -99v-223h-63v211q0 60 -53 60q-29 0 -61 -15t-52 -32v-224h-63v315h63z" />
    <glyph glyph-name="zeroinferior" unicode="&#x2080;" horiz-adv-x="436" 
d="M219 277q84 0 127.5 -56t43.5 -161q0 -104 -44 -160.5t-128 -56.5t-127.5 56t-43.5 161q0 104 44 160.5t128 56.5zM218 -105q106 0 106 165t-105 165t-105 -165t104 -165z" />
    <glyph glyph-name="oneinferior" unicode="&#x2081;" horiz-adv-x="258" 
d="M192 -150h-66v357l-78 -39l-28 44l111 58h61v-420z" />
    <glyph glyph-name="twoinferior" unicode="&#x2082;" horiz-adv-x="392" 
d="M346 -95v-55h-307v36q0 31 10.5 56.5t34.5 48t41.5 35t52.5 34.5t52 34t32.5 31t15.5 39q0 26 -21 42t-59 16q-59 0 -116 -39l-31 43q77 51 154 51q65 0 102.5 -30.5t37.5 -80.5q0 -27 -10 -49.5t-34.5 -44t-39 -31t-51.5 -31.5q-9 -5 -13 -8q-43 -26 -62.5 -46.5
t-19.5 -50.5h231z" />
    <glyph glyph-name="threeinferior" unicode="&#x2083;" horiz-adv-x="395" 
d="M31 -110l31 45q65 -37 127 -37q42 0 69 19.5t27 52.5q0 41 -41 60t-93 19h-21v56h24q45 0 78.5 16t33.5 49q0 24 -20 38t-54 14q-53 0 -113 -35l-27 41q62 49 149 49q63 0 97 -29t34 -71q0 -30 -20.5 -55.5t-60.5 -39.5q45 -12 73 -42t28 -70q0 -52 -39.5 -89.5
t-115.5 -37.5q-82 0 -166 47z" />
    <glyph glyph-name="fourinferior" unicode="&#x2084;" horiz-adv-x="426" 
d="M30 -61v47l208 284h87v-277h68v-54h-68v-89h-66v89h-229zM99 -7h160v222z" />
    <glyph glyph-name="fiveinferior" unicode="&#x2085;" horiz-adv-x="392" 
d="M56 61l24 209h251v-55h-197l-9 -110q35 14 73 14q70 0 111 -39t41 -96q0 -58 -42 -99.5t-119 -41.5q-73 0 -151 46l30 49q52 -38 113 -38q42 0 71 23t29 60q0 36 -25.5 59.5t-71.5 23.5q-44 0 -91 -25z" />
    <glyph glyph-name="sixinferior" unicode="&#x2086;" horiz-adv-x="411" 
d="M284 223q-63 0 -109 -39t-59 -109q41 44 115 44q65 0 103.5 -38t38.5 -95q0 -59 -43.5 -101t-115.5 -42q-83 0 -126 53t-43 134q0 106 66.5 176.5t171.5 70.5q16 0 31 -1.5t22 -3.5l8 -2l-15 -52q-21 5 -45 5zM216 68q-37 0 -65 -16t-40 -36q1 -56 28.5 -87.5t73.5 -31.5
q45 0 69.5 26.5t24.5 61.5q0 34 -23.5 58.5t-67.5 24.5z" />
    <glyph glyph-name="seveninferior" unicode="&#x2087;" horiz-adv-x="346" 
d="M321 220q-7 -8 -17.5 -21.5t-38.5 -56t-49 -84t-38.5 -99.5t-17.5 -109h-69q0 58 21.5 123t54 119.5t50 80t31.5 42.5h-219v55h292v-50z" />
    <glyph glyph-name="eightinferior" unicode="&#x2088;" horiz-adv-x="416" 
d="M39 -40q0 74 104 117q-77 37 -77 98q0 46 39.5 74t103.5 28t103 -28t39 -74q0 -61 -78 -98q104 -44 104 -117q0 -54 -47 -85.5t-121 -31.5q-76 0 -123 31.5t-47 85.5zM309 -36q0 52 -101 88q-102 -36 -102 -88q0 -32 29.5 -51t73.5 -19q43 0 71.5 19t28.5 51zM130 169
q0 -26 21.5 -41.5t56.5 -27.5q78 28 78 69q0 24 -22 41t-55 17q-35 0 -57 -17t-22 -41z" />
    <glyph glyph-name="nineinferior" unicode="&#x2089;" horiz-adv-x="411" 
d="M126 -103q62 0 108 39t60 108q-46 -43 -115 -43q-65 0 -103 37.5t-38 94.5q0 60 43 102t115 42q82 0 125.5 -53t43.5 -134q0 -106 -66.5 -176.5t-171.5 -70.5q-16 0 -31 1.5t-22 3.5l-8 2l17 52q18 -5 43 -5zM194 51q37 0 65.5 17t39.5 37q-2 56 -29.5 87t-72.5 31
t-69.5 -26.5t-24.5 -61.5q0 -34 23.5 -59t67.5 -25z" />
    <glyph glyph-name="parenleftinferior" unicode="&#x208d;" horiz-adv-x="225" 
d="M59 -114v345q0 31 2 45t13.5 30.5t35.5 26.5t67 20l18 -39q-50 -15 -60 -26.5t-10 -46.5v-365q0 -34 10 -45.5t60 -27.5l-18 -39q-43 10 -67 20t-35.5 26.5t-13.5 30.5t-2 45z" />
    <glyph glyph-name="parenrightinferior" unicode="&#x208e;" horiz-adv-x="225" 
d="M165 231v-345q0 -30 -2.5 -44.5t-13.5 -31t-35 -26.5t-66 -20l-18 39q49 16 59 27.5t10 45.5v365q0 35 -10 46.5t-59 26.5l18 39q42 -10 66 -20t35 -26.5t13.5 -31t2.5 -44.5z" />
    <glyph glyph-name="colonmonetary" unicode="&#x20a1;" horiz-adv-x="563" 
d="M210 0h-49l24 104q-120 69 -120 247q0 130 66 201.5t161 71.5q2 0 6 -0.5t7 -0.5l18 77h49l-20 -84q20 -4 36 -10l22 94h51l-27 -113q11 -5 72 -39l-39 -61q-3 2 -20 12t-29 16l-84 -362q45 10 133 61l39 -61q-111 -67 -189 -75l-18 -78h-51l18 78q-22 3 -36 8zM150 351
q0 -104 55 -161l83 361q-61 -5 -99.5 -59t-38.5 -141zM247 160q19 -9 35 -10l90 386q-20 8 -36 11z" />
    <glyph glyph-name="lira" unicode="&#x20a4;" horiz-adv-x="560" 
d="M76 327v54h74q-3 6 -14 23t-15 24.5l-12 23.5t-11.5 27.5t-6.5 28t-3 33.5q0 77 53 123.5t143 46.5q93 0 223 -70l-41 -60q-107 56 -172 56q-57 0 -88.5 -31t-31.5 -76q0 -26 8.5 -48t30.5 -57t27 -44h188v-54h-166q7 -28 7 -52q0 -10 -1 -15h160v-53h-170
q-24 -74 -83 -133h321v-74h-431v61q9 7 23 19t44 50t43 77h-99v53h110v9q0 28 -10 58h-100z" />
    <glyph glyph-name="peseta" unicode="&#x20a7;" horiz-adv-x="675" 
d="M69 462v46h32v192h249q247 0 261 -192h27v-46h-27q-15 -190 -261 -190h-163v-272h-86v462h-32zM187 626v-118h335q-13 118 -170 118h-165zM352 345q155 0 170 117h-335v-117h165z" />
    <glyph glyph-name="uni20A9" unicode="&#x20a9;" horiz-adv-x="1024" 
d="M664 0l-151 578l-152 -578h-92l-66 238h-141v57h125l-33 116h-92v57h76l-64 232h97l57 -232h185l60 232h79l60 -232h184l58 232h96l-64 -232h77v-57h-93l-32 -116h125v-57h-141l-65 -238h-93zM626 411l30 -116h98l28 116h-156zM242 411l29 -116h97l30 116h-156zM671 238
l35 -135l34 135h-69zM285 238l34 -134l34 134h-68z" />
    <glyph glyph-name="Euro" unicode="&#x20ac;" horiz-adv-x="714" 
d="M52 402v53h68q22 127 94.5 191.5t172.5 64.5q117 0 269 -103l-45 -62q-136 87 -217 87q-67 0 -115.5 -46.5t-67.5 -131.5h284v-53h-292q-2 -34 -2 -52q0 -31 3 -58h291v-53h-282q19 -82 67 -127t114 -45q81 0 217 87l45 -62q-152 -103 -269 -103q-99 0 -171 62.5
t-95 187.5h-69v53h62q-2 36 -2 58q0 35 2 52h-62z" />
    <glyph glyph-name="uni2116" unicode="&#x2116;" horiz-adv-x="1136" 
d="M547 0l-363 573v-573h-86v700h89l363 -573v573h86v-700h-89zM1079 490q0 -98 -47.5 -149.5t-138.5 -51.5t-139 51.5t-48 149.5t48 149.5t139 51.5t138.5 -51.5t47.5 -149.5zM1003 490q0 140 -110 140q-111 0 -111 -140q0 -71 26.5 -106t84.5 -35q110 0 110 141zM740 179
v54h305v-54h-305z" />
    <glyph glyph-name="uni2117" unicode="&#x2117;" horiz-adv-x="836" 
d="M595 432q0 -129 -146 -129h-90v-164h-50v421h140q146 0 146 -128zM545 432q0 86 -95 86h-91v-172h91q95 0 95 86zM62 350q0 157 95 259t262 102t261.5 -102t94.5 -259t-94.5 -259t-261.5 -102t-262 102t-95 259zM102 350q0 -141 84 -232t232 -91q149 0 233.5 91t84.5 232
t-84.5 232t-233.5 91q-148 0 -232 -91t-84 -232z" />
    <glyph glyph-name="servicemark" unicode="&#x2120;" horiz-adv-x="656" 
d="M531 476v157l-68 -120h-31l-68 120v-157h-46v224h48l81 -140l81 140h49v-224h-46zM201 605q81 -21 81 -67q0 -29 -28 -47.5t-69 -18.5q-54 0 -119 30l22 32q52 -24 95 -24q21 0 36 6.5t15 18.5q0 6 -4 11t-14 9t-18.5 6.5t-25.5 6.5t-26 7q-73 20 -73 64q0 29 24.5 47
t65.5 18q52 0 106 -26l-21 -30q-48 18 -83 18q-45 0 -45 -24q0 -6 3.5 -10.5t12.5 -8t16.5 -5.5l23 -6t25.5 -7z" />
    <glyph glyph-name="trademark" unicode="&#x2122;" horiz-adv-x="655" 
d="M526 476v156l-68 -119h-29l-69 121v-158h-47v224h50l80 -142l81 142h49v-224h-47zM276 662h-82v-186h-46v186h-80v38h208v-38z" />
    <glyph glyph-name="Omega" unicode="&#x2126;" horiz-adv-x="747" 
d="M373 711q157 0 232 -96t75 -257q0 -113 -42.5 -185.5t-95.5 -98.5h117v-74h-233v73q75 27 120.5 97.5t45.5 180.5q0 285 -219 285t-219 -284q0 -111 45.5 -181t120.5 -98v-73h-232v74h114q-51 28 -93.5 99.5t-42.5 184.5q0 161 75 257t232 96z" />
    <glyph glyph-name="onethird" unicode="&#x2153;" horiz-adv-x="834" 
d="M204 280h-66v357l-78 -39l-28 44l111 58h61v-420zM565 700l-333 -700h-70l333 700h70zM463 40l30 45q65 -37 127 -37q42 0 69.5 19.5t27.5 52.5q0 41 -41.5 60t-93.5 19h-20v56h24q45 0 78 16t33 49q0 24 -19.5 38t-53.5 14q-56 0 -113 -35l-28 41q67 49 150 49
q62 0 96 -29t34 -71q0 -31 -20.5 -56t-60.5 -39q45 -12 73.5 -42t28.5 -70q0 -52 -40 -89.5t-116 -37.5q-84 0 -165 47z" />
    <glyph glyph-name="twothirds" unicode="&#x2154;" horiz-adv-x="969" 
d="M361 335v-55h-307v36q0 31 10.5 56.5t35 48t41.5 34.5t53 35t52 34t32 30.5t16 39.5q0 25 -21.5 41.5t-58.5 16.5q-60 0 -117 -39l-31 43q76 51 155 51q64 0 101.5 -30.5t37.5 -80.5q0 -27 -10 -49.5t-34.5 -44t-39 -31t-51.5 -31.5q-9 -5 -13 -8q-42 -25 -61.5 -46
t-19.5 -51h230zM701 700l-333 -700h-70l333 700h70zM598 40l31 45q63 -37 127 -37q42 0 69.5 19.5t27.5 52.5q0 41 -42 60t-94 19h-19v56h23q45 0 78.5 16t33.5 49q0 24 -20 38t-54 14q-55 0 -112 -35l-28 41q67 49 148 49q63 0 97.5 -29t34.5 -71q0 -31 -20.5 -56
t-60.5 -39q44 -12 73 -42t29 -70q0 -52 -40 -89.5t-117 -37.5q-84 0 -165 47z" />
    <glyph glyph-name="oneeighth" unicode="&#x215b;" horiz-adv-x="840" 
d="M456 110q0 74 103 117q-77 37 -77 98q0 46 39.5 74t103.5 28t103 -28t39 -74q0 -61 -78 -98q103 -43 103 -117q0 -54 -46 -85.5t-121 -31.5q-76 0 -122.5 31.5t-46.5 85.5zM565 700l-333 -700h-70l333 700h70zM204 280h-66v357l-78 -39l-28 44l111 58h61v-420zM725 114
q0 52 -101 88q-101 -36 -101 -88q0 -32 29 -51t73 -19q43 0 71.5 19t28.5 51zM547 319q0 -42 77 -69q22 8 36.5 15t28 21.5t13.5 32.5q0 24 -22 41t-55 17q-35 0 -56.5 -17t-21.5 -41z" />
    <glyph glyph-name="threeeighths" unicode="&#x215c;" horiz-adv-x="954" 
d="M570 110q0 74 103 117q-77 37 -77 98q0 46 39.5 74t103.5 28t103 -28t39 -74q0 -61 -78 -98q104 -43 104 -117q0 -54 -46.5 -85.5t-121.5 -31.5q-76 0 -122.5 31.5t-46.5 85.5zM45 320l31 45q65 -37 127 -37q42 0 69.5 19.5t27.5 52.5q0 41 -41.5 60t-93.5 19h-21v56h24
q45 0 78.5 16t33.5 49q0 24 -20 38t-54 14q-54 0 -112 -35l-28 41q11 9 28 18.5t51.5 20t69.5 10.5q63 0 97 -29t34 -71q0 -31 -20.5 -56t-60.5 -39q45 -12 73 -42t28 -70q0 -52 -39.5 -89.5t-115.5 -37.5q-82 0 -166 47zM679 700l-333 -700h-70l333 700h70zM839 114
q0 52 -101 88q-101 -36 -101 -88q0 -32 29 -51t73 -19t72 19t28 51zM661 319q0 -42 77 -69q22 8 36.5 15t28 21.5t13.5 32.5q0 24 -21.5 41t-55.5 17t-56 -17t-22 -41z" />
    <glyph glyph-name="fiveeighths" unicode="&#x215d;" horiz-adv-x="934" 
d="M549 110q0 74 104 117q-77 37 -77 98q0 46 39.5 74t103.5 28t103 -28t39 -74q0 -61 -78 -98q104 -44 104 -117q0 -54 -46.5 -85.5t-121.5 -31.5q-76 0 -123 31.5t-47 85.5zM67 491l24 209h251v-55h-197l-9 -110q35 14 73 14q70 0 111 -39t41 -96q0 -58 -42 -99.5
t-119 -41.5q-73 0 -151 46l30 49q52 -38 113 -38q42 0 71 23t29 60q0 36 -25.5 59.5t-71.5 23.5q-43 0 -91 -25zM660 700l-333 -700h-70l333 700h70zM820 114q0 51 -102 88q-101 -36 -101 -88q0 -32 29 -51t73 -19q43 0 72 19t29 51zM640 319q0 -26 21.5 -41.5t56.5 -27.5
q78 28 78 69q0 24 -21.5 41t-55.5 17t-56.5 -17t-22.5 -41z" />
    <glyph glyph-name="seveneighths" unicode="&#x215e;" horiz-adv-x="843" 
d="M460 110q0 74 102 117q-77 37 -77 98q0 46 39.5 74t103.5 28t103 -28t39 -74q0 -61 -78 -98q104 -43 104 -117q0 -54 -46.5 -85.5t-121.5 -31.5t-121.5 31.5t-46.5 85.5zM569 700l-333 -700h-70l333 700h70zM328 650q-7 -8 -17.5 -21.5t-38.5 -56t-49 -84t-38.5 -99.5
t-17.5 -109h-68q0 47 15.5 101t35.5 95t45.5 82.5t38 58l21.5 28.5h-219v55h292v-50zM729 114q0 51 -102 88q-100 -36 -100 -88q0 -32 28.5 -51t72.5 -19t72.5 19t28.5 51zM550 319q0 -42 77 -69q22 8 36.5 15t28 21.5t13.5 32.5q0 24 -21.5 41t-55.5 17t-56 -17t-22 -41z
" />
    <glyph glyph-name="partialdiff" unicode="&#x2202;" horiz-adv-x="618" 
d="M462 397q-10 43 -31 83t-53 75t-79 56t-103 21q-19 0 -38 -2t-28 -4l-10 -3l-14 65q37 12 92 12q159 0 257 -117.5t98 -300.5q0 -154 -69 -223.5t-181 -69.5q-116 0 -183 66t-67 177q0 110 63.5 177t166.5 67q36 0 68 -8t51.5 -20t33.5 -23.5t20 -19.5zM469 233
q0 83 -42.5 129.5t-122.5 46.5t-122.5 -48.5t-42.5 -128.5t42.5 -128t122.5 -48q78 0 121.5 47t43.5 130z" />
    <glyph glyph-name="Delta" unicode="&#x2206;" horiz-adv-x="689" 
d="M663 0h-637l271 700h95zM554 74l-209 531l-210 -531h419z" />
    <glyph glyph-name="product" unicode="&#x220f;" horiz-adv-x="700" 
d="M666 700v-74h-106v-626h-86v626h-247v-626h-86v626h-106v74h631z" />
    <glyph glyph-name="summation" unicode="&#x2211;" horiz-adv-x="561" 
d="M53 700h449v-74h-333l266 -276l-266 -276h333v-74h-449v59l276 291l-276 291v59z" />
    <glyph glyph-name="minus" unicode="&#x2212;" horiz-adv-x="615" 
d="M56 300v66h502v-66h-502z" />
    <glyph glyph-name="radical" unicode="&#x221a;" horiz-adv-x="584" 
d="M570 700l-298 -700h-67l-179 340h90l118 -230l246 590h90z" />
    <glyph glyph-name="infinity" unicode="&#x221e;" horiz-adv-x="926" 
d="M240 418q45 0 90 -21t67 -39.5t66 -58.5l49 44t46 34.5t62.5 31.5t65.5 9q78 0 127.5 -46t49.5 -114t-50 -114t-128 -46q-59 0 -105.5 27.5t-116.5 90.5q-63 -59 -112 -88.5t-111 -29.5q-78 0 -127.5 46t-49.5 114t49.5 114t127.5 46zM683 356q-43 0 -80 -22.5t-95 -75.5
q34 -32 54 -48.5t54 -33t67 -16.5q51 0 80 30t29 68t-29 68t-80 30zM243 160q33 0 67.5 17t52.5 32t55 49q-59 53 -95.5 75.5t-79.5 22.5q-51 0 -79.5 -30t-28.5 -68t28.5 -68t79.5 -30z" />
    <glyph glyph-name="integral" unicode="&#x222b;" horiz-adv-x="394" 
d="M154 86v548q0 115 44 160t162 45h15v-57h-23q-33 0 -55 -9.5t-33.5 -21.5t-17 -39.5t-6 -45t-0.5 -57.5v-547q0 -115 -44.5 -160t-162.5 -45h-14v57h23q33 0 55 9.5t33 21.5t16.5 39t6.5 45t1 57z" />
    <glyph glyph-name="approxequal" unicode="&#x2248;" horiz-adv-x="615" 
d="M109 367l-52 21q52 106 142 106q47 0 117.5 -34t107.5 -34q50 0 84 61l52 -20q-49 -106 -141 -106q-47 0 -117.5 34t-107.5 34q-25 0 -44.5 -12.5t-40.5 -49.5zM109 188l-52 20q51 106 142 106q47 0 117.5 -33.5t107.5 -33.5q51 0 84 61l52 -21q-50 -106 -141 -106
q-47 0 -117.5 34t-107.5 34q-50 0 -85 -61z" />
    <glyph glyph-name="notequal" unicode="&#x2260;" horiz-adv-x="615" 
d="M55 391v66h270l70 164l57 -22l-62 -142h167v-66h-195l-49 -114h244v-66h-273l-69 -162l-55 22l60 140h-165v66h193l48 114h-241z" />
    <glyph glyph-name="lessequal" unicode="&#x2264;" horiz-adv-x="615" 
d="M554 475l-402 -153l402 -154v-77l-501 202v58l501 202v-78zM52 0v60h502v-60h-502z" />
    <glyph glyph-name="greaterequal" unicode="&#x2265;" horiz-adv-x="615" 
d="M561 351v-58l-501 -202v77l402 154l-402 153v78zM562 60v-60h-502v60h502z" />
    <glyph glyph-name="uni2318" unicode="&#x2318;" horiz-adv-x="809" 
d="M600 40q-59 0 -99.5 38t-40.5 93v73h-110v-73q0 -55 -41 -93t-99 -38q-59 0 -100.5 38t-41.5 93q0 54 41.5 92.5t100.5 38.5h80v98h-80q-59 0 -100.5 38.5t-41.5 92.5q0 55 41.5 93t100.5 38q58 0 99 -38t41 -93v-73h110v73q0 55 40.5 93t99.5 38t100 -38t41 -93
q0 -54 -41 -92.5t-100 -38.5h-80v-98h80q59 0 100 -38.5t41 -92.5q0 -55 -41 -93t-100 -38zM600 244h-80v-73q0 -31 23.5 -52t56.5 -21t57 21t24 52q0 30 -24 51.5t-57 21.5zM290 244h-80q-34 0 -58 -21.5t-24 -51.5q0 -31 23.5 -52t58.5 -21q33 0 56.5 21t23.5 52v73z
M350 400v-98h110v98h-110zM520 531v-73h80q33 0 57 21.5t24 51.5q0 31 -24 52t-57 21t-56.5 -21t-23.5 -52zM210 458h80v73q0 31 -23.5 52t-56.5 21q-35 0 -58.5 -21t-23.5 -52q0 -30 24 -51.5t58 -21.5z" />
    <glyph glyph-name="lozenge" unicode="&#x25ca;" horiz-adv-x="555" 
d="M326 0h-96l-190 350l190 350h96l192 -350zM431 350l-153 280l-153 -280l153 -281z" />
    <glyph glyph-name="commaaccent" unicode="&#xf6c3;" horiz-adv-x="86" 
d="M7 -160v97h80l9 -101l-71 -108l-24 26l43 86h-37z" />
    <glyph glyph-name="centinferior" unicode="&#xf6df;" horiz-adv-x="365" 
d="M225 -150h-48v47q-58 3 -97 45.5t-39 117.5t39 117.5t97 45.5v47h48v-50q33 -7 101 -41l-28 -45q-57 27 -73 31v-210q16 4 73 31l28 -47q-61 -30 -101 -39v-50zM107 60q0 -44 19 -73t51 -35v216q-32 -6 -51 -35t-19 -73z" />
    <glyph glyph-name="centsuperior" unicode="&#xf6e0;" horiz-adv-x="366" 
d="M225 385h-48v46q-58 4 -97 46.5t-39 117.5t39 117.5t97 45.5v47h48v-50q33 -7 101 -41l-28 -45q-57 27 -73 31v-211q27 7 73 32l28 -47q-64 -32 -101 -39v-50zM107 595q0 -44 19 -73t51 -36v217q-32 -6 -51 -35t-19 -73z" />
    <glyph glyph-name="commainferior" unicode="&#xf6e1;" horiz-adv-x="184" 
d="M56 -150v81h69l8 -87l-59 -80l-21 23l35 63h-32z" />
    <glyph glyph-name="commasuperior" unicode="&#xf6e2;" horiz-adv-x="184" 
d="M56 385v81h69l8 -87l-59 -80l-21 23l35 63h-32z" />
    <glyph glyph-name="dollarinferior" unicode="&#xf6e3;" horiz-adv-x="405" 
d="M227 -210h-48v56q-75 11 -146 50l31 48q53 -30 115 -42v137l-12 4q-27 9 -44.5 17t-38 21.5t-31 33.5t-10.5 46q0 50 37.5 81.5t98.5 33.5v55h48v-57q69 -9 127 -38l-29 -48q-49 21 -98 30v-127l10 -3q28 -9 46.5 -17t41.5 -23t34.5 -36.5t11.5 -49.5q0 -53 -41 -85
t-103 -34v-53zM303 -43q0 24 -19 38t-57 28v-124q32 2 54 17t22 41zM112 166q0 -23 16.5 -36t50.5 -24v115q-67 -6 -67 -55z" />
    <glyph glyph-name="dollarsuperior" unicode="&#xf6e4;" horiz-adv-x="405" 
d="M227 325h-48v55q-78 11 -146 51l31 48q53 -30 115 -42v137l-12 4q-27 9 -44.5 17t-38 21.5t-31 33.5t-10.5 46q0 50 37.5 81.5t98.5 33.5v55h48v-57q69 -9 127 -38l-29 -48q-49 21 -98 30v-127l10 -3q28 -9 46.5 -17t41.5 -23t34.5 -36.5t11.5 -49.5q0 -54 -40.5 -85.5
t-103.5 -33.5v-53zM303 492q0 23 -19 38t-57 28v-125q32 2 54 17.5t22 41.5zM112 701q0 -23 16.5 -36t50.5 -24v115q-67 -6 -67 -55z" />
    <glyph glyph-name="periodinferior" unicode="&#xf6e7;" horiz-adv-x="182" 
d="M56 -150v81h70v-81h-70z" />
    <glyph glyph-name="periodsuperior" unicode="&#xf6e8;" horiz-adv-x="182" 
d="M56 385v81h70v-81h-70z" />
    <glyph glyph-name="asuperior" unicode="&#xf6e9;" horiz-adv-x="382" 
d="M265 385v41q-52 -48 -122 -48q-46 0 -78.5 26.5t-32.5 75.5q0 50 33 76.5t84 26.5q28 0 116 -17v31q0 32 -15 46.5t-51 14.5t-123 -26l-21 45q92 30 153 30q120 0 120 -109v-213h-63zM161 429q56 0 104 42v60q-71 13 -93 13q-75 0 -75 -60q0 -55 64 -55z" />
    <glyph glyph-name="bsuperior" unicode="&#xf6ea;" horiz-adv-x="399" 
d="M55 385v437h63v-162q55 47 115 47q57 0 92 -41.5t35 -123.5q0 -81 -35 -122.5t-92 -41.5q-61 0 -115 46v-39h-63zM219 655q-56 0 -101 -47v-131q46 -48 101 -48q77 0 77 113t-77 113z" />
    <glyph glyph-name="dsuperior" unicode="&#xf6eb;" horiz-adv-x="399" 
d="M343 385h-63v39q-52 -46 -115 -46q-57 0 -92 41.5t-35 122.5q0 82 35 123.5t92 41.5q62 0 115 -47v162h63v-437zM180 429q54 0 100 48v131q-45 47 -100 47q-77 0 -77 -113t77 -113z" />
    <glyph glyph-name="esuperior" unicode="&#xf6ec;" horiz-adv-x="379" 
d="M335 528h-233q4 -48 27.5 -75t61.5 -27q46 0 123 42l27 -40q-82 -50 -154 -50q-65 0 -107.5 42.5t-42.5 121.5q0 78 43 121.5t115 43.5q69 0 106.5 -38.5t37.5 -99.5zM194 660q-39 0 -62.5 -25t-28.5 -70h174q0 95 -83 95z" />
    <glyph glyph-name="isuperior" unicode="&#xf6ed;" horiz-adv-x="175" 
d="M119 385h-64v315h64v-315zM53 757v64h70v-64h-70z" />
    <glyph glyph-name="lsuperior" unicode="&#xf6ee;" horiz-adv-x="174" 
d="M118 385h-63v437h63v-437z" />
    <glyph glyph-name="msuperior" unicode="&#xf6ef;" horiz-adv-x="598" 
d="M118 700v-45q59 52 120 52q68 0 87 -58q61 58 127 58q92 0 92 -99v-223h-63v211q0 60 -51 60q-47 0 -99 -50v-221h-64v211q0 60 -50 60q-49 0 -99 -50v-221h-63v315h63z" />
    <glyph glyph-name="osuperior" unicode="&#xf6f0;" horiz-adv-x="395" 
d="M357 542q0 -77 -41.5 -120.5t-118.5 -43.5t-118.5 43.5t-41.5 120.5q0 78 41.5 121.5t118.5 43.5t118.5 -43.5t41.5 -121.5zM293 542q0 115 -96 115t-96 -115q0 -114 96 -114t96 114z" />
    <glyph glyph-name="rsuperior" unicode="&#xf6f1;" horiz-adv-x="266" 
d="M118 700v-67q5 12 15.5 26.5t40.5 31t69 13.5v-60q-50 0 -81 -25t-38 -49l-6 -25v-160h-63v315h63z" />
    <glyph glyph-name="ssuperior" unicode="&#xf6f2;" horiz-adv-x="343" 
d="M191 569q58 -14 88.5 -37t30.5 -64q0 -43 -34.5 -66.5t-89.5 -23.5q-77 0 -153 39l27 47q72 -35 123 -35q27 0 45.5 9.5t18.5 27.5q0 6 -1.5 10.5t-5.5 9t-8 7.5t-11 6.5t-12 5.5t-14 4.5l-14 4t-15 4l-14 3.5q-23 6 -40 12.5t-35.5 17.5t-28 27.5t-9.5 38.5
q0 41 33 65.5t88 24.5q66 0 136 -33l-28 -43q-62 27 -106 27q-28 0 -44.5 -10.5t-16.5 -27.5q0 -7 2.5 -13t9 -10.5l11.5 -8t16.5 -6.5t16.5 -4.5t18 -4.5t16 -4z" />
    <glyph glyph-name="tsuperior" unicode="&#xf6f3;" horiz-adv-x="270" 
d="M25 652v48h45v79l65 12v-91h90v-48h-90v-187q0 -32 29 -32q22 0 59 15l24 -47q-56 -23 -96 -23q-81 0 -81 89v185h-45z" />
    <glyph glyph-name="apple" unicode="&#xf8ff;" horiz-adv-x="857" 
d="M745 327q-9 -4 -10 -11t7 -12l28 -20q8 -5 7.5 -10.5t-10.5 -7.5l-34 -6q-10 -1 -12 -8t5 -14l24 -24q6 -7 4 -12t-12 -5l-35 2q-10 0 -13 -6t3 -14l18 -30q5 -8 2 -12.5t-13 -2.5l-34 9q-9 3 -13.5 -2.5t-1.5 -14.5l11 -33q4 -9 0 -12.5t-13 0.5l-31 15q-8 5 -14 0.5
t-5 -14.5l5 -33q1 -10 -3 -12.5t-12 3.5l-28 21q-8 6 -14 3t-7 -13l-2 -34q-1 -10 -6 -11.5t-11 5.5l-23 27q-16 16 -22 -5l-10 -33q-2 -10 -8 -10t-10 8l-17 30q-10 20 -23 0l-15 -30q-4 -8 -10 -8t-8 10l-10 33q-6 21 -22 5l-23 -27q-14 -15 -17 6l-2 34q-1 10 -7.5 13
t-14.5 -3l-26 -21q-8 -6 -13 -3.5t-3 12.5l5 33q1 10 -5 14.5t-15 -0.5l-30 -15q-9 -4 -13 -0.5t0 12.5l11 33q4 9 -1 14.5t-14 2.5l-34 -9q-10 -2 -13 2.5t2 12.5l19 30q5 8 2 14t-13 6l-35 -2q-10 0 -12 5t4 12l25 24q6 7 4 14t-12 8l-33 6q-7 1 -10 4t-1 7t7 7l28 20
q1 1 2.5 2t2.5 2l1 2q9 8 18 -6l16 -31q5 -9 10 -8t8 10l9 34q2 6 5.5 8.5t8 1.5t8.5 -6l23 -26q7 -7 11.5 -5.5t5.5 11.5l2 34q2 10 7.5 12.5t13.5 -3.5l28 -21q8 -6 12.5 -3.5t2.5 12.5l-4 34q-1 10 4.5 14t13.5 -1l31 -14q9 -4 13 -0.5t1 12.5l-11 33q-4 9 0.5 14t13.5 2
l7 -1q20 -38 34.5 -99t14.5 -106q-14 -18 -46 -18h-4q0 22 -16 35q9 -10 9 -27v-7q-16 1 -16 19q0 21 -13.5 35t-37.5 14q-20 0 -33.5 -15.5t-13.5 -38.5q0 -29 24.5 -47t67.5 -18q68 0 134.5 53t105 127t38.5 139q0 29 -18 48t-46 19q-23 0 -41.5 -16.5t-18.5 -41.5
q0 -52 58 -58q-15 -60 -29 -85q-13 102 -58 150q44 -58 52 -161l-14 -20q0 76 -25 140t-64 84q-6 11 12 15l34 6q6 1 8.5 3.5t1 6.5t-6.5 7l-29 19q-17 15 3 23l31 14q7 2 9.5 5.5t0 7t-9.5 5.5l-31 13q-11 5 -10 14q6 3 7 8l17 30q5 9 10.5 8.5t7.5 -9.5l10 -33
q7 -23 22 -5l23 26q6 8 11 6.5t6 -11.5l2 -35q1 -10 7.5 -12.5t13.5 3.5l28 21q7 6 11.5 3t3.5 -13l-5 -34q-1 -10 5 -14t14 1l31 16q9 4 13 0t0 -14l-11 -31q-3 -10 1.5 -15t13.5 -2l34 7q10 3 13 -1t-2 -13l-18 -29q-6 -8 -3 -14.5t13 -5.5l35 2q10 0 12 -5t-4 -12
l-24 -26q-7 -7 -5 -13.5t12 -7.5l34 -6q20 -5 3 -19l-28 -19q-8 -5 -7.5 -11.5t10.5 -10.5l31 -13q9 -4 9 -9t-9 -9zM364 124q69 0 135 52.5t104.5 127t38.5 139.5q0 31 -20 49q12 -18 12 -41q0 -103 -85 -210q-92 -113 -196 -113q-29 0 -49 9q20 -13 60 -13z" />
    <glyph glyph-name="s_t" unicode="&#xfb06;" horiz-adv-x="894" 
d="M545 461v64h73v31q0 128 -116 128q-55 0 -86 -31.5t-31 -84.5q0 -39 14 -65l47 -20l-36 -58q-94 44 -169 44q-47 0 -75.5 -19.5t-28.5 -53.5q0 -21 11.5 -37t34.5 -27t39.5 -16t44.5 -12l12 -3q93 -25 141.5 -63t48.5 -103q0 -71 -54.5 -108.5t-136.5 -37.5
q-119 0 -234 64l37 61q110 -58 193 -58q46 0 79 20t33 56q0 22 -12.5 38.5t-36 28t-45 18.5t-50.5 15l-12 3q-37 10 -62.5 20t-54 28t-43.5 45.5t-15 63.5q0 67 50.5 105.5t133.5 38.5q49 0 106 -15q-9 23 -9 54q0 71 47.5 112.5t127.5 41.5q92 0 140.5 -49t48.5 -134v-21
h144v-64h-144v-344q0 -31 12.5 -43t36.5 -12q43 0 100 27l32 -63q-81 -37 -146 -37q-117 0 -117 132v340h-73z" />
    <glyph glyph-name="eight.numr" horiz-adv-x="418" 
d="M40 390q0 74 104 117q-77 37 -77 98q0 46 39.5 74t103.5 28t103 -28t39 -74q0 -61 -78 -98q104 -44 104 -117q0 -54 -47 -85.5t-121 -31.5q-76 0 -123 31.5t-47 85.5zM310 394q0 52 -101 88q-102 -36 -102 -88q0 -32 29.5 -51t73.5 -19q43 0 71.5 19t28.5 51zM131 599
q0 -26 21.5 -41.5t56.5 -27.5q78 28 78 69q0 24 -22 41t-55 17q-35 0 -57 -17t-22 -41z" />
    <glyph glyph-name="Qsuperior" horiz-adv-x="490" 
d="M244 378q-102 0 -150 60t-48 157t48 157t150 60t150.5 -60t48.5 -157q0 -77 -31 -132t-95 -75l71 -54l-44 -45zM244 435q132 0 132 160t-132 160q-131 0 -131 -160t131 -160z" />
    <glyph glyph-name="f_f.calt" horiz-adv-x="706" 
d="M33 461v64h73v72q0 132 118 132q63 0 155 -35l-27 -61q-75 24 -115 24q-49 0 -49 -56v-76h136v-64h-136v-461h-82v461h-73zM386 461v64h74v72q0 132 114 132q49 0 127 -27l-25 -62q-58 17 -85 17q-50 0 -50 -56v-76h142v-64h-142v-461h-81v461h-74z" />
    <glyph glyph-name="f_f.ss01" horiz-adv-x="677" 
d="M33 461v64h74v62q0 132 138 132q87 0 208 -33q28 43 96 43q66 0 155 -35l-30 -61q-72 24 -111 24q-49 0 -49 -56v-76h141v-64h-141v-461h-82v461h-244v-461h-81v461h-74zM188 591v-66h244v72q0 17 1 25q-139 25 -180 25q-65 0 -65 -56z" />
    <glyph glyph-name="f_f_b.ss01" horiz-adv-x="1279" 
d="M33 461v64h74v62q0 132 138 132q79 0 212 -34q33 44 113 44q74 0 188 -29v29h82v-272q90 79 185 79q89 0 145 -68t56 -206q0 -137 -56 -205t-145 -68q-99 0 -185 78v-67h-82v631q-147 26 -180 26q-64 0 -64 -56v-76h141v-64h-141v-461h-82v461h-244v-461h-81v461h-74z
M1010 467q-93 0 -170 -84v-242q76 -83 170 -83q64 0 97.5 53.5t33.5 150.5t-33.5 151t-97.5 54zM432 597q0 17 1 25q-139 25 -180 25q-65 0 -65 -56v-66h244v72z" />
    <glyph glyph-name="f_f_h.ss01" horiz-adv-x="1282" 
d="M33 461v64h74v62q0 132 138 132q79 0 212 -34q33 44 113 44q74 0 188 -29v29h82v-277q116 84 217 84q148 0 148 -162v-374h-83v359q0 109 -90 109q-48 0 -102.5 -27.5t-89.5 -57.5v-383h-82v631q-147 26 -180 26q-64 0 -64 -56v-76h141v-64h-141v-461h-82v461h-244v-461
h-81v461h-74zM432 597q0 17 1 25q-139 25 -180 25q-65 0 -65 -56v-66h244v72z" />
    <glyph glyph-name="f_f_i.ss01" horiz-adv-x="892" 
d="M33 461v64h74v62q0 132 138 132q82 0 212 -34q34 44 115 44q90 0 208 -35l-32 -61q-128 24 -168 24q-28 0 -47 -13.5t-19 -42.5v-76h300v-525h-83v461h-217v-461h-82v461h-244v-461h-81v461h-74zM432 597q0 17 1 25q-139 25 -180 25q-65 0 -65 -56v-66h244v72z" />
    <glyph glyph-name="f_f_j.ss01" horiz-adv-x="892" 
d="M34 461v64h74v62q0 132 138 132q82 0 212 -34q34 44 115 44q90 0 208 -35l-32 -61q-128 24 -168 24q-28 0 -47 -13.5t-19 -42.5v-76h300v-545q0 -30 -0.5 -43.5t-3.5 -34.5t-9.5 -30.5t-18.5 -23.5t-31 -22.5t-45.5 -18.5t-63.5 -20l-29 63q31 10 49.5 16.5t33 16t21 15
t10 20t4 24.5t0.5 34v485h-217v-461h-82v461h-244v-461h-81v461h-74zM433 597q0 17 1 25q-139 25 -180 25q-65 0 -65 -56v-66h244v72z" />
    <glyph glyph-name="f_f_k.ss01" horiz-adv-x="1202" 
d="M33 461v64h74v62q0 132 138 132q79 0 212 -34q33 44 113 44q74 0 188 -29v29h82v-481l222 277h94l-178 -212l210 -313h-89l-171 253l-88 -105v-148h-82v631q-147 26 -180 26q-64 0 -64 -56v-76h141v-64h-141v-461h-82v461h-244v-461h-81v461h-74zM432 597q0 17 1 25
q-139 25 -180 25q-65 0 -65 -56v-66h244v72z" />
    <glyph glyph-name="f.calt" horiz-adv-x="352" 
d="M33 461v64h73v72q0 132 115 132q52 0 126 -27l-24 -62q-61 17 -86 17q-49 0 -49 -56v-76h141v-64h-141v-461h-82v461h-73z" />
    <glyph glyph-name="f_f_l.ss01" horiz-adv-x="927" 
d="M33 461v64h74v62q0 132 138 132q79 0 212 -34q33 44 113 44q74 0 188 -29v29h82v-729h-82v631q-147 26 -180 26q-64 0 -64 -56v-76h141v-64h-141v-461h-82v461h-244v-461h-81v461h-74zM432 597q0 17 1 25q-139 25 -180 25q-65 0 -65 -56v-66h244v72z" />
    <glyph glyph-name="f_f_t.ss01" horiz-adv-x="1018" 
d="M33 461v64h74v62q0 132 138 132q83 0 207 -33q28 43 97 43q63 0 155 -35l-30 -61q-72 24 -111 24q-49 0 -49 -56v-76h229v132l81 20v-152h145v-64h-145v-344q0 -55 50 -55q39 0 100 27l31 -63q-81 -37 -145 -37q-117 0 -117 132v340h-229v-461h-83v461h-243v-461h-81v461
h-74zM431 597q0 17 1 25q-143 25 -179 25q-65 0 -65 -56v-66h243v72z" />
    <glyph glyph-name="f_h.ss01" horiz-adv-x="957" 
d="M33 461v64h74v72q0 132 138 132q74 0 188 -29v29h82v-277q116 84 217 84q148 0 148 -162v-374h-83v359q0 109 -90 109q-48 0 -102.5 -27.5t-89.5 -57.5v-383h-82v631q-147 26 -180 26q-65 0 -65 -56v-76h142v-64h-142v-461h-81v461h-74z" />
    <glyph glyph-name="exclamsuperior" horiz-adv-x="196" 
d="M64 385v76h70v-76h-70zM137 805l-19 -291h-39l-20 291h78z" />
    <glyph glyph-name="f_i.ss01" horiz-adv-x="567" 
d="M33 461v64h74v72q0 132 140 132q90 0 208 -35l-32 -61q-128 24 -168 24q-67 0 -67 -56v-76h301v-525h-83v461h-218v-461h-81v461h-74z" />
    <glyph glyph-name="f_j.ss01" horiz-adv-x="567" 
d="M34 461v64h74v72q0 132 140 132q90 0 208 -35l-32 -61q-128 24 -168 24q-67 0 -67 -56v-76h301v-545q0 -30 -0.5 -43.5t-3.5 -34.5t-9.5 -30.5t-18.5 -23.5t-31 -22.5t-45.5 -18.5t-63.5 -20l-29 63q31 10 49.5 16.5t33 16t21 15t10 20t4 24.5t0.5 34v485h-218v-461h-81
v461h-74z" />
    <glyph glyph-name="f_k.ss01" horiz-adv-x="877" 
d="M33 461v64h74v72q0 132 138 132q74 0 188 -29v29h82v-481l222 277h94l-178 -211l210 -314h-89l-172 253l-87 -104v-149h-82v631q-147 26 -180 26q-65 0 -65 -56v-76h142v-64h-142v-461h-81v461h-74z" />
    <glyph glyph-name="exclaminferior" horiz-adv-x="195" 
d="M63 -150v76h70v-76h-70zM136 270l-19 -291h-39l-20 291h78z" />
    <glyph glyph-name="f_l.ss01" horiz-adv-x="602" 
d="M33 461v64h74v72q0 132 138 132q74 0 188 -29v29h82v-729h-82v631q-147 26 -180 26q-65 0 -65 -56v-76h142v-64h-142v-461h-81v461h-74z" />
    <glyph glyph-name="f_t.ss01" horiz-adv-x="693" 
d="M33 461v64h74v72q0 72 30.5 102t86.5 30q66 0 155 -35l-30 -61q-72 24 -111 24q-50 0 -50 -56v-76h229v132l83 20v-152h145v-64h-145v-344q0 -55 49 -55q39 0 100 27l31 -63q-81 -37 -144 -37q-119 0 -119 132v340h-229v-461h-81v461h-74z" />
    <glyph glyph-name="finferior" horiz-adv-x="244" 
d="M27 117v48h45v34q0 88 81 88q50 0 102 -22l-23 -45q-56 14 -67 14q-29 0 -29 -33v-36h87v-48h-87v-267h-64v267h-45z" />
    <glyph glyph-name="exclamdownsuperior" horiz-adv-x="195" 
d="M64 728v77h70v-77h-70zM118 676l19 -291h-78l20 291h39z" />
    <glyph glyph-name="five.dnom" horiz-adv-x="391" 
d="M55 211l24 209h251v-55h-197l-9 -110q35 14 73 14q70 0 111 -39t41 -96q0 -58 -42 -99.5t-119 -41.5q-73 0 -151 46l30 49q15 -12 47.5 -25t65.5 -13q42 0 71 23t29 60q0 36 -25.5 59.5t-71.5 23.5q-44 0 -91 -25z" />
    <glyph glyph-name="five.numr" horiz-adv-x="391" 
d="M55 491l24 209h251v-55h-197l-9 -110q35 14 73 14q70 0 111 -39t41 -96q0 -58 -42 -99.5t-119 -41.5q-73 0 -151 46l30 49q15 -12 47.5 -25t65.5 -13q42 0 71 23t29 60q0 36 -25.5 59.5t-71.5 23.5q-44 0 -91 -25z" />
    <glyph glyph-name="five.onum" horiz-adv-x="573" 
d="M74 229l38 345h382v-74h-313l-17 -207q57 26 122 26q107 0 171 -65t64 -160t-65 -163t-183 -68q-113 0 -228 71l39 65q92 -61 179 -61q70 0 120 43.5t50 112.5q0 64 -44 108t-119 44q-74 0 -149 -44z" />
    <glyph glyph-name="five.tnum" horiz-adv-x="630" 
d="M103 355l38 345h382v-74h-313l-17 -208q56 27 122 27q107 0 171.5 -65.5t64.5 -159.5q0 -95 -65.5 -163t-183.5 -68q-111 0 -228 71l40 65q92 -61 178 -61q70 0 120 43.5t50 112.5q0 64 -43.5 108t-119.5 44q-74 0 -149 -44z" />
    <glyph glyph-name="exclamdowninferior" horiz-adv-x="195" 
d="M63 193v77h70v-77h-70zM117 141l19 -291h-78l20 291h39z" />
    <glyph glyph-name="fiveeighths.onum" horiz-adv-x="824" 
d="M483 90q0 62 91 96q-67 32 -67 80q0 38 34 61t89 23t89 -23t34 -61q0 -50 -67 -80q91 -35 91 -96q0 -44 -40.5 -70t-106.5 -26q-65 0 -106 26t-41 70zM66 403l21 171h216v-46h-172l-8 -89q31 12 65 12q60 0 95.5 -32.5t35.5 -79.5q0 -48 -36.5 -81.5t-102.5 -33.5
q-60 0 -130 38l25 40q46 -32 99 -32q36 0 62 19t26 50q0 29 -22.5 48t-63.5 19q-36 0 -79 -20zM579 574l-291 -574h-58l290 574h59zM719 93q0 44 -90 73q-88 -30 -88 -73q0 -26 25.5 -41t63.5 -15t63.5 15t25.5 41zM561 260q0 -35 68 -56q69 21 69 56q0 20 -19 34.5
t-49 14.5t-49.5 -14.5t-19.5 -34.5z" />
    <glyph glyph-name="exclamdown.sc" horiz-adv-x="260" 
d="M85 473v101h89v-101h-89zM154 400l23 -400h-94l22 400h49z" />
    <glyph glyph-name="fivesixths" horiz-adv-x="911" 
d="M771 373q-63 0 -108.5 -38.5t-58.5 -108.5q43 43 114 43q65 0 103.5 -38t38.5 -95q0 -59 -43.5 -101t-115.5 -42q-83 0 -126 53t-43 134q0 106 66.5 176.5t171.5 70.5q16 0 31 -1.5t23 -3.5l7 -2l-15 -52q-21 5 -45 5zM67 491l24 209h251v-55h-197l-9 -110q35 14 73 14
q70 0 111 -39t41 -96q0 -58 -42 -99.5t-119 -41.5q-73 0 -151 46l30 49q52 -38 113 -38q42 0 71 23t29 60q0 36 -25.5 59.5t-71.5 23.5q-43 0 -91 -25zM660 700l-333 -700h-70l333 700h70zM703 218q-37 0 -64.5 -16t-39.5 -36q1 -57 28 -88t73 -31q45 0 69.5 26.5t24.5 61.5
q0 34 -23.5 58.5t-67.5 24.5z" />
    <glyph glyph-name="fivesixths.onum" horiz-adv-x="803" 
d="M675 306q-56 0 -95.5 -32t-50.5 -89q38 35 100 35q56 0 89.5 -31t33.5 -77q0 -49 -37.5 -83.5t-99.5 -34.5q-71 0 -109 43.5t-38 109.5q0 87 58 145t148 58q14 0 27 -1.5t19 -2.5l7 -2l-12 -42q-19 4 -40 4zM66 403l21 171h216v-46h-172l-8 -89q31 12 65 12
q60 0 95.5 -32.5t35.5 -79.5q0 -48 -36.5 -81.5t-102.5 -33.5q-60 0 -130 38l25 40q46 -32 99 -32q36 0 62 19t26 50q0 29 -22.5 48t-63.5 19q-36 0 -79 -20zM579 574l-291 -574h-58l290 574h59zM616 179q-32 0 -56 -13.5t-35 -29.5q1 -46 25 -71.5t64 -25.5q39 0 61 21.5
t22 50.5q0 27 -21 47.5t-60 20.5z" />
    <glyph glyph-name="exclam.sc" horiz-adv-x="259" 
d="M85 0v101h89v-101h-89zM177 574l-23 -400h-48l-23 400h94z" />
    <glyph glyph-name="einferior" horiz-adv-x="378" 
d="M335 -7h-233q4 -47 27.5 -74.5t61.5 -27.5q46 0 123 42l27 -40q-82 -50 -154 -50q-65 0 -107.5 42.5t-42.5 121.5q0 78 43 121.5t115 43.5q69 0 106.5 -38.5t37.5 -99.5zM194 125q-39 0 -62.5 -25t-28.5 -70h174q0 95 -83 95z" />
    <glyph glyph-name="eight.tnum" horiz-adv-x="630" 
d="M55 181q0 126 169 197q-128 58 -128 164q0 77 60.5 123t157.5 46t157.5 -46t60.5 -123q0 -104 -128 -164q170 -69 170 -197q0 -89 -73 -140.5t-187 -51.5t-186.5 51.5t-72.5 140.5zM486 184q0 57 -47 94t-125 66q-36 -13 -63 -26.5t-53.5 -32.5t-40.5 -45t-14 -56
q0 -57 49 -91.5t122 -34.5t122.5 34.5t49.5 91.5zM181 535q0 -26 12 -47t35 -36t41 -23.5t45 -18.5q27 10 45 18.5t41.5 23.5t35.5 36t12 47q0 45 -38 76.5t-96 31.5q-57 0 -95 -32t-38 -76z" />
    <glyph glyph-name="four.dnom" horiz-adv-x="425" 
d="M30 89v47l208 284h87v-277h68v-54h-68v-89h-66v89h-229zM99 143h160v222z" />
    <glyph glyph-name="four.numr" horiz-adv-x="425" 
d="M30 369v47l208 284h87v-277h68v-54h-68v-89h-66v89h-229zM99 423h160v222z" />
    <glyph glyph-name="four.onum" horiz-adv-x="626" 
d="M33 29v64l336 481h112v-472h108v-73h-108v-155h-86v155h-362zM124 102h271v395z" />
    <glyph glyph-name="four.tnum" horiz-adv-x="630" 
d="M36 155v64l336 481h109v-472h105v-73h-105v-155h-85v155h-360zM124 228h272v395z" />
    <glyph glyph-name="fourfifths" horiz-adv-x="981" 
d="M36 369v47l208 284h88v-277h67v-54h-67v-89h-66v89h-230zM633 211l23 209h252v-55h-198l-9 -110q37 14 74 14q70 0 110.5 -39t40.5 -96q0 -58 -42 -99.5t-119 -41.5q-75 0 -150 46l29 49q52 -38 113 -38q42 0 71.5 23t29.5 60q0 35 -26 59t-71 24t-92 -25zM708 700
l-333 -700h-70l333 700h70zM106 423h160v222z" />
    <glyph glyph-name="fourfifths.onum" horiz-adv-x="865" 
d="M40 302v39l182 233h73v-227h58v-45h-58v-72h-55v72h-200zM557 173l20 171h217v-45h-172l-9 -90q31 12 65 12q61 0 96.5 -32t35.5 -79q0 -48 -36.5 -82t-102.5 -34q-60 0 -130 38l25 40q46 -31 98 -31q37 0 63 19t26 50q0 28 -23 47.5t-63 19.5t-80 -21zM622 574
l-290 -574h-59l289 574h60zM100 347h140v183z" />
    <glyph glyph-name="eight.onum" horiz-adv-x="629" 
d="M55 181q0 128 168 197q-127 59 -127 164q0 77 60.5 123t157.5 46t157.5 -46t60.5 -123q0 -104 -128 -164q170 -69 170 -197q0 -89 -73 -140.5t-187 -51.5t-186.5 51.5t-72.5 140.5zM485 184q0 57 -46.5 94t-124.5 66q-36 -13 -63 -26.5t-53.5 -32.5t-40.5 -45t-14 -56
q0 -57 49 -91.5t122 -34.5t122 34.5t49 91.5zM181 535q0 -25 12 -46.5t34.5 -36.5t41.5 -23.5t45 -18.5q26 10 44.5 18.5t41.5 24t35 36.5t12 46q0 45 -37.5 76.5t-95.5 31.5q-57 0 -95 -32t-38 -76z" />
    <glyph glyph-name="eight.dnom" horiz-adv-x="418" 
d="M40 110q0 74 104 117q-77 37 -77 98q0 46 39.5 74t103.5 28t103 -28t39 -74q0 -61 -78 -98q104 -44 104 -117q0 -54 -47 -85.5t-121 -31.5q-76 0 -123 31.5t-47 85.5zM310 114q0 52 -101 88q-102 -36 -102 -88q0 -32 29.5 -51t73.5 -19q43 0 71.5 19t28.5 51zM131 319
q0 -26 21.5 -41.5t56.5 -27.5q78 28 78 69q0 24 -22 41t-55 17q-35 0 -57 -17t-22 -41z" />
    <glyph glyph-name="dollar.onum" horiz-adv-x="566" 
d="M315 -82h-60v77q-104 12 -200 67l37 59q78 -44 163 -58v200l-13 4q-29 9 -49.5 17t-46 22t-41 29.5t-26.5 39.5t-11 53q0 69 52.5 110.5t134.5 44.5v74h60v-78q93 -12 173 -51l-38 -59q-71 31 -135 41v-184l6 -2q40 -12 66.5 -23.5t58.5 -31.5t48.5 -49.5t16.5 -68.5
q0 -73 -56 -115t-140 -45v-73zM429 145q0 35 -28.5 57t-85.5 41v-184q48 2 81 24.5t33 61.5zM152 433q0 -34 25.5 -53t77.5 -35v168q-45 -2 -74 -22.5t-29 -57.5z" />
    <glyph glyph-name="frenchfranc" horiz-adv-x="597" 
d="M54 130v56h59v514h444v-75h-358v-238h285v-74h-285v-127h180v-56h-180v-130h-86v130h-59z" />
    <glyph glyph-name="frenchfranc.onum" horiz-adv-x="539" 
d="M54 103v50h52v421h391v-70h-309v-183h246v-68h-246v-100h156v-50h-156v-103h-82v103h-52z" />
    <glyph glyph-name="frenchfrancinferior" horiz-adv-x="398" 
d="M40 -76v38h37v308h290v-56h-223v-127h178v-54h-178v-71h114v-38h-114v-74h-67v74h-37z" />
    <glyph glyph-name="frenchfrancsuperior" horiz-adv-x="399" 
d="M41 459v38h37v308h290v-56h-223v-127h178v-54h-178v-71h114v-38h-114v-74h-67v74h-37z" />
    <glyph glyph-name="fsuperior" horiz-adv-x="244" 
d="M27 652v48h45v34q0 88 81 88q50 0 102 -22l-23 -45q-56 14 -67 14q-29 0 -29 -33v-36h87v-48h-87v-267h-64v267h-45z" />
    <glyph glyph-name="dinferior" horiz-adv-x="399" 
d="M343 -150h-63v39q-54 -46 -115 -46q-57 0 -92 41.5t-35 122.5q0 82 35 123.5t92 41.5q62 0 115 -47v162h63v-437zM180 -106q54 0 100 48v131q-45 47 -100 47q-77 0 -77 -113t77 -113z" />
    <glyph glyph-name="csuperior" horiz-adv-x="352" 
d="M320 662l-28 -45q-1 1 -13.5 7.5t-20.5 10t-20.5 8.5t-24.5 7.5t-23 2.5q-39 0 -63 -30t-24 -80t24 -80.5t63 -30.5q11 0 23 2.5t24.5 7.5t20.5 8.5t20.5 10t13.5 7.5l28 -46q-88 -44 -137 -44q-61 0 -103.5 43t-42.5 122q0 78 42.5 121t103.5 43q53 0 137 -45z" />
    <glyph glyph-name="copyright.sc" horiz-adv-x="714" 
d="M491 414l-26 -29q-60 44 -112 44q-47 0 -75.5 -39.5t-28.5 -103.5t28.5 -102.5t75.5 -38.5q54 0 112 43l26 -29q-75 -51 -139 -51q-62 0 -104 47t-42 131q0 85 42 132t104 47q64 0 139 -51zM59 287q0 129 79.5 212.5t219.5 83.5q139 0 217.5 -83.5t78.5 -212.5
t-78.5 -212.5t-217.5 -83.5q-140 0 -219.5 83.5t-79.5 212.5zM93 287q0 -116 70 -190.5t194 -74.5t194.5 74.5t70.5 190.5t-70.5 190.5t-194.5 74.5t-194 -74.5t-70 -190.5z" />
    <glyph glyph-name="colonsuperior" horiz-adv-x="188" 
d="M59 584v81h70v-81h-70zM59 385v81h70v-81h-70z" />
    <glyph glyph-name="colonmonetarysuperior" horiz-adv-x="368" 
d="M140 385h-34l15 62q-77 41 -77 148q0 79 42.5 121.5t103.5 42.5h6l11 46h35l-12 -51q7 -1 21 -5l14 56h35l-17 -68l16.5 -8t17 -8.5l12.5 -6.5l-28 -45q-4 2 -15 7t-16 8l-47 -196q22 5 78 33l28 -47q-69 -36 -120 -42l-11 -47h-36l11 47q-3 0 -6.5 0.5t-8 1.5t-6.5 1z
M110 595q0 -54 26 -83l46 192q-33 -5 -52.5 -34.5t-19.5 -74.5zM166 491q9 -4 20 -6l52 212l-21 6z" />
    <glyph glyph-name="germandblsinferior" horiz-adv-x="434" 
d="M221 277q165 0 165 -136v-2l-37 -38q-44 22 -82 22q-22 0 -35 -10t-13 -27q0 -7 2 -13t7 -11t9.5 -8t13 -6.5t13.5 -5l16 -5t15 -4.5q50 -15 78 -37.5t28 -62.5q0 -43 -30.5 -66.5t-80.5 -23.5q-69 0 -140 39l27 46q61 -35 107 -35q22 0 37.5 10t15.5 27q0 15 -12.5 26
t-23 15t-36.5 12l-9 3q-21 7 -35 13t-31 17t-25.5 27.5t-8.5 38.5q0 41 29 65.5t77 24.5q29 0 59 -8q-13 63 -100 63q-54 0 -78.5 -21t-24.5 -69v-287h-63v291q0 136 166 136z" />
    <glyph glyph-name="germandblssuperior" horiz-adv-x="435" 
d="M221 812q165 0 165 -136v-2l-37 -38q-44 22 -82 22q-22 0 -35 -10t-13 -27q0 -7 2 -13t7 -11t9.5 -8t13 -6.5t13.5 -5l16 -5t15 -4.5q50 -15 78 -37.5t28 -62.5q0 -43 -30.5 -66.5t-80.5 -23.5q-69 0 -140 39l27 46q61 -35 107 -35q22 0 37.5 10t15.5 27q0 15 -12.5 26
t-23 15t-36.5 12l-9 3q-21 7 -35 13t-31 17t-25.5 27.5t-8.5 38.5q0 41 29 65.5t77 24.5q29 0 59 -8q-13 63 -100 63q-54 0 -78.5 -21t-24.5 -69v-287h-63v291q0 136 166 136z" />
    <glyph glyph-name="ginferior" horiz-adv-x="399" 
d="M281 165h63v-327q0 -116 -131 -116q-77 0 -159 23l15 53q90 -24 133 -24q79 0 79 61v54q-52 -46 -115 -46q-57 0 -92 41.5t-35 122.5q0 82 35 123.5t92 41.5q62 0 115 -47v40zM181 -106q54 0 100 48v131q-45 47 -100 47q-77 0 -77 -113t77 -113z" />
    <glyph glyph-name="colonmonetaryinferior" horiz-adv-x="367" 
d="M139 -150h-34l15 63q-77 39 -77 147q0 79 42.5 121.5t103.5 42.5h6l11 46h35l-12 -51q7 -1 21 -5l14 56h35l-17 -68l16.5 -8t17 -8.5l12.5 -6.5l-28 -45l-15 7.5t-16 7.5l-47 -196q25 6 78 33l28 -47q-76 -37 -120 -41l-11 -48h-36l11 47q-14 2 -21 4zM109 60
q0 -54 26 -83l46 192q-33 -5 -52.5 -34.5t-19.5 -74.5zM165 -44q11 -4 20 -5l52 211l-21 6z" />
    <glyph glyph-name="colonmonetary.onum" horiz-adv-x="505" 
d="M190 0h-45l20 85q-105 57 -105 203q0 107 58 165.5t141 58.5h10l15 62h45l-17 -68q11 -2 31 -8l19 76h44l-22 -92q13 -5 64 -31l-35 -57l-45 22l-69 -283q37 8 114 48l35 -57q-101 -53 -166 -60l-15 -64h-45l15 64q-15 2 -30 6zM140 288q0 -79 44 -125l68 281
q-50 -5 -81 -47.5t-31 -108.5zM223 137q20 -6 31 -7l74 303q-14 6 -31 9z" />
    <glyph glyph-name="coloninferior" horiz-adv-x="188" 
d="M59 49v81h70v-81h-70zM59 -150v81h70v-81h-70z" />
    <glyph glyph-name="gsuperior" horiz-adv-x="399" 
d="M281 700h63v-327q0 -116 -131 -116q-77 0 -159 23l15 53q90 -24 133 -24q79 0 79 61v54q-52 -46 -115 -46q-57 0 -92 41.5t-35 122.5q0 82 35 123.5t92 41.5q62 0 115 -47v40zM181 429q54 0 100 48v131q-45 47 -100 47q-77 0 -77 -113t77 -113z" />
    <glyph glyph-name="cinferior" horiz-adv-x="351" 
d="M320 127l-28 -45q-1 1 -13.5 7.5t-20.5 10t-20.5 8.5t-24.5 7.5t-23 2.5q-39 0 -63 -30t-24 -80t24 -80.5t63 -30.5q11 0 23 2.5t24.5 7.5t20.5 8.5t20.5 10t13.5 7.5l28 -46q-88 -44 -137 -44q-61 0 -103.5 43t-42.5 122q0 78 42.5 121t103.5 43q53 0 137 -45z" />
    <glyph glyph-name="cent.onum" horiz-adv-x="504" 
d="M305 0h-60v63q-79 5 -132.5 63.5t-53.5 161.5q0 102 53.5 160t132.5 63v63h60v-67q57 -11 142 -56l-35 -57l-25.5 13t-41.5 19.5t-40 13.5v-305q28 6 107 46l35 -57q-85 -45 -142 -57v-67zM139 288q0 -65 29.5 -106.5t76.5 -49.5v311q-48 -8 -77 -49.5t-29 -105.5z" />
    <glyph glyph-name="c_t" horiz-adv-x="905" 
d="M627 525v31q0 59 -26.5 93.5t-80.5 34.5q-51 0 -81 -31.5t-30 -83.5q0 -44 20 -73q21 -9 55 -29l-38 -62q-1 1 -16 9.5l-23.5 13t-25.5 12.5t-30.5 12.5t-30.5 8t-32 3.5q-65 0 -107 -55t-42 -146t42 -146.5t107 -55.5q18 0 37.5 4.5t38.5 12.5t32 14t30 16t20 11l38 -61
q-120 -69 -203 -69q-95 0 -161.5 72t-66.5 202t66.5 201.5t161.5 71.5q40 0 90 -16q-10 23 -10 55q0 71 46 112.5t122 41.5q86 0 133 -49t47 -134v-21h145v-64h-145v-344q0 -55 50 -55q38 0 99 27l31 -63q-81 -37 -144 -37q-118 0 -118 132v340h-73v64h73z" />
    <glyph glyph-name="c_l" horiz-adv-x="776" 
d="M689 0h-83v684h-81q-54 0 -85 -30.5t-31 -82.5q0 -46 22 -75l53 -29l-38 -62q-1 1 -16 9.5l-23.5 13t-25.5 12.5t-30.5 12.5t-30.5 8t-32 3.5q-65 0 -107 -55t-42 -146t42 -146.5t107 -55.5q18 0 37.5 4.5t38.5 12.5t32 14t30 16t20 11l38 -61q-120 -69 -203 -69
q-95 0 -161.5 72t-66.5 202t66.5 201.5t161.5 71.5q39 0 91 -16q-11 27 -11 59q0 70 43.5 110t119.5 40h165v-729z" />
    <glyph glyph-name="c_k" horiz-adv-x="1048" 
d="M1000 525l-177 -211l209 -314h-88l-172 253l-88 -105v-148h-82v684h-77q-54 0 -85 -30.5t-31 -82.5q0 -46 22 -75l53 -29l-38 -62q-1 1 -16 9.5l-23.5 13t-25.5 12.5t-30.5 12.5t-30.5 8t-32 3.5q-65 0 -107 -55t-42 -146t42 -146.5t107 -55.5q18 0 37.5 4.5t38.5 12.5
t32 14t30 16t20 11l38 -61q-120 -69 -203 -69q-95 0 -161.5 72t-66.5 202t66.5 201.5t161.5 71.5q39 0 91 -16q-11 27 -11 59q0 70 43.5 110t119.5 40h160v-481l222 277h94z" />
    <glyph glyph-name="c_h" horiz-adv-x="1129" 
d="M484 467l-38 -62q-1 1 -16 9.5l-23.5 13t-25.5 12.5t-30.5 12.5t-30.5 8t-32 3.5q-65 0 -107 -55t-42 -146t42 -146.5t107 -55.5q18 0 37.5 4.5t38.5 12.5t32 14t30 16t20 11l38 -61q-120 -69 -203 -69q-95 0 -161.5 72t-66.5 202t66.5 201.5t161.5 71.5q39 0 91 -16
q-11 27 -11 59q0 70 43.5 110t119.5 40h160v-278q118 85 217 85q149 0 149 -162v-374h-83v359q0 109 -90 109q-49 0 -104 -28t-89 -58v-382h-82v684h-77q-54 0 -85 -30.5t-31 -82.5q0 -46 22 -75z" />
    <glyph glyph-name="hinferior" horiz-adv-x="401" 
d="M118 287v-165q68 50 135 50q94 0 94 -99v-223h-63v211q0 60 -53 60q-29 0 -61 -15t-52 -32v-224h-63v437h63z" />
    <glyph glyph-name="brokenbar.sc" horiz-adv-x="250" 
d="M155 332h-61v339h61v-339zM155 -101h-61v339h61v-339z" />
    <glyph glyph-name="bracketrightsuperior" horiz-adv-x="245" 
d="M181 299h-148v41h82v508h-82v40h148v-589z" />
    <glyph glyph-name="bracketrightinferior" horiz-adv-x="245" 
d="M181 -236h-148v41h82v508h-82v40h148v-589z" />
    <glyph glyph-name="bracketright.sc" horiz-adv-x="333" 
d="M240 -118h-196v52h115v702h-115v52h196v-806z" />
    <glyph glyph-name="bracketleftsuperior" horiz-adv-x="245" 
d="M212 299h-149v589h149v-40h-83v-508h83v-41z" />
    <glyph glyph-name="bracketleftinferior" horiz-adv-x="245" 
d="M212 -236h-149v589h149v-40h-83v-508h83v-41z" />
    <glyph glyph-name="bracketleft.sc" horiz-adv-x="333" 
d="M289 -118h-196v806h196v-52h-115v-702h115v-52z" />
    <glyph glyph-name="bracerightsuperior" horiz-adv-x="276" 
d="M248 617v-47q-70 0 -60 -71l7 -56q9 -71 -29 -107.5t-121 -36.5h-12v40h12q98 0 84 97l-7 51q-11 90 71 106q-82 16 -71 107l7 52q14 97 -84 97h-12v39h12q83 0 120.5 -36.5t29.5 -106.5l-7 -56q-10 -72 60 -72z" />
    <glyph glyph-name="bracerightinferior" horiz-adv-x="276" 
d="M248 82v-47q-70 0 -60 -71l7 -56q9 -71 -29 -107.5t-121 -36.5h-12v40h12q98 0 84 97l-7 51q-11 90 71 106q-82 16 -71 107l7 52q14 97 -84 97h-12v39h12q83 0 120.5 -36.5t29.5 -106.5l-7 -56q-10 -72 60 -72z" />
    <glyph glyph-name="iinferior" horiz-adv-x="175" 
d="M119 -150h-64v315h64v-315zM53 222v64h70v-64h-70z" />
    <glyph glyph-name="braceright.sc" horiz-adv-x="379" 
d="M336 316v-61q-98 0 -83 -100l11 -75q14 -96 -38 -146.5t-166 -50.5h-16v50h16q77 0 103.5 38t17.5 97l-11 74q-17 120 95 143q-112 23 -95 144l11 73q19 134 -121 134h-16v52h16q114 0 165 -50.5t38 -146.5l-10 -76q-14 -99 83 -99z" />
    <glyph glyph-name="braceleftsuperior" horiz-adv-x="276" 
d="M27 570v47q73 0 62 72l-8 55q-11 70 27.5 107t121.5 37h12v-39h-12q-93 0 -83 -97l7 -52q13 -90 -71 -107q84 -17 71 -106l-7 -51q-10 -97 83 -97h12v-40h-12q-83 0 -121 37t-28 108l8 55q10 71 -62 71z" />
    <glyph glyph-name="braceleftinferior" horiz-adv-x="276" 
d="M27 35v47q73 0 62 72l-8 55q-11 70 27.5 107t121.5 37h12v-39h-12q-93 0 -83 -97l7 -52q13 -90 -71 -107q84 -17 71 -106l-7 -51q-10 -97 83 -97h12v-40h-12q-83 0 -121 37t-28 108l8 55q10 71 -62 71z" />
    <glyph glyph-name="braceleft.sc" horiz-adv-x="379" 
d="M42 255v61q97 0 85 99l-10 76q-13 96 37.5 146.5t164.5 50.5h16v-52h-16q-138 0 -121 -134l10 -73q17 -121 -95 -144q112 -23 95 -143l-10 -74q-18 -135 121 -135h16v-50h-16q-114 0 -165 50t-37 147l10 76q14 99 -85 99z" />
    <glyph glyph-name="binferior" horiz-adv-x="399" 
d="M55 -150v437h63v-162q55 47 115 47q57 0 92 -41.5t35 -123.5q0 -81 -35 -122.5t-92 -41.5q-59 0 -115 46v-39h-63zM219 120q-56 0 -101 -47v-131q46 -48 101 -48q77 0 77 113t-77 113z" />
    <glyph glyph-name="bar.sc" horiz-adv-x="248" 
d="M154 -101h-61v772h61v-772z" />
    <glyph glyph-name="backslash.sc" horiz-adv-x="411" 
d="M321 -74l-289 722h63l289 -722h-63z" />
    <glyph glyph-name="at.sc" horiz-adv-x="804" 
d="M394 -110q43 0 81.5 9t55.5 18l17 9l24 -30q-7 -5 -20.5 -12t-60 -19t-98.5 -12q-149 0 -242.5 101t-93.5 253q0 154 97.5 255t260.5 101q161 0 249.5 -98t89.5 -257q0 -100 -40 -164t-116 -64q-53 0 -76.5 29.5t-27.5 67.5q-62 -58 -134 -58q-50 0 -85 30t-35 91
q0 60 35.5 92t88.5 32q28 0 130 -21v43q0 42 -16.5 60t-58.5 18q-56 0 -131 -33l-24 46q91 37 164 37q127 0 127 -125v-162q0 -24 1 -38t6 -31.5t16.5 -25.5t30.5 -8q39 0 72.5 45t33.5 140q0 140 -77 228t-225 88t-232.5 -91t-84.5 -227t82.5 -226.5t215.5 -90.5zM375 69
q59 0 119 57v80q-77 16 -108 16q-44 0 -64 -22t-20 -57q0 -38 20 -56t53 -18z" />
    <glyph glyph-name="asterisksuperior" horiz-adv-x="319" 
d="M131 577l17 93l-78 -61l-28 47l95 33l-94 33l27 47l78 -62l-17 93h56l-17 -93l78 62l27 -48l-93 -32l93 -33l-28 -47l-76 60l16 -92h-56z" />
    <glyph glyph-name="jinferior" horiz-adv-x="174" 
d="M51 222v64h70v-64h-70zM118 165v-320q0 -27 -1 -38.5t-6.5 -27.5t-18 -24t-34.5 -17.5t-57 -17.5l-20 46q54 17 64 28t10 47v324h63z" />
    <glyph glyph-name="asteriskinferior" horiz-adv-x="318" 
d="M131 42l17 93l-78 -61l-28 47l95 33l-94 33l27 47l78 -62l-17 93h56l-17 -93l78 62l27 -48l-93 -32l93 -33l-28 -47l-76 60l16 -92h-56z" />
    <glyph glyph-name="ampersandsuperior" horiz-adv-x="459" 
d="M441 385h-76l-47 45q-57 -52 -139 -52q-61 0 -101 30.5t-40 80.5q0 39 24 66.5t68 55.5q-61 59 -61 106q0 45 35 70t82 25q48 0 79.5 -25.5t31.5 -66.5q0 -34 -22 -60t-63 -55l100 -96q29 49 33 97h64q-10 -73 -56 -137zM182 427q54 0 97 41l-112 107q-66 -46 -66 -83
q0 -24 20 -44.5t61 -20.5zM129 715q0 -33 47 -76q61 39 61 78q0 20 -12.5 33.5t-39.5 13.5q-26 0 -41 -14t-15 -35z" />
    <glyph glyph-name="ampersandinferior" horiz-adv-x="460" 
d="M441 -150h-76l-47 45q-59 -52 -139 -52q-61 0 -101 30.5t-40 80.5q0 39 24 66.5t68 55.5q-61 59 -61 106q0 45 35 70t82 25q48 0 79.5 -25.5t31.5 -66.5q0 -34 -22 -60t-63 -55l100 -95q28 47 33 96h64q-10 -71 -56 -136zM182 -108q53 0 97 41l-112 107q-66 -46 -66 -83
q0 -24 20 -44.5t61 -20.5zM129 180q0 -33 47 -76q61 39 61 78q0 20 -12.5 33.5t-39.5 13.5q-26 0 -41 -14t-15 -35z" />
    <glyph glyph-name="ampersand.sc" horiz-adv-x="625" 
d="M602 0h-96l-68 65q-79 -74 -191 -74q-83 0 -138 41t-55 110q0 54 34 92t95 76q-26 26 -41.5 43.5t-29 45.5t-13.5 56q0 61 47 94.5t110 33.5t105.5 -33.5t42.5 -89.5q0 -47 -31 -83.5t-87 -75.5l144 -138q40 62 50 140h78q-14 -104 -76 -189zM250 52q79 0 139 60
l-159 152q-46 -31 -71 -58.5t-25 -59.5q0 -35 28.5 -64.5t87.5 -29.5zM172 454q0 -45 69 -110q44 28 66.5 53.5t22.5 58.5q0 28 -19 47.5t-57 19.5t-60 -20t-22 -49z" />
    <glyph glyph-name="kinferior" horiz-adv-x="354" 
d="M321 165l-112 -126l131 -189h-67l-103 145l-52 -58v-87h-63v437h63v-277l131 155h72z" />
    <glyph glyph-name="ksuperior" horiz-adv-x="354" 
d="M321 700l-112 -126l131 -189h-67l-103 145l-52 -58v-87h-63v437h63v-277l131 155h72z" />
    <glyph glyph-name="ainferior" horiz-adv-x="381" 
d="M265 -150v41q-52 -48 -122 -48q-46 0 -78.5 26.5t-32.5 75.5q0 50 33 76.5t84 26.5q28 0 116 -17v31q0 32 -15 46.5t-51 14.5t-123 -26l-21 45q92 30 153 30q120 0 120 -109v-213h-63zM161 -106q54 0 104 42v61q-88 12 -93 12q-75 0 -75 -60q0 -55 64 -55z" />
    <glyph glyph-name="Zsuperior" horiz-adv-x="418" 
d="M36 436l253 313h-239v56h324v-51l-255 -314h258v-55h-341v51z" />
    <glyph glyph-name="Zinferior" horiz-adv-x="417" 
d="M36 -99l253 313h-239v56h324v-51l-255 -314h258v-55h-341v51z" />
    <glyph glyph-name="Zdotaccent.sc" horiz-adv-x="557" 
d="M43 66l359 439h-341v69h442v-66l-361 -440h366v-68h-465v66zM241 634v93h82v-93h-82z" />
    <glyph glyph-name="Zcaron.sc" horiz-adv-x="557" 
d="M503 508l-361 -440h366v-68h-465v66l359 439h-341v69h442v-66zM430 754l-100 -130h-96l-99 130h63l84 -86l85 86h63z" />
    <glyph glyph-name="Zacute.sc" horiz-adv-x="557" 
d="M43 66l359 439h-341v69h442v-66l-361 -440h366v-68h-465v66zM274 624h-70l122 130h114z" />
    <glyph glyph-name="Z.sc" horiz-adv-x="556" 
d="M43 64l357 440h-339v70h442v-63l-359 -442h364v-69h-465v64z" />
    <glyph glyph-name="linferior" horiz-adv-x="174" 
d="M118 -150h-63v437h63v-437z" />
    <glyph glyph-name="Ysuperior" horiz-adv-x="415" 
d="M174 385v166l-160 254h74l120 -204l118 204h75l-161 -254v-166h-66z" />
    <glyph glyph-name="lira.onum" horiz-adv-x="507" 
d="M74 269v46h61q-1 2 -10 15.5t-11 17l-9 15.5t-9.5 18.5t-6 18t-5 22t-1.5 21.5q0 63 47 101.5t126 38.5q84 0 197 -60l-38 -55q-92 46 -149 46q-48 0 -75 -23.5t-27 -58.5q0 -20 7 -37t26.5 -45.5t22.5 -34.5h165v-46h-144q6 -20 6 -43q0 -2 -0.5 -5t-0.5 -4h139v-46
h-148q-21 -57 -70 -103h276v-68h-379v57q8 5 20.5 14.5t38 39t37.5 60.5h-86v46h95v3q0 24 -10 49h-85z" />
    <glyph glyph-name="lirainferior" horiz-adv-x="374" 
d="M53 47v35h44q-31 47 -35 74q-1 8 -1 17q0 47 34.5 75.5t92.5 28.5q64 0 146 -46l-30 -43q-65 34 -107 34q-33 0 -51.5 -16.5t-18.5 -41.5q0 -14 5 -26t18 -31t16 -25h120v-35h-104q5 -17 5 -32v-5h99v-34h-106q-15 -43 -49 -71h196v-55h-280v45q6 3 15 10t28.5 28
t27.5 43h-65v34h71v1q0 17 -7 36h-64z" />
    <glyph glyph-name="lirasuperior" horiz-adv-x="375" 
d="M54 582v35h44q-31 47 -35 74q-1 8 -1 17q0 47 34.5 75.5t92.5 28.5q64 0 146 -46l-30 -43q-65 34 -107 34q-33 0 -51.5 -16.5t-18.5 -41.5q0 -14 5 -26t18 -31t16 -25h120v-35h-104q5 -17 5 -32v-5h99v-34h-106q-16 -46 -49 -71h196v-55h-280v45q6 3 15 10t28.5 28
t27.5 43h-65v34h71v1q0 17 -7 36h-64z" />
    <glyph glyph-name="Yinferior" horiz-adv-x="413" 
d="M173 -150v166l-160 254h74l120 -204l118 204h75l-161 -254v-166h-66z" />
    <glyph glyph-name="Ygrave.sc" horiz-adv-x="575" 
d="M248 0v226l-223 348h92l171 -286l172 286h91l-222 -346v-228h-81zM371 624h-70l-165 130h112z" />
    <glyph glyph-name="Ydieresis.sc" horiz-adv-x="575" 
d="M248 0v226l-223 348h92l171 -286l172 286h91l-222 -346v-228h-81zM331 634v93h83v-93h-83zM163 634v93h83v-93h-83z" />
    <glyph glyph-name="Yacute.sc" horiz-adv-x="575" 
d="M248 0v226l-223 348h92l171 -286l172 286h91l-222 -346v-228h-81zM280 624h-69l122 130h114z" />
    <glyph glyph-name="Y.sc" horiz-adv-x="575" 
d="M248 0v226l-223 348h92l171 -286l172 286h91l-222 -346v-228h-81z" />
    <glyph glyph-name="Xsuperior" horiz-adv-x="420" 
d="M28 805h76l105 -173l106 173h76l-143 -211l151 -209h-80l-110 167l-110 -167h-79l151 209z" />
    <glyph glyph-name="Xinferior" horiz-adv-x="420" 
d="M28 270h76l105 -173l106 173h76l-143 -211l151 -209h-80l-110 167l-110 -167h-79l151 209z" />
    <glyph glyph-name="minferior" horiz-adv-x="598" 
d="M118 165v-45q59 52 120 52q68 0 87 -58q61 58 127 58q92 0 92 -99v-223h-63v211q0 60 -51 60q-47 0 -99 -50v-221h-64v211q0 60 -50 60q-49 0 -99 -50v-221h-63v315h63z" />
    <glyph glyph-name="X.sc" horiz-adv-x="560" 
d="M35 574h93l152 -241l151 241h95l-200 -288l211 -286h-98l-159 235l-159 -235h-97l209 287z" />
    <glyph glyph-name="Wsuperior" horiz-adv-x="609" 
d="M395 385l-90 332l-91 -332h-68l-123 420h75l86 -340l92 340h58l92 -342l86 342h74l-122 -420h-69z" />
    <glyph glyph-name="Winferior" horiz-adv-x="608" 
d="M395 -150l-90 332l-91 -332h-68l-123 420h75l86 -340l92 340h58l92 -341l86 341h74l-122 -420h-69z" />
    <glyph glyph-name="Wgrave.sc" horiz-adv-x="841" 
d="M550 0l-131 468l-129 -468h-86l-168 574h90l126 -481l132 481h71l131 -481l127 481h90l-168 -574h-85zM498 624h-69l-166 130h112z" />
    <glyph glyph-name="Wdieresis.sc" horiz-adv-x="841" 
d="M550 0l-131 468l-129 -468h-86l-168 574h90l126 -481l132 481h71l131 -481l127 481h90l-168 -574h-85zM299 634v93h83v-93h-83zM463 634v93h81v-93h-81z" />
    <glyph glyph-name="Wcircumflex.sc" horiz-adv-x="841" 
d="M550 0l-131 468l-129 -468h-86l-168 574h90l126 -481l132 481h71l131 -481l127 481h90l-168 -574h-85zM468 754l100 -130h-63l-85 85l-85 -85h-63l99 130h97z" />
    <glyph glyph-name="Wacute.sc" horiz-adv-x="841" 
d="M550 0l-131 468l-129 -468h-86l-168 574h90l126 -481l132 481h71l131 -481l127 481h90l-168 -574h-85zM410 624h-69l123 130h113z" />
    <glyph glyph-name="W.sc" horiz-adv-x="841" 
d="M550 0l-131 468l-129 -468h-86l-168 574h90l126 -481l132 481h71l131 -481l127 481h90l-168 -574h-85z" />
    <glyph glyph-name="Vsuperior" horiz-adv-x="448" 
d="M93 805l130 -357l130 357h76l-169 -420h-73l-169 420h75z" />
    <glyph glyph-name="Vinferior" horiz-adv-x="446" 
d="M93 270l130 -357l130 357h76l-169 -420h-73l-169 420h75z" />
    <glyph glyph-name="nine.dnom" horiz-adv-x="411" 
d="M126 47q62 0 107.5 38.5t59.5 107.5q-45 -42 -114 -42q-65 0 -103 37.5t-38 94.5q0 60 43 102t115 42q82 0 125.5 -53t43.5 -134q0 -106 -66.5 -176.5t-171.5 -70.5q-16 0 -31 2l-22 3l-8 2l17 52q18 -5 43 -5zM194 201q36 0 64.5 16.5t39.5 36.5q-1 56 -28.5 87.5
t-72.5 31.5t-69.5 -26.5t-24.5 -61.5q0 -34 23.5 -59t67.5 -25z" />
    <glyph glyph-name="nine.numr" horiz-adv-x="411" 
d="M126 327q62 0 107.5 38.5t59.5 107.5q-45 -42 -114 -42q-65 0 -103 37.5t-38 94.5q0 60 43 102t115 42q82 0 125.5 -53t43.5 -134q0 -106 -66.5 -176.5t-171.5 -70.5q-16 0 -31 1.5t-22 3.5l-8 2l17 52q18 -5 43 -5zM194 481q36 0 64.5 16.5t39.5 36.5q-1 56 -28.5 87.5
t-72.5 31.5t-69.5 -26.5t-24.5 -61.5q0 -34 23.5 -59t67.5 -25z" />
    <glyph glyph-name="nine.onum" 
d="M184 -69q96 0 173.5 67.5t99.5 201.5q-70 -78 -187 -78q-104 0 -163.5 63.5t-59.5 158.5q0 99 66.5 168t177.5 69q126 0 193 -86.5t67 -205.5q1 -201 -106.5 -315.5t-259.5 -114.5q-24 0 -47 2.5t-34 5.5l-12 3l21 69q32 -8 71 -8zM287 191q63 0 111 31t66 68v5
q0 91 -45 152t-126 61q-76 0 -118 -48.5t-42 -114.5q0 -63 39 -108.5t115 -45.5z" />
    <glyph glyph-name="nine.tnum" horiz-adv-x="630" 
d="M193 62q96 0 173 67t99 201q-26 -30 -73 -54t-112 -24q-104 0 -164 63.5t-60 158.5q0 99 67 168t178 69q65 0 116 -25t81.5 -67t46.5 -93t16 -107q0 -102 -30 -185.5t-81.5 -136t-117 -80.5t-137.5 -28q-24 0 -47 2.5t-34 5.5l-12 3l21 70q31 -8 70 -8zM296 321
q62 0 110 31t67 67v6q0 91 -45 152t-126 61q-76 0 -118 -48.5t-42 -114.5q0 -62 39.5 -108t114.5 -46z" />
    <glyph glyph-name="V.sc" horiz-adv-x="619" 
d="M123 574l186 -494l188 494h92l-235 -574h-89l-235 574h93z" />
    <glyph glyph-name="Utilde.sc" horiz-adv-x="627" 
d="M201 634l-45 20q15 29 25.5 44t28 27.5t39.5 12.5q27 0 69.5 -24.5t56.5 -24.5q25 0 50 46l46 -19q-21 -43 -41.5 -64t-51.5 -21q-28 0 -70.5 24.5t-56.5 24.5q-24 0 -50 -46zM545 574v-360q0 -223 -231 -223q-127 0 -179.5 59.5t-52.5 163.5v360h81v-364
q0 -70 32.5 -109.5t118.5 -39.5q85 0 117.5 39.5t32.5 109.5v364h81z" />
    <glyph glyph-name="ninferior" horiz-adv-x="401" 
d="M118 165v-43q68 50 135 50q94 0 94 -99v-223h-63v211q0 60 -53 60q-29 0 -61 -15t-52 -32v-224h-63v315h63z" />
    <glyph glyph-name="Usuperior" horiz-adv-x="464" 
d="M402 805v-261q0 -166 -170 -166q-94 0 -132.5 44.5t-38.5 121.5v261h66v-265q0 -50 22.5 -77.5t82.5 -27.5q59 0 81.5 27.5t22.5 77.5v265h66z" />
    <glyph glyph-name="Uring.sc" horiz-adv-x="627" 
d="M209 717q0 44 30.5 74.5t73.5 30.5t73.5 -31t30.5 -74t-30.5 -73t-73.5 -30t-73.5 30t-30.5 73zM257 717q0 -23 16 -39.5t40 -16.5q23 0 39.5 16.5t16.5 39.5q0 24 -16.5 40.5t-39.5 16.5q-24 0 -40 -16.5t-16 -40.5zM545 574v-360q0 -223 -231 -223q-127 0 -179.5 59.5
t-52.5 163.5v360h81v-364q0 -70 32.5 -109.5t118.5 -39.5q85 0 117.5 39.5t32.5 109.5v364h81z" />
    <glyph glyph-name="Uogonek.sc" horiz-adv-x="627" 
d="M298 -96q0 -7 1.5 -12.5t5.5 -9l7.5 -6.5t10 -4.5l11 -2.5t12 -1.5t11.5 -0.5h11.5h9.5l-10 -50q-23 0 -37.5 1.5t-41 7.5t-41 23.5t-14.5 45.5q0 52 82 96h-2q-127 0 -179.5 59.5t-52.5 163.5v360h81v-364q0 -70 32 -109.5t119 -39.5q84 0 116.5 39.5t32.5 109.5v364h81
v-360q0 -180 -148 -214q-67 -39 -85 -62q-13 -17 -13 -34z" />
    <glyph glyph-name="Umacron.sc" horiz-adv-x="627" 
d="M545 574v-360q0 -223 -231 -223q-127 0 -179.5 59.5t-52.5 163.5v360h81v-364q0 -70 32.5 -109.5t118.5 -39.5q85 0 117.5 39.5t32.5 109.5v364h81zM167 649v55h293v-55h-293z" />
    <glyph glyph-name="numbersign.onum" horiz-adv-x="671" 
d="M370 0l23 143h-164l-23 -143h-64l23 143h-114v62h125l27 163h-114v62h124l24 144h64l-24 -144h164l24 144h63l-24 -144h116v-62h-126l-27 -163h116v-62h-127l-23 -143h-63zM267 368l-27 -163h164l27 163h-164z" />
    <glyph glyph-name="numbersigninferior" horiz-adv-x="487" 
d="M266 -150l17 103h-114l-16 -103h-51l16 103h-81v48h89l19 117h-81v49h89l17 103h51l-17 -103h114l17 103h50l-17 -103h82v-49h-90l-19 -117h82v-48h-90l-17 -103h-50zM196 118l-19 -117h114l19 117h-114z" />
    <glyph glyph-name="numbersignsuperior" horiz-adv-x="488" 
d="M266 385l17 103h-114l-16 -103h-51l16 103h-81v48h89l19 117h-81v49h89l17 103h51l-17 -103h114l17 103h50l-17 -103h82v-49h-90l-19 -117h82v-48h-90l-17 -103h-50zM196 653l-19 -117h114l19 117h-114z" />
    <glyph glyph-name="Uinferior" horiz-adv-x="464" 
d="M402 270v-261q0 -166 -170 -166q-94 0 -132.5 44.5t-38.5 121.5v261h66v-265q0 -50 22.5 -77.5t82.5 -27.5q59 0 81.5 27.5t22.5 77.5v265h66z" />
    <glyph glyph-name="Uhungarumlaut.sc" horiz-adv-x="627" 
d="M545 574v-360q0 -223 -231 -223q-127 0 -179.5 59.5t-52.5 163.5v360h81v-364q0 -70 32.5 -109.5t118.5 -39.5q85 0 117.5 39.5t32.5 109.5v364h81zM397 624h-53l78 130h96zM245 624h-53l79 130h95z" />
    <glyph glyph-name="Ugrave.sc" horiz-adv-x="627" 
d="M545 574v-360q0 -223 -231 -223q-127 0 -179.5 59.5t-52.5 163.5v360h81v-364q0 -70 32.5 -109.5t118.5 -39.5q85 0 117.5 39.5t32.5 109.5v364h81zM392 624h-69l-167 130h113z" />
    <glyph glyph-name="Udieresis.sc" horiz-adv-x="627" 
d="M545 574v-360q0 -223 -231 -223q-127 0 -179.5 59.5t-52.5 163.5v360h81v-364q0 -70 32.5 -109.5t118.5 -39.5q85 0 117.5 39.5t32.5 109.5v364h81zM188 634v93h82v-93h-82zM357 634v93h81v-93h-81z" />
    <glyph glyph-name="Ucircumflex.sc" horiz-adv-x="627" 
d="M545 574v-360q0 -223 -231 -223q-127 0 -179.5 59.5t-52.5 163.5v360h81v-364q0 -70 32.5 -109.5t118.5 -39.5q85 0 117.5 39.5t32.5 109.5v364h81zM361 754l100 -130h-62l-86 85l-85 -85h-62l99 130h96z" />
    <glyph glyph-name="Ubreve.sc" horiz-adv-x="627" 
d="M312 624q-66 0 -104 28.5t-38 78.5h60q0 -53 82 -53q85 0 85 53h59q0 -50 -38 -78.5t-106 -28.5zM545 574v-360q0 -223 -231 -223q-127 0 -179.5 59.5t-52.5 163.5v360h81v-364q0 -70 32.5 -109.5t118.5 -39.5q85 0 117.5 39.5t32.5 109.5v364h81z" />
    <glyph glyph-name="Uacute.sc" horiz-adv-x="627" 
d="M545 574v-360q0 -223 -231 -223q-127 0 -179.5 59.5t-52.5 163.5v360h81v-364q0 -70 32.5 -109.5t118.5 -39.5q85 0 117.5 39.5t32.5 109.5v364h81zM304 624h-69l123 130h113z" />
    <glyph glyph-name="U.sc" horiz-adv-x="627" 
d="M545 574v-360q0 -223 -231 -223q-127 0 -179.5 59.5t-52.5 163.5v360h81v-364q0 -70 32.5 -109.5t118.5 -39.5q85 0 117.5 39.5t32.5 109.5v364h81z" />
    <glyph glyph-name="Tsuperior" horiz-adv-x="389" 
d="M364 749h-137v-364h-66v364h-136v56h339v-56z" />
    <glyph glyph-name="oinferior" horiz-adv-x="395" 
d="M357 7q0 -77 -41.5 -120.5t-118.5 -43.5t-118.5 43.5t-41.5 120.5q0 78 41.5 121.5t118.5 43.5t118.5 -43.5t41.5 -121.5zM293 7q0 115 -96 115t-96 -115q0 -114 96 -114t96 114z" />
    <glyph glyph-name="Tinferior" horiz-adv-x="389" 
d="M364 214h-137v-364h-66v364h-136v56h339v-56z" />
    <glyph glyph-name="Thorn.sc" horiz-adv-x="587" 
d="M538 297q0 -178 -228 -178h-141v-119h-81v574h81v-101h141q228 0 228 -176zM455 297q0 108 -152 108h-134v-218h134q152 0 152 110z" />
    <glyph glyph-name="one.dnom" horiz-adv-x="259" 
d="M192 0h-66v357l-77 -39l-28 44l110 58h61v-420z" />
    <glyph glyph-name="one.numr" horiz-adv-x="259" 
d="M192 280h-66v357l-77 -39l-28 44l110 58h61v-420z" />
    <glyph glyph-name="one.onum" horiz-adv-x="366" 
d="M275 0h-87v487l-125 -65l-36 59l169 93h79v-574z" />
    <glyph glyph-name="one.tnum" horiz-adv-x="630" 
d="M81 0v74h205v539l-168 -88l-37 60l213 115h78v-626h205v-74h-496z" />
    <glyph glyph-name="Tcedilla.sc" horiz-adv-x="517" 
d="M140 -154l20 50q31 -14 51 -14q56 0 56 46q0 36 -29 72h-20v504h-191v70h462v-70h-189v-504h-19q39 -52 39 -90q0 -39 -28 -61t-73 -22q-42 0 -79 19z" />
    <glyph glyph-name="oneeighth.onum" horiz-adv-x="742" 
d="M400 90q0 62 91 97q-68 29 -68 79q0 38 34 61t90 23q55 0 88.5 -23t33.5 -61q0 -50 -67 -80q91 -35 91 -96q0 -44 -40.5 -70t-105.5 -26t-106 26t-41 70zM496 574l-290 -574h-60l290 574h60zM181 230h-56v292l-67 -32l-23 36l95 48h51v-344zM637 93q0 18 -15 33.5
t-32 23.5t-43 17q-90 -32 -90 -74q0 -26 25.5 -41t64.5 -15t64.5 15t25.5 41zM478 260q0 -36 68 -56q69 22 69 56q0 20 -19.5 34.5t-48.5 14.5q-30 0 -49.5 -15t-19.5 -34z" />
    <glyph glyph-name="onefifth" horiz-adv-x="840" 
d="M490 211l24 209h251v-55h-197l-9 -110q35 14 73 14q70 0 111 -39t41 -96q0 -58 -42 -99.5t-119 -41.5q-73 0 -151 46l30 49q15 -12 47.5 -25t65.5 -13q42 0 71 23t29 60q0 36 -25.5 59.5t-71.5 23.5q-44 0 -91 -25zM565 700l-333 -700h-70l333 700h70zM204 280h-66v357
l-78 -39l-28 44l111 58h61v-420z" />
    <glyph glyph-name="onefifth.onum" horiz-adv-x="740" 
d="M431 173l20 171h217v-45h-172l-9 -90q31 12 66 12q60 0 95.5 -32.5t35.5 -78.5q0 -48 -36.5 -82t-102.5 -34q-63 0 -130 38l25 40q46 -31 97 -31q38 0 64 19t26 50q0 28 -23 47.5t-63 19.5q-41 0 -81 -21zM496 574l-290 -574h-60l290 574h60zM181 230h-56v292l-67 -32
l-23 36l95 48h51v-344z" />
    <glyph glyph-name="Tcaron.sc" horiz-adv-x="517" 
d="M489 504h-189v-504h-82v504h-191v70h462v-70zM406 754l-100 -130h-96l-100 130h63l84 -86l86 86h63z" />
    <glyph glyph-name="onehalf.onum" horiz-adv-x="742" 
d="M181 230h-56v292l-67 -32l-23 36l95 48h51v-344zM496 574l-290 -574h-60l290 574h60zM685 46v-46h-265v30q0 25 9 46t30 39t36 28.5t46 28.5q61 38 75 55q12 15 12 31q0 20 -18.5 33.5t-51.5 13.5q-54 0 -102 -32l-26 36q67 41 134 41q55 0 88 -25.5t33 -65.5
q0 -55 -73 -102l-57 -33q-37 -21 -54 -37.5t-17 -40.5h201z" />
    <glyph glyph-name="Tbar.sc" horiz-adv-x="526" 
d="M128 185v51h94v268h-190v70h462v-70h-190v-268h93v-51h-93v-185h-82v185h-94z" />
    <glyph glyph-name="T.sc" horiz-adv-x="517" 
d="M489 504h-189v-504h-82v504h-191v70h462v-70z" />
    <glyph glyph-name="onequarter.onum" horiz-adv-x="720" 
d="M561 0v73h-199v39l182 232h73v-226h59v-45h-59v-73h-56zM496 574l-290 -574h-60l290 574h60zM181 230h-56v292l-67 -32l-23 36l95 48h51v-344zM422 118h139v181z" />
    <glyph glyph-name="onesixth" horiz-adv-x="818" 
d="M677 373q-63 0 -108.5 -38.5t-58.5 -108.5q43 43 114 43q65 0 103.5 -38t38.5 -95q0 -60 -43.5 -101.5t-115.5 -41.5q-83 0 -126 53t-43 134q0 106 66.5 176.5t171.5 70.5q16 0 31 -1.5t23 -3.5l7 -2l-15 -52q-20 5 -45 5zM565 700l-333 -700h-70l333 700h70zM204 280
h-66v357l-78 -39l-28 44l111 58h61v-420zM609 218q-37 0 -64.5 -16t-39.5 -36q1 -57 28 -88t73 -31q45 0 69.5 26.5t24.5 61.5q0 34 -23.5 58.5t-67.5 24.5z" />
    <glyph glyph-name="onesixth.onum" horiz-adv-x="721" 
d="M591 306q-55 0 -95 -32t-51 -90q36 36 100 36q57 0 90 -30.5t33 -77.5q0 -49 -37 -83.5t-100 -34.5q-71 0 -108 43.5t-37 109.5q0 87 57 145t147 58q14 0 27.5 -1.5t20.5 -2.5l6 -2l-13 -42q-18 4 -40 4zM496 574l-290 -574h-60l290 574h60zM181 230h-56v292l-67 -32
l-23 36l95 48h51v-344zM533 179q-32 0 -57 -14t-35 -30q1 -45 25.5 -70.5t63.5 -25.5t61 21.5t22 50.5q0 27 -20.5 47.5t-59.5 20.5z" />
    <glyph glyph-name="Ssuperior" horiz-adv-x="414" 
d="M242 623q28 -9 47 -17.5t41.5 -23t34.5 -36t12 -49.5q0 -55 -43.5 -87t-108.5 -32q-91 0 -186 53l32 48q83 -46 152 -46q36 0 61 15.5t25 44.5q0 10 -3 18t-12 15.5t-15.5 12t-22.5 11t-24 9.5t-29.5 9.5t-29.5 9.5q-56 17 -90 43.5t-34 74.5q0 53 40.5 84.5t105.5 31.5
q85 0 165 -41l-29 -48q-76 34 -133 34q-34 0 -57.5 -14.5t-23.5 -42.5q0 -9 3 -17t10 -14t14 -10.5t20 -9.5l22.5 -8.5t27 -8.5t28.5 -9z" />
    <glyph glyph-name="Sinferior" horiz-adv-x="414" 
d="M241 88q28 -9 47 -17.5t41.5 -23t34.5 -36t12 -49.5q0 -55 -43.5 -87t-108.5 -32q-91 0 -186 53l32 48q83 -46 152 -46q36 0 61 15.5t25 44.5q0 10 -3 18t-12 15.5t-15.5 12t-22.5 11t-24 9.5t-29.5 9.5t-29.5 9.5q-56 17 -90 43.5t-34 74.5q0 53 40.5 84.5t105.5 31.5
q85 0 165 -41l-29 -48q-76 34 -133 34q-34 0 -57.5 -14.5t-23.5 -42.5q0 -9 3 -17t10 -14t14 -10.5t20 -9.5l22.5 -8.5t27 -8.5t28.5 -9z" />
    <glyph glyph-name="onethird.onum" horiz-adv-x="735" 
d="M181 230h-56v292l-67 -32l-23 36l95 48h51v-344zM496 574l-290 -574h-60l290 574h60zM407 32l25 38q54 -30 111 -30q37 0 61 16t24 43q0 34 -36 49t-82 15h-17v46h21q39 0 68 13.5t29 39.5q0 20 -17.5 31.5t-48.5 11.5q-42 0 -97 -29l-23 34q53 40 128 40q54 0 84 -24
t30 -58q0 -55 -72 -78q39 -9 64 -33.5t25 -58.5q0 -43 -34.5 -73.5t-100.5 -30.5q-69 0 -142 38z" />
    <glyph glyph-name="Scommaaccent.sc" horiz-adv-x="548" 
d="M240 -160v97h80l10 -101l-71 -108l-25 26l44 86h-38zM313 325q40 -13 66.5 -24.5t58.5 -31.5t48.5 -50t16.5 -69q0 -74 -60 -116.5t-149 -42.5q-122 0 -248 71l38 60q45 -25 103.5 -44t107.5 -19q51 0 88 22.5t37 64.5q0 50 -76 83q-21 9 -111 38q-39 13 -63.5 23.5
t-53 29t-42.5 45.5t-14 63q0 71 55.5 113t141.5 42q110 0 224 -55l-39 -60q-98 46 -184 46q-48 0 -81 -20.5t-33 -61.5q0 -16 7 -29t16 -21t28.5 -17t32.5 -13.5t42 -13t43 -13.5z" />
    <glyph glyph-name="Scircumflex.sc" horiz-adv-x="548" 
d="M323 754l99 -130h-62l-86 85l-84 -85h-63l100 130h96zM313 325q40 -13 66.5 -24.5t58.5 -31.5t48.5 -50t16.5 -69q0 -74 -60 -116.5t-149 -42.5q-122 0 -248 71l38 60q45 -25 103.5 -44t107.5 -19q51 0 88 22.5t37 64.5q0 50 -76 83q-21 9 -111 38q-39 13 -63.5 23.5
t-53 29t-42.5 45.5t-14 63q0 71 55.5 113t141.5 42q110 0 224 -55l-39 -60q-98 46 -184 46q-48 0 -81 -20.5t-33 -61.5q0 -16 7 -29t16 -21t28.5 -17t32.5 -13.5t42 -13t43 -13.5z" />
    <glyph glyph-name="Scedilla.sc" horiz-adv-x="549" 
d="M313 325q40 -13 66.5 -24.5t58.5 -31.5t48.5 -50t16.5 -69q0 -69 -52 -110.5t-133 -47.5q33 -39 33 -82q0 -39 -28 -61t-73 -22q-44 0 -79 19l20 50q29 -14 52 -14q55 0 55 46q0 31 -23 64q-115 5 -229 70l38 60q45 -25 103.5 -44t107.5 -19q51 0 88 22.5t37 64.5
q0 50 -76 83q-21 9 -111 38q-39 13 -63.5 23.5t-53 29t-42.5 45.5t-14 63q0 71 55.5 113t141.5 42q110 0 224 -55l-39 -60q-98 46 -184 46q-48 0 -81 -20.5t-33 -61.5q0 -16 7 -29t16 -21t28.5 -17t32.5 -13.5t42 -13t43 -13.5z" />
    <glyph glyph-name="Scaron.sc" horiz-adv-x="548" 
d="M422 754l-99 -130h-97l-99 130h63l84 -86l86 86h62zM313 325q40 -13 66.5 -24.5t58.5 -31.5t48.5 -50t16.5 -69q0 -74 -60 -116.5t-149 -42.5q-122 0 -248 71l38 60q45 -25 103.5 -44t107.5 -19q51 0 88 22.5t37 64.5q0 50 -76 83q-21 9 -111 38q-39 13 -63.5 23.5
t-53 29t-42.5 45.5t-14 63q0 71 55.5 113t141.5 42q110 0 224 -55l-39 -60q-98 46 -184 46q-48 0 -81 -20.5t-33 -61.5q0 -16 7 -29t16 -21t28.5 -17t32.5 -13.5t42 -13t43 -13.5z" />
    <glyph glyph-name="Sacute.sc" horiz-adv-x="548" 
d="M266 624h-69l122 130h113zM313 325q40 -13 66.5 -24.5t58.5 -31.5t48.5 -50t16.5 -69q0 -74 -60 -116.5t-149 -42.5q-122 0 -248 71l38 60q45 -25 103.5 -44t107.5 -19q51 0 88 22.5t37 64.5q0 50 -76 83q-21 9 -111 38q-39 13 -63.5 23.5t-53 29t-42.5 45.5t-14 63
q0 71 55.5 113t141.5 42q110 0 224 -55l-39 -60q-98 46 -184 46q-48 0 -81 -20.5t-33 -61.5q0 -16 7 -29t16 -21t28.5 -17t32.5 -13.5t42 -13t43 -13.5z" />
    <glyph glyph-name="S.sc" horiz-adv-x="548" 
d="M313 325q40 -13 66.5 -24.5t58.5 -31.5t48.5 -50t16.5 -69q0 -74 -60 -116.5t-149 -42.5q-122 0 -248 71l38 60q45 -25 103.5 -44t107.5 -19q51 0 88 22.5t37 64.5q0 50 -76 83q-21 9 -111 38q-39 13 -63.5 23.5t-53 29t-42.5 45.5t-14 63q0 71 55.5 113t141.5 42
q110 0 224 -55l-39 -60q-98 46 -184 46q-48 0 -81 -20.5t-33 -61.5q0 -16 7 -29t16 -21t28.5 -17t32.5 -13.5t42 -13t43 -13.5z" />
    <glyph glyph-name="Rsuperior" horiz-adv-x="456" 
d="M341 385l-113 173h-96v-173h-66v420h178q168 0 168 -124q0 -102 -116 -120l117 -176h-72zM345 681q0 72 -102 72h-111v-143h109q104 0 104 71z" />
    <glyph glyph-name="Rinferior" horiz-adv-x="456" 
d="M341 -150l-113 173h-96v-173h-66v420h178q168 0 168 -124q0 -102 -116 -120l117 -176h-72zM345 146q0 72 -102 72h-111v-143h109q104 0 104 71z" />
    <glyph glyph-name="paragraph.sc" horiz-adv-x="580" 
d="M258 574h68v-726h-70v365q-99 0 -158.5 46t-59.5 134q0 181 220 181zM420 -153v727h70v-727h-70z" />
    <glyph glyph-name="Rcommaaccent.sc" horiz-adv-x="612" 
d="M470 0l-157 240h-144v-240h-81v574h240q230 0 230 -168q0 -140 -163 -162l164 -244h-89zM474 406q0 102 -145 102h-160v-203h156q149 0 149 101zM262 -160v97h80l9 -101l-71 -108l-24 26l43 86h-37z" />
    <glyph glyph-name="parenleft.sc" horiz-adv-x="306" 
d="M86 43v484q0 33 1.5 48.5t9 35.5t24.5 31t45.5 23t74.5 23l23 -49q-69 -22 -83 -38t-14 -64v-504q0 -27 1.5 -37.5t11.5 -23.5t28.5 -20.5t55.5 -19.5l-23 -49q-38 9 -64 17.5t-43.5 20.5t-27 21.5t-14 27.5t-5.5 32t-1 41z" />
    <glyph glyph-name="Rcaron.sc" horiz-adv-x="612" 
d="M470 0l-157 240h-144v-240h-81v574h240q230 0 230 -168q0 -140 -163 -162l164 -244h-89zM474 406q0 102 -145 102h-160v-203h156q149 0 149 101zM471 754l-100 -130h-97l-98 130h63l84 -86l85 86h63z" />
    <glyph glyph-name="Racute.sc" horiz-adv-x="612" 
d="M470 0l-157 240h-144v-240h-81v574h240q230 0 230 -168q0 -140 -163 -162l164 -244h-89zM474 406q0 102 -145 102h-160v-203h156q149 0 149 101zM315 624h-71l123 130h113z" />
    <glyph glyph-name="R.sc" horiz-adv-x="612" 
d="M470 0l-157 240h-144v-240h-81v574h240q230 0 230 -168q0 -140 -163 -162l164 -244h-89zM474 406q0 102 -145 102h-160v-203h156q149 0 149 101z" />
    <glyph glyph-name="parenright.sc" horiz-adv-x="305" 
d="M220 527v-484q0 -33 -1.5 -48.5t-9 -35.5t-24 -31t-45 -22.5t-74.5 -22.5l-24 49q69 21 83 37t14 64v504q0 49 -13.5 64.5t-83.5 37.5l24 49q46 -11 74.5 -23t45 -23t24 -31t9 -35.5t1.5 -48.5z" />
    <glyph glyph-name="f_b.ss01" horiz-adv-x="954" 
d="M33 461v64h74v72q0 132 138 132q74 0 188 -29v29h82v-272q90 79 185 79q89 0 145 -68t56 -206q0 -137 -56 -205t-145 -68q-99 0 -185 78v-67h-82v631q-147 26 -180 26q-65 0 -65 -56v-76h142v-64h-142v-461h-81v461h-74zM685 467q-93 0 -170 -84v-242q76 -83 170 -83
q64 0 97.5 53.5t33.5 150.5t-33.5 151t-97.5 54z" />
    <glyph glyph-name="Qinferior" horiz-adv-x="490" 
d="M244 -157q-102 0 -150 60t-48 157t48 157t150 60t150.5 -60t48.5 -157q0 -76 -31 -131t-95 -75l71 -55l-44 -45zM244 -100q132 0 132 160t-132 160q-131 0 -131 -160t131 -160z" />
    <glyph glyph-name="Q.sc" horiz-adv-x="658" 
d="M329 -9q-139 1 -204.5 82.5t-65.5 213.5q0 133 65.5 214.5t205.5 81.5q138 0 204 -81.5t66 -214.5q0 -107 -44 -183t-135 -102l100 -75l-56 -56zM330 61q186 0 186 226q0 225 -186 225q-187 0 -187 -225q0 -103 44 -164.5t143 -61.5z" />
    <glyph glyph-name="Psuperior" horiz-adv-x="432" 
d="M398 674q0 -131 -167 -131h-99v-158h-66v420h165q167 0 167 -131zM331 674q0 76 -102 76h-97v-153h97q102 0 102 77z" />
    <glyph glyph-name="percent.onum" horiz-adv-x="882" 
d="M836 144q0 -73 -43 -113t-115 -40q-73 0 -116 40t-43 113q0 74 43 114t116 40q72 0 115 -40t43 -114zM772 144q0 49 -25 76t-69 27q-45 0 -70 -27t-25 -76t25 -75t70 -26q44 0 69 26.5t25 74.5zM634 574l-319 -574h-66l318 574h67zM363 429q0 -73 -43 -113t-115 -40
q-73 0 -116 39.5t-43 113.5t43 114t116 40q72 0 115 -40t43 -114zM299 429q0 48 -25 75t-69 27q-45 0 -70 -27t-25 -75q0 -49 25 -75t70 -26q44 0 69 26t25 75z" />
    <glyph glyph-name="percentinferior" horiz-adv-x="640" 
d="M265 164q0 -54 -31.5 -83t-85.5 -29q-55 0 -85.5 29t-30.5 83t30.5 83.5t85.5 29.5q54 0 85.5 -29.5t31.5 -83.5zM214 164q0 34 -17 53t-49 19q-31 0 -47.5 -18.5t-16.5 -53.5q0 -72 64 -72q66 0 66 72zM463 270l-235 -427h-53l234 427h54zM608 -44q0 -55 -31 -84
t-84 -29q-55 0 -86 29t-31 84q0 54 31 83t86 29q53 0 84 -29t31 -83zM558 -44q0 34 -17 52.5t-48 18.5q-66 0 -66 -71q0 -72 66 -72q65 0 65 72z" />
    <glyph glyph-name="percentsuperior" horiz-adv-x="640" 
d="M265 699q0 -54 -31.5 -83t-85.5 -29q-55 0 -85.5 29t-30.5 83t30.5 83.5t85.5 29.5q54 0 85.5 -29.5t31.5 -83.5zM214 699q0 34 -17 53t-49 19q-31 0 -47.5 -18.5t-16.5 -53.5q0 -72 64 -72q66 0 66 72zM463 805l-235 -427h-53l234 427h54zM608 491q0 -55 -31 -84
t-84 -29q-55 0 -86 29t-31 84q0 54 31 83t86 29q53 0 84 -29t31 -83zM558 491q0 34 -17 52.5t-48 18.5q-66 0 -66 -71q0 -72 66 -72q65 0 65 72z" />
    <glyph glyph-name="Pinferior" horiz-adv-x="432" 
d="M398 139q0 -131 -167 -131h-99v-158h-66v420h165q167 0 167 -131zM331 139q0 76 -102 76h-97v-153h97q102 0 102 77z" />
    <glyph glyph-name="P.sc" horiz-adv-x="578" 
d="M538 396q0 -177 -228 -177h-141v-219h-81v574h222q228 0 228 -178zM455 396q0 109 -145 109h-141v-218h141q145 0 145 109z" />
    <glyph glyph-name="Otilde.sc" horiz-adv-x="657" 
d="M329 583q138 0 204 -81.5t66 -214.5q0 -132 -66 -214t-204 -82q-139 0 -205 82t-66 214q0 133 65.5 214.5t205.5 81.5zM329 61q186 0 186 226q0 225 -186 225q-187 0 -187 -225q0 -103 44 -164.5t143 -61.5zM216 634l-46 20q15 29 25.5 44t28 27.5t39.5 12.5
q28 0 70.5 -24.5t56.5 -24.5q24 0 50 46l45 -19q-21 -43 -41.5 -64t-51.5 -21q-27 0 -69.5 24.5t-56.5 24.5q-25 0 -50 -46z" />
    <glyph glyph-name="Osuperior" horiz-adv-x="490" 
d="M244 812q102 0 150.5 -60t48.5 -157t-48.5 -157t-150.5 -60t-150 60t-48 157t48 157t150 60zM244 435q132 0 132 160t-132 160q-131 0 -131 -160t131 -160z" />
    <glyph glyph-name="Oslashacute.sc" horiz-adv-x="655" 
d="M587 574l-57 -71q67 -77 67 -216q0 -63 -15 -115t-46 -93.5t-84.5 -64.5t-124.5 -23q-101 0 -166 46l-30 -37h-64l57 71q-67 77 -67 216q0 133 65 214.5t205 81.5q103 0 167 -47l30 38h63zM140 287q0 -96 35 -152l270 340q-45 37 -118 37q-187 0 -187 -225zM327 61
q186 0 186 226q0 95 -35 150l-270 -340q45 -36 119 -36zM318 624h-69l122 130h113z" />
    <glyph glyph-name="perthousand.onum" horiz-adv-x="1254" 
d="M363 429q0 -73 -43 -113t-115 -40q-73 0 -116 39.5t-43 113.5t43 114t116 40q72 0 115 -40t43 -114zM299 429q0 48 -25 75t-69 27q-45 0 -70 -27t-25 -75q0 -49 25 -75t70 -26q44 0 69 26t25 75zM836 144q0 -73 -43 -113t-115 -40q-73 0 -116 40t-43 113q0 74 43 114
t116 40q72 0 115 -40t43 -114zM772 144q0 49 -25 76t-69 27q-45 0 -70 -27t-25 -76t25 -75t70 -26q44 0 69 26.5t25 74.5zM1208 144q0 -74 -43 -113.5t-116 -39.5t-116 39.5t-43 113.5t43 114t116 40t116 -40t43 -114zM1143 144q0 49 -24.5 76t-69.5 27q-44 0 -69 -27
t-25 -76q0 -48 24.5 -74.5t69.5 -26.5t69.5 26t24.5 75zM634 574l-319 -574h-66l318 574h67z" />
    <glyph glyph-name="Omacron.sc" horiz-adv-x="658" 
d="M330 583q138 0 204 -81.5t66 -214.5q0 -132 -66 -214t-204 -82q-139 0 -205 82t-66 214q0 133 65.5 214.5t205.5 81.5zM330 61q186 0 186 226q0 225 -186 225q-187 0 -187 -225q0 -103 44 -164.5t143 -61.5zM183 649v55h292v-55h-292z" />
    <glyph glyph-name="peseta.onum" horiz-adv-x="608" 
d="M68 378v35h26v161h221q218 0 229 -161h24v-35h-24q-11 -159 -229 -159h-140v-219h-81v378h-26zM175 505v-92h286q-12 92 -145 92h-141zM316 287q133 0 145 91h-286v-91h141z" />
    <glyph glyph-name="pesetainferior" horiz-adv-x="444" 
d="M48 123v30h19v117h164q160 0 168 -117h18v-30h-18q-10 -115 -168 -115h-98v-158h-66v273h-19zM133 215v-62h199q-9 62 -101 62h-98zM231 62q90 0 101 61h-199v-61h98z" />
    <glyph glyph-name="pesetasuperior" horiz-adv-x="444" 
d="M48 658v30h19v117h164q160 0 168 -117h18v-30h-18q-10 -115 -168 -115h-98v-158h-66v273h-19zM133 750v-62h199q-9 62 -101 62h-98zM231 597q90 0 101 61h-199v-61h98z" />
    <glyph glyph-name="Oinferior" horiz-adv-x="490" 
d="M244 277q102 0 150.5 -60t48.5 -157t-48.5 -157t-150.5 -60t-150 60t-48 157t48 157t150 60zM244 -100q132 0 132 160t-132 160q-131 0 -131 -160t131 -160z" />
    <glyph glyph-name="pinferior" horiz-adv-x="399" 
d="M118 165v-40q55 47 115 47q57 0 92 -41.5t35 -123.5q0 -81 -35 -122.5t-92 -41.5q-59 0 -115 46v-161h-63v437h63zM219 120q-56 0 -101 -47v-131q46 -48 101 -48q77 0 77 113t-77 113z" />
    <glyph glyph-name="Ohungarumlaut.sc" horiz-adv-x="658" 
d="M330 583q138 0 204 -81.5t66 -214.5q0 -132 -66 -214t-204 -82q-139 0 -205 82t-66 214q0 133 65.5 214.5t205.5 81.5zM330 61q186 0 186 226q0 225 -186 225q-187 0 -187 -225q0 -103 44 -164.5t143 -61.5zM412 624h-51l77 130h96zM262 624h-54l79 130h96z" />
    <glyph glyph-name="plusinferior" horiz-adv-x="396" 
d="M173 188h51v-114h134v-48h-134v-114h-51v114h-134v48h134v114z" />
    <glyph glyph-name="Ograve.sc" horiz-adv-x="658" 
d="M330 583q138 0 204 -81.5t66 -214.5q0 -132 -66 -214t-204 -82q-139 0 -205 82t-66 214q0 133 65.5 214.5t205.5 81.5zM330 61q186 0 186 226q0 225 -186 225q-187 0 -187 -225q0 -103 44 -164.5t143 -61.5zM408 624h-69l-166 130h112z" />
    <glyph glyph-name="Odieresis.sc" horiz-adv-x="658" 
d="M330 583q138 0 204 -81.5t66 -214.5q0 -132 -66 -214t-204 -82q-139 0 -205 82t-66 214q0 133 65.5 214.5t205.5 81.5zM330 61q186 0 186 226q0 225 -186 225q-187 0 -187 -225q0 -103 44 -164.5t143 -61.5zM204 634v93h83v-93h-83zM373 634v93h81v-93h-81z" />
    <glyph glyph-name="Ocircumflex.sc" horiz-adv-x="658" 
d="M330 583q138 0 204 -81.5t66 -214.5q0 -132 -66 -214t-204 -82q-139 0 -205 82t-66 214q0 133 65.5 214.5t205.5 81.5zM330 61q186 0 186 226q0 225 -186 225q-187 0 -187 -225q0 -103 44 -164.5t143 -61.5zM378 754l99 -130h-62l-86 85l-84 -85h-63l99 130h97z" />
    <glyph glyph-name="psuperior" horiz-adv-x="399" 
d="M118 700v-40q55 47 115 47q57 0 92 -41.5t35 -123.5q0 -81 -35 -122.5t-92 -41.5q-61 0 -115 46v-161h-63v437h63zM219 655q-56 0 -101 -47v-131q46 -48 101 -48q77 0 77 113t-77 113z" />
    <glyph glyph-name="Obreve.sc" horiz-adv-x="658" 
d="M330 583q138 0 204 -81.5t66 -214.5q0 -132 -66 -214t-204 -82q-139 0 -205 82t-66 214q0 133 65.5 214.5t205.5 81.5zM330 61q186 0 186 226q0 225 -186 225q-187 0 -187 -225q0 -103 44 -164.5t143 -61.5zM329 624q-67 0 -104.5 28.5t-37.5 78.5h59q0 -53 83 -53
q84 0 84 53h59q0 -50 -38 -78.5t-105 -28.5z" />
    <glyph glyph-name="qinferior" horiz-adv-x="399" 
d="M280 -272v161q-54 -46 -115 -46q-57 0 -92 41.5t-35 122.5q0 82 35 123.5t92 41.5q62 0 115 -47v40h63v-437h-63zM180 -106q54 0 100 48v131q-45 47 -100 47q-77 0 -77 -113t77 -113z" />
    <glyph glyph-name="qsuperior" horiz-adv-x="399" 
d="M280 263v161q-52 -46 -115 -46q-57 0 -92 41.5t-35 122.5q0 82 35 123.5t92 41.5q62 0 115 -47v40h63v-437h-63zM180 429q54 0 100 48v131q-45 47 -100 47q-77 0 -77 -113t77 -113z" />
    <glyph glyph-name="Oacute.sc" horiz-adv-x="658" 
d="M330 583q138 0 204 -81.5t66 -214.5q0 -132 -66 -214t-204 -82q-139 0 -205 82t-66 214q0 133 65.5 214.5t205.5 81.5zM330 61q186 0 186 226q0 225 -186 225q-187 0 -187 -225q0 -103 44 -164.5t143 -61.5zM320 624h-69l122 130h113z" />
    <glyph glyph-name="question.sc" horiz-adv-x="460" 
d="M145 0v101h89v-101h-89zM414 442q0 -122 -192 -169l-5 -99h-56l-6 143q91 18 134.5 43t43.5 71q0 38 -31.5 60.5t-79.5 22.5q-66 0 -150 -47l-37 54q97 62 197 62q76 0 129 -37.5t53 -103.5z" />
    <glyph glyph-name="OE.sc" horiz-adv-x="967" 
d="M914 0h-396v56q-68 -65 -188 -65q-139 0 -205 82t-66 214q0 133 65.5 214.5t205.5 81.5q118 0 188 -65v56h391v-70h-310v-183h256v-68h-256v-184h315v-69zM330 61q186 0 186 226q0 225 -186 225q-187 0 -187 -225q0 -103 44 -164.5t143 -61.5z" />
    <glyph glyph-name="questiondown.sc" horiz-adv-x="461" 
d="M46 132q0 122 191 169l6 99h55l7 -143q-90 -18 -134 -43.5t-44 -70.5q0 -39 31 -61.5t80 -22.5q67 0 149 48l38 -55q-97 -61 -198 -61q-75 0 -128 37.5t-53 103.5zM315 574v-101h-89v101h89z" />
    <glyph glyph-name="questiondowninferior" horiz-adv-x="334" 
d="M32 -52q0 88 141 124l4 69h43l6 -104q-66 -13 -96.5 -30.5t-30.5 -50.5q0 -26 21.5 -42t55.5 -16q48 0 106 34l30 -43q-69 -46 -145 -46q-57 0 -96 28t-39 77zM234 270v-77h-71v77h71z" />
    <glyph glyph-name="questiondownsuperior" horiz-adv-x="336" 
d="M32 483q0 88 141 124l4 69h43l6 -104q-66 -13 -96.5 -30.5t-30.5 -50.5q0 -26 21.5 -42t55.5 -16q48 0 106 34l30 -43q-69 -46 -145 -46q-57 0 -96 28t-39 77zM234 805v-77h-71v77h71z" />
    <glyph glyph-name="questioninferior" horiz-adv-x="334" 
d="M100 -150v76h72v-76h-72zM302 172q0 -90 -140 -124l-4 -69h-43l-5 103q65 14 95.5 31.5t30.5 49.5q0 27 -21.5 43t-55.5 16q-46 0 -106 -35l-30 44q76 46 145 46q56 0 95 -28t39 -77z" />
    <glyph glyph-name="questionsuperior" horiz-adv-x="335" 
d="M101 385v76h72v-76h-72zM303 707q0 -90 -140 -124l-4 -69h-43l-5 103q65 14 95.5 31.5t30.5 49.5q0 27 -21.5 43t-55.5 16q-46 0 -106 -35l-30 44q76 46 145 46q56 0 95 -28t39 -77z" />
    <glyph glyph-name="O.sc" horiz-adv-x="658" 
d="M330 583q138 0 204 -81.5t66 -214.5q0 -132 -66 -214t-204 -82q-139 0 -205 82t-66 214q0 133 65.5 214.5t205.5 81.5zM330 61q186 0 186 226q0 225 -186 225q-187 0 -187 -225q0 -103 44 -164.5t143 -61.5z" />
    <glyph glyph-name="Ntilde.sc" horiz-adv-x="651" 
d="M477 0l-308 461v-461h-81v574h85l308 -463v463h81v-574h-85zM217 634l-45 20q22 42 42 63t51 21q27 0 69.5 -24.5t56.5 -24.5q25 0 50 46l45 -19q-20 -42 -40.5 -63.5t-52.5 -21.5q-27 0 -69.5 24.5t-56.5 24.5q-25 0 -50 -46z" />
    <glyph glyph-name="Nsuperior" horiz-adv-x="483" 
d="M347 385l-215 326v-326h-66v420h67l216 -327v327h67v-420h-69z" />
    <glyph glyph-name="Ninferior" horiz-adv-x="483" 
d="M347 -150l-215 326v-326h-66v420h67l216 -326v326h67v-420h-69z" />
    <glyph glyph-name="Ncommaaccent.sc" horiz-adv-x="651" 
d="M173 574l308 -463v463h81v-574h-85l-308 461v-461h-81v574h85zM288 -160v97h79l11 -101l-71 -108l-26 26l44 86h-37z" />
    <glyph glyph-name="Ncaron.sc" horiz-adv-x="651" 
d="M173 574l308 -463v463h81v-574h-85l-308 461v-461h-81v574h85zM477 754l-99 -130h-97l-99 130h63l84 -86l86 86h62z" />
    <glyph glyph-name="Nacute.sc" horiz-adv-x="651" 
d="M173 574l308 -463v463h81v-574h-85l-308 461v-461h-81v574h85zM316 624h-70l122 130h114z" />
    <glyph glyph-name="N.sc" horiz-adv-x="651" 
d="M477 0l-308 461v-461h-81v574h85l308 -463v463h81v-574h-85z" />
    <glyph glyph-name="Msuperior" horiz-adv-x="554" 
d="M421 385v318l-124 -248h-41l-124 246v-316h-66v420h68l142 -280l143 280h68v-420h-66z" />
    <glyph glyph-name="Minferior" horiz-adv-x="554" 
d="M421 -150v318l-124 -248h-41l-124 246v-316h-66v420h68l142 -279l143 279h68v-420h-66z" />
    <glyph glyph-name="M.sc" horiz-adv-x="749" 
d="M579 0v450l-180 -354h-49l-181 356v-452h-81v574h85l201 -393l201 393h85v-574h-81z" />
    <glyph glyph-name="Lsuperior" horiz-adv-x="373" 
d="M347 385h-281v420h66v-365h215v-55z" />
    <glyph glyph-name="Lslash.sc" horiz-adv-x="505" 
d="M477 0h-381v217l-64 -34v75l64 34v282h81v-239l118 63v-76l-118 -63v-190h300v-69z" />
    <glyph glyph-name="Linferior" horiz-adv-x="373" 
d="M347 -150h-281v420h66v-365h215v-55z" />
    <glyph glyph-name="rinferior" horiz-adv-x="266" 
d="M118 165v-67q5 12 15.5 26.5t40.5 31t69 13.5v-60q-31 0 -55.5 -10t-37 -24.5t-20.5 -29.5t-10 -25l-2 -10v-160h-63v315h63z" />
    <glyph glyph-name="Ldot.sc" horiz-adv-x="499" 
d="M469 0h-381v574h81v-506h300v-68zM338 256v92h82v-92h-82z" />
    <glyph glyph-name="Lcommaaccent.sc" horiz-adv-x="497" 
d="M469 0h-381v574h81v-506h300v-68zM235 -160v97h80l10 -101l-71 -108l-24 26l43 86h-38z" />
    <glyph glyph-name="Lcaron.sc" horiz-adv-x="497" 
d="M469 0h-381v574h81v-506h300v-68zM215 477v97h79l11 -101l-71 -108l-25 26l44 86h-38z" />
    <glyph glyph-name="s_h" horiz-adv-x="1119" 
d="M676 729v-278q41 31 99.5 58t117.5 27q149 0 149 -162v-374h-83v359q0 109 -91 109q-49 0 -102.5 -27.5t-89.5 -58.5v-382h-83v684h-89q-56 0 -87.5 -31t-31.5 -83q0 -39 18 -68q10 -4 43 -19l-36 -58q-94 44 -169 44q-47 0 -75.5 -19.5t-28.5 -53.5q0 -21 11.5 -37
t34.5 -27t39.5 -16t44.5 -12l12 -3q93 -25 141.5 -63t48.5 -103q0 -71 -54.5 -108.5t-136.5 -37.5q-119 0 -234 64l37 61q110 -58 193 -58q46 0 79 20t33 56q0 22 -12.5 38.5t-36 28t-45 18.5t-50.5 15l-12 3q-37 10 -62.5 20t-54 28t-43.5 45.5t-15 63.5q0 67 50.5 105.5
t133.5 38.5q54 0 108 -16q-11 27 -11 59q0 70 45.5 110t124.5 40h170z" />
    <glyph glyph-name="s_k" horiz-adv-x="1038" 
d="M992 525l-178 -212l210 -313h-89l-171 253l-88 -105v-148h-83v684h-89q-56 0 -87.5 -31t-31.5 -83q0 -39 18 -68q10 -4 43 -19l-36 -58q-94 44 -169 44q-47 0 -75.5 -19.5t-28.5 -53.5q0 -21 11.5 -37t34.5 -27t39.5 -16t44.5 -12l12 -3q93 -25 141.5 -63t48.5 -103
q0 -71 -54.5 -108.5t-136.5 -37.5q-119 0 -234 64l37 61q110 -58 193 -58q46 0 79 20t33 56q0 22 -12.5 38.5t-36 28t-45 18.5t-50.5 15l-12 3q-37 10 -62.5 20t-54 28t-43.5 45.5t-15 63.5q0 67 50.5 105.5t133.5 38.5q54 0 108 -16q-11 27 -11 59q0 70 45.5 110t124.5 40
h170v-479l221 275h95z" />
    <glyph glyph-name="s_l" horiz-adv-x="766" 
d="M680 0h-82v684h-94q-56 0 -87.5 -31t-31.5 -83q0 -39 18 -68q10 -4 43 -19l-36 -58q-94 44 -169 44q-47 0 -75.5 -19.5t-28.5 -53.5q0 -21 11.5 -37t34.5 -27t39.5 -16t44.5 -12l12 -3q93 -25 141.5 -63t48.5 -103q0 -71 -54.5 -108.5t-136.5 -37.5q-119 0 -234 64l37 61
q110 -58 193 -58q46 0 79 20t33 56q0 22 -12.5 38.5t-36 28t-45 18.5t-50.5 15l-12 3q-37 10 -62.5 20t-54 28t-43.5 45.5t-15 63.5q0 67 50.5 105.5t133.5 38.5q54 0 108 -16q-11 27 -11 59q0 70 45.5 110t124.5 40h174v-729z" />
    <glyph glyph-name="Lacute.sc" horiz-adv-x="497" 
d="M470 0h-381v574h82v-506h299v-68zM120 624h-69l123 130h113z" />
    <glyph glyph-name="L.sc" horiz-adv-x="497" 
d="M469 0h-381v574h81v-505h300v-69z" />
    <glyph glyph-name="Ksuperior" horiz-adv-x="441" 
d="M66 385v420h66v-226l198 226h77l-178 -201l195 -219h-80l-155 174l-57 -65v-109h-66z" />
    <glyph glyph-name="Kinferior" horiz-adv-x="441" 
d="M66 -150v420h66v-226l198 226h77l-178 -201l195 -219h-80l-155 174l-57 -64v-110h-66z" />
    <glyph glyph-name="Kcommaaccent.sc" horiz-adv-x="589" 
d="M88 0v574h81v-318l281 318h96l-246 -275l271 -299h-98l-222 244l-82 -92v-152h-81zM255 -160v97h80l10 -101l-72 -108l-24 26l43 86h-37z" />
    <glyph glyph-name="K.sc" horiz-adv-x="589" 
d="M88 0v574h81v-318l281 318h96l-246 -275l271 -299h-98l-222 244l-82 -93v-151h-81z" />
    <glyph glyph-name="Jsuperior" horiz-adv-x="199" 
d="M133 805v-389q0 -33 -2 -47t-13 -31t-35.5 -27t-68.5 -20l-22 48q54 16 64.5 28t10.5 46v392h66z" />
    <glyph glyph-name="Jinferior" horiz-adv-x="199" 
d="M133 270v-389q0 -33 -2 -47t-13 -31t-35.5 -27t-68.5 -20l-22 48q54 16 64.5 28t10.5 46v392h66z" />
    <glyph glyph-name="semicoloninferior" horiz-adv-x="195" 
d="M61 49v81h70v-81h-70zM61 -150v81h69l8 -87l-59 -80l-21 23l35 63h-32z" />
    <glyph glyph-name="semicolonsuperior" horiz-adv-x="195" 
d="M61 584v81h70v-81h-70zM61 385v81h69l8 -87l-59 -80l-21 23l35 63h-32z" />
    <glyph glyph-name="Jcircumflex.sc" horiz-adv-x="257" 
d="M169 574v-534q0 -44 -2.5 -62.5t-17 -41t-46.5 -35.5t-90 -27l-27 62q74 23 88 38t14 63v537h81zM176 754l100 -130h-63l-85 85l-84 -85h-63l99 130h96z" />
    <glyph glyph-name="J.sc" horiz-adv-x="258" 
d="M169 574v-534q0 -44 -2.5 -62.5t-17 -41t-46.5 -35.5t-90 -27l-27 62q74 23 88 38t14 63v537h81z" />
    <glyph glyph-name="seven.dnom" horiz-adv-x="345" 
d="M320 370q-7 -8 -17.5 -21.5t-38.5 -56t-49 -84t-38.5 -99.5t-17.5 -109h-69q0 58 21.5 123t54 119.5t50 80t31.5 42.5h-219v55h292v-50z" />
    <glyph glyph-name="seven.numr" horiz-adv-x="345" 
d="M320 650q-7 -8 -17.5 -21.5t-38.5 -56t-49 -84t-38.5 -99.5t-17.5 -109h-69q0 58 21.5 123t54 119.5t50 80t31.5 42.5h-219v55h292v-50z" />
    <glyph glyph-name="seven.onum" horiz-adv-x="506" 
d="M484 509l-27.5 -36.5t-62 -95.5t-78.5 -143.5t-62 -171t-28 -188.5h-91q0 80 25 172.5t55 160.5t73 141.5t60.5 99.5l36.5 52h-355v74h454v-65z" />
    <glyph glyph-name="seven.tnum" horiz-adv-x="630" 
d="M546 635q-11 -13 -28 -36.5t-62 -95.5t-79 -143.5t-62 -171t-28 -188.5h-90q0 80 25 172.5t55 160.5t73 141.5t60.5 99.5l36.5 52h-355v74h454v-65z" />
    <glyph glyph-name="Itilde.sc" horiz-adv-x="258" 
d="M16 634l-45 20q15 29 25.5 44t28 27.5t39.5 12.5q28 0 70.5 -24.5t56.5 -24.5q24 0 50 46l45 -19q-21 -43 -41.5 -64t-51.5 -21q-28 0 -70.5 24.5t-56.5 24.5q-24 0 -50 -46zM170 0h-81v574h81v-574z" />
    <glyph glyph-name="seveneighths.onum" horiz-adv-x="747" 
d="M405 90q0 62 91 96q-67 32 -67 80q0 38 33.5 61t89.5 23q55 0 89 -23.5t34 -60.5q0 -50 -68 -79q91 -35 91 -97q0 -44 -40.5 -70t-105.5 -26t-106 26t-41 70zM500 574l-290 -574h-59l290 574h59zM292 533q-6 -6 -15.5 -17.5t-33.5 -46t-43 -69t-34 -81.5t-15 -89h-58
q0 46 18 98t45.5 96t43.5 66t29 38h-190v46h253v-41zM641 93q0 18 -15 33.5t-32 23.5t-43 17q-88 -31 -88 -74q0 -26 25 -41t64 -15q38 0 63.5 15t25.5 41zM483 260q0 -35 69 -56q68 22 68 56q0 20 -19.5 34.5t-48.5 14.5q-30 0 -49.5 -15t-19.5 -34z" />
    <glyph glyph-name="Isuperior" horiz-adv-x="199" 
d="M132 385h-66v420h66v-420z" />
    <glyph glyph-name="Iogonek.sc" horiz-adv-x="259" 
d="M69 -96q0 -7 1.5 -12.5t5.5 -9l7.5 -6.5t10 -4.5l10.5 -2.5t12 -1.5t11.5 -0.5h11.5h10l-11 -50q-134 0 -134 78q0 57 99 105h-15v574h82v-574h-3q-2 -1 -14.5 -8.5t-17 -10t-15.5 -10t-16 -12l-13 -12t-12 -13.5t-7 -14t-3 -16z" />
    <glyph glyph-name="sinferior" horiz-adv-x="343" 
d="M191 34q58 -14 88.5 -37t30.5 -64q0 -43 -34.5 -66.5t-89.5 -23.5q-77 0 -153 39l27 47q72 -35 123 -35q27 0 45.5 9.5t18.5 27.5q0 6 -1.5 10.5t-5.5 9t-8 7.5t-11 6.5t-12 5.5t-14 4.5l-14 4t-15 4l-14 3.5q-23 6 -40 12.5t-35.5 17.5t-28 27.5t-9.5 38.5q0 41 33 65.5
t88 24.5q66 0 136 -33l-28 -43q-62 27 -106 27q-28 0 -44.5 -10.5t-16.5 -27.5q0 -7 2.5 -13t9 -10.5l11.5 -8t16.5 -6.5t16.5 -4.5t18 -4.5t16 -4z" />
    <glyph glyph-name="Imacron.sc" horiz-adv-x="257" 
d="M168 0h-80v574h80v-574zM-18 649v55h292v-55h-292z" />
    <glyph glyph-name="six.dnom" horiz-adv-x="411" 
d="M284 373q-63 0 -108.5 -38.5t-58.5 -108.5q43 43 114 43q65 0 103.5 -38t38.5 -95q0 -60 -43.5 -101.5t-115.5 -41.5q-82 0 -125.5 53t-43.5 134q0 106 66.5 176.5t171.5 70.5q16 0 31 -1.5t22 -3.5l8 -2l-14 -52q-21 5 -46 5zM216 218q-37 0 -64.5 -16t-39.5 -36
q1 -57 28 -88t73 -31q45 0 69.5 26.5t24.5 61.5q0 34 -23.5 58.5t-67.5 24.5z" />
    <glyph glyph-name="six.numr" horiz-adv-x="411" 
d="M284 653q-63 0 -108.5 -38.5t-58.5 -108.5q43 43 114 43q65 0 103.5 -38t38.5 -95q0 -60 -43.5 -101.5t-115.5 -41.5q-82 0 -125.5 53t-43.5 134q0 106 66.5 176.5t171.5 70.5q16 0 31 -1.5t22 -3.5l8 -2l-14 -52q-21 5 -46 5zM216 498q-37 0 -64.5 -16t-39.5 -36
q1 -57 28 -88t73 -31q45 0 69.5 26.5t24.5 61.5q0 34 -23.5 58.5t-67.5 24.5z" />
    <glyph glyph-name="six.onum" horiz-adv-x="616" 
d="M430 638q-96 0 -173.5 -67t-99.5 -201q72 77 186 77q104 0 164 -63.5t60 -157.5q0 -99 -67 -168t-177 -69q-85 0 -146 44t-87.5 108t-27.5 140q0 102 30 185.5t81.5 136t117 80.5t137.5 28q24 0 47 -2.5t35 -5.5l11 -3l-20 -70q-32 8 -71 8zM327 379q-63 0 -110.5 -30.5
t-66.5 -67.5v-7q0 -90 45 -151t127 -61q75 0 117 48.5t42 113.5q0 63 -39.5 109t-114.5 46z" />
    <glyph glyph-name="six.tnum" horiz-adv-x="630" 
d="M435 638q-96 0 -173.5 -67t-99.5 -201q72 77 186 77q104 0 164 -63.5t60 -157.5q0 -99 -67 -168t-177 -69q-85 0 -146 44t-87.5 108t-27.5 140q0 102 30 185.5t81.5 136t117 80.5t137.5 28q24 0 47 -2.5t34 -5.5l12 -3l-20 -70q-32 8 -71 8zM332 379q-63 0 -110.5 -30.5
t-66.5 -67.5v-7q0 -90 45 -151t127 -61q75 0 117 48.5t42 113.5q0 63 -39.5 109t-114.5 46z" />
    <glyph glyph-name="Iinferior" horiz-adv-x="199" 
d="M132 -150h-66v420h66v-420z" />
    <glyph glyph-name="Igrave.sc" horiz-adv-x="259" 
d="M170 0h-82v574h82v-574zM207 624h-69l-166 130h112z" />
    <glyph glyph-name="Idieresis.sc" horiz-adv-x="258" 
d="M169 0h-81v574h81v-574zM3 634v93h83v-93h-83zM171 634v93h83v-93h-83z" />
    <glyph glyph-name="slash.sc" horiz-adv-x="412" 
d="M379 648l-289 -722h-64l289 722h64z" />
    <glyph glyph-name="Icircumflex.sc" horiz-adv-x="258" 
d="M169 0h-81v574h81v-574zM176 754l100 -130h-63l-85 85l-84 -85h-63l99 130h96z" />
    <glyph glyph-name="spaceinferior" horiz-adv-x="175" 
 />
    <glyph glyph-name="spacesuperior" horiz-adv-x="175" 
 />
    <glyph glyph-name="Ibreve.sc" horiz-adv-x="258" 
d="M128 624q-67 0 -104.5 28.5t-37.5 78.5h59q0 -53 83 -53q84 0 84 53h59q0 -50 -38 -78.5t-105 -28.5zM169 0h-81v574h81v-574z" />
    <glyph glyph-name="Iacute.sc" horiz-adv-x="259" 
d="M171 0h-82v574h82v-574zM120 624h-69l123 130h113z" />
    <glyph glyph-name="sterling.onum" horiz-adv-x="505" 
d="M71 210v53h88q-8 23 -29 53.5t-36 61t-15 65.5q0 63 47.5 101.5t126.5 38.5q82 0 197 -60l-38 -55q-92 46 -149 46q-48 0 -75 -23.5t-27 -58.5q0 -33 35 -85.5t43 -83.5h142v-53h-138q-5 -44 -30.5 -82.5t-48.5 -59.5h276v-68h-379v57q4 2 10.5 7t23.5 20t30.5 32
t25.5 42.5t14 51.5h-94z" />
    <glyph glyph-name="IJ.sc" horiz-adv-x="516" 
d="M169 0h-81v574h81v-574zM416 574v-534q0 -30 -0.5 -43.5t-5 -33t-14 -29t-27 -21.5t-44.5 -21t-66 -18l-27 62q75 23 89 38t14 63v537h81z" />
    <glyph glyph-name="I.sc" horiz-adv-x="258" 
d="M169 0h-81v574h81v-574z" />
    <glyph glyph-name="Hsuperior" horiz-adv-x="472" 
d="M339 385v193h-207v-193h-66v420h66v-172h207v172h66v-420h-66z" />
    <glyph glyph-name="Hinferior" horiz-adv-x="472" 
d="M339 -150v193h-207v-193h-66v420h66v-172h207v172h66v-420h-66z" />
    <glyph glyph-name="Hbar.sc" horiz-adv-x="648" 
d="M473 0v267h-298v-267h-81v425h-66v51h66v98h81v-98h298v98h81v-98h65v-51h-65v-425h-81zM175 425v-90h298v90h-298z" />
    <glyph glyph-name="H.sc" horiz-adv-x="637" 
d="M467 0v267h-298v-267h-81v574h81v-239h298v239h81v-574h-81z" />
    <glyph glyph-name="Gsuperior" horiz-adv-x="465" 
d="M349 385v47q-67 -54 -132 -54q-73 0 -122 55.5t-49 161.5q0 107 49.5 162t127.5 55t182 -65l-33 -48q-31 18 -45.5 25.5t-44 18t-53.5 10.5q-52 0 -83.5 -42.5t-31.5 -115.5q0 -74 31 -117t84 -43t120 55v75h-116v53h180v-233h-64z" />
    <glyph glyph-name="three.dnom" horiz-adv-x="395" 
d="M30 40l31 45q65 -37 127 -37q42 0 69.5 19.5t27.5 52.5q0 41 -41.5 60t-93.5 19h-21v56h24q45 0 78.5 16t33.5 49q0 24 -20 38t-54 14q-54 0 -112 -35l-28 41q11 9 28 18.5t51.5 20t69.5 10.5q63 0 97 -29t34 -71q0 -31 -20.5 -56t-60.5 -39q45 -12 73 -42t28 -70
q0 -52 -39.5 -89.5t-115.5 -37.5q-82 0 -166 47z" />
    <glyph glyph-name="three.numr" horiz-adv-x="395" 
d="M30 320l31 45q65 -37 127 -37q42 0 69.5 19.5t27.5 52.5q0 41 -41.5 60t-93.5 19h-21v56h24q45 0 78.5 16t33.5 49q0 24 -20 38t-54 14q-54 0 -112 -35l-28 41q11 9 28 18.5t51.5 20t69.5 10.5q63 0 97 -29t34 -71q0 -31 -20.5 -56t-60.5 -39q45 -12 73 -42t28 -70
q0 -52 -39.5 -89.5t-115.5 -37.5q-82 0 -166 47z" />
    <glyph glyph-name="three.onum" horiz-adv-x="581" 
d="M35 -67l40 63q101 -61 200 -61q72 0 119 36.5t47 97.5q0 39 -21 69t-55.5 46t-71 24t-74.5 8h-31v75h36q75 0 130.5 31.5t55.5 89.5q0 45 -35 71t-94 26q-89 0 -176 -58l-38 57q103 75 225 75q97 0 150.5 -47.5t53.5 -116.5q0 -51 -33 -94.5t-101 -66.5q73 -18 119.5 -69
t46.5 -120q0 -86 -62.5 -147t-180.5 -61q-75 0 -142 23t-108 49z" />
    <glyph glyph-name="three.tnum" horiz-adv-x="630" 
d="M57 61l40 63q101 -61 200 -61q72 0 119 36.5t47 97.5q0 39 -21 69t-55.5 46t-71 24t-74.5 8h-31v75h36q75 0 130 31.5t55 89.5q0 45 -34.5 71t-94.5 26q-88 0 -175 -58l-38 57q18 14 42 27.5t77 30.5t106 17q97 0 150.5 -47.5t53.5 -116.5q0 -51 -33 -94.5t-101 -66.5
q73 -18 119.5 -69t46.5 -120q0 -86 -62.5 -147t-180.5 -61q-134 0 -250 72z" />
    <glyph glyph-name="Ginferior" horiz-adv-x="466" 
d="M349 -150v47q-67 -54 -132 -54q-73 0 -122 55.5t-49 161.5q0 107 49.5 162t127.5 55t182 -65l-33 -48q-31 18 -45.5 25.5t-44 18t-53.5 10.5q-52 0 -83.5 -42.5t-31.5 -115.5q0 -74 31 -117t84 -43q56 0 120 56v74h-116v53h180v-233h-64z" />
    <glyph glyph-name="threeeighths.onum" horiz-adv-x="842" 
d="M501 90q0 61 90 96q-67 32 -67 80q0 38 34 61t90 23q55 0 89 -23.5t34 -60.5q0 -49 -68 -80q90 -35 90 -96q0 -44 -40 -70t-105 -26t-106 26t-41 70zM48 262l26 38q50 -31 110 -31q37 0 61.5 16.5t24.5 42.5q0 34 -37 49.5t-82 15.5h-17v46h19q40 0 69 13.5t29 39.5
q0 20 -17 31t-48 11q-49 0 -97 -29l-24 35q58 40 129 40q54 0 84 -24t30 -59q0 -55 -71 -77q39 -9 63.5 -34t24.5 -58q0 -43 -34 -73.5t-100 -30.5q-80 0 -143 38zM596 574l-290 -574h-59l290 574h59zM736 93q0 43 -89 73q-89 -30 -89 -73q0 -26 25.5 -41t64.5 -15
q38 0 63 15t25 41zM578 260q0 -35 69 -56q68 21 68 56q0 20 -19 34.5t-48 14.5q-30 0 -50 -14.5t-20 -34.5z" />
    <glyph glyph-name="threefifths" horiz-adv-x="952" 
d="M603 211l23 209h252v-55h-199l-9 -110q37 14 75 14q69 0 110 -39t41 -96q0 -58 -42 -99.5t-119 -41.5q-73 0 -151 46l30 49q52 -38 113 -38q42 0 71.5 23t29.5 60q0 35 -26 59t-71 24t-92 -25zM45 320l31 45q63 -37 127 -37q42 0 69 19.5t27 52.5q0 41 -41.5 60t-93.5 19
h-21v56h24q45 0 79 16.5t34 48.5q0 24 -20 38t-55 14q-52 0 -112 -35l-28 41q11 9 28 18.5t51.5 20t69.5 10.5q63 0 97.5 -29t34.5 -71q0 -30 -20.5 -55.5t-60.5 -39.5q44 -12 72 -42t28 -70q0 -53 -39 -90t-116 -37q-84 0 -165 47zM678 700l-333 -700h-70l333 700h70z" />
    <glyph glyph-name="threefifths.onum" horiz-adv-x="840" 
d="M531 173l21 171h217v-45h-172l-8 -90q31 12 64 12q61 0 96.5 -32.5t35.5 -78.5q0 -48 -36.5 -82t-102.5 -34q-61 0 -131 38l25 40q50 -31 99 -31q37 0 62.5 19t25.5 50q0 29 -22.5 48t-62.5 19q-43 0 -80 -21zM48 262l26 38q50 -31 110 -31q37 0 61.5 16.5t24.5 42.5
q0 34 -37 49.5t-82 15.5h-17v46h19q40 0 69 13.5t29 39.5q0 20 -17 31t-48 11q-49 0 -97 -29l-24 35q58 40 129 40q54 0 84 -24t30 -59q0 -55 -71 -77q39 -9 63.5 -34t24.5 -58q0 -43 -34 -73.5t-100 -30.5q-80 0 -143 38zM596 574l-290 -574h-59l290 574h59z" />
    <glyph glyph-name="Gdotaccent.sc" horiz-adv-x="626" 
d="M479 0v66q-92 -75 -184 -75q-101 0 -168.5 75t-67.5 221q0 147 68 221.5t174 74.5q110 0 247 -89l-43 -59q-123 75 -197 75q-75 0 -120 -59.5t-45 -163.5t45 -165t120 -61q78 0 171 79v110h-164v66h243v-316h-79zM267 634v93h83v-93h-83z" />
    <glyph glyph-name="Gcommaaccent.sc" horiz-adv-x="626" 
d="M479 0v66q-92 -75 -184 -75q-101 0 -168.5 75t-67.5 221q0 147 68 221.5t174 74.5q110 0 247 -89l-43 -59q-123 75 -197 75q-75 0 -120 -59.5t-45 -163.5t45 -165t120 -61q78 0 171 79v110h-164v66h243v-316h-79zM283 -160v97h80l10 -101l-71 -108l-25 26l44 86h-38z" />
    <glyph glyph-name="threequarters.onum" horiz-adv-x="820" 
d="M662 0v73h-200v39l183 232h72v-226h60v-45h-60v-73h-55zM48 262l26 38q50 -31 110 -31q37 0 61.5 16.5t24.5 42.5q0 34 -37 49.5t-82 15.5h-17v46h19q40 0 69 13.5t29 39.5q0 20 -17 31t-48 11q-49 0 -97 -29l-24 35q58 40 129 40q54 0 84 -24t30 -59q0 -55 -71 -77
q39 -9 63.5 -34t24.5 -58q0 -43 -34 -73.5t-100 -30.5q-80 0 -143 38zM596 574l-290 -574h-59l290 574h59zM523 118h139v182z" />
    <glyph glyph-name="Gbreve.sc" horiz-adv-x="626" 
d="M479 0v66q-92 -75 -184 -75q-101 0 -168.5 75t-67.5 221q0 147 68 221.5t174 74.5q110 0 247 -89l-43 -59q-123 75 -197 75q-75 0 -120 -59.5t-45 -163.5t45 -165t120 -61q78 0 171 79v110h-164v66h243v-316h-79zM307 624q-67 0 -104.5 28.5t-37.5 78.5h59q0 -53 83 -53
q84 0 84 53h59q0 -50 -38 -78.5t-105 -28.5z" />
    <glyph glyph-name="G.sc" horiz-adv-x="626" 
d="M479 0v66q-92 -75 -184 -75q-101 0 -168.5 75t-67.5 221q0 147 68 221.5t174 74.5q110 0 247 -89l-43 -59q-123 75 -197 75q-75 0 -120 -59.5t-45 -163.5t45 -165t120 -61q78 0 171 79v110h-164v66h243v-316h-79z" />
    <glyph glyph-name="tinferior" horiz-adv-x="270" 
d="M25 117v48h45v79l65 12v-91h90v-48h-90v-187q0 -32 29 -32q22 0 59 15l24 -47q-56 -23 -96 -23q-81 0 -81 89v185h-45z" />
    <glyph glyph-name="Fsuperior" horiz-adv-x="385" 
d="M354 749h-222v-127h177v-54h-177v-183h-66v420h288v-56z" />
    <glyph glyph-name="Finferior" horiz-adv-x="385" 
d="M354 214h-222v-127h177v-54h-177v-183h-66v420h288v-56z" />
    <glyph glyph-name="F.sc" horiz-adv-x="514" 
d="M479 505h-310v-184h247v-68h-247v-253h-81v574h391v-69z" />
    <glyph glyph-name="two.dnom" horiz-adv-x="392" 
d="M346 55v-55h-307v36q0 31 10.5 56.5t35 48t41.5 34.5t53 35t52 34t32 30.5t16 39.5q0 25 -21.5 41.5t-58.5 16.5q-60 0 -117 -39l-31 43q77 51 155 51q64 0 101.5 -30.5t37.5 -80.5q0 -27 -10 -49.5t-34.5 -44t-39 -31t-51.5 -31.5q-9 -5 -13 -8q-42 -25 -61.5 -46
t-19.5 -51h230z" />
    <glyph glyph-name="two.numr" horiz-adv-x="392" 
d="M346 335v-55h-307v36q0 31 10.5 56.5t35 48t41.5 34.5t53 35t52 34t32 30.5t16 39.5q0 25 -21.5 41.5t-58.5 16.5q-60 0 -117 -39l-31 43q77 51 155 51q64 0 101.5 -30.5t37.5 -80.5q0 -27 -10 -49.5t-34.5 -44t-39 -31t-51.5 -31.5q-9 -5 -13 -8q-42 -25 -61.5 -46
t-19.5 -51h230z" />
    <glyph glyph-name="two.onum" horiz-adv-x="582" 
d="M53 0v54q0 40 16 73.5t48.5 60t62 44.5t75.5 40q106 50 135 73q43 34 43 74q0 45 -34.5 68.5t-94.5 23.5q-100 0 -191 -63l-41 58q114 77 236 77q97 0 153.5 -41.5t56.5 -119.5q0 -23 -7 -44.5t-16 -37.5t-28.5 -33t-34 -28t-43 -26t-45 -23l-50.5 -24q-77 -37 -110 -64
t-38 -70h373v-72h-466z" />
    <glyph glyph-name="two.tnum" horiz-adv-x="630" 
d="M544 74v-74h-470v55q0 114 98 200q32 28 124 90q42 28 63 43.5t47.5 40.5t38 49t11.5 51q0 48 -36 78t-100 30q-97 0 -186 -63l-42 59q113 78 235 78q99 0 157.5 -49.5t58.5 -130.5q0 -22 -3.5 -41.5t-14 -38.5l-18.5 -33.5t-27 -32.5l-28.5 -27.5t-35 -28l-35 -25
l-39.5 -26l-38 -24.5q-71 -47 -102.5 -84t-31.5 -96h374z" />
    <glyph glyph-name="twofifths" horiz-adv-x="973" 
d="M625 211l24 209h251v-55h-197l-9 -110q35 14 73 14q70 0 110.5 -39t40.5 -96q0 -58 -41.5 -99.5t-118.5 -41.5q-73 0 -151 46l30 49q52 -38 113 -38q41 0 70.5 23t29.5 60q0 36 -25.5 59.5t-71.5 23.5q-43 0 -91 -25zM360 335v-55h-306v36q0 31 10.5 56.5t34.5 48
t41.5 35t52.5 34.5q36 23 52 34t32 30.5t16 39.5q0 26 -21 42t-59 16q-61 0 -116 -39l-31 43q74 51 154 51q65 0 102.5 -30.5t37.5 -80.5q0 -12 -2.5 -23.5t-5.5 -20.5t-11 -19.5t-12.5 -17t-17 -16.5t-17.5 -14.5t-20 -14.5t-19.5 -12.5t-22 -13t-20.5 -12.5
q-43 -25 -62.5 -46t-19.5 -51h230zM701 700l-334 -700h-70l334 700h70z" />
    <glyph glyph-name="twofifths.onum" horiz-adv-x="857" 
d="M550 173l20 171h217v-45h-172l-9 -90q31 12 65 12q60 0 96 -32.5t36 -78.5q0 -48 -36.5 -82t-103.5 -34q-63 0 -130 38l24 40q54 -31 99 -31q37 0 63 19t26 50q0 29 -22.5 48t-62.5 19q-41 0 -81 -21zM319 275v-45h-265v30q0 25 9 46t30 39t36 28.5t46 28.5q33 19 46 28
t27.5 25t14.5 32q0 21 -19 34t-53 13q-52 0 -101 -31l-25 35q62 42 132 42q56 0 89 -25.5t33 -66.5q0 -11 -2 -20.5t-8 -19t-10 -16.5t-14.5 -16l-15.5 -13.5t-19.5 -13t-19 -11.5t-21.5 -12.5t-20 -11.5q-37 -21 -54 -37.5t-17 -41.5h201zM614 574l-291 -574h-58l290 574
h59z" />
    <glyph glyph-name="Eurosuperior" horiz-adv-x="465" 
d="M38 624v34h43q14 76 60 115t111 39q70 0 175 -61l-33 -48q-85 50 -136 50q-39 0 -67 -25t-40 -70h169v-34h-175q-1 -9 -1 -29q0 -22 1 -32h175v-34h-168q12 -44 40 -68t66 -24q51 0 136 50l33 -48q-102 -61 -175 -61q-64 0 -110 38t-60 113h-44v34h39q-1 10 -1 32
q0 19 1 29h-39z" />
    <glyph glyph-name="Euroinferior" horiz-adv-x="465" 
d="M38 89v34h43q14 76 60 115t111 39q70 0 175 -61l-33 -48q-85 50 -136 50q-39 0 -67 -25t-40 -70h169v-34h-175q-1 -9 -1 -29q0 -22 1 -32h175v-34h-168q12 -44 40 -68t66 -24q51 0 136 50l33 -48q-102 -61 -175 -61q-64 0 -110 38.5t-60 112.5h-44v34h39q-1 10 -1 32
q0 19 1 29h-39z" />
    <glyph glyph-name="Euro.onum" horiz-adv-x="640" 
d="M53 328v44h59q19 105 82 158t151 53q98 0 237 -84l-41 -58q-117 70 -189 70q-57 0 -98 -36.5t-57 -102.5h243v-44h-250q-2 -13 -2 -41q0 -18 2 -46h250v-44h-241q16 -64 56.5 -99t96.5 -35q72 0 189 70l41 -58q-135 -84 -237 -84q-87 0 -150 51.5t-82 154.5h-60v44h54
q-2 14 -2 46q0 15 2 41h-54z" />
    <glyph glyph-name="twothirds.onum" horiz-adv-x="853" 
d="M319 275v-45h-265v30q0 25 9 46t30.5 39.5t35.5 28t46 28.5q33 19 46 28t27.5 25t14.5 32q0 21 -19 34t-52 13q-52 0 -101 -31l-26 35q64 42 133 42q56 0 88.5 -25.5t32.5 -66.5q0 -11 -2 -20.5t-8 -19t-10 -16.5t-14.5 -16l-15.5 -13.5t-19.5 -13t-19 -11.5t-21.5 -12.5
t-20 -11.5q-37 -21 -54 -37.5t-17 -41.5h201zM614 574l-291 -574h-58l290 574h59zM525 32l27 38q51 -30 110 -30q37 0 61 16t24 43q0 34 -36 49t-82 15h-18v46h21q39 0 68.5 13.5t29.5 39.5q0 20 -17.5 31.5t-47.5 11.5q-48 0 -98 -29l-24 34q58 40 128 40q55 0 85 -24
t30 -58q0 -54 -71 -78q39 -9 63.5 -33.5t24.5 -58.5q0 -43 -34 -73.5t-101 -30.5q-70 0 -143 38z" />
    <glyph glyph-name="Eth.sc" horiz-adv-x="635" 
d="M576 287q0 -287 -289 -287h-191v254h-65v66h65v254h191q289 0 289 -287zM494 287q0 115 -51 166t-162 51h-104v-184h144v-66h-144v-185h104q110 0 161.5 51.5t51.5 166.5z" />
    <glyph glyph-name="Esuperior" horiz-adv-x="401" 
d="M358 385h-292v420h288v-56h-222v-127h184v-54h-184v-128h226v-55z" />
    <glyph glyph-name="Eogonek.sc" horiz-adv-x="538" 
d="M383 -96q0 -8 2.5 -14t5.5 -9.5t10 -6.5t11 -4.5t13 -2t13 -0.5h13.5h10.5l-10 -50q-23 0 -37.5 1.5t-41 7.5t-41 23.5t-14.5 45.5q0 58 100 105h-330v574h391v-69h-310v-184h256v-68h-256v-185h315v-68h-3q-64 -37 -82 -58q-16 -19 -16 -38z" />
    <glyph glyph-name="Eng.sc" horiz-adv-x="651" 
d="M562 574v-544q0 -39 -3 -57.5t-18.5 -39t-47 -33.5t-88.5 -26l-27 62q59 16 78 28t23 35l-310 463v-462h-81v574h85l308 -463v463h81z" />
    </font>
</defs>
</svg>
